M48
;Layer_Color=9474304
;FILE_FORMAT=2:5
INCH,LZ
;TYPE=PLATED
T1F00S00C0.00984
T2F00S00C0.01181
T3F00S00C0.02953
T4F00S00C0.04331
T5F00S00C0.05118
T6F00S00C0.11811
;TYPE=NON_PLATED
T7F00S00C0.11811
%
T01
X0026987Y0012401
X0149449Y0043307
X0204153Y0012401
X0326614Y0043307
X0326614Y0082677
X0319291Y0088582
X0312598Y0095078
X0313976Y0072835
X0298862Y0108902
X0299211Y0139766
X0296849Y0142128
X030866Y0153939
X0311022Y0151576
X0321496Y0161181
X0319134Y0163543
X0326929Y0155748
X0329291Y0153386
X0332677Y0130709
X0335866Y0128307
X0342124Y0127561
X0347636Y0137797
X034803Y0114569
X0338581Y0100395
X0336219Y0102758
X0281145Y0126618
X0259453Y0127949
X0249208Y0138193
X0242635Y0134352
X0261219Y015571
X0263581Y0153348
X0266929Y0189389
X0253937Y0191929
Y0195866
X024941Y0193701
X0244882
X0240354
X0242717Y0191339
X0247047
X0244882Y0188583
X024941
X0240354
X0242717Y0196457
X0247047
Y0209055
X0242717
X0244882Y0211811
X0242717Y0214173
X0247047
X024941Y0211811
Y0216929
X0244882
X0240354
Y0211811
X0234646Y0200787
X0234037Y0193898
X0230493Y0185039
Y0181102
X0220472Y0189961
X0284658Y0195898
X0283435Y0199122
X0296023Y0187441
X0298386Y0185079
X0224664Y0110869
X0231735Y0103798
X0232265Y0092519
X0242913Y0088308
X0257055Y0074166
X0264127Y0067095
X0191929Y0114093
X0186024Y0114745
X0182087
X0170864Y0114569
X0164959Y0127561
X0158701Y0128307
X0155512Y0130709
X0170471Y0137797
X0152126Y0153386
X0149764Y0155748
X0144331Y0161181
X0141969Y0163543
X0131494Y0153939
X0133857Y0151576
X0119683Y0142128
X0122046Y0139766
X010398Y0126618
X0082287Y0127949
X0072043Y0138193
X006547Y0134352
X0084053Y015571
X0086416Y0153348
X0089763Y0189389
X0076772Y0191929
Y0195866
X0072244Y0193701
X0067716
X0063189
X0065551Y0191339
X0069882
X0067716Y0188583
X0072244
X0063189
X0065551Y0196457
X0069882
Y0209055
X0065551
X0067716Y0211811
X0065551Y0214173
X0069882
X0072244Y0211811
Y0216929
X0067716
X0063189
Y0211811
X0106269Y0199122
X0107492Y0195898
X0118858Y0187441
X012122Y0185079
X0121696Y0108902
X0135432Y0095078
X0142125Y0088582
X0149449Y0082677
X0136811Y0072835
X0161416Y0100395
X0159053Y0102758
X0086961Y0067095
X007989Y0074166
X0065748Y0088308
X0188601Y0199016
X0195651Y0206496
X0188601Y0218701
X005748Y0200787
X0056872Y0193898
X0053328Y0185039
Y0181102
X0043307Y0189961
X0011436Y0199016
X0018486Y0206496
X0011436Y0218701
X0008858Y0114745
X0004921
X0014763Y0114093
X0047499Y0110869
X005457Y0103798
X0055099Y0092519
X0054921Y0228919
X0050984
X0056872Y0237205
X005748Y0244094
X0054921Y0272226
X0050984
X0030512Y0239173
X0018486Y0226181
X0063189Y0226772
X0067716
X0065551Y0224409
X0069882
X0072244Y0226772
X0069882Y0229528
X0065551
X0067716Y023189
X0072244
X0069882Y0234646
X0065551
X0067716Y0237008
X0063189
Y023189
X0065551Y0239764
X0069882
X0072244Y0237008
X0076772Y0235236
Y0239173
X0078543Y0228919
X008248
X0089763Y0232697
X0087795Y0220079
X0094273Y0249015
X0097244Y0253543
X0106084Y0249213
X0121832
X0140504Y0247936
Y0251873
X0141223Y0257677
X0069882Y025748
X0065551
X0067716Y0255118
X0063189
X0065551Y0252362
X0069882
X0072244Y0255118
Y0266929
X0067716
X0065551Y0269291
X0069882
X0063189Y0266929
X0078543Y0272226
X008248
X0207677Y0239173
X0195651Y0226181
X022815Y0228919
X0232087
X0234037Y0237205
X0240354Y0237008
X0244882
X024941
X0247047Y0234646
X0242717
X0244882Y023189
X0242717Y0229528
X0247047
X024941Y023189
Y0226772
X0244882
X0242717Y0224409
X0247047
X0240354Y0226772
Y023189
X0242717Y0239764
X0247047
X0253937Y0239173
Y0235236
X0255709Y0228919
X0259646
X0266929Y0232697
X0264961Y0220079
X0271438Y0249015
X0274409Y0253543
X0283249Y0249213
X0298997
X0317669Y0247936
Y0251873
X0318388Y0257677
X0247047Y025748
X0242717
X0244882Y0255118
X0240354
X0242717Y0252362
X0247047
X024941Y0255118
Y0266929
X0244882
X0242717Y0269291
X0247047
X0240354Y0266929
X0232087Y0272226
X022815
X0255709
X0259646
X0234646Y0244094
T02
X0242913Y0199803
X024685
X0244882Y0202756
X024685Y0205709
X0242913
X0069685
X0065748
X0067716Y0202756
X0069685Y0199803
X0065748
Y024311
X0069685
X0067716Y0246063
X0069685Y0249016
X0065748
X0242913
X024685
X0244882Y0246063
X024685Y024311
X0242913
T03
X0017717Y024311
X0037402
X0194882
X0214567
T04
X0141754Y0028237
X0135326Y0035897
X0128899Y0043558
X0122471Y0051218
X0116043Y0058879
X0293208
X0299636Y0051218
X0306064Y0043558
X0312492Y0035897
X031892Y0028237
X028678Y0066539
X0209646Y0158465
X0203218Y0166125
X019679Y0173785
X0190362Y0181446
X0109615Y0066539
X003248Y0158465
X0026052Y0166125
X0019625Y0173785
X0013197Y0181446
T05
X0039698Y0054462
X0048885
X0216863
X022605
Y0063648
X0216863
X0305446Y0211942
X0314633
X0137468
X0128281
X0048885Y0063648
X0039698
X0128281Y0221129
X0137468
X0305446
X0314633
T06
X0019685Y0059055
X0068898
X019685
X0246063
X0285433Y0216535
X0334646
X015748
X0108268
T07
X0014173Y-0027559
X0123622Y-0027559
X0230709Y-0027559
X0340157Y-0027559
M30
