G04*
G04 #@! TF.GenerationSoftware,Altium Limited,Altium Designer,23.5.0 (17)*
G04*
G04 Layer_Color=8388736*
%FSLAX25Y25*%
%MOIN*%
G70*
G04*
G04 #@! TF.SameCoordinates,B4EA8652-FAED-489D-AB06-0C51CEF096E7*
G04*
G04*
G04 #@! TF.FilePolarity,Positive*
G04*
G01*
G75*
%ADD10C,0.01575*%
%ADD11C,0.00591*%
%ADD13C,0.00984*%
%ADD39C,0.00787*%
%ADD96C,0.01000*%
%ADD97C,0.00600*%
G36*
X1027713Y-295322D02*
X1029431D01*
Y-295608D01*
X1030290D01*
Y-295894D01*
X1031149D01*
Y-296181D01*
X1032008D01*
Y-296467D01*
X1032580D01*
Y-296753D01*
X1032867D01*
Y-297040D01*
X1033439D01*
Y-297326D01*
X1033726D01*
Y-297612D01*
X1034298D01*
Y-297899D01*
X1034585D01*
Y-298185D01*
X1034871D01*
Y-298471D01*
X1035157D01*
Y-298758D01*
X1035444D01*
Y-299044D01*
X1035730D01*
Y-299330D01*
X1036016D01*
Y-299616D01*
Y-299903D01*
X1036302D01*
Y-300189D01*
X1036589D01*
Y-300475D01*
Y-300762D01*
X1036875D01*
Y-301048D01*
X1037162D01*
Y-301334D01*
Y-301621D01*
X1037448D01*
Y-301907D01*
Y-302193D01*
Y-302480D01*
X1037734D01*
Y-302766D01*
Y-303052D01*
Y-303339D01*
X1038020D01*
Y-303625D01*
Y-303911D01*
Y-304197D01*
Y-304484D01*
X1038307D01*
Y-304770D01*
Y-305056D01*
Y-305343D01*
Y-305629D01*
Y-305915D01*
X1038593D01*
Y-306202D01*
Y-306488D01*
Y-306774D01*
Y-307061D01*
Y-307347D01*
Y-307633D01*
Y-307920D01*
Y-308206D01*
Y-308492D01*
Y-308778D01*
Y-309065D01*
Y-309351D01*
Y-309637D01*
Y-309924D01*
Y-310210D01*
Y-310496D01*
Y-310783D01*
Y-311069D01*
Y-311355D01*
Y-311642D01*
X1038307D01*
Y-311928D01*
Y-312214D01*
Y-312501D01*
Y-312787D01*
Y-313073D01*
Y-313359D01*
Y-313646D01*
X1038020D01*
Y-313932D01*
Y-314218D01*
Y-314505D01*
Y-314791D01*
Y-315077D01*
X1037734D01*
Y-315364D01*
Y-315650D01*
Y-315936D01*
Y-316223D01*
Y-316509D01*
X1037448D01*
Y-316795D01*
Y-317081D01*
Y-317368D01*
X1037162D01*
Y-317654D01*
Y-317940D01*
Y-318227D01*
Y-318513D01*
X1036875D01*
Y-318799D01*
Y-319086D01*
Y-319372D01*
X1036589D01*
Y-319658D01*
Y-319945D01*
X1036302D01*
Y-320231D01*
Y-320517D01*
Y-320803D01*
X1036016D01*
Y-321090D01*
Y-321376D01*
X1035730D01*
Y-321662D01*
Y-321949D01*
X1035444D01*
Y-322235D01*
Y-322521D01*
X1035157D01*
Y-322808D01*
X1034871D01*
Y-323094D01*
Y-323380D01*
X1034585D01*
Y-323667D01*
X1034298D01*
Y-323953D01*
X1034012D01*
Y-324239D01*
Y-324526D01*
X1033726D01*
Y-324812D01*
X1033439D01*
Y-325098D01*
X1033153D01*
Y-325384D01*
X1032867D01*
Y-325671D01*
X1032580D01*
Y-325957D01*
X1032008D01*
Y-326243D01*
X1031722D01*
Y-326530D01*
X1031149D01*
Y-326816D01*
X1030863D01*
Y-327102D01*
X1030290D01*
Y-327389D01*
X1029431D01*
Y-327675D01*
X1028572D01*
Y-327961D01*
X1027713D01*
Y-328248D01*
X1025995D01*
Y-328534D01*
X1020842D01*
Y-328248D01*
X1018265D01*
Y-327961D01*
X1016261D01*
Y-327675D01*
X1014829D01*
Y-327389D01*
X1013398D01*
Y-327102D01*
X1011966D01*
Y-327389D01*
Y-327675D01*
Y-327961D01*
Y-328248D01*
Y-328534D01*
Y-328820D01*
Y-329107D01*
X1011680D01*
Y-329393D01*
Y-329679D01*
Y-329965D01*
Y-330252D01*
Y-330538D01*
Y-330824D01*
X1011393D01*
Y-331111D01*
Y-331397D01*
Y-331683D01*
Y-331970D01*
Y-332256D01*
Y-332542D01*
X1011107D01*
Y-332829D01*
Y-333115D01*
Y-333401D01*
Y-333688D01*
Y-333974D01*
Y-334260D01*
Y-334547D01*
X1010821D01*
Y-334833D01*
Y-335119D01*
Y-335405D01*
Y-335692D01*
Y-335978D01*
Y-336264D01*
X1010534D01*
Y-336551D01*
Y-336837D01*
Y-337123D01*
Y-337410D01*
Y-337696D01*
Y-337982D01*
X1010248D01*
Y-338269D01*
Y-338555D01*
Y-338841D01*
Y-339128D01*
Y-339414D01*
Y-339700D01*
Y-339986D01*
X1009962D01*
Y-340273D01*
Y-340559D01*
Y-340845D01*
Y-341132D01*
Y-341418D01*
Y-341704D01*
X1009676D01*
Y-341991D01*
Y-342277D01*
Y-342563D01*
Y-342850D01*
Y-343136D01*
Y-343422D01*
X1009389D01*
Y-343709D01*
Y-343995D01*
Y-344281D01*
Y-344567D01*
Y-344854D01*
Y-345140D01*
Y-345427D01*
X995932D01*
Y-345140D01*
X996219D01*
Y-344854D01*
Y-344567D01*
Y-344281D01*
Y-343995D01*
Y-343709D01*
X996505D01*
Y-343422D01*
Y-343136D01*
Y-342850D01*
Y-342563D01*
Y-342277D01*
Y-341991D01*
Y-341704D01*
X996791D01*
Y-341418D01*
Y-341132D01*
Y-340845D01*
Y-340559D01*
Y-340273D01*
Y-339986D01*
X997078D01*
Y-339700D01*
Y-339414D01*
Y-339128D01*
Y-338841D01*
Y-338555D01*
Y-338269D01*
X997364D01*
Y-337982D01*
Y-337696D01*
Y-337410D01*
Y-337123D01*
Y-336837D01*
Y-336551D01*
Y-336264D01*
X997650D01*
Y-335978D01*
Y-335692D01*
Y-335405D01*
Y-335119D01*
Y-334833D01*
Y-334547D01*
X997937D01*
Y-334260D01*
Y-333974D01*
Y-333688D01*
Y-333401D01*
Y-333115D01*
Y-332829D01*
X998223D01*
Y-332542D01*
Y-332256D01*
Y-331970D01*
Y-331683D01*
Y-331397D01*
Y-331111D01*
X998509D01*
Y-330824D01*
Y-330538D01*
Y-330252D01*
Y-329965D01*
Y-329679D01*
Y-329393D01*
Y-329107D01*
X998796D01*
Y-328820D01*
Y-328534D01*
Y-328248D01*
Y-327961D01*
Y-327675D01*
Y-327389D01*
X999082D01*
Y-327102D01*
Y-326816D01*
Y-326530D01*
Y-326243D01*
Y-325957D01*
Y-325671D01*
X999368D01*
Y-325384D01*
Y-325098D01*
Y-324812D01*
Y-324526D01*
Y-324239D01*
Y-323953D01*
X999654D01*
Y-323667D01*
Y-323380D01*
Y-323094D01*
Y-322808D01*
Y-322521D01*
Y-322235D01*
Y-321949D01*
X999941D01*
Y-321662D01*
Y-321376D01*
Y-321090D01*
Y-320803D01*
Y-320517D01*
Y-320231D01*
X1000227D01*
Y-319945D01*
Y-319658D01*
Y-319372D01*
Y-319086D01*
Y-318799D01*
Y-318513D01*
X1000513D01*
Y-318227D01*
Y-317940D01*
Y-317654D01*
Y-317368D01*
Y-317081D01*
Y-316795D01*
Y-316509D01*
X1000800D01*
Y-316223D01*
Y-315936D01*
Y-315650D01*
Y-315364D01*
Y-315077D01*
Y-314791D01*
X1001086D01*
Y-314505D01*
Y-314218D01*
Y-313932D01*
Y-313646D01*
Y-313359D01*
Y-313073D01*
X1001372D01*
Y-312787D01*
Y-312501D01*
Y-312214D01*
Y-311928D01*
Y-311642D01*
Y-311355D01*
X1001659D01*
Y-311069D01*
Y-310783D01*
Y-310496D01*
Y-310210D01*
Y-309924D01*
Y-309637D01*
Y-309351D01*
X1001945D01*
Y-309065D01*
Y-308778D01*
Y-308492D01*
Y-308206D01*
Y-307920D01*
Y-307633D01*
X1002231D01*
Y-307347D01*
Y-307061D01*
Y-306774D01*
Y-306488D01*
Y-306202D01*
Y-305915D01*
X1002518D01*
Y-305629D01*
Y-305343D01*
Y-305056D01*
Y-304770D01*
Y-304484D01*
Y-304197D01*
Y-303911D01*
X1002804D01*
Y-303625D01*
Y-303339D01*
Y-303052D01*
Y-302766D01*
Y-302480D01*
Y-302193D01*
X1003090D01*
Y-301907D01*
Y-301621D01*
Y-301334D01*
Y-301048D01*
Y-300762D01*
Y-300475D01*
X1003377D01*
Y-300189D01*
Y-299903D01*
Y-299616D01*
Y-299330D01*
Y-299044D01*
Y-298758D01*
Y-298471D01*
X1003663D01*
Y-298185D01*
Y-297899D01*
Y-297612D01*
Y-297326D01*
Y-297040D01*
Y-296753D01*
X1003949D01*
Y-296467D01*
Y-296181D01*
Y-295894D01*
Y-295608D01*
Y-295322D01*
Y-295035D01*
X1027713D01*
Y-295322D01*
D02*
G37*
G36*
X1058921Y-291886D02*
Y-292172D01*
X1058635D01*
Y-292459D01*
Y-292745D01*
Y-293031D01*
Y-293318D01*
Y-293604D01*
Y-293890D01*
X1058349D01*
Y-294177D01*
Y-294463D01*
Y-294749D01*
Y-295035D01*
Y-295322D01*
Y-295608D01*
X1058062D01*
Y-295894D01*
Y-296181D01*
Y-296467D01*
Y-296753D01*
Y-297040D01*
Y-297326D01*
Y-297612D01*
X1057776D01*
Y-297899D01*
Y-298185D01*
Y-298471D01*
Y-298758D01*
Y-299044D01*
Y-299330D01*
X1057490D01*
Y-299616D01*
Y-299903D01*
Y-300189D01*
Y-300475D01*
Y-300762D01*
Y-301048D01*
X1057203D01*
Y-301334D01*
Y-301621D01*
Y-301907D01*
Y-302193D01*
Y-302480D01*
Y-302766D01*
Y-303052D01*
X1056917D01*
Y-303339D01*
Y-303625D01*
Y-303911D01*
Y-304197D01*
Y-304484D01*
Y-304770D01*
X1056631D01*
Y-305056D01*
Y-305343D01*
Y-305629D01*
Y-305915D01*
Y-306202D01*
Y-306488D01*
X1056344D01*
Y-306774D01*
Y-307061D01*
Y-307347D01*
Y-307633D01*
Y-307920D01*
Y-308206D01*
X1056058D01*
Y-308492D01*
Y-308778D01*
Y-309065D01*
Y-309351D01*
Y-309637D01*
Y-309924D01*
Y-310210D01*
X1055772D01*
Y-310496D01*
Y-310783D01*
Y-311069D01*
Y-311355D01*
Y-311642D01*
Y-311928D01*
X1055486D01*
Y-312214D01*
Y-312501D01*
X1056058D01*
Y-312214D01*
X1056344D01*
Y-311928D01*
X1056631D01*
Y-311642D01*
X1057203D01*
Y-311355D01*
X1057490D01*
Y-311069D01*
X1057776D01*
Y-310783D01*
X1058349D01*
Y-310496D01*
X1058921D01*
Y-310210D01*
X1059208D01*
Y-309924D01*
X1059780D01*
Y-309637D01*
X1060639D01*
Y-309351D01*
X1061212D01*
Y-309065D01*
X1062071D01*
Y-308778D01*
X1063502D01*
Y-308492D01*
X1069801D01*
Y-308778D01*
X1070946D01*
Y-309065D01*
X1071805D01*
Y-309351D01*
X1072378D01*
Y-309637D01*
X1072664D01*
Y-309924D01*
X1073237D01*
Y-310210D01*
X1073523D01*
Y-310496D01*
X1073810D01*
Y-310783D01*
X1074096D01*
Y-311069D01*
X1074382D01*
Y-311355D01*
Y-311642D01*
X1074669D01*
Y-311928D01*
Y-312214D01*
X1074955D01*
Y-312501D01*
Y-312787D01*
Y-313073D01*
X1075241D01*
Y-313359D01*
Y-313646D01*
Y-313932D01*
Y-314218D01*
X1075527D01*
Y-314505D01*
Y-314791D01*
Y-315077D01*
Y-315364D01*
Y-315650D01*
Y-315936D01*
Y-316223D01*
Y-316509D01*
Y-316795D01*
Y-317081D01*
Y-317368D01*
Y-317654D01*
Y-317940D01*
Y-318227D01*
Y-318513D01*
Y-318799D01*
Y-319086D01*
Y-319372D01*
X1075241D01*
Y-319658D01*
Y-319945D01*
Y-320231D01*
Y-320517D01*
Y-320803D01*
Y-321090D01*
Y-321376D01*
X1074955D01*
Y-321662D01*
Y-321949D01*
Y-322235D01*
Y-322521D01*
Y-322808D01*
Y-323094D01*
Y-323380D01*
X1074669D01*
Y-323667D01*
Y-323953D01*
Y-324239D01*
Y-324526D01*
Y-324812D01*
Y-325098D01*
X1074382D01*
Y-325384D01*
Y-325671D01*
Y-325957D01*
Y-326243D01*
Y-326530D01*
Y-326816D01*
X1074096D01*
Y-327102D01*
Y-327389D01*
Y-327675D01*
Y-327961D01*
Y-328248D01*
Y-328534D01*
X1073810D01*
Y-328820D01*
Y-329107D01*
Y-329393D01*
Y-329679D01*
Y-329965D01*
Y-330252D01*
Y-330538D01*
X1073523D01*
Y-330824D01*
Y-331111D01*
Y-331397D01*
Y-331683D01*
Y-331970D01*
Y-332256D01*
X1073237D01*
Y-332542D01*
Y-332829D01*
Y-333115D01*
Y-333401D01*
Y-333688D01*
Y-333974D01*
X1072951D01*
Y-334260D01*
Y-334547D01*
Y-334833D01*
Y-335119D01*
Y-335405D01*
Y-335692D01*
Y-335978D01*
X1072664D01*
Y-336264D01*
Y-336551D01*
Y-336837D01*
Y-337123D01*
Y-337410D01*
Y-337696D01*
X1072378D01*
Y-337982D01*
Y-338269D01*
Y-338555D01*
Y-338841D01*
Y-339128D01*
Y-339414D01*
X1072092D01*
Y-339700D01*
Y-339986D01*
Y-340273D01*
Y-340559D01*
Y-340845D01*
Y-341132D01*
X1071805D01*
Y-341418D01*
Y-341704D01*
Y-341991D01*
Y-342277D01*
Y-342563D01*
Y-342850D01*
Y-343136D01*
X1071519D01*
Y-343422D01*
Y-343709D01*
Y-343995D01*
Y-344281D01*
Y-344567D01*
Y-344854D01*
X1071233D01*
Y-345140D01*
Y-345427D01*
X1058062D01*
Y-345140D01*
Y-344854D01*
X1058349D01*
Y-344567D01*
Y-344281D01*
Y-343995D01*
Y-343709D01*
Y-343422D01*
Y-343136D01*
X1058635D01*
Y-342850D01*
Y-342563D01*
Y-342277D01*
Y-341991D01*
Y-341704D01*
Y-341418D01*
Y-341132D01*
X1058921D01*
Y-340845D01*
Y-340559D01*
Y-340273D01*
Y-339986D01*
Y-339700D01*
Y-339414D01*
X1059208D01*
Y-339128D01*
Y-338841D01*
Y-338555D01*
Y-338269D01*
Y-337982D01*
Y-337696D01*
X1059494D01*
Y-337410D01*
Y-337123D01*
Y-336837D01*
Y-336551D01*
Y-336264D01*
Y-335978D01*
Y-335692D01*
X1059780D01*
Y-335405D01*
Y-335119D01*
Y-334833D01*
Y-334547D01*
Y-334260D01*
Y-333974D01*
X1060067D01*
Y-333688D01*
Y-333401D01*
Y-333115D01*
Y-332829D01*
Y-332542D01*
Y-332256D01*
Y-331970D01*
X1060353D01*
Y-331683D01*
Y-331397D01*
Y-331111D01*
Y-330824D01*
Y-330538D01*
Y-330252D01*
X1060639D01*
Y-329965D01*
Y-329679D01*
Y-329393D01*
Y-329107D01*
Y-328820D01*
Y-328534D01*
X1060925D01*
Y-328248D01*
Y-327961D01*
Y-327675D01*
Y-327389D01*
Y-327102D01*
Y-326816D01*
X1061212D01*
Y-326530D01*
Y-326243D01*
Y-325957D01*
Y-325671D01*
Y-325384D01*
Y-325098D01*
Y-324812D01*
X1061498D01*
Y-324526D01*
Y-324239D01*
Y-323953D01*
Y-323667D01*
Y-323380D01*
Y-323094D01*
X1061784D01*
Y-322808D01*
Y-322521D01*
Y-322235D01*
Y-321949D01*
Y-321662D01*
Y-321376D01*
Y-321090D01*
X1062071D01*
Y-320803D01*
Y-320517D01*
Y-320231D01*
Y-319945D01*
Y-319658D01*
Y-319372D01*
X1061784D01*
Y-319086D01*
Y-318799D01*
X1061498D01*
Y-318513D01*
X1061212D01*
Y-318227D01*
X1060639D01*
Y-317940D01*
X1058921D01*
Y-318227D01*
X1057490D01*
Y-318513D01*
X1056631D01*
Y-318799D01*
X1056058D01*
Y-319086D01*
X1055772D01*
Y-319372D01*
X1055199D01*
Y-319658D01*
X1054913D01*
Y-319945D01*
X1054627D01*
Y-320231D01*
Y-320517D01*
X1054340D01*
Y-320803D01*
Y-321090D01*
Y-321376D01*
X1054054D01*
Y-321662D01*
Y-321949D01*
Y-322235D01*
Y-322521D01*
Y-322808D01*
Y-323094D01*
X1053768D01*
Y-323380D01*
Y-323667D01*
Y-323953D01*
Y-324239D01*
Y-324526D01*
Y-324812D01*
Y-325098D01*
X1053481D01*
Y-325384D01*
Y-325671D01*
Y-325957D01*
Y-326243D01*
Y-326530D01*
Y-326816D01*
X1053195D01*
Y-327102D01*
Y-327389D01*
Y-327675D01*
Y-327961D01*
Y-328248D01*
Y-328534D01*
X1052909D01*
Y-328820D01*
Y-329107D01*
Y-329393D01*
Y-329679D01*
Y-329965D01*
Y-330252D01*
X1052622D01*
Y-330538D01*
Y-330824D01*
Y-331111D01*
Y-331397D01*
Y-331683D01*
Y-331970D01*
Y-332256D01*
X1052336D01*
Y-332542D01*
Y-332829D01*
Y-333115D01*
Y-333401D01*
Y-333688D01*
Y-333974D01*
X1052050D01*
Y-334260D01*
Y-334547D01*
Y-334833D01*
Y-335119D01*
Y-335405D01*
Y-335692D01*
X1051763D01*
Y-335978D01*
Y-336264D01*
Y-336551D01*
Y-336837D01*
Y-337123D01*
Y-337410D01*
Y-337696D01*
X1051477D01*
Y-337982D01*
Y-338269D01*
Y-338555D01*
Y-338841D01*
Y-339128D01*
Y-339414D01*
X1051191D01*
Y-339700D01*
Y-339986D01*
Y-340273D01*
Y-340559D01*
Y-340845D01*
Y-341132D01*
X1050904D01*
Y-341418D01*
Y-341704D01*
Y-341991D01*
Y-342277D01*
Y-342563D01*
Y-342850D01*
X1050618D01*
Y-343136D01*
Y-343422D01*
Y-343709D01*
Y-343995D01*
Y-344281D01*
Y-344567D01*
Y-344854D01*
X1050332D01*
Y-345140D01*
Y-345427D01*
X1037162D01*
Y-345140D01*
Y-344854D01*
X1037448D01*
Y-344567D01*
Y-344281D01*
Y-343995D01*
Y-343709D01*
Y-343422D01*
Y-343136D01*
Y-342850D01*
X1037734D01*
Y-342563D01*
Y-342277D01*
Y-341991D01*
Y-341704D01*
Y-341418D01*
Y-341132D01*
X1038020D01*
Y-340845D01*
Y-340559D01*
Y-340273D01*
Y-339986D01*
Y-339700D01*
Y-339414D01*
X1038307D01*
Y-339128D01*
Y-338841D01*
Y-338555D01*
Y-338269D01*
Y-337982D01*
Y-337696D01*
Y-337410D01*
X1038593D01*
Y-337123D01*
Y-336837D01*
Y-336551D01*
Y-336264D01*
Y-335978D01*
Y-335692D01*
X1038879D01*
Y-335405D01*
Y-335119D01*
Y-334833D01*
Y-334547D01*
Y-334260D01*
Y-333974D01*
X1039166D01*
Y-333688D01*
Y-333401D01*
Y-333115D01*
Y-332829D01*
Y-332542D01*
Y-332256D01*
X1039452D01*
Y-331970D01*
Y-331683D01*
Y-331397D01*
Y-331111D01*
Y-330824D01*
Y-330538D01*
Y-330252D01*
X1039738D01*
Y-329965D01*
Y-329679D01*
Y-329393D01*
Y-329107D01*
Y-328820D01*
Y-328534D01*
X1040025D01*
Y-328248D01*
Y-327961D01*
Y-327675D01*
Y-327389D01*
Y-327102D01*
Y-326816D01*
X1040311D01*
Y-326530D01*
Y-326243D01*
Y-325957D01*
Y-325671D01*
Y-325384D01*
Y-325098D01*
Y-324812D01*
X1040597D01*
Y-324526D01*
Y-324239D01*
Y-323953D01*
Y-323667D01*
Y-323380D01*
Y-323094D01*
X1040884D01*
Y-322808D01*
Y-322521D01*
Y-322235D01*
Y-321949D01*
Y-321662D01*
Y-321376D01*
X1041170D01*
Y-321090D01*
Y-320803D01*
Y-320517D01*
Y-320231D01*
Y-319945D01*
Y-319658D01*
X1041456D01*
Y-319372D01*
Y-319086D01*
Y-318799D01*
Y-318513D01*
Y-318227D01*
Y-317940D01*
Y-317654D01*
X1041743D01*
Y-317368D01*
Y-317081D01*
Y-316795D01*
Y-316509D01*
Y-316223D01*
Y-315936D01*
X1042029D01*
Y-315650D01*
Y-315364D01*
Y-315077D01*
Y-314791D01*
Y-314505D01*
Y-314218D01*
X1042315D01*
Y-313932D01*
Y-313646D01*
Y-313359D01*
Y-313073D01*
Y-312787D01*
Y-312501D01*
X1042601D01*
Y-312214D01*
Y-311928D01*
Y-311642D01*
Y-311355D01*
Y-311069D01*
Y-310783D01*
Y-310496D01*
X1042888D01*
Y-310210D01*
Y-309924D01*
Y-309637D01*
Y-309351D01*
Y-309065D01*
Y-308778D01*
X1043174D01*
Y-308492D01*
Y-308206D01*
Y-307920D01*
Y-307633D01*
Y-307347D01*
Y-307061D01*
X1043460D01*
Y-306774D01*
Y-306488D01*
Y-306202D01*
Y-305915D01*
Y-305629D01*
Y-305343D01*
Y-305056D01*
X1043747D01*
Y-304770D01*
Y-304484D01*
Y-304197D01*
Y-303911D01*
Y-303625D01*
Y-303339D01*
X1044033D01*
Y-303052D01*
Y-302766D01*
Y-302480D01*
Y-302193D01*
Y-301907D01*
Y-301621D01*
X1044319D01*
Y-301334D01*
Y-301048D01*
Y-300762D01*
Y-300475D01*
Y-300189D01*
Y-299903D01*
X1044606D01*
Y-299616D01*
Y-299330D01*
Y-299044D01*
Y-298758D01*
Y-298471D01*
Y-298185D01*
Y-297899D01*
X1044892D01*
Y-297612D01*
Y-297326D01*
Y-297040D01*
Y-296753D01*
Y-296467D01*
Y-296181D01*
X1045178D01*
Y-295894D01*
Y-295608D01*
Y-295322D01*
Y-295035D01*
Y-294749D01*
Y-294463D01*
X1045465D01*
Y-294177D01*
Y-293890D01*
Y-293604D01*
Y-293318D01*
Y-293031D01*
Y-292745D01*
Y-292459D01*
X1045751D01*
Y-292172D01*
Y-291886D01*
Y-291600D01*
X1058921D01*
Y-291886D01*
D02*
G37*
G36*
X1160849Y-309351D02*
X1160562D01*
Y-309637D01*
X1160276D01*
Y-309924D01*
Y-310210D01*
X1159990D01*
Y-310496D01*
X1159703D01*
Y-310783D01*
X1159417D01*
Y-311069D01*
Y-311355D01*
X1159131D01*
Y-311642D01*
X1158844D01*
Y-311928D01*
X1158558D01*
Y-312214D01*
X1158272D01*
Y-312501D01*
Y-312787D01*
X1157985D01*
Y-313073D01*
X1157699D01*
Y-313359D01*
X1157413D01*
Y-313646D01*
Y-313932D01*
X1157127D01*
Y-314218D01*
X1156840D01*
Y-314505D01*
X1156554D01*
Y-314791D01*
X1156268D01*
Y-315077D01*
Y-315364D01*
X1155981D01*
Y-315650D01*
X1155695D01*
Y-315936D01*
X1155409D01*
Y-316223D01*
Y-316509D01*
X1155122D01*
Y-316795D01*
X1154836D01*
Y-317081D01*
X1154550D01*
Y-317368D01*
Y-317654D01*
X1154263D01*
Y-317940D01*
X1153977D01*
Y-318227D01*
X1153691D01*
Y-318513D01*
X1153405D01*
Y-318799D01*
Y-319086D01*
X1153118D01*
Y-319372D01*
X1152832D01*
Y-319658D01*
X1152546D01*
Y-319945D01*
Y-320231D01*
X1152259D01*
Y-320517D01*
X1151973D01*
Y-320803D01*
X1151687D01*
Y-321090D01*
Y-321376D01*
X1151400D01*
Y-321662D01*
X1151114D01*
Y-321949D01*
X1150828D01*
Y-322235D01*
X1150541D01*
Y-322521D01*
Y-322808D01*
X1150255D01*
Y-323094D01*
X1149969D01*
Y-323380D01*
X1149682D01*
Y-323667D01*
Y-323953D01*
X1149396D01*
Y-324239D01*
X1149110D01*
Y-324526D01*
X1148824D01*
Y-324812D01*
Y-325098D01*
X1148537D01*
Y-325384D01*
X1148251D01*
Y-325671D01*
X1147965D01*
Y-325957D01*
X1147678D01*
Y-326243D01*
Y-326530D01*
X1147392D01*
Y-326816D01*
X1147106D01*
Y-327102D01*
X1146819D01*
Y-327389D01*
Y-327675D01*
X1146533D01*
Y-327961D01*
X1146247D01*
Y-328248D01*
X1145960D01*
Y-328534D01*
X1145674D01*
Y-328820D01*
Y-329107D01*
X1145960D01*
Y-329393D01*
Y-329679D01*
X1146247D01*
Y-329965D01*
Y-330252D01*
X1146533D01*
Y-330538D01*
X1146819D01*
Y-330824D01*
Y-331111D01*
X1147106D01*
Y-331397D01*
Y-331683D01*
X1147392D01*
Y-331970D01*
Y-332256D01*
X1147678D01*
Y-332542D01*
Y-332829D01*
X1147965D01*
Y-333115D01*
Y-333401D01*
X1148251D01*
Y-333688D01*
Y-333974D01*
X1148537D01*
Y-334260D01*
Y-334547D01*
X1148824D01*
Y-334833D01*
Y-335119D01*
X1149110D01*
Y-335405D01*
X1149396D01*
Y-335692D01*
Y-335978D01*
X1149682D01*
Y-336264D01*
Y-336551D01*
X1149969D01*
Y-336837D01*
Y-337123D01*
X1150255D01*
Y-337410D01*
Y-337696D01*
X1150541D01*
Y-337982D01*
Y-338269D01*
X1150828D01*
Y-338555D01*
Y-338841D01*
X1151114D01*
Y-339128D01*
Y-339414D01*
X1151400D01*
Y-339700D01*
X1151687D01*
Y-339986D01*
Y-340273D01*
X1151973D01*
Y-340559D01*
Y-340845D01*
X1152259D01*
Y-341132D01*
Y-341418D01*
X1152546D01*
Y-341704D01*
Y-341991D01*
X1152832D01*
Y-342277D01*
Y-342563D01*
X1153118D01*
Y-342850D01*
Y-343136D01*
X1153405D01*
Y-343422D01*
Y-343709D01*
X1153691D01*
Y-343995D01*
X1153977D01*
Y-344281D01*
Y-344567D01*
X1154263D01*
Y-344854D01*
Y-345140D01*
X1154550D01*
Y-345427D01*
X1139375D01*
Y-345140D01*
X1139089D01*
Y-344854D01*
Y-344567D01*
Y-344281D01*
X1138803D01*
Y-343995D01*
Y-343709D01*
Y-343422D01*
X1138516D01*
Y-343136D01*
Y-342850D01*
X1138230D01*
Y-342563D01*
Y-342277D01*
Y-341991D01*
X1137944D01*
Y-341704D01*
Y-341418D01*
Y-341132D01*
X1137657D01*
Y-340845D01*
Y-340559D01*
X1137371D01*
Y-340273D01*
Y-339986D01*
Y-339700D01*
X1137085D01*
Y-339414D01*
Y-339128D01*
Y-338841D01*
X1136798D01*
Y-338555D01*
Y-338269D01*
Y-337982D01*
X1136512D01*
Y-337696D01*
X1135939D01*
Y-337982D01*
Y-338269D01*
X1135653D01*
Y-338555D01*
X1135367D01*
Y-338841D01*
Y-339128D01*
X1135081D01*
Y-339414D01*
X1134794D01*
Y-339700D01*
Y-339986D01*
X1134508D01*
Y-340273D01*
X1134221D01*
Y-340559D01*
Y-340845D01*
X1133935D01*
Y-341132D01*
X1133649D01*
Y-341418D01*
X1133363D01*
Y-341704D01*
Y-341991D01*
X1133076D01*
Y-342277D01*
X1132790D01*
Y-342563D01*
Y-342850D01*
X1132504D01*
Y-343136D01*
X1132217D01*
Y-343422D01*
Y-343709D01*
X1131931D01*
Y-343995D01*
X1131645D01*
Y-344281D01*
Y-344567D01*
X1131358D01*
Y-344854D01*
X1131072D01*
Y-345140D01*
Y-345427D01*
X1115039D01*
Y-345140D01*
X1115325D01*
Y-344854D01*
X1115611D01*
Y-344567D01*
X1115897D01*
Y-344281D01*
X1116184D01*
Y-343995D01*
Y-343709D01*
X1116470D01*
Y-343422D01*
X1116757D01*
Y-343136D01*
X1117043D01*
Y-342850D01*
X1117329D01*
Y-342563D01*
Y-342277D01*
X1117615D01*
Y-341991D01*
X1117902D01*
Y-341704D01*
X1118188D01*
Y-341418D01*
Y-341132D01*
X1118474D01*
Y-340845D01*
X1118761D01*
Y-340559D01*
X1119047D01*
Y-340273D01*
X1119333D01*
Y-339986D01*
Y-339700D01*
X1119620D01*
Y-339414D01*
X1119906D01*
Y-339128D01*
X1120192D01*
Y-338841D01*
X1120479D01*
Y-338555D01*
Y-338269D01*
X1120765D01*
Y-337982D01*
X1121051D01*
Y-337696D01*
X1121338D01*
Y-337410D01*
Y-337123D01*
X1121624D01*
Y-336837D01*
X1121910D01*
Y-336551D01*
X1122196D01*
Y-336264D01*
X1122483D01*
Y-335978D01*
Y-335692D01*
X1122769D01*
Y-335405D01*
X1123055D01*
Y-335119D01*
X1123342D01*
Y-334833D01*
Y-334547D01*
X1123628D01*
Y-334260D01*
X1123914D01*
Y-333974D01*
X1124201D01*
Y-333688D01*
X1124487D01*
Y-333401D01*
Y-333115D01*
X1124773D01*
Y-332829D01*
X1125060D01*
Y-332542D01*
X1125346D01*
Y-332256D01*
Y-331970D01*
X1125632D01*
Y-331683D01*
X1125918D01*
Y-331397D01*
X1126205D01*
Y-331111D01*
X1126491D01*
Y-330824D01*
Y-330538D01*
X1126777D01*
Y-330252D01*
X1127064D01*
Y-329965D01*
X1127350D01*
Y-329679D01*
X1127636D01*
Y-329393D01*
Y-329107D01*
X1127923D01*
Y-328820D01*
X1128209D01*
Y-328534D01*
X1128495D01*
Y-328248D01*
Y-327961D01*
X1128782D01*
Y-327675D01*
X1129068D01*
Y-327389D01*
X1129354D01*
Y-327102D01*
X1129640D01*
Y-326816D01*
Y-326530D01*
X1129927D01*
Y-326243D01*
Y-325957D01*
Y-325671D01*
X1129640D01*
Y-325384D01*
X1129354D01*
Y-325098D01*
Y-324812D01*
X1129068D01*
Y-324526D01*
Y-324239D01*
X1128782D01*
Y-323953D01*
Y-323667D01*
X1128495D01*
Y-323380D01*
Y-323094D01*
X1128209D01*
Y-322808D01*
Y-322521D01*
X1127923D01*
Y-322235D01*
Y-321949D01*
X1127636D01*
Y-321662D01*
X1127350D01*
Y-321376D01*
Y-321090D01*
X1127064D01*
Y-320803D01*
Y-320517D01*
X1126777D01*
Y-320231D01*
Y-319945D01*
X1126491D01*
Y-319658D01*
Y-319372D01*
X1126205D01*
Y-319086D01*
Y-318799D01*
X1125918D01*
Y-318513D01*
Y-318227D01*
X1125632D01*
Y-317940D01*
X1125346D01*
Y-317654D01*
Y-317368D01*
X1125060D01*
Y-317081D01*
Y-316795D01*
X1124773D01*
Y-316509D01*
Y-316223D01*
X1124487D01*
Y-315936D01*
Y-315650D01*
X1124201D01*
Y-315364D01*
Y-315077D01*
X1123914D01*
Y-314791D01*
Y-314505D01*
X1123628D01*
Y-314218D01*
Y-313932D01*
X1123342D01*
Y-313646D01*
X1123055D01*
Y-313359D01*
Y-313073D01*
X1122769D01*
Y-312787D01*
Y-312501D01*
X1122483D01*
Y-312214D01*
Y-311928D01*
X1122196D01*
Y-311642D01*
Y-311355D01*
X1121910D01*
Y-311069D01*
Y-310783D01*
X1121624D01*
Y-310496D01*
Y-310210D01*
X1121338D01*
Y-309924D01*
X1121051D01*
Y-309637D01*
Y-309351D01*
X1120765D01*
Y-309065D01*
X1136512D01*
Y-309351D01*
X1136798D01*
Y-309637D01*
Y-309924D01*
Y-310210D01*
X1137085D01*
Y-310496D01*
Y-310783D01*
Y-311069D01*
X1137371D01*
Y-311355D01*
Y-311642D01*
Y-311928D01*
X1137657D01*
Y-312214D01*
Y-312501D01*
Y-312787D01*
X1137944D01*
Y-313073D01*
Y-313359D01*
Y-313646D01*
X1138230D01*
Y-313932D01*
Y-314218D01*
Y-314505D01*
X1138516D01*
Y-314791D01*
Y-315077D01*
Y-315364D01*
X1138803D01*
Y-315650D01*
Y-315936D01*
Y-316223D01*
X1139089D01*
Y-316509D01*
Y-316795D01*
Y-317081D01*
Y-317368D01*
X1139662D01*
Y-317081D01*
X1139948D01*
Y-316795D01*
X1140234D01*
Y-316509D01*
Y-316223D01*
X1140520D01*
Y-315936D01*
X1140807D01*
Y-315650D01*
Y-315364D01*
X1141093D01*
Y-315077D01*
X1141379D01*
Y-314791D01*
Y-314505D01*
X1141666D01*
Y-314218D01*
X1141952D01*
Y-313932D01*
Y-313646D01*
X1142238D01*
Y-313359D01*
X1142525D01*
Y-313073D01*
Y-312787D01*
X1142811D01*
Y-312501D01*
X1143097D01*
Y-312214D01*
Y-311928D01*
X1143384D01*
Y-311642D01*
X1143670D01*
Y-311355D01*
Y-311069D01*
X1143956D01*
Y-310783D01*
X1144242D01*
Y-310496D01*
Y-310210D01*
X1144529D01*
Y-309924D01*
X1144815D01*
Y-309637D01*
Y-309351D01*
X1145101D01*
Y-309065D01*
X1160849D01*
Y-309351D01*
D02*
G37*
G36*
X1116757D02*
Y-309637D01*
Y-309924D01*
Y-310210D01*
Y-310496D01*
Y-310783D01*
Y-311069D01*
Y-311355D01*
Y-311642D01*
Y-311928D01*
Y-312214D01*
Y-312501D01*
Y-312787D01*
Y-313073D01*
Y-313359D01*
Y-313646D01*
Y-313932D01*
Y-314218D01*
Y-314505D01*
Y-314791D01*
Y-315077D01*
X1116470D01*
Y-315364D01*
Y-315650D01*
Y-315936D01*
Y-316223D01*
Y-316509D01*
X1116184D01*
Y-316795D01*
Y-317081D01*
Y-317368D01*
Y-317654D01*
X1115897D01*
Y-317940D01*
Y-318227D01*
Y-318513D01*
Y-318799D01*
X1115611D01*
Y-319086D01*
Y-319372D01*
Y-319658D01*
X1115325D01*
Y-319945D01*
Y-320231D01*
Y-320517D01*
X1115039D01*
Y-320803D01*
Y-321090D01*
Y-321376D01*
X1114752D01*
Y-321662D01*
Y-321949D01*
Y-322235D01*
X1114466D01*
Y-322521D01*
Y-322808D01*
X1114180D01*
Y-323094D01*
Y-323380D01*
X1113893D01*
Y-323667D01*
Y-323953D01*
Y-324239D01*
X1113607D01*
Y-324526D01*
Y-324812D01*
X1113321D01*
Y-325098D01*
Y-325384D01*
Y-325671D01*
X1113034D01*
Y-325957D01*
Y-326243D01*
X1112748D01*
Y-326530D01*
Y-326816D01*
Y-327102D01*
X1112462D01*
Y-327389D01*
Y-327675D01*
X1112175D01*
Y-327961D01*
Y-328248D01*
Y-328534D01*
X1111889D01*
Y-328820D01*
Y-329107D01*
X1111603D01*
Y-329393D01*
Y-329679D01*
Y-329965D01*
X1111316D01*
Y-330252D01*
Y-330538D01*
X1111030D01*
Y-330824D01*
Y-331111D01*
Y-331397D01*
X1110744D01*
Y-331683D01*
Y-331970D01*
X1110458D01*
Y-332256D01*
Y-332542D01*
Y-332829D01*
X1110171D01*
Y-333115D01*
Y-333401D01*
X1109885D01*
Y-333688D01*
Y-333974D01*
Y-334260D01*
X1109599D01*
Y-334547D01*
Y-334833D01*
X1109312D01*
Y-335119D01*
Y-335405D01*
Y-335692D01*
X1109026D01*
Y-335978D01*
Y-336264D01*
X1108740D01*
Y-336551D01*
Y-336837D01*
Y-337123D01*
X1108453D01*
Y-337410D01*
Y-337696D01*
X1108167D01*
Y-337982D01*
Y-338269D01*
Y-338555D01*
X1107881D01*
Y-338841D01*
Y-339128D01*
X1107594D01*
Y-339414D01*
Y-339700D01*
Y-339986D01*
X1107308D01*
Y-340273D01*
Y-340559D01*
X1107022D01*
Y-340845D01*
Y-341132D01*
Y-341418D01*
X1106736D01*
Y-341704D01*
Y-341991D01*
X1106449D01*
Y-342277D01*
Y-342563D01*
Y-342850D01*
X1106163D01*
Y-343136D01*
Y-343422D01*
X1105877D01*
Y-343709D01*
Y-343995D01*
Y-344281D01*
X1105590D01*
Y-344567D01*
Y-344854D01*
X1105304D01*
Y-345140D01*
Y-345427D01*
Y-345713D01*
X1105018D01*
Y-345999D01*
Y-346285D01*
X1104731D01*
Y-346572D01*
Y-346858D01*
X1104445D01*
Y-347144D01*
Y-347431D01*
X1104159D01*
Y-347717D01*
Y-348003D01*
Y-348290D01*
X1103872D01*
Y-348576D01*
X1103586D01*
Y-348862D01*
Y-349149D01*
Y-349435D01*
X1103300D01*
Y-349721D01*
X1103013D01*
Y-350008D01*
Y-350294D01*
X1102727D01*
Y-350580D01*
Y-350866D01*
X1102441D01*
Y-351153D01*
Y-351439D01*
X1102155D01*
Y-351725D01*
Y-352012D01*
X1101868D01*
Y-352298D01*
X1101582D01*
Y-352584D01*
Y-352871D01*
X1101296D01*
Y-353157D01*
Y-353443D01*
X1101009D01*
Y-353730D01*
X1100723D01*
Y-354016D01*
X1100437D01*
Y-354302D01*
Y-354589D01*
X1100150D01*
Y-354875D01*
X1099864D01*
Y-355161D01*
Y-355447D01*
X1099578D01*
Y-355734D01*
X1099291D01*
Y-356020D01*
X1099005D01*
Y-356306D01*
Y-356593D01*
X1098719D01*
Y-356879D01*
X1098432D01*
Y-357165D01*
X1098146D01*
Y-357452D01*
X1097860D01*
Y-357738D01*
X1097573D01*
Y-358024D01*
Y-358311D01*
X1097287D01*
Y-358597D01*
X1097001D01*
Y-358883D01*
X1096715D01*
Y-359170D01*
X1096428D01*
Y-359456D01*
X1096142D01*
Y-359742D01*
X1095856D01*
Y-360028D01*
X1095569D01*
Y-360315D01*
X1094997D01*
Y-360601D01*
X1094710D01*
Y-360887D01*
X1094424D01*
Y-361174D01*
X1094138D01*
Y-361460D01*
X1093851D01*
Y-361746D01*
X1093279D01*
Y-362033D01*
X1092992D01*
Y-362319D01*
X1092420D01*
Y-362605D01*
X1092134D01*
Y-362892D01*
X1091561D01*
Y-363178D01*
X1091275D01*
Y-363464D01*
X1090702D01*
Y-363751D01*
X1090129D01*
Y-364037D01*
X1089557D01*
Y-364323D01*
X1088984D01*
Y-364609D01*
X1088412D01*
Y-364896D01*
X1087553D01*
Y-365182D01*
X1086980D01*
Y-365468D01*
X1086121D01*
Y-365755D01*
X1084976D01*
Y-366041D01*
X1083831D01*
Y-366327D01*
X1082113D01*
Y-366614D01*
X1080108D01*
Y-366900D01*
X1079822D01*
Y-366614D01*
Y-366327D01*
Y-366041D01*
Y-365755D01*
Y-365468D01*
Y-365182D01*
Y-364896D01*
Y-364609D01*
Y-364323D01*
Y-364037D01*
Y-363751D01*
Y-363464D01*
Y-363178D01*
Y-362892D01*
Y-362605D01*
Y-362319D01*
Y-362033D01*
Y-361746D01*
Y-361460D01*
Y-361174D01*
Y-360887D01*
Y-360601D01*
Y-360315D01*
Y-360028D01*
Y-359742D01*
Y-359456D01*
Y-359170D01*
Y-358883D01*
Y-358597D01*
Y-358311D01*
Y-358024D01*
Y-357738D01*
Y-357452D01*
X1080395D01*
Y-357165D01*
X1080967D01*
Y-356879D01*
X1081540D01*
Y-356593D01*
X1082113D01*
Y-356306D01*
X1082685D01*
Y-356020D01*
X1083258D01*
Y-355734D01*
X1083544D01*
Y-355447D01*
X1084117D01*
Y-355161D01*
X1084403D01*
Y-354875D01*
X1084976D01*
Y-354589D01*
X1085262D01*
Y-354302D01*
X1085548D01*
Y-354016D01*
X1086121D01*
Y-353730D01*
X1086407D01*
Y-353443D01*
X1086694D01*
Y-353157D01*
X1086980D01*
Y-352871D01*
X1087266D01*
Y-352584D01*
X1087553D01*
Y-352298D01*
X1087839D01*
Y-352012D01*
X1088125D01*
Y-351725D01*
X1088412D01*
Y-351439D01*
X1088698D01*
Y-351153D01*
X1088984D01*
Y-350866D01*
X1089270D01*
Y-350580D01*
Y-350294D01*
X1089557D01*
Y-350008D01*
X1089843D01*
Y-349721D01*
X1090129D01*
Y-349435D01*
Y-349149D01*
X1090416D01*
Y-348862D01*
X1090702D01*
Y-348576D01*
Y-348290D01*
X1090988D01*
Y-348003D01*
Y-347717D01*
X1091275D01*
Y-347431D01*
X1091561D01*
Y-347144D01*
Y-346858D01*
X1091847D01*
Y-346572D01*
Y-346285D01*
X1092134D01*
Y-345999D01*
Y-345713D01*
X1090416D01*
Y-345427D01*
X1088412D01*
Y-345140D01*
X1087266D01*
Y-344854D01*
X1086694D01*
Y-344567D01*
X1085835D01*
Y-344281D01*
X1085262D01*
Y-343995D01*
X1084976D01*
Y-343709D01*
X1084403D01*
Y-343422D01*
X1084117D01*
Y-343136D01*
X1083831D01*
Y-342850D01*
X1083544D01*
Y-342563D01*
X1083258D01*
Y-342277D01*
X1082971D01*
Y-341991D01*
Y-341704D01*
X1082685D01*
Y-341418D01*
X1082399D01*
Y-341132D01*
Y-340845D01*
X1082113D01*
Y-340559D01*
Y-340273D01*
X1081826D01*
Y-339986D01*
Y-339700D01*
X1081540D01*
Y-339414D01*
Y-339128D01*
Y-338841D01*
X1081254D01*
Y-338555D01*
Y-338269D01*
Y-337982D01*
Y-337696D01*
X1080967D01*
Y-337410D01*
Y-337123D01*
Y-336837D01*
Y-336551D01*
Y-336264D01*
Y-335978D01*
Y-335692D01*
X1080681D01*
Y-335405D01*
Y-335119D01*
Y-334833D01*
Y-334547D01*
Y-334260D01*
Y-333974D01*
Y-333688D01*
Y-333401D01*
Y-333115D01*
Y-332829D01*
Y-332542D01*
Y-332256D01*
Y-331970D01*
Y-331683D01*
Y-331397D01*
X1080395D01*
Y-331111D01*
Y-330824D01*
Y-330538D01*
Y-330252D01*
Y-329965D01*
Y-329679D01*
Y-329393D01*
Y-329107D01*
Y-328820D01*
Y-328534D01*
Y-328248D01*
Y-327961D01*
Y-327675D01*
Y-327389D01*
Y-327102D01*
X1080108D01*
Y-326816D01*
Y-326530D01*
Y-326243D01*
Y-325957D01*
Y-325671D01*
Y-325384D01*
Y-325098D01*
Y-324812D01*
Y-324526D01*
Y-324239D01*
Y-323953D01*
Y-323667D01*
Y-323380D01*
Y-323094D01*
Y-322808D01*
Y-322521D01*
X1079822D01*
Y-322235D01*
Y-321949D01*
Y-321662D01*
Y-321376D01*
Y-321090D01*
Y-320803D01*
Y-320517D01*
Y-320231D01*
Y-319945D01*
Y-319658D01*
Y-319372D01*
Y-319086D01*
Y-318799D01*
Y-318513D01*
Y-318227D01*
Y-317940D01*
X1079536D01*
Y-317654D01*
Y-317368D01*
Y-317081D01*
Y-316795D01*
Y-316509D01*
Y-316223D01*
Y-315936D01*
Y-315650D01*
Y-315364D01*
Y-315077D01*
Y-314791D01*
Y-314505D01*
Y-314218D01*
Y-313932D01*
X1079249D01*
Y-313646D01*
Y-313359D01*
Y-313073D01*
Y-312787D01*
Y-312501D01*
Y-312214D01*
Y-311928D01*
Y-311642D01*
Y-311355D01*
Y-311069D01*
Y-310783D01*
Y-310496D01*
Y-310210D01*
Y-309924D01*
Y-309637D01*
Y-309351D01*
X1078963D01*
Y-309065D01*
X1092706D01*
Y-309351D01*
Y-309637D01*
Y-309924D01*
Y-310210D01*
Y-310496D01*
Y-310783D01*
Y-311069D01*
Y-311355D01*
Y-311642D01*
Y-311928D01*
Y-312214D01*
Y-312501D01*
Y-312787D01*
Y-313073D01*
X1092992D01*
Y-313359D01*
Y-313646D01*
Y-313932D01*
Y-314218D01*
Y-314505D01*
Y-314791D01*
Y-315077D01*
Y-315364D01*
Y-315650D01*
Y-315936D01*
Y-316223D01*
Y-316509D01*
Y-316795D01*
Y-317081D01*
Y-317368D01*
Y-317654D01*
Y-317940D01*
Y-318227D01*
Y-318513D01*
Y-318799D01*
Y-319086D01*
Y-319372D01*
Y-319658D01*
Y-319945D01*
Y-320231D01*
Y-320517D01*
Y-320803D01*
Y-321090D01*
Y-321376D01*
Y-321662D01*
Y-321949D01*
Y-322235D01*
Y-322521D01*
Y-322808D01*
Y-323094D01*
Y-323380D01*
Y-323667D01*
Y-323953D01*
Y-324239D01*
Y-324526D01*
Y-324812D01*
X1093279D01*
Y-325098D01*
X1092992D01*
Y-325384D01*
Y-325671D01*
X1093279D01*
Y-325957D01*
Y-326243D01*
Y-326530D01*
Y-326816D01*
Y-327102D01*
Y-327389D01*
Y-327675D01*
Y-327961D01*
Y-328248D01*
Y-328534D01*
Y-328820D01*
Y-329107D01*
Y-329393D01*
Y-329679D01*
Y-329965D01*
Y-330252D01*
Y-330538D01*
Y-330824D01*
Y-331111D01*
Y-331397D01*
Y-331683D01*
Y-331970D01*
Y-332256D01*
Y-332542D01*
Y-332829D01*
Y-333115D01*
X1093565D01*
Y-333401D01*
Y-333688D01*
Y-333974D01*
X1093851D01*
Y-334260D01*
X1094138D01*
Y-334547D01*
X1094424D01*
Y-334833D01*
X1095283D01*
Y-335119D01*
X1096142D01*
Y-334833D01*
X1096428D01*
Y-334547D01*
Y-334260D01*
Y-333974D01*
X1096715D01*
Y-333688D01*
Y-333401D01*
X1097001D01*
Y-333115D01*
Y-332829D01*
Y-332542D01*
X1097287D01*
Y-332256D01*
Y-331970D01*
Y-331683D01*
X1097573D01*
Y-331397D01*
Y-331111D01*
Y-330824D01*
X1097860D01*
Y-330538D01*
Y-330252D01*
Y-329965D01*
X1098146D01*
Y-329679D01*
Y-329393D01*
X1098432D01*
Y-329107D01*
Y-328820D01*
Y-328534D01*
X1098719D01*
Y-328248D01*
Y-327961D01*
Y-327675D01*
X1099005D01*
Y-327389D01*
Y-327102D01*
Y-326816D01*
X1099291D01*
Y-326530D01*
Y-326243D01*
X1099578D01*
Y-325957D01*
Y-325671D01*
Y-325384D01*
X1099864D01*
Y-325098D01*
Y-324812D01*
Y-324526D01*
X1100150D01*
Y-324239D01*
Y-323953D01*
Y-323667D01*
X1100437D01*
Y-323380D01*
Y-323094D01*
X1100723D01*
Y-322808D01*
Y-322521D01*
Y-322235D01*
X1101009D01*
Y-321949D01*
Y-321662D01*
Y-321376D01*
X1101296D01*
Y-321090D01*
Y-320803D01*
Y-320517D01*
X1101582D01*
Y-320231D01*
Y-319945D01*
X1101868D01*
Y-319658D01*
Y-319372D01*
Y-319086D01*
X1102155D01*
Y-318799D01*
Y-318513D01*
Y-318227D01*
X1102441D01*
Y-317940D01*
Y-317654D01*
Y-317368D01*
X1102727D01*
Y-317081D01*
Y-316795D01*
Y-316509D01*
Y-316223D01*
X1103013D01*
Y-315936D01*
Y-315650D01*
Y-315364D01*
Y-315077D01*
X1103300D01*
Y-314791D01*
Y-314505D01*
Y-314218D01*
Y-313932D01*
Y-313646D01*
X1103586D01*
Y-313359D01*
Y-313073D01*
Y-312787D01*
Y-312501D01*
Y-312214D01*
Y-311928D01*
X1103872D01*
Y-311642D01*
Y-311355D01*
Y-311069D01*
Y-310783D01*
Y-310496D01*
Y-310210D01*
Y-309924D01*
Y-309637D01*
Y-309351D01*
Y-309065D01*
X1116757D01*
Y-309351D01*
D02*
G37*
%LPC*%
G36*
X1023419Y-306202D02*
X1015402D01*
Y-306488D01*
Y-306774D01*
Y-307061D01*
Y-307347D01*
Y-307633D01*
X1015115D01*
Y-307920D01*
Y-308206D01*
Y-308492D01*
Y-308778D01*
Y-309065D01*
Y-309351D01*
X1014829D01*
Y-309637D01*
Y-309924D01*
Y-310210D01*
Y-310496D01*
Y-310783D01*
Y-311069D01*
X1014543D01*
Y-311355D01*
Y-311642D01*
Y-311928D01*
Y-312214D01*
Y-312501D01*
Y-312787D01*
X1014256D01*
Y-313073D01*
Y-313359D01*
Y-313646D01*
Y-313932D01*
Y-314218D01*
Y-314505D01*
Y-314791D01*
X1013970D01*
Y-315077D01*
Y-315364D01*
Y-315650D01*
Y-315936D01*
Y-316223D01*
Y-316509D01*
X1013684D01*
Y-316795D01*
Y-317081D01*
Y-317368D01*
X1020842D01*
Y-317081D01*
X1021987D01*
Y-316795D01*
X1022560D01*
Y-316509D01*
X1022846D01*
Y-316223D01*
X1023132D01*
Y-315936D01*
X1023419D01*
Y-315650D01*
X1023705D01*
Y-315364D01*
Y-315077D01*
X1023991D01*
Y-314791D01*
Y-314505D01*
X1024277D01*
Y-314218D01*
Y-313932D01*
X1024564D01*
Y-313646D01*
Y-313359D01*
Y-313073D01*
Y-312787D01*
X1024850D01*
Y-312501D01*
Y-312214D01*
Y-311928D01*
Y-311642D01*
Y-311355D01*
X1025136D01*
Y-311069D01*
Y-310783D01*
Y-310496D01*
Y-310210D01*
Y-309924D01*
Y-309637D01*
Y-309351D01*
Y-309065D01*
Y-308778D01*
Y-308492D01*
Y-308206D01*
X1024850D01*
Y-307920D01*
Y-307633D01*
X1024564D01*
Y-307347D01*
Y-307061D01*
X1024277D01*
Y-306774D01*
X1023991D01*
Y-306488D01*
X1023419D01*
Y-306202D01*
D02*
G37*
%LPD*%
D10*
X1207616Y-322095D02*
X1198433D01*
Y-328983D01*
X1203024D01*
X1198433D01*
Y-335870D01*
X1214504Y-326687D02*
X1219095D01*
X1221391Y-328983D01*
Y-335870D01*
X1214504D01*
X1212208Y-333574D01*
X1214504Y-331278D01*
X1221391D01*
X1225983Y-322095D02*
Y-335870D01*
X1232870D01*
X1235166Y-333574D01*
Y-331278D01*
Y-328983D01*
X1232870Y-326687D01*
X1225983D01*
X1239758D02*
Y-335870D01*
Y-331278D01*
X1242054Y-328983D01*
X1244350Y-326687D01*
X1246646D01*
X1253533Y-335870D02*
X1258125D01*
X1255829D01*
Y-326687D01*
X1253533D01*
X1274196D02*
X1267308D01*
X1265012Y-328983D01*
Y-333574D01*
X1267308Y-335870D01*
X1274196D01*
X1281083Y-326687D02*
X1285675D01*
X1287971Y-328983D01*
Y-335870D01*
X1281083D01*
X1278787Y-333574D01*
X1281083Y-331278D01*
X1287971D01*
X1294858Y-324391D02*
Y-326687D01*
X1292562D01*
X1297154D01*
X1294858D01*
Y-333574D01*
X1297154Y-335870D01*
X1304042D02*
X1308633D01*
X1306338D01*
Y-326687D01*
X1304042D01*
X1317817Y-335870D02*
X1322408D01*
X1324704Y-333574D01*
Y-328983D01*
X1322408Y-326687D01*
X1317817D01*
X1315521Y-328983D01*
Y-333574D01*
X1317817Y-335870D01*
X1329296D02*
Y-326687D01*
X1336184D01*
X1338479Y-328983D01*
Y-335870D01*
X1001582Y-400836D02*
Y-416579D01*
X1006830Y-411331D01*
X1012078Y-416579D01*
Y-400836D01*
X1017325Y-416579D02*
X1022573D01*
X1019949D01*
Y-406084D01*
X1017325D01*
X1030444Y-416579D02*
Y-406084D01*
X1033068D01*
X1035692Y-408707D01*
Y-416579D01*
Y-408707D01*
X1038316Y-406084D01*
X1040940Y-408707D01*
Y-416579D01*
X1046187Y-400836D02*
Y-411331D01*
X1051435Y-416579D01*
X1056683Y-411331D01*
Y-400836D01*
X1072426Y-403460D02*
X1069802Y-400836D01*
X1064554D01*
X1061930Y-403460D01*
Y-413955D01*
X1064554Y-416579D01*
X1069802D01*
X1072426Y-413955D01*
Y-408707D01*
X1067178D01*
X1355913Y-364090D02*
X1358537Y-361466D01*
X1363785D01*
X1366408Y-364090D01*
Y-374585D01*
X1363785Y-377209D01*
X1358537D01*
X1355913Y-374585D01*
Y-364090D01*
X1371656D02*
X1374280Y-361466D01*
X1379527D01*
X1382151Y-364090D01*
Y-374585D01*
X1379527Y-377209D01*
X1374280D01*
X1371656Y-374585D01*
Y-364090D01*
X1192527Y-377209D02*
X1197119D01*
X1194823D01*
Y-363434D01*
X1192527Y-365730D01*
X1213190Y-363434D02*
X1208598Y-365730D01*
X1204006Y-370321D01*
Y-374913D01*
X1206302Y-377209D01*
X1210894D01*
X1213190Y-374913D01*
Y-372617D01*
X1210894Y-370321D01*
X1204006D01*
X1217782Y-377209D02*
X1226965Y-368025D01*
X1231557Y-365730D02*
X1233852Y-363434D01*
X1238444D01*
X1240740Y-365730D01*
Y-374913D01*
X1238444Y-377209D01*
X1233852D01*
X1231557Y-374913D01*
Y-365730D01*
X1254515Y-363434D02*
X1245332D01*
Y-370321D01*
X1249923Y-368025D01*
X1252219D01*
X1254515Y-370321D01*
Y-374913D01*
X1252219Y-377209D01*
X1247628D01*
X1245332Y-374913D01*
X1259107Y-377209D02*
X1268290Y-368025D01*
X1282065Y-377209D02*
X1272882D01*
X1282065Y-368025D01*
Y-365730D01*
X1279769Y-363434D01*
X1275178D01*
X1272882Y-365730D01*
X1286657D02*
X1288953Y-363434D01*
X1293544D01*
X1295840Y-365730D01*
Y-374913D01*
X1293544Y-377209D01*
X1288953D01*
X1286657Y-374913D01*
Y-365730D01*
X1309615Y-377209D02*
X1300432D01*
X1309615Y-368025D01*
Y-365730D01*
X1307320Y-363434D01*
X1302728D01*
X1300432Y-365730D01*
X1314207D02*
X1316503Y-363434D01*
X1321095D01*
X1323390Y-365730D01*
Y-368025D01*
X1321095Y-370321D01*
X1318799D01*
X1321095D01*
X1323390Y-372617D01*
Y-374913D01*
X1321095Y-377209D01*
X1316503D01*
X1314207Y-374913D01*
X1195018Y-285874D02*
X1186622D01*
Y-298469D01*
X1195018D01*
X1186622Y-292172D02*
X1190820D01*
X1207612Y-285874D02*
Y-298469D01*
X1201315D01*
X1199216Y-296370D01*
Y-292172D01*
X1201315Y-290072D01*
X1207612D01*
X1216009Y-302667D02*
X1218108D01*
X1220207Y-300568D01*
Y-290072D01*
X1213910D01*
X1211810Y-292172D01*
Y-296370D01*
X1213910Y-298469D01*
X1220207D01*
X1226504Y-290072D02*
X1230702D01*
X1232801Y-292172D01*
Y-298469D01*
X1226504D01*
X1224405Y-296370D01*
X1226504Y-294271D01*
X1232801D01*
X1236999Y-290072D02*
Y-298469D01*
Y-294271D01*
X1239098Y-292172D01*
X1241197Y-290072D01*
X1243296D01*
D11*
X-31496Y1969D02*
X-27559Y-0D01*
X-37402D02*
X-27559D01*
X-31496Y-1969D02*
X-27559Y-0D01*
X175197Y287402D02*
X177165Y283465D01*
X177165Y293307D02*
X177165Y283465D01*
X179134Y287402D01*
X177165Y275591D02*
X177165Y-39370D01*
X-54654Y1574D02*
Y-525D01*
X-53605Y-1574D01*
X-52555Y-525D01*
Y1574D01*
X-51506Y-0D02*
X-49406D01*
X-46258Y1049D02*
X-46783Y1574D01*
X-47832D01*
X-48357Y1049D01*
Y-1050D01*
X-47832Y-1574D01*
X-46783D01*
X-46258Y-1050D01*
X-45208Y1574D02*
Y-1050D01*
X-44684Y-1574D01*
X-43634D01*
X-43109Y-1050D01*
Y1574D01*
X-42060D02*
X-39961D01*
X-41010D01*
Y-1574D01*
X178740Y310560D02*
X176641D01*
X175591Y309510D01*
X176641Y308460D01*
X178740D01*
X177165Y307411D02*
Y305312D01*
X178215Y302163D02*
X178740Y302688D01*
Y303738D01*
X178215Y304262D01*
X176116D01*
X175591Y303738D01*
Y302688D01*
X176116Y302163D01*
X178740Y301114D02*
X176116D01*
X175591Y300589D01*
Y299539D01*
X176116Y299015D01*
X178740D01*
Y297965D02*
Y295866D01*
Y296916D01*
X175591D01*
X354331Y-39370D02*
Y-0D01*
X0Y-39370D02*
X354331D01*
X0D02*
Y0D01*
X354331Y275590D02*
X354331Y0D01*
X0D02*
X354331D01*
X0Y275590D02*
X354331D01*
X0Y0D02*
Y275590D01*
D13*
X31394Y-182414D02*
Y-188318D01*
X33362Y-186350D01*
X35330Y-188318D01*
Y-182414D01*
X37298D02*
Y-188318D01*
Y-185366D01*
X38282Y-184382D01*
X40249D01*
X41233Y-185366D01*
Y-188318D01*
X43201D02*
X45169D01*
X44185D01*
Y-184382D01*
X43201D01*
X49105Y-183398D02*
Y-184382D01*
X48121D01*
X50089D01*
X49105D01*
Y-187334D01*
X50089Y-188318D01*
X55992D02*
X54025D01*
X53041Y-187334D01*
Y-185366D01*
X54025Y-184382D01*
X55992D01*
X56976Y-185366D01*
Y-186350D01*
X53041D01*
X68784Y-183398D02*
X67800Y-182414D01*
X65832D01*
X64848Y-183398D01*
Y-184382D01*
X65832Y-185366D01*
X67800D01*
X68784Y-186350D01*
Y-187334D01*
X67800Y-188318D01*
X65832D01*
X64848Y-187334D01*
X71735Y-188318D02*
X73703D01*
X74687Y-187334D01*
Y-185366D01*
X73703Y-184382D01*
X71735D01*
X70751Y-185366D01*
Y-187334D01*
X71735Y-188318D01*
X76655D02*
X78623D01*
X77639D01*
Y-182414D01*
X76655D01*
X85510D02*
Y-188318D01*
X82559D01*
X81575Y-187334D01*
Y-185366D01*
X82559Y-184382D01*
X85510D01*
X90430Y-188318D02*
X88462D01*
X87478Y-187334D01*
Y-185366D01*
X88462Y-184382D01*
X90430D01*
X91414Y-185366D01*
Y-186350D01*
X87478D01*
X93382Y-184382D02*
Y-188318D01*
Y-186350D01*
X94366Y-185366D01*
X95350Y-184382D01*
X96334D01*
X105189Y-188318D02*
Y-182414D01*
X107157Y-184382D01*
X109125Y-182414D01*
Y-188318D01*
X112077Y-184382D02*
X114044D01*
X115028Y-185366D01*
Y-188318D01*
X112077D01*
X111093Y-187334D01*
X112077Y-186350D01*
X115028D01*
X116996Y-188318D02*
X119948D01*
X120932Y-187334D01*
X119948Y-186350D01*
X117980D01*
X116996Y-185366D01*
X117980Y-184382D01*
X120932D01*
X122900Y-188318D02*
Y-182414D01*
Y-186350D02*
X125852Y-184382D01*
X122900Y-186350D02*
X125852Y-188318D01*
X31394Y-211940D02*
X33362D01*
X32378D01*
Y-206036D01*
X31394Y-207020D01*
X36314Y-211940D02*
Y-210956D01*
X37298D01*
Y-211940D01*
X36314D01*
X45169Y-206036D02*
X43201Y-207020D01*
X41233Y-208988D01*
Y-210956D01*
X42217Y-211940D01*
X44185D01*
X45169Y-210956D01*
Y-209972D01*
X44185Y-208988D01*
X41233D01*
X47137Y-211940D02*
Y-208004D01*
X48121D01*
X49105Y-208988D01*
Y-211940D01*
Y-208988D01*
X50089Y-208004D01*
X51073Y-208988D01*
Y-211940D01*
X53041D02*
Y-208004D01*
X54025D01*
X55009Y-208988D01*
Y-211940D01*
Y-208988D01*
X55992Y-208004D01*
X56976Y-208988D01*
Y-211940D01*
X64848Y-206036D02*
X68784D01*
X66816D01*
Y-211940D01*
X70751Y-206036D02*
Y-211940D01*
Y-208988D01*
X71735Y-208004D01*
X73703D01*
X74687Y-208988D01*
Y-211940D01*
X76655D02*
X78623D01*
X77639D01*
Y-208004D01*
X76655D01*
X85510D02*
X82559D01*
X81575Y-208988D01*
Y-210956D01*
X82559Y-211940D01*
X85510D01*
X87478D02*
Y-206036D01*
Y-209972D02*
X90430Y-208004D01*
X87478Y-209972D02*
X90430Y-211940D01*
X93382D02*
Y-208004D01*
X96334D01*
X97318Y-208988D01*
Y-211940D01*
X102237D02*
X100269D01*
X99286Y-210956D01*
Y-208988D01*
X100269Y-208004D01*
X102237D01*
X103221Y-208988D01*
Y-209972D01*
X99286D01*
X105189Y-211940D02*
X108141D01*
X109125Y-210956D01*
X108141Y-209972D01*
X106173D01*
X105189Y-208988D01*
X106173Y-208004D01*
X109125D01*
X111093Y-211940D02*
X114044D01*
X115028Y-210956D01*
X114044Y-209972D01*
X112077D01*
X111093Y-208988D01*
X112077Y-208004D01*
X115028D01*
X31394Y-194226D02*
Y-200129D01*
X34346D01*
X35330Y-199145D01*
Y-198161D01*
X34346Y-197177D01*
X31394D01*
X34346D01*
X35330Y-196193D01*
Y-195209D01*
X34346Y-194226D01*
X31394D01*
X37298Y-200129D02*
X39266D01*
X38282D01*
Y-194226D01*
X37298D01*
X43201Y-196193D02*
X45169D01*
X46153Y-197177D01*
Y-200129D01*
X43201D01*
X42217Y-199145D01*
X43201Y-198161D01*
X46153D01*
X52057Y-196193D02*
X49105D01*
X48121Y-197177D01*
Y-199145D01*
X49105Y-200129D01*
X52057D01*
X54025D02*
Y-194226D01*
Y-198161D02*
X56976Y-196193D01*
X54025Y-198161D02*
X56976Y-200129D01*
X69767Y-195209D02*
X68784Y-194226D01*
X66816D01*
X65832Y-195209D01*
Y-196193D01*
X66816Y-197177D01*
X68784D01*
X69767Y-198161D01*
Y-199145D01*
X68784Y-200129D01*
X66816D01*
X65832Y-199145D01*
X71735Y-200129D02*
X73703D01*
X72719D01*
Y-196193D01*
X71735D01*
X76655Y-200129D02*
X78623D01*
X77639D01*
Y-194226D01*
X76655D01*
X81575Y-200129D02*
Y-194226D01*
Y-198161D02*
X84526Y-196193D01*
X81575Y-198161D02*
X84526Y-200129D01*
X87478D02*
X90430D01*
X91414Y-199145D01*
X90430Y-198161D01*
X88462D01*
X87478Y-197177D01*
X88462Y-196193D01*
X91414D01*
X97318D02*
X94366D01*
X93382Y-197177D01*
Y-199145D01*
X94366Y-200129D01*
X97318D01*
X99286Y-196193D02*
Y-200129D01*
Y-198161D01*
X100269Y-197177D01*
X101253Y-196193D01*
X102237D01*
X108141Y-200129D02*
X106173D01*
X105189Y-199145D01*
Y-197177D01*
X106173Y-196193D01*
X108141D01*
X109125Y-197177D01*
Y-198161D01*
X105189D01*
X114044Y-200129D02*
X112077D01*
X111093Y-199145D01*
Y-197177D01*
X112077Y-196193D01*
X114044D01*
X115028Y-197177D01*
Y-198161D01*
X111093D01*
X116996Y-200129D02*
Y-196193D01*
X119948D01*
X120932Y-197177D01*
Y-200129D01*
X1338197Y-355555D02*
Y-347684D01*
X1342132D01*
X1343444Y-348996D01*
Y-351620D01*
X1342132Y-352931D01*
X1338197D01*
X1340820D02*
X1343444Y-355555D01*
X1350004D02*
X1347380D01*
X1346068Y-354243D01*
Y-351620D01*
X1347380Y-350308D01*
X1350004D01*
X1351316Y-351620D01*
Y-352931D01*
X1346068D01*
X1353940Y-350308D02*
X1356563Y-355555D01*
X1359187Y-350308D01*
X983866Y-387054D02*
Y-394925D01*
X987802D01*
X989114Y-393614D01*
Y-388366D01*
X987802Y-387054D01*
X983866D01*
X995673Y-394925D02*
X993049D01*
X991737Y-393614D01*
Y-390990D01*
X993049Y-389678D01*
X995673D01*
X996985Y-390990D01*
Y-392302D01*
X991737D01*
X999609Y-394925D02*
X1003545D01*
X1004856Y-393614D01*
X1003545Y-392302D01*
X1000921D01*
X999609Y-390990D01*
X1000921Y-389678D01*
X1004856D01*
X1010104Y-397549D02*
X1011416D01*
X1012728Y-396237D01*
Y-389678D01*
X1008792D01*
X1007480Y-390990D01*
Y-393614D01*
X1008792Y-394925D01*
X1012728D01*
X1015352D02*
X1017976D01*
X1016664D01*
Y-389678D01*
X1015352D01*
X1021911Y-394925D02*
Y-389678D01*
X1025847D01*
X1027159Y-390990D01*
Y-394925D01*
X1033718D02*
X1031095D01*
X1029783Y-393614D01*
Y-390990D01*
X1031095Y-389678D01*
X1033718D01*
X1035030Y-390990D01*
Y-392302D01*
X1029783D01*
X1037654Y-389678D02*
Y-394925D01*
Y-392302D01*
X1038966Y-390990D01*
X1040278Y-389678D01*
X1041590D01*
X1180716Y-268944D02*
Y-276815D01*
X1184652D01*
X1185964Y-275503D01*
Y-270256D01*
X1184652Y-268944D01*
X1180716D01*
X1189900Y-276815D02*
X1192523D01*
X1193835Y-275503D01*
Y-272879D01*
X1192523Y-271568D01*
X1189900D01*
X1188588Y-272879D01*
Y-275503D01*
X1189900Y-276815D01*
X1201707Y-271568D02*
X1197771D01*
X1196459Y-272879D01*
Y-275503D01*
X1197771Y-276815D01*
X1201707D01*
X1204331Y-271568D02*
Y-275503D01*
X1205643Y-276815D01*
X1209578D01*
Y-271568D01*
X1212202Y-276815D02*
Y-271568D01*
X1213514D01*
X1214826Y-272879D01*
Y-276815D01*
Y-272879D01*
X1216138Y-271568D01*
X1217450Y-272879D01*
Y-276815D01*
X1224009D02*
X1221385D01*
X1220074Y-275503D01*
Y-272879D01*
X1221385Y-271568D01*
X1224009D01*
X1225321Y-272879D01*
Y-274191D01*
X1220074D01*
X1227945Y-276815D02*
Y-271568D01*
X1231881D01*
X1233193Y-272879D01*
Y-276815D01*
X1237129Y-270256D02*
Y-271568D01*
X1235817D01*
X1238440D01*
X1237129D01*
Y-275503D01*
X1238440Y-276815D01*
X1180716Y-308314D02*
Y-316185D01*
X1185964D01*
X1189900Y-310938D02*
X1192523D01*
X1193835Y-312249D01*
Y-316185D01*
X1189900D01*
X1188588Y-314873D01*
X1189900Y-313561D01*
X1193835D01*
X1196459Y-310938D02*
Y-314873D01*
X1197771Y-316185D01*
X1201707D01*
Y-317497D01*
X1200395Y-318809D01*
X1199083D01*
X1201707Y-316185D02*
Y-310938D01*
X1208266Y-316185D02*
X1205643D01*
X1204331Y-314873D01*
Y-312249D01*
X1205643Y-310938D01*
X1208266D01*
X1209578Y-312249D01*
Y-313561D01*
X1204331D01*
X1212202Y-310938D02*
Y-316185D01*
Y-313561D01*
X1213514Y-312249D01*
X1214826Y-310938D01*
X1216138D01*
X1227945Y-316185D02*
Y-308314D01*
X1233193Y-316185D01*
Y-308314D01*
X1237129Y-310938D02*
X1239752D01*
X1241064Y-312249D01*
Y-316185D01*
X1237129D01*
X1235817Y-314873D01*
X1237129Y-313561D01*
X1241064D01*
X1243688Y-316185D02*
Y-310938D01*
X1245000D01*
X1246312Y-312249D01*
Y-316185D01*
Y-312249D01*
X1247624Y-310938D01*
X1248936Y-312249D01*
Y-316185D01*
X1255495D02*
X1252872D01*
X1251560Y-314873D01*
Y-312249D01*
X1252872Y-310938D01*
X1255495D01*
X1256807Y-312249D01*
Y-313561D01*
X1251560D01*
X1180716Y-347684D02*
Y-355555D01*
X1184652D01*
X1185964Y-354243D01*
Y-348996D01*
X1184652Y-347684D01*
X1180716D01*
X1189900Y-350308D02*
X1192523D01*
X1193835Y-351620D01*
Y-355555D01*
X1189900D01*
X1188588Y-354243D01*
X1189900Y-352931D01*
X1193835D01*
X1197771Y-348996D02*
Y-350308D01*
X1196459D01*
X1199083D01*
X1197771D01*
Y-354243D01*
X1199083Y-355555D01*
X1206954D02*
X1204331D01*
X1203019Y-354243D01*
Y-351620D01*
X1204331Y-350308D01*
X1206954D01*
X1208266Y-351620D01*
Y-352931D01*
X1203019D01*
X1180716Y-387054D02*
Y-394925D01*
X1184652D01*
X1185964Y-393614D01*
Y-388366D01*
X1184652Y-387054D01*
X1180716D01*
X1189900Y-394925D02*
X1192523D01*
X1193835Y-393614D01*
Y-390990D01*
X1192523Y-389678D01*
X1189900D01*
X1188588Y-390990D01*
Y-393614D01*
X1189900Y-394925D01*
X1201707Y-389678D02*
X1197771D01*
X1196459Y-390990D01*
Y-393614D01*
X1197771Y-394925D01*
X1201707D01*
X1204331Y-389678D02*
Y-393614D01*
X1205643Y-394925D01*
X1209578D01*
Y-389678D01*
X1212202Y-394925D02*
Y-389678D01*
X1213514D01*
X1214826Y-390990D01*
Y-394925D01*
Y-390990D01*
X1216138Y-389678D01*
X1217450Y-390990D01*
Y-394925D01*
X1224009D02*
X1221385D01*
X1220074Y-393614D01*
Y-390990D01*
X1221385Y-389678D01*
X1224009D01*
X1225321Y-390990D01*
Y-392302D01*
X1220074D01*
X1227945Y-394925D02*
Y-389678D01*
X1231881D01*
X1233193Y-390990D01*
Y-394925D01*
X1237129Y-388366D02*
Y-389678D01*
X1235817D01*
X1238440D01*
X1237129D01*
Y-393614D01*
X1238440Y-394925D01*
D39*
X1334260Y-383114D02*
Y-343744D01*
X1176779Y-304374D02*
X1452370D01*
X1176779Y-343744D02*
X1452370D01*
X979929Y-383114D02*
X1452370D01*
X979929Y-265004D02*
X1452370D01*
X979929Y-422484D02*
Y-265004D01*
X1176779Y-422484D02*
Y-265004D01*
X-201173Y746807D02*
X1452370D01*
Y-422484D02*
Y746807D01*
X-201173Y-422484D02*
Y746807D01*
Y-422484D02*
X1452370D01*
X1190557Y-408707D02*
X1186622D01*
Y-414610D01*
X1190557D01*
X1186622Y-411659D02*
X1188590D01*
X1192525Y-408707D02*
Y-414610D01*
X1195477D01*
X1196461Y-413626D01*
Y-409691D01*
X1195477Y-408707D01*
X1192525D01*
X1202365Y-409691D02*
X1201381Y-408707D01*
X1199413D01*
X1198429Y-409691D01*
Y-413626D01*
X1199413Y-414610D01*
X1201381D01*
X1202365Y-413626D01*
Y-411659D01*
X1200397D01*
X1204333Y-414610D02*
Y-410675D01*
X1206300Y-408707D01*
X1208268Y-410675D01*
Y-414610D01*
Y-411659D01*
X1204333D01*
X1210236Y-414610D02*
Y-408707D01*
X1213188D01*
X1214172Y-409691D01*
Y-411659D01*
X1213188Y-412642D01*
X1210236D01*
X1212204D02*
X1214172Y-414610D01*
X1216140Y-415594D02*
X1220076D01*
X1222043Y-414610D02*
Y-408707D01*
X1224995D01*
X1225979Y-409691D01*
Y-411659D01*
X1224995Y-412642D01*
X1222043D01*
X1228931Y-410675D02*
X1230899D01*
X1231883Y-411659D01*
Y-414610D01*
X1228931D01*
X1227947Y-413626D01*
X1228931Y-412642D01*
X1231883D01*
X1233850Y-414610D02*
Y-410675D01*
X1236802D01*
X1237786Y-411659D01*
Y-414610D01*
X1242706D02*
X1240738D01*
X1239754Y-413626D01*
Y-411659D01*
X1240738Y-410675D01*
X1242706D01*
X1243690Y-411659D01*
Y-412642D01*
X1239754D01*
X1245658Y-414610D02*
X1247626D01*
X1246642D01*
Y-408707D01*
X1245658D01*
X1250577Y-415594D02*
X1254513D01*
X1256481Y-409691D02*
X1257465Y-408707D01*
X1259433D01*
X1260417Y-409691D01*
Y-413626D01*
X1259433Y-414610D01*
X1257465D01*
X1256481Y-413626D01*
Y-409691D01*
X1262385D02*
X1263369Y-408707D01*
X1265336D01*
X1266320Y-409691D01*
Y-413626D01*
X1265336Y-414610D01*
X1263369D01*
X1262385Y-413626D01*
Y-409691D01*
X1268288Y-414610D02*
Y-413626D01*
X1269272D01*
Y-414610D01*
X1268288D01*
X1273208D02*
Y-408707D01*
X1276160D01*
X1277144Y-409691D01*
Y-411659D01*
X1276160Y-412642D01*
X1273208D01*
X1283047Y-410675D02*
X1280095D01*
X1279111Y-411659D01*
Y-413626D01*
X1280095Y-414610D01*
X1283047D01*
X1285015Y-408707D02*
Y-414610D01*
X1287967D01*
X1288951Y-413626D01*
Y-412642D01*
Y-411659D01*
X1287967Y-410675D01*
X1285015D01*
X1290919Y-408707D02*
Y-414610D01*
X1293871D01*
X1294854Y-413626D01*
Y-409691D01*
X1293871Y-408707D01*
X1290919D01*
X1297806Y-414610D02*
X1299774D01*
X1300758Y-413626D01*
Y-411659D01*
X1299774Y-410675D01*
X1297806D01*
X1296822Y-411659D01*
Y-413626D01*
X1297806Y-414610D01*
X1306662Y-410675D02*
X1303710D01*
X1302726Y-411659D01*
Y-413626D01*
X1303710Y-414610D01*
X1306662D01*
D96*
X-20685Y-39370D02*
X-8169D01*
X-20685Y0D02*
X-7874D01*
X-19685Y-39370D02*
Y-19685D01*
Y0D01*
Y-39370D02*
X-17685Y-33370D01*
X-21685D02*
X-19685Y-39370D01*
X-21685Y-6000D02*
X-19685Y0D01*
X-17685Y-6000D01*
X348331Y-57118D02*
X354331Y-55118D01*
X348331Y-53118D02*
X354331Y-55118D01*
X0D02*
X6000Y-53118D01*
X0Y-55118D02*
X6000Y-57118D01*
X190661Y-55118D02*
X354331D01*
X0D02*
X160470D01*
X354331Y-56118D02*
Y-47539D01*
X0Y-56118D02*
Y-47539D01*
X-19685Y275590D02*
X-17685Y269590D01*
X-21685D02*
X-19685Y275590D01*
X-21685Y6000D02*
X-19685Y0D01*
X-17685Y6000D01*
X-19685Y151291D02*
Y275590D01*
Y0D02*
Y121100D01*
X-20685Y275590D02*
X-8169D01*
X-20685Y0D02*
X-8169D01*
D97*
X-23641Y-30880D02*
Y-28880D01*
Y-29880D01*
X-29639D01*
X-28639Y-30880D01*
Y-25881D02*
X-29639Y-24881D01*
Y-22882D01*
X-28639Y-21882D01*
X-24640D01*
X-23641Y-22882D01*
Y-24881D01*
X-24640Y-25881D01*
X-28639D01*
X-23641Y-19883D02*
X-24640D01*
Y-18883D01*
X-23641D01*
Y-19883D01*
X-28639Y-14885D02*
X-29639Y-13885D01*
Y-11886D01*
X-28639Y-10886D01*
X-24640D01*
X-23641Y-11886D01*
Y-13885D01*
X-24640Y-14885D01*
X-28639D01*
Y-8887D02*
X-29639Y-7887D01*
Y-5887D01*
X-28639Y-4888D01*
X-24640D01*
X-23641Y-5887D01*
Y-7887D01*
X-24640Y-8887D01*
X-28639D01*
X162070Y-57718D02*
X163069Y-58717D01*
X165069D01*
X166068Y-57718D01*
Y-53719D01*
X165069Y-52719D01*
X163069D01*
X162070Y-53719D01*
Y-54718D01*
X163069Y-55718D01*
X166068D01*
X168068Y-53719D02*
X169068Y-52719D01*
X171067D01*
X172066Y-53719D01*
Y-57718D01*
X171067Y-58717D01*
X169068D01*
X168068Y-57718D01*
Y-53719D01*
X174066Y-58717D02*
Y-57718D01*
X175066D01*
Y-58717D01*
X174066D01*
X179064Y-53719D02*
X180064Y-52719D01*
X182063D01*
X183063Y-53719D01*
Y-57718D01*
X182063Y-58717D01*
X180064D01*
X179064Y-57718D01*
Y-53719D01*
X185062D02*
X186062Y-52719D01*
X188061D01*
X189061Y-53719D01*
Y-57718D01*
X188061Y-58717D01*
X186062D01*
X185062Y-57718D01*
Y-53719D01*
X-22084Y122700D02*
Y126698D01*
X-21084D01*
X-17086Y122700D01*
X-16086D01*
X-21084Y128698D02*
X-22084Y129697D01*
Y131697D01*
X-21084Y132696D01*
X-17086D01*
X-16086Y131697D01*
Y129697D01*
X-17086Y128698D01*
X-21084D01*
X-16086Y134696D02*
X-17086D01*
Y135695D01*
X-16086D01*
Y134696D01*
X-21084Y139694D02*
X-22084Y140694D01*
Y142693D01*
X-21084Y143693D01*
X-17086D01*
X-16086Y142693D01*
Y140694D01*
X-17086Y139694D01*
X-21084D01*
Y145692D02*
X-22084Y146692D01*
Y148691D01*
X-21084Y149691D01*
X-17086D01*
X-16086Y148691D01*
Y146692D01*
X-17086Y145692D01*
X-21084D01*
M02*
