G04*
G04 #@! TF.GenerationSoftware,Altium Limited,Altium Designer,23.5.0 (17)*
G04*
G04 Layer_Physical_Order=2*
G04 Layer_Color=3381759*
%FSLAX25Y25*%
%MOIN*%
G70*
G04*
G04 #@! TF.SameCoordinates,B4EA8652-FAED-489D-AB06-0C51CEF096E7*
G04*
G04*
G04 #@! TF.FilePolarity,Positive*
G04*
G01*
G75*
%ADD10C,0.01575*%
%ADD11C,0.00591*%
%ADD12C,0.05906*%
%ADD13C,0.00984*%
%ADD14C,0.01968*%
%ADD15C,0.02953*%
%ADD39C,0.00787*%
%ADD40C,0.15748*%
G04:AMPARAMS|DCode=41|XSize=82.68mil|YSize=78.74mil|CornerRadius=0mil|HoleSize=0mil|Usage=FLASHONLY|Rotation=225.000|XOffset=0mil|YOffset=0mil|HoleType=Round|Shape=Round|*
%AMOVALD41*
21,1,0.00394,0.07874,0.00000,0.00000,225.0*
1,1,0.07874,0.00139,0.00139*
1,1,0.07874,-0.00139,-0.00139*
%
%ADD41OVALD41*%

G04:AMPARAMS|DCode=42|XSize=82.68mil|YSize=78.74mil|CornerRadius=0mil|HoleSize=0mil|Usage=FLASHONLY|Rotation=135.000|XOffset=0mil|YOffset=0mil|HoleType=Round|Shape=Round|*
%AMOVALD42*
21,1,0.00394,0.07874,0.00000,0.00000,135.0*
1,1,0.07874,0.00139,-0.00139*
1,1,0.07874,-0.00139,0.00139*
%
%ADD42OVALD42*%

%ADD43C,0.06693*%
%ADD44R,0.04921X0.04921*%
G04:AMPARAMS|DCode=45|XSize=49.21mil|YSize=49.21mil|CornerRadius=12.3mil|HoleSize=0mil|Usage=FLASHONLY|Rotation=180.000|XOffset=0mil|YOffset=0mil|HoleType=Round|Shape=RoundedRectangle|*
%AMROUNDEDRECTD45*
21,1,0.04921,0.02461,0,0,180.0*
21,1,0.02461,0.04921,0,0,180.0*
1,1,0.02461,-0.01230,0.01230*
1,1,0.02461,0.01230,0.01230*
1,1,0.02461,0.01230,-0.01230*
1,1,0.02461,-0.01230,-0.01230*
%
%ADD45ROUNDEDRECTD45*%
%ADD46C,0.02362*%
%ADD47C,0.00807*%
%ADD48R,0.16142X0.07874*%
%ADD49R,0.06299X0.12598*%
G04:AMPARAMS|DCode=50|XSize=62.99mil|YSize=125.98mil|CornerRadius=0mil|HoleSize=0mil|Usage=FLASHONLY|Rotation=45.000|XOffset=0mil|YOffset=0mil|HoleType=Round|Shape=Rectangle|*
%AMROTATEDRECTD50*
4,1,4,0.02227,-0.06681,-0.06681,0.02227,-0.02227,0.06681,0.06681,-0.02227,0.02227,-0.06681,0.0*
%
%ADD50ROTATEDRECTD50*%

G36*
X352324Y202589D02*
X351536Y202367D01*
X351250Y202834D01*
X350033Y204259D01*
X350010Y204293D01*
X342425Y211879D01*
X342670Y212246D01*
X343353Y213894D01*
X343701Y215644D01*
Y217427D01*
X343353Y219177D01*
X342670Y220825D01*
X341679Y222308D01*
X340418Y223569D01*
X338935Y224560D01*
X337287Y225243D01*
X335538Y225591D01*
X333754D01*
X332004Y225243D01*
X330357Y224560D01*
X328873Y223569D01*
X327612Y222308D01*
X326621Y220825D01*
X325939Y219177D01*
X325591Y217427D01*
Y215644D01*
X325939Y213894D01*
X326621Y212246D01*
X327612Y210763D01*
X328873Y209502D01*
X330357Y208511D01*
X332004Y207828D01*
X333754Y207480D01*
X335538D01*
X337287Y207828D01*
X338935Y208511D01*
X339302Y208756D01*
X346888Y201171D01*
X346974Y201114D01*
X347882Y200007D01*
X348605Y198654D01*
X349050Y197187D01*
X349190Y195762D01*
X349170Y195661D01*
Y82835D01*
X348399Y82677D01*
X328976D01*
Y83147D01*
X328617Y84015D01*
X327952Y84680D01*
X327084Y85039D01*
X326145D01*
X325276Y84680D01*
X324980Y84383D01*
X301386D01*
X301309Y84368D01*
X299764Y84520D01*
X298203Y84993D01*
X296766Y85762D01*
X295565Y86747D01*
X295521Y86812D01*
X263588Y118746D01*
X263523Y118790D01*
X262537Y119990D01*
X261769Y121428D01*
X261295Y122988D01*
X261143Y124534D01*
X261158Y124611D01*
Y126314D01*
X261455Y126611D01*
X261815Y127479D01*
Y128419D01*
X261455Y129287D01*
X260790Y129951D01*
X259922Y130311D01*
X258983D01*
X258114Y129951D01*
X257450Y129287D01*
X257090Y128419D01*
Y127479D01*
X257450Y126611D01*
X257747Y126314D01*
Y124611D01*
X257743D01*
X257838Y123401D01*
X257827Y123344D01*
X257853Y123213D01*
X257887Y122779D01*
X257949Y122523D01*
X257262Y122138D01*
X244998Y134402D01*
Y134822D01*
X244638Y135690D01*
X243973Y136355D01*
X243105Y136714D01*
X242165D01*
X241297Y136355D01*
X240633Y135690D01*
X240273Y134822D01*
Y133882D01*
X240633Y133014D01*
X241297Y132349D01*
X242165Y131990D01*
X242585D01*
X243866Y130709D01*
X243540Y129921D01*
X216535D01*
X196850Y110236D01*
X179172D01*
Y248016D01*
X187295D01*
Y252953D01*
Y257890D01*
X179172D01*
Y273584D01*
X352324D01*
Y202589D01*
D02*
G37*
G36*
X175158D02*
X174371Y202367D01*
X174085Y202834D01*
X172868Y204259D01*
X172845Y204293D01*
X165259Y211879D01*
X165505Y212246D01*
X166188Y213894D01*
X166535Y215644D01*
Y217427D01*
X166188Y219177D01*
X165505Y220825D01*
X164514Y222308D01*
X163253Y223569D01*
X161770Y224560D01*
X160122Y225243D01*
X158372Y225591D01*
X156588D01*
X154839Y225243D01*
X153191Y224560D01*
X151708Y223569D01*
X150447Y222308D01*
X149456Y220825D01*
X148773Y219177D01*
X148425Y217427D01*
Y215644D01*
X148773Y213894D01*
X149456Y212246D01*
X150447Y210763D01*
X151708Y209502D01*
X153191Y208511D01*
X154839Y207828D01*
X156588Y207480D01*
X158372D01*
X160122Y207828D01*
X161770Y208511D01*
X162137Y208756D01*
X169723Y201171D01*
X169808Y201114D01*
X170717Y200007D01*
X171440Y198654D01*
X171885Y197187D01*
X172025Y195762D01*
X172005Y195661D01*
Y82835D01*
X171233Y82677D01*
X151811D01*
Y83147D01*
X151452Y84015D01*
X150787Y84680D01*
X149919Y85039D01*
X148979D01*
X148111Y84680D01*
X147814Y84383D01*
X124221D01*
X124144Y84368D01*
X122598Y84520D01*
X121038Y84993D01*
X119600Y85762D01*
X118400Y86747D01*
X118356Y86812D01*
X86422Y118746D01*
X86357Y118790D01*
X85372Y119990D01*
X84603Y121428D01*
X84130Y122988D01*
X83978Y124534D01*
X83993Y124611D01*
Y126314D01*
X84290Y126611D01*
X84649Y127479D01*
Y128419D01*
X84290Y129287D01*
X83625Y129951D01*
X82757Y130311D01*
X81817D01*
X80949Y129951D01*
X80285Y129287D01*
X79925Y128419D01*
Y127479D01*
X80285Y126611D01*
X80581Y126314D01*
Y124611D01*
X80578D01*
X80673Y123401D01*
X80662Y123344D01*
X80688Y123213D01*
X80722Y122779D01*
X80783Y122523D01*
X80097Y122138D01*
X67832Y134402D01*
Y134822D01*
X67472Y135690D01*
X66808Y136355D01*
X65940Y136714D01*
X65000D01*
X64132Y136355D01*
X63467Y135690D01*
X63108Y134822D01*
Y133882D01*
X63467Y133014D01*
X64132Y132349D01*
X65000Y131990D01*
X65420D01*
X66701Y130709D01*
X66374Y129921D01*
X39370D01*
X19685Y110236D01*
X2007D01*
Y248016D01*
X10130D01*
Y252953D01*
Y257890D01*
X2007D01*
Y273584D01*
X175158D01*
Y202589D01*
D02*
G37*
G36*
X1160849Y-309351D02*
X1160562D01*
Y-309637D01*
X1160276D01*
Y-309924D01*
Y-310210D01*
X1159990D01*
Y-310496D01*
X1159703D01*
Y-310783D01*
X1159417D01*
Y-311069D01*
Y-311355D01*
X1159131D01*
Y-311642D01*
X1158844D01*
Y-311928D01*
X1158558D01*
Y-312214D01*
X1158272D01*
Y-312501D01*
Y-312787D01*
X1157985D01*
Y-313073D01*
X1157699D01*
Y-313359D01*
X1157413D01*
Y-313646D01*
Y-313932D01*
X1157127D01*
Y-314218D01*
X1156840D01*
Y-314505D01*
X1156554D01*
Y-314791D01*
X1156268D01*
Y-315077D01*
Y-315364D01*
X1155981D01*
Y-315650D01*
X1155695D01*
Y-315936D01*
X1155409D01*
Y-316223D01*
Y-316509D01*
X1155122D01*
Y-316795D01*
X1154836D01*
Y-317081D01*
X1154550D01*
Y-317368D01*
Y-317654D01*
X1154263D01*
Y-317940D01*
X1153977D01*
Y-318227D01*
X1153691D01*
Y-318513D01*
X1153405D01*
Y-318799D01*
Y-319086D01*
X1153118D01*
Y-319372D01*
X1152832D01*
Y-319658D01*
X1152546D01*
Y-319945D01*
Y-320231D01*
X1152259D01*
Y-320517D01*
X1151973D01*
Y-320803D01*
X1151687D01*
Y-321090D01*
Y-321376D01*
X1151400D01*
Y-321662D01*
X1151114D01*
Y-321949D01*
X1150828D01*
Y-322235D01*
X1150541D01*
Y-322521D01*
Y-322808D01*
X1150255D01*
Y-323094D01*
X1149969D01*
Y-323380D01*
X1149682D01*
Y-323667D01*
Y-323953D01*
X1149396D01*
Y-324239D01*
X1149110D01*
Y-324526D01*
X1148824D01*
Y-324812D01*
Y-325098D01*
X1148537D01*
Y-325384D01*
X1148251D01*
Y-325671D01*
X1147965D01*
Y-325957D01*
X1147678D01*
Y-326243D01*
Y-326530D01*
X1147392D01*
Y-326816D01*
X1147106D01*
Y-327102D01*
X1146819D01*
Y-327389D01*
Y-327675D01*
X1146533D01*
Y-327961D01*
X1146247D01*
Y-328248D01*
X1145960D01*
Y-328534D01*
X1145674D01*
Y-328820D01*
Y-329107D01*
X1145960D01*
Y-329393D01*
Y-329679D01*
X1146247D01*
Y-329965D01*
Y-330252D01*
X1146533D01*
Y-330538D01*
X1146819D01*
Y-330824D01*
Y-331111D01*
X1147106D01*
Y-331397D01*
Y-331683D01*
X1147392D01*
Y-331970D01*
Y-332256D01*
X1147678D01*
Y-332542D01*
Y-332829D01*
X1147965D01*
Y-333115D01*
Y-333401D01*
X1148251D01*
Y-333688D01*
Y-333974D01*
X1148537D01*
Y-334260D01*
Y-334547D01*
X1148824D01*
Y-334833D01*
Y-335119D01*
X1149110D01*
Y-335405D01*
X1149396D01*
Y-335692D01*
Y-335978D01*
X1149682D01*
Y-336264D01*
Y-336551D01*
X1149969D01*
Y-336837D01*
Y-337123D01*
X1150255D01*
Y-337410D01*
Y-337696D01*
X1150541D01*
Y-337982D01*
Y-338269D01*
X1150828D01*
Y-338555D01*
Y-338841D01*
X1151114D01*
Y-339128D01*
Y-339414D01*
X1151400D01*
Y-339700D01*
X1151687D01*
Y-339986D01*
Y-340273D01*
X1151973D01*
Y-340559D01*
Y-340845D01*
X1152259D01*
Y-341132D01*
Y-341418D01*
X1152546D01*
Y-341704D01*
Y-341991D01*
X1152832D01*
Y-342277D01*
Y-342563D01*
X1153118D01*
Y-342850D01*
Y-343136D01*
X1153405D01*
Y-343422D01*
Y-343709D01*
X1153691D01*
Y-343995D01*
X1153977D01*
Y-344281D01*
Y-344567D01*
X1154263D01*
Y-344854D01*
Y-345140D01*
X1154550D01*
Y-345427D01*
X1139375D01*
Y-345140D01*
X1139089D01*
Y-344854D01*
Y-344567D01*
Y-344281D01*
X1138803D01*
Y-343995D01*
Y-343709D01*
Y-343422D01*
X1138516D01*
Y-343136D01*
Y-342850D01*
X1138230D01*
Y-342563D01*
Y-342277D01*
Y-341991D01*
X1137944D01*
Y-341704D01*
Y-341418D01*
Y-341132D01*
X1137657D01*
Y-340845D01*
Y-340559D01*
X1137371D01*
Y-340273D01*
Y-339986D01*
Y-339700D01*
X1137085D01*
Y-339414D01*
Y-339128D01*
Y-338841D01*
X1136798D01*
Y-338555D01*
Y-338269D01*
Y-337982D01*
X1136512D01*
Y-337696D01*
X1135939D01*
Y-337982D01*
Y-338269D01*
X1135653D01*
Y-338555D01*
X1135367D01*
Y-338841D01*
Y-339128D01*
X1135081D01*
Y-339414D01*
X1134794D01*
Y-339700D01*
Y-339986D01*
X1134508D01*
Y-340273D01*
X1134221D01*
Y-340559D01*
Y-340845D01*
X1133935D01*
Y-341132D01*
X1133649D01*
Y-341418D01*
X1133363D01*
Y-341704D01*
Y-341991D01*
X1133076D01*
Y-342277D01*
X1132790D01*
Y-342563D01*
Y-342850D01*
X1132504D01*
Y-343136D01*
X1132217D01*
Y-343422D01*
Y-343709D01*
X1131931D01*
Y-343995D01*
X1131645D01*
Y-344281D01*
Y-344567D01*
X1131358D01*
Y-344854D01*
X1131072D01*
Y-345140D01*
Y-345427D01*
X1115039D01*
Y-345140D01*
X1115325D01*
Y-344854D01*
X1115611D01*
Y-344567D01*
X1115897D01*
Y-344281D01*
X1116184D01*
Y-343995D01*
Y-343709D01*
X1116470D01*
Y-343422D01*
X1116757D01*
Y-343136D01*
X1117043D01*
Y-342850D01*
X1117329D01*
Y-342563D01*
Y-342277D01*
X1117615D01*
Y-341991D01*
X1117902D01*
Y-341704D01*
X1118188D01*
Y-341418D01*
Y-341132D01*
X1118474D01*
Y-340845D01*
X1118761D01*
Y-340559D01*
X1119047D01*
Y-340273D01*
X1119333D01*
Y-339986D01*
Y-339700D01*
X1119620D01*
Y-339414D01*
X1119906D01*
Y-339128D01*
X1120192D01*
Y-338841D01*
X1120479D01*
Y-338555D01*
Y-338269D01*
X1120765D01*
Y-337982D01*
X1121051D01*
Y-337696D01*
X1121338D01*
Y-337410D01*
Y-337123D01*
X1121624D01*
Y-336837D01*
X1121910D01*
Y-336551D01*
X1122196D01*
Y-336264D01*
X1122483D01*
Y-335978D01*
Y-335692D01*
X1122769D01*
Y-335405D01*
X1123055D01*
Y-335119D01*
X1123342D01*
Y-334833D01*
Y-334547D01*
X1123628D01*
Y-334260D01*
X1123914D01*
Y-333974D01*
X1124201D01*
Y-333688D01*
X1124487D01*
Y-333401D01*
Y-333115D01*
X1124773D01*
Y-332829D01*
X1125060D01*
Y-332542D01*
X1125346D01*
Y-332256D01*
Y-331970D01*
X1125632D01*
Y-331683D01*
X1125918D01*
Y-331397D01*
X1126205D01*
Y-331111D01*
X1126491D01*
Y-330824D01*
Y-330538D01*
X1126777D01*
Y-330252D01*
X1127064D01*
Y-329965D01*
X1127350D01*
Y-329679D01*
X1127636D01*
Y-329393D01*
Y-329107D01*
X1127923D01*
Y-328820D01*
X1128209D01*
Y-328534D01*
X1128495D01*
Y-328248D01*
Y-327961D01*
X1128782D01*
Y-327675D01*
X1129068D01*
Y-327389D01*
X1129354D01*
Y-327102D01*
X1129640D01*
Y-326816D01*
Y-326530D01*
X1129927D01*
Y-326243D01*
Y-325957D01*
Y-325671D01*
X1129640D01*
Y-325384D01*
X1129354D01*
Y-325098D01*
Y-324812D01*
X1129068D01*
Y-324526D01*
Y-324239D01*
X1128782D01*
Y-323953D01*
Y-323667D01*
X1128495D01*
Y-323380D01*
Y-323094D01*
X1128209D01*
Y-322808D01*
Y-322521D01*
X1127923D01*
Y-322235D01*
Y-321949D01*
X1127636D01*
Y-321662D01*
X1127350D01*
Y-321376D01*
Y-321090D01*
X1127064D01*
Y-320803D01*
Y-320517D01*
X1126777D01*
Y-320231D01*
Y-319945D01*
X1126491D01*
Y-319658D01*
Y-319372D01*
X1126205D01*
Y-319086D01*
Y-318799D01*
X1125918D01*
Y-318513D01*
Y-318227D01*
X1125632D01*
Y-317940D01*
X1125346D01*
Y-317654D01*
Y-317368D01*
X1125060D01*
Y-317081D01*
Y-316795D01*
X1124773D01*
Y-316509D01*
Y-316223D01*
X1124487D01*
Y-315936D01*
Y-315650D01*
X1124201D01*
Y-315364D01*
Y-315077D01*
X1123914D01*
Y-314791D01*
Y-314505D01*
X1123628D01*
Y-314218D01*
Y-313932D01*
X1123342D01*
Y-313646D01*
X1123055D01*
Y-313359D01*
Y-313073D01*
X1122769D01*
Y-312787D01*
Y-312501D01*
X1122483D01*
Y-312214D01*
Y-311928D01*
X1122196D01*
Y-311642D01*
Y-311355D01*
X1121910D01*
Y-311069D01*
Y-310783D01*
X1121624D01*
Y-310496D01*
Y-310210D01*
X1121338D01*
Y-309924D01*
X1121051D01*
Y-309637D01*
Y-309351D01*
X1120765D01*
Y-309065D01*
X1136512D01*
Y-309351D01*
X1136798D01*
Y-309637D01*
Y-309924D01*
Y-310210D01*
X1137085D01*
Y-310496D01*
Y-310783D01*
Y-311069D01*
X1137371D01*
Y-311355D01*
Y-311642D01*
Y-311928D01*
X1137657D01*
Y-312214D01*
Y-312501D01*
Y-312787D01*
X1137944D01*
Y-313073D01*
Y-313359D01*
Y-313646D01*
X1138230D01*
Y-313932D01*
Y-314218D01*
Y-314505D01*
X1138516D01*
Y-314791D01*
Y-315077D01*
Y-315364D01*
X1138803D01*
Y-315650D01*
Y-315936D01*
Y-316223D01*
X1139089D01*
Y-316509D01*
Y-316795D01*
Y-317081D01*
Y-317368D01*
X1139662D01*
Y-317081D01*
X1139948D01*
Y-316795D01*
X1140234D01*
Y-316509D01*
Y-316223D01*
X1140520D01*
Y-315936D01*
X1140807D01*
Y-315650D01*
Y-315364D01*
X1141093D01*
Y-315077D01*
X1141379D01*
Y-314791D01*
Y-314505D01*
X1141666D01*
Y-314218D01*
X1141952D01*
Y-313932D01*
Y-313646D01*
X1142238D01*
Y-313359D01*
X1142525D01*
Y-313073D01*
Y-312787D01*
X1142811D01*
Y-312501D01*
X1143097D01*
Y-312214D01*
Y-311928D01*
X1143384D01*
Y-311642D01*
X1143670D01*
Y-311355D01*
Y-311069D01*
X1143956D01*
Y-310783D01*
X1144242D01*
Y-310496D01*
Y-310210D01*
X1144529D01*
Y-309924D01*
X1144815D01*
Y-309637D01*
Y-309351D01*
X1145101D01*
Y-309065D01*
X1160849D01*
Y-309351D01*
D02*
G37*
G36*
X1027713Y-295322D02*
X1029431D01*
Y-295608D01*
X1030290D01*
Y-295894D01*
X1031149D01*
Y-296181D01*
X1032008D01*
Y-296467D01*
X1032580D01*
Y-296753D01*
X1032867D01*
Y-297040D01*
X1033439D01*
Y-297326D01*
X1033726D01*
Y-297612D01*
X1034298D01*
Y-297899D01*
X1034585D01*
Y-298185D01*
X1034871D01*
Y-298471D01*
X1035157D01*
Y-298758D01*
X1035444D01*
Y-299044D01*
X1035730D01*
Y-299330D01*
X1036016D01*
Y-299616D01*
Y-299903D01*
X1036302D01*
Y-300189D01*
X1036589D01*
Y-300475D01*
Y-300762D01*
X1036875D01*
Y-301048D01*
X1037162D01*
Y-301334D01*
Y-301621D01*
X1037448D01*
Y-301907D01*
Y-302193D01*
Y-302480D01*
X1037734D01*
Y-302766D01*
Y-303052D01*
Y-303339D01*
X1038020D01*
Y-303625D01*
Y-303911D01*
Y-304197D01*
Y-304484D01*
X1038307D01*
Y-304770D01*
Y-305056D01*
Y-305343D01*
Y-305629D01*
Y-305915D01*
X1038593D01*
Y-306202D01*
Y-306488D01*
Y-306774D01*
Y-307061D01*
Y-307347D01*
Y-307633D01*
Y-307920D01*
Y-308206D01*
Y-308492D01*
Y-308778D01*
Y-309065D01*
Y-309351D01*
Y-309637D01*
Y-309924D01*
Y-310210D01*
Y-310496D01*
Y-310783D01*
Y-311069D01*
Y-311355D01*
Y-311642D01*
X1038307D01*
Y-311928D01*
Y-312214D01*
Y-312501D01*
Y-312787D01*
Y-313073D01*
Y-313359D01*
Y-313646D01*
X1038020D01*
Y-313932D01*
Y-314218D01*
Y-314505D01*
Y-314791D01*
Y-315077D01*
X1037734D01*
Y-315364D01*
Y-315650D01*
Y-315936D01*
Y-316223D01*
Y-316509D01*
X1037448D01*
Y-316795D01*
Y-317081D01*
Y-317368D01*
X1037162D01*
Y-317654D01*
Y-317940D01*
Y-318227D01*
Y-318513D01*
X1036875D01*
Y-318799D01*
Y-319086D01*
Y-319372D01*
X1036589D01*
Y-319658D01*
Y-319945D01*
X1036302D01*
Y-320231D01*
Y-320517D01*
Y-320803D01*
X1036016D01*
Y-321090D01*
Y-321376D01*
X1035730D01*
Y-321662D01*
Y-321949D01*
X1035444D01*
Y-322235D01*
Y-322521D01*
X1035157D01*
Y-322808D01*
X1034871D01*
Y-323094D01*
Y-323380D01*
X1034585D01*
Y-323667D01*
X1034298D01*
Y-323953D01*
X1034012D01*
Y-324239D01*
Y-324526D01*
X1033726D01*
Y-324812D01*
X1033439D01*
Y-325098D01*
X1033153D01*
Y-325384D01*
X1032867D01*
Y-325671D01*
X1032580D01*
Y-325957D01*
X1032008D01*
Y-326243D01*
X1031722D01*
Y-326530D01*
X1031149D01*
Y-326816D01*
X1030863D01*
Y-327102D01*
X1030290D01*
Y-327389D01*
X1029431D01*
Y-327675D01*
X1028572D01*
Y-327961D01*
X1027713D01*
Y-328248D01*
X1025995D01*
Y-328534D01*
X1020842D01*
Y-328248D01*
X1018265D01*
Y-327961D01*
X1016261D01*
Y-327675D01*
X1014829D01*
Y-327389D01*
X1013398D01*
Y-327102D01*
X1011966D01*
Y-327389D01*
Y-327675D01*
Y-327961D01*
Y-328248D01*
Y-328534D01*
Y-328820D01*
Y-329107D01*
X1011680D01*
Y-329393D01*
Y-329679D01*
Y-329965D01*
Y-330252D01*
Y-330538D01*
Y-330824D01*
X1011393D01*
Y-331111D01*
Y-331397D01*
Y-331683D01*
Y-331970D01*
Y-332256D01*
Y-332542D01*
X1011107D01*
Y-332829D01*
Y-333115D01*
Y-333401D01*
Y-333688D01*
Y-333974D01*
Y-334260D01*
Y-334547D01*
X1010821D01*
Y-334833D01*
Y-335119D01*
Y-335405D01*
Y-335692D01*
Y-335978D01*
Y-336264D01*
X1010534D01*
Y-336551D01*
Y-336837D01*
Y-337123D01*
Y-337410D01*
Y-337696D01*
Y-337982D01*
X1010248D01*
Y-338269D01*
Y-338555D01*
Y-338841D01*
Y-339128D01*
Y-339414D01*
Y-339700D01*
Y-339986D01*
X1009962D01*
Y-340273D01*
Y-340559D01*
Y-340845D01*
Y-341132D01*
Y-341418D01*
Y-341704D01*
X1009676D01*
Y-341991D01*
Y-342277D01*
Y-342563D01*
Y-342850D01*
Y-343136D01*
Y-343422D01*
X1009389D01*
Y-343709D01*
Y-343995D01*
Y-344281D01*
Y-344567D01*
Y-344854D01*
Y-345140D01*
Y-345427D01*
X995932D01*
Y-345140D01*
X996219D01*
Y-344854D01*
Y-344567D01*
Y-344281D01*
Y-343995D01*
Y-343709D01*
X996505D01*
Y-343422D01*
Y-343136D01*
Y-342850D01*
Y-342563D01*
Y-342277D01*
Y-341991D01*
Y-341704D01*
X996791D01*
Y-341418D01*
Y-341132D01*
Y-340845D01*
Y-340559D01*
Y-340273D01*
Y-339986D01*
X997078D01*
Y-339700D01*
Y-339414D01*
Y-339128D01*
Y-338841D01*
Y-338555D01*
Y-338269D01*
X997364D01*
Y-337982D01*
Y-337696D01*
Y-337410D01*
Y-337123D01*
Y-336837D01*
Y-336551D01*
Y-336264D01*
X997650D01*
Y-335978D01*
Y-335692D01*
Y-335405D01*
Y-335119D01*
Y-334833D01*
Y-334547D01*
X997937D01*
Y-334260D01*
Y-333974D01*
Y-333688D01*
Y-333401D01*
Y-333115D01*
Y-332829D01*
X998223D01*
Y-332542D01*
Y-332256D01*
Y-331970D01*
Y-331683D01*
Y-331397D01*
Y-331111D01*
X998509D01*
Y-330824D01*
Y-330538D01*
Y-330252D01*
Y-329965D01*
Y-329679D01*
Y-329393D01*
Y-329107D01*
X998796D01*
Y-328820D01*
Y-328534D01*
Y-328248D01*
Y-327961D01*
Y-327675D01*
Y-327389D01*
X999082D01*
Y-327102D01*
Y-326816D01*
Y-326530D01*
Y-326243D01*
Y-325957D01*
Y-325671D01*
X999368D01*
Y-325384D01*
Y-325098D01*
Y-324812D01*
Y-324526D01*
Y-324239D01*
Y-323953D01*
X999654D01*
Y-323667D01*
Y-323380D01*
Y-323094D01*
Y-322808D01*
Y-322521D01*
Y-322235D01*
Y-321949D01*
X999941D01*
Y-321662D01*
Y-321376D01*
Y-321090D01*
Y-320803D01*
Y-320517D01*
Y-320231D01*
X1000227D01*
Y-319945D01*
Y-319658D01*
Y-319372D01*
Y-319086D01*
Y-318799D01*
Y-318513D01*
X1000513D01*
Y-318227D01*
Y-317940D01*
Y-317654D01*
Y-317368D01*
Y-317081D01*
Y-316795D01*
Y-316509D01*
X1000800D01*
Y-316223D01*
Y-315936D01*
Y-315650D01*
Y-315364D01*
Y-315077D01*
Y-314791D01*
X1001086D01*
Y-314505D01*
Y-314218D01*
Y-313932D01*
Y-313646D01*
Y-313359D01*
Y-313073D01*
X1001372D01*
Y-312787D01*
Y-312501D01*
Y-312214D01*
Y-311928D01*
Y-311642D01*
Y-311355D01*
X1001659D01*
Y-311069D01*
Y-310783D01*
Y-310496D01*
Y-310210D01*
Y-309924D01*
Y-309637D01*
Y-309351D01*
X1001945D01*
Y-309065D01*
Y-308778D01*
Y-308492D01*
Y-308206D01*
Y-307920D01*
Y-307633D01*
X1002231D01*
Y-307347D01*
Y-307061D01*
Y-306774D01*
Y-306488D01*
Y-306202D01*
Y-305915D01*
X1002518D01*
Y-305629D01*
Y-305343D01*
Y-305056D01*
Y-304770D01*
Y-304484D01*
Y-304197D01*
Y-303911D01*
X1002804D01*
Y-303625D01*
Y-303339D01*
Y-303052D01*
Y-302766D01*
Y-302480D01*
Y-302193D01*
X1003090D01*
Y-301907D01*
Y-301621D01*
Y-301334D01*
Y-301048D01*
Y-300762D01*
Y-300475D01*
X1003377D01*
Y-300189D01*
Y-299903D01*
Y-299616D01*
Y-299330D01*
Y-299044D01*
Y-298758D01*
Y-298471D01*
X1003663D01*
Y-298185D01*
Y-297899D01*
Y-297612D01*
Y-297326D01*
Y-297040D01*
Y-296753D01*
X1003949D01*
Y-296467D01*
Y-296181D01*
Y-295894D01*
Y-295608D01*
Y-295322D01*
Y-295035D01*
X1027713D01*
Y-295322D01*
D02*
G37*
G36*
X1116757Y-309351D02*
Y-309637D01*
Y-309924D01*
Y-310210D01*
Y-310496D01*
Y-310783D01*
Y-311069D01*
Y-311355D01*
Y-311642D01*
Y-311928D01*
Y-312214D01*
Y-312501D01*
Y-312787D01*
Y-313073D01*
Y-313359D01*
Y-313646D01*
Y-313932D01*
Y-314218D01*
Y-314505D01*
Y-314791D01*
Y-315077D01*
X1116470D01*
Y-315364D01*
Y-315650D01*
Y-315936D01*
Y-316223D01*
Y-316509D01*
X1116184D01*
Y-316795D01*
Y-317081D01*
Y-317368D01*
Y-317654D01*
X1115897D01*
Y-317940D01*
Y-318227D01*
Y-318513D01*
Y-318799D01*
X1115611D01*
Y-319086D01*
Y-319372D01*
Y-319658D01*
X1115325D01*
Y-319945D01*
Y-320231D01*
Y-320517D01*
X1115039D01*
Y-320803D01*
Y-321090D01*
Y-321376D01*
X1114752D01*
Y-321662D01*
Y-321949D01*
Y-322235D01*
X1114466D01*
Y-322521D01*
Y-322808D01*
X1114180D01*
Y-323094D01*
Y-323380D01*
X1113893D01*
Y-323667D01*
Y-323953D01*
Y-324239D01*
X1113607D01*
Y-324526D01*
Y-324812D01*
X1113321D01*
Y-325098D01*
Y-325384D01*
Y-325671D01*
X1113034D01*
Y-325957D01*
Y-326243D01*
X1112748D01*
Y-326530D01*
Y-326816D01*
Y-327102D01*
X1112462D01*
Y-327389D01*
Y-327675D01*
X1112175D01*
Y-327961D01*
Y-328248D01*
Y-328534D01*
X1111889D01*
Y-328820D01*
Y-329107D01*
X1111603D01*
Y-329393D01*
Y-329679D01*
Y-329965D01*
X1111316D01*
Y-330252D01*
Y-330538D01*
X1111030D01*
Y-330824D01*
Y-331111D01*
Y-331397D01*
X1110744D01*
Y-331683D01*
Y-331970D01*
X1110458D01*
Y-332256D01*
Y-332542D01*
Y-332829D01*
X1110171D01*
Y-333115D01*
Y-333401D01*
X1109885D01*
Y-333688D01*
Y-333974D01*
Y-334260D01*
X1109599D01*
Y-334547D01*
Y-334833D01*
X1109312D01*
Y-335119D01*
Y-335405D01*
Y-335692D01*
X1109026D01*
Y-335978D01*
Y-336264D01*
X1108740D01*
Y-336551D01*
Y-336837D01*
Y-337123D01*
X1108453D01*
Y-337410D01*
Y-337696D01*
X1108167D01*
Y-337982D01*
Y-338269D01*
Y-338555D01*
X1107881D01*
Y-338841D01*
Y-339128D01*
X1107594D01*
Y-339414D01*
Y-339700D01*
Y-339986D01*
X1107308D01*
Y-340273D01*
Y-340559D01*
X1107022D01*
Y-340845D01*
Y-341132D01*
Y-341418D01*
X1106736D01*
Y-341704D01*
Y-341991D01*
X1106449D01*
Y-342277D01*
Y-342563D01*
Y-342850D01*
X1106163D01*
Y-343136D01*
Y-343422D01*
X1105877D01*
Y-343709D01*
Y-343995D01*
Y-344281D01*
X1105590D01*
Y-344567D01*
Y-344854D01*
X1105304D01*
Y-345140D01*
Y-345427D01*
Y-345713D01*
X1105018D01*
Y-345999D01*
Y-346285D01*
X1104731D01*
Y-346572D01*
Y-346858D01*
X1104445D01*
Y-347144D01*
Y-347431D01*
X1104159D01*
Y-347717D01*
Y-348003D01*
Y-348290D01*
X1103872D01*
Y-348576D01*
X1103586D01*
Y-348862D01*
Y-349149D01*
Y-349435D01*
X1103300D01*
Y-349721D01*
X1103013D01*
Y-350008D01*
Y-350294D01*
X1102727D01*
Y-350580D01*
Y-350866D01*
X1102441D01*
Y-351153D01*
Y-351439D01*
X1102155D01*
Y-351725D01*
Y-352012D01*
X1101868D01*
Y-352298D01*
X1101582D01*
Y-352584D01*
Y-352871D01*
X1101296D01*
Y-353157D01*
Y-353443D01*
X1101009D01*
Y-353730D01*
X1100723D01*
Y-354016D01*
X1100437D01*
Y-354302D01*
Y-354589D01*
X1100150D01*
Y-354875D01*
X1099864D01*
Y-355161D01*
Y-355447D01*
X1099578D01*
Y-355734D01*
X1099291D01*
Y-356020D01*
X1099005D01*
Y-356306D01*
Y-356593D01*
X1098719D01*
Y-356879D01*
X1098432D01*
Y-357165D01*
X1098146D01*
Y-357452D01*
X1097860D01*
Y-357738D01*
X1097573D01*
Y-358024D01*
Y-358311D01*
X1097287D01*
Y-358597D01*
X1097001D01*
Y-358883D01*
X1096715D01*
Y-359170D01*
X1096428D01*
Y-359456D01*
X1096142D01*
Y-359742D01*
X1095856D01*
Y-360028D01*
X1095569D01*
Y-360315D01*
X1094997D01*
Y-360601D01*
X1094710D01*
Y-360887D01*
X1094424D01*
Y-361174D01*
X1094138D01*
Y-361460D01*
X1093851D01*
Y-361746D01*
X1093279D01*
Y-362033D01*
X1092992D01*
Y-362319D01*
X1092420D01*
Y-362605D01*
X1092134D01*
Y-362892D01*
X1091561D01*
Y-363178D01*
X1091275D01*
Y-363464D01*
X1090702D01*
Y-363751D01*
X1090129D01*
Y-364037D01*
X1089557D01*
Y-364323D01*
X1088984D01*
Y-364609D01*
X1088412D01*
Y-364896D01*
X1087553D01*
Y-365182D01*
X1086980D01*
Y-365468D01*
X1086121D01*
Y-365755D01*
X1084976D01*
Y-366041D01*
X1083831D01*
Y-366327D01*
X1082113D01*
Y-366614D01*
X1080108D01*
Y-366900D01*
X1079822D01*
Y-366614D01*
Y-366327D01*
Y-366041D01*
Y-365755D01*
Y-365468D01*
Y-365182D01*
Y-364896D01*
Y-364609D01*
Y-364323D01*
Y-364037D01*
Y-363751D01*
Y-363464D01*
Y-363178D01*
Y-362892D01*
Y-362605D01*
Y-362319D01*
Y-362033D01*
Y-361746D01*
Y-361460D01*
Y-361174D01*
Y-360887D01*
Y-360601D01*
Y-360315D01*
Y-360028D01*
Y-359742D01*
Y-359456D01*
Y-359170D01*
Y-358883D01*
Y-358597D01*
Y-358311D01*
Y-358024D01*
Y-357738D01*
Y-357452D01*
X1080395D01*
Y-357165D01*
X1080967D01*
Y-356879D01*
X1081540D01*
Y-356593D01*
X1082113D01*
Y-356306D01*
X1082685D01*
Y-356020D01*
X1083258D01*
Y-355734D01*
X1083544D01*
Y-355447D01*
X1084117D01*
Y-355161D01*
X1084403D01*
Y-354875D01*
X1084976D01*
Y-354589D01*
X1085262D01*
Y-354302D01*
X1085548D01*
Y-354016D01*
X1086121D01*
Y-353730D01*
X1086407D01*
Y-353443D01*
X1086694D01*
Y-353157D01*
X1086980D01*
Y-352871D01*
X1087266D01*
Y-352584D01*
X1087553D01*
Y-352298D01*
X1087839D01*
Y-352012D01*
X1088125D01*
Y-351725D01*
X1088412D01*
Y-351439D01*
X1088698D01*
Y-351153D01*
X1088984D01*
Y-350866D01*
X1089270D01*
Y-350580D01*
Y-350294D01*
X1089557D01*
Y-350008D01*
X1089843D01*
Y-349721D01*
X1090129D01*
Y-349435D01*
Y-349149D01*
X1090416D01*
Y-348862D01*
X1090702D01*
Y-348576D01*
Y-348290D01*
X1090988D01*
Y-348003D01*
Y-347717D01*
X1091275D01*
Y-347431D01*
X1091561D01*
Y-347144D01*
Y-346858D01*
X1091847D01*
Y-346572D01*
Y-346285D01*
X1092134D01*
Y-345999D01*
Y-345713D01*
X1090416D01*
Y-345427D01*
X1088412D01*
Y-345140D01*
X1087266D01*
Y-344854D01*
X1086694D01*
Y-344567D01*
X1085835D01*
Y-344281D01*
X1085262D01*
Y-343995D01*
X1084976D01*
Y-343709D01*
X1084403D01*
Y-343422D01*
X1084117D01*
Y-343136D01*
X1083831D01*
Y-342850D01*
X1083544D01*
Y-342563D01*
X1083258D01*
Y-342277D01*
X1082971D01*
Y-341991D01*
Y-341704D01*
X1082685D01*
Y-341418D01*
X1082399D01*
Y-341132D01*
Y-340845D01*
X1082113D01*
Y-340559D01*
Y-340273D01*
X1081826D01*
Y-339986D01*
Y-339700D01*
X1081540D01*
Y-339414D01*
Y-339128D01*
Y-338841D01*
X1081254D01*
Y-338555D01*
Y-338269D01*
Y-337982D01*
Y-337696D01*
X1080967D01*
Y-337410D01*
Y-337123D01*
Y-336837D01*
Y-336551D01*
Y-336264D01*
Y-335978D01*
Y-335692D01*
X1080681D01*
Y-335405D01*
Y-335119D01*
Y-334833D01*
Y-334547D01*
Y-334260D01*
Y-333974D01*
Y-333688D01*
Y-333401D01*
Y-333115D01*
Y-332829D01*
Y-332542D01*
Y-332256D01*
Y-331970D01*
Y-331683D01*
Y-331397D01*
X1080395D01*
Y-331111D01*
Y-330824D01*
Y-330538D01*
Y-330252D01*
Y-329965D01*
Y-329679D01*
Y-329393D01*
Y-329107D01*
Y-328820D01*
Y-328534D01*
Y-328248D01*
Y-327961D01*
Y-327675D01*
Y-327389D01*
Y-327102D01*
X1080108D01*
Y-326816D01*
Y-326530D01*
Y-326243D01*
Y-325957D01*
Y-325671D01*
Y-325384D01*
Y-325098D01*
Y-324812D01*
Y-324526D01*
Y-324239D01*
Y-323953D01*
Y-323667D01*
Y-323380D01*
Y-323094D01*
Y-322808D01*
Y-322521D01*
X1079822D01*
Y-322235D01*
Y-321949D01*
Y-321662D01*
Y-321376D01*
Y-321090D01*
Y-320803D01*
Y-320517D01*
Y-320231D01*
Y-319945D01*
Y-319658D01*
Y-319372D01*
Y-319086D01*
Y-318799D01*
Y-318513D01*
Y-318227D01*
Y-317940D01*
X1079536D01*
Y-317654D01*
Y-317368D01*
Y-317081D01*
Y-316795D01*
Y-316509D01*
Y-316223D01*
Y-315936D01*
Y-315650D01*
Y-315364D01*
Y-315077D01*
Y-314791D01*
Y-314505D01*
Y-314218D01*
Y-313932D01*
X1079249D01*
Y-313646D01*
Y-313359D01*
Y-313073D01*
Y-312787D01*
Y-312501D01*
Y-312214D01*
Y-311928D01*
Y-311642D01*
Y-311355D01*
Y-311069D01*
Y-310783D01*
Y-310496D01*
Y-310210D01*
Y-309924D01*
Y-309637D01*
Y-309351D01*
X1078963D01*
Y-309065D01*
X1092706D01*
Y-309351D01*
Y-309637D01*
Y-309924D01*
Y-310210D01*
Y-310496D01*
Y-310783D01*
Y-311069D01*
Y-311355D01*
Y-311642D01*
Y-311928D01*
Y-312214D01*
Y-312501D01*
Y-312787D01*
Y-313073D01*
X1092992D01*
Y-313359D01*
Y-313646D01*
Y-313932D01*
Y-314218D01*
Y-314505D01*
Y-314791D01*
Y-315077D01*
Y-315364D01*
Y-315650D01*
Y-315936D01*
Y-316223D01*
Y-316509D01*
Y-316795D01*
Y-317081D01*
Y-317368D01*
Y-317654D01*
Y-317940D01*
Y-318227D01*
Y-318513D01*
Y-318799D01*
Y-319086D01*
Y-319372D01*
Y-319658D01*
Y-319945D01*
Y-320231D01*
Y-320517D01*
Y-320803D01*
Y-321090D01*
Y-321376D01*
Y-321662D01*
Y-321949D01*
Y-322235D01*
Y-322521D01*
Y-322808D01*
Y-323094D01*
Y-323380D01*
Y-323667D01*
Y-323953D01*
Y-324239D01*
Y-324526D01*
Y-324812D01*
X1093279D01*
Y-325098D01*
X1092992D01*
Y-325384D01*
Y-325671D01*
X1093279D01*
Y-325957D01*
Y-326243D01*
Y-326530D01*
Y-326816D01*
Y-327102D01*
Y-327389D01*
Y-327675D01*
Y-327961D01*
Y-328248D01*
Y-328534D01*
Y-328820D01*
Y-329107D01*
Y-329393D01*
Y-329679D01*
Y-329965D01*
Y-330252D01*
Y-330538D01*
Y-330824D01*
Y-331111D01*
Y-331397D01*
Y-331683D01*
Y-331970D01*
Y-332256D01*
Y-332542D01*
Y-332829D01*
Y-333115D01*
X1093565D01*
Y-333401D01*
Y-333688D01*
Y-333974D01*
X1093851D01*
Y-334260D01*
X1094138D01*
Y-334547D01*
X1094424D01*
Y-334833D01*
X1095283D01*
Y-335119D01*
X1096142D01*
Y-334833D01*
X1096428D01*
Y-334547D01*
Y-334260D01*
Y-333974D01*
X1096715D01*
Y-333688D01*
Y-333401D01*
X1097001D01*
Y-333115D01*
Y-332829D01*
Y-332542D01*
X1097287D01*
Y-332256D01*
Y-331970D01*
Y-331683D01*
X1097573D01*
Y-331397D01*
Y-331111D01*
Y-330824D01*
X1097860D01*
Y-330538D01*
Y-330252D01*
Y-329965D01*
X1098146D01*
Y-329679D01*
Y-329393D01*
X1098432D01*
Y-329107D01*
Y-328820D01*
Y-328534D01*
X1098719D01*
Y-328248D01*
Y-327961D01*
Y-327675D01*
X1099005D01*
Y-327389D01*
Y-327102D01*
Y-326816D01*
X1099291D01*
Y-326530D01*
Y-326243D01*
X1099578D01*
Y-325957D01*
Y-325671D01*
Y-325384D01*
X1099864D01*
Y-325098D01*
Y-324812D01*
Y-324526D01*
X1100150D01*
Y-324239D01*
Y-323953D01*
Y-323667D01*
X1100437D01*
Y-323380D01*
Y-323094D01*
X1100723D01*
Y-322808D01*
Y-322521D01*
Y-322235D01*
X1101009D01*
Y-321949D01*
Y-321662D01*
Y-321376D01*
X1101296D01*
Y-321090D01*
Y-320803D01*
Y-320517D01*
X1101582D01*
Y-320231D01*
Y-319945D01*
X1101868D01*
Y-319658D01*
Y-319372D01*
Y-319086D01*
X1102155D01*
Y-318799D01*
Y-318513D01*
Y-318227D01*
X1102441D01*
Y-317940D01*
Y-317654D01*
Y-317368D01*
X1102727D01*
Y-317081D01*
Y-316795D01*
Y-316509D01*
Y-316223D01*
X1103013D01*
Y-315936D01*
Y-315650D01*
Y-315364D01*
Y-315077D01*
X1103300D01*
Y-314791D01*
Y-314505D01*
Y-314218D01*
Y-313932D01*
Y-313646D01*
X1103586D01*
Y-313359D01*
Y-313073D01*
Y-312787D01*
Y-312501D01*
Y-312214D01*
Y-311928D01*
X1103872D01*
Y-311642D01*
Y-311355D01*
Y-311069D01*
Y-310783D01*
Y-310496D01*
Y-310210D01*
Y-309924D01*
Y-309637D01*
Y-309351D01*
Y-309065D01*
X1116757D01*
Y-309351D01*
D02*
G37*
G36*
X1058921Y-291886D02*
Y-292172D01*
X1058635D01*
Y-292459D01*
Y-292745D01*
Y-293031D01*
Y-293318D01*
Y-293604D01*
Y-293890D01*
X1058349D01*
Y-294177D01*
Y-294463D01*
Y-294749D01*
Y-295035D01*
Y-295322D01*
Y-295608D01*
X1058062D01*
Y-295894D01*
Y-296181D01*
Y-296467D01*
Y-296753D01*
Y-297040D01*
Y-297326D01*
Y-297612D01*
X1057776D01*
Y-297899D01*
Y-298185D01*
Y-298471D01*
Y-298758D01*
Y-299044D01*
Y-299330D01*
X1057490D01*
Y-299616D01*
Y-299903D01*
Y-300189D01*
Y-300475D01*
Y-300762D01*
Y-301048D01*
X1057203D01*
Y-301334D01*
Y-301621D01*
Y-301907D01*
Y-302193D01*
Y-302480D01*
Y-302766D01*
Y-303052D01*
X1056917D01*
Y-303339D01*
Y-303625D01*
Y-303911D01*
Y-304197D01*
Y-304484D01*
Y-304770D01*
X1056631D01*
Y-305056D01*
Y-305343D01*
Y-305629D01*
Y-305915D01*
Y-306202D01*
Y-306488D01*
X1056344D01*
Y-306774D01*
Y-307061D01*
Y-307347D01*
Y-307633D01*
Y-307920D01*
Y-308206D01*
X1056058D01*
Y-308492D01*
Y-308778D01*
Y-309065D01*
Y-309351D01*
Y-309637D01*
Y-309924D01*
Y-310210D01*
X1055772D01*
Y-310496D01*
Y-310783D01*
Y-311069D01*
Y-311355D01*
Y-311642D01*
Y-311928D01*
X1055486D01*
Y-312214D01*
Y-312501D01*
X1056058D01*
Y-312214D01*
X1056344D01*
Y-311928D01*
X1056631D01*
Y-311642D01*
X1057203D01*
Y-311355D01*
X1057490D01*
Y-311069D01*
X1057776D01*
Y-310783D01*
X1058349D01*
Y-310496D01*
X1058921D01*
Y-310210D01*
X1059208D01*
Y-309924D01*
X1059780D01*
Y-309637D01*
X1060639D01*
Y-309351D01*
X1061212D01*
Y-309065D01*
X1062071D01*
Y-308778D01*
X1063502D01*
Y-308492D01*
X1069801D01*
Y-308778D01*
X1070946D01*
Y-309065D01*
X1071805D01*
Y-309351D01*
X1072378D01*
Y-309637D01*
X1072664D01*
Y-309924D01*
X1073237D01*
Y-310210D01*
X1073523D01*
Y-310496D01*
X1073810D01*
Y-310783D01*
X1074096D01*
Y-311069D01*
X1074382D01*
Y-311355D01*
Y-311642D01*
X1074669D01*
Y-311928D01*
Y-312214D01*
X1074955D01*
Y-312501D01*
Y-312787D01*
Y-313073D01*
X1075241D01*
Y-313359D01*
Y-313646D01*
Y-313932D01*
Y-314218D01*
X1075527D01*
Y-314505D01*
Y-314791D01*
Y-315077D01*
Y-315364D01*
Y-315650D01*
Y-315936D01*
Y-316223D01*
Y-316509D01*
Y-316795D01*
Y-317081D01*
Y-317368D01*
Y-317654D01*
Y-317940D01*
Y-318227D01*
Y-318513D01*
Y-318799D01*
Y-319086D01*
Y-319372D01*
X1075241D01*
Y-319658D01*
Y-319945D01*
Y-320231D01*
Y-320517D01*
Y-320803D01*
Y-321090D01*
Y-321376D01*
X1074955D01*
Y-321662D01*
Y-321949D01*
Y-322235D01*
Y-322521D01*
Y-322808D01*
Y-323094D01*
Y-323380D01*
X1074669D01*
Y-323667D01*
Y-323953D01*
Y-324239D01*
Y-324526D01*
Y-324812D01*
Y-325098D01*
X1074382D01*
Y-325384D01*
Y-325671D01*
Y-325957D01*
Y-326243D01*
Y-326530D01*
Y-326816D01*
X1074096D01*
Y-327102D01*
Y-327389D01*
Y-327675D01*
Y-327961D01*
Y-328248D01*
Y-328534D01*
X1073810D01*
Y-328820D01*
Y-329107D01*
Y-329393D01*
Y-329679D01*
Y-329965D01*
Y-330252D01*
Y-330538D01*
X1073523D01*
Y-330824D01*
Y-331111D01*
Y-331397D01*
Y-331683D01*
Y-331970D01*
Y-332256D01*
X1073237D01*
Y-332542D01*
Y-332829D01*
Y-333115D01*
Y-333401D01*
Y-333688D01*
Y-333974D01*
X1072951D01*
Y-334260D01*
Y-334547D01*
Y-334833D01*
Y-335119D01*
Y-335405D01*
Y-335692D01*
Y-335978D01*
X1072664D01*
Y-336264D01*
Y-336551D01*
Y-336837D01*
Y-337123D01*
Y-337410D01*
Y-337696D01*
X1072378D01*
Y-337982D01*
Y-338269D01*
Y-338555D01*
Y-338841D01*
Y-339128D01*
Y-339414D01*
X1072092D01*
Y-339700D01*
Y-339986D01*
Y-340273D01*
Y-340559D01*
Y-340845D01*
Y-341132D01*
X1071805D01*
Y-341418D01*
Y-341704D01*
Y-341991D01*
Y-342277D01*
Y-342563D01*
Y-342850D01*
Y-343136D01*
X1071519D01*
Y-343422D01*
Y-343709D01*
Y-343995D01*
Y-344281D01*
Y-344567D01*
Y-344854D01*
X1071233D01*
Y-345140D01*
Y-345427D01*
X1058062D01*
Y-345140D01*
Y-344854D01*
X1058349D01*
Y-344567D01*
Y-344281D01*
Y-343995D01*
Y-343709D01*
Y-343422D01*
Y-343136D01*
X1058635D01*
Y-342850D01*
Y-342563D01*
Y-342277D01*
Y-341991D01*
Y-341704D01*
Y-341418D01*
Y-341132D01*
X1058921D01*
Y-340845D01*
Y-340559D01*
Y-340273D01*
Y-339986D01*
Y-339700D01*
Y-339414D01*
X1059208D01*
Y-339128D01*
Y-338841D01*
Y-338555D01*
Y-338269D01*
Y-337982D01*
Y-337696D01*
X1059494D01*
Y-337410D01*
Y-337123D01*
Y-336837D01*
Y-336551D01*
Y-336264D01*
Y-335978D01*
Y-335692D01*
X1059780D01*
Y-335405D01*
Y-335119D01*
Y-334833D01*
Y-334547D01*
Y-334260D01*
Y-333974D01*
X1060067D01*
Y-333688D01*
Y-333401D01*
Y-333115D01*
Y-332829D01*
Y-332542D01*
Y-332256D01*
Y-331970D01*
X1060353D01*
Y-331683D01*
Y-331397D01*
Y-331111D01*
Y-330824D01*
Y-330538D01*
Y-330252D01*
X1060639D01*
Y-329965D01*
Y-329679D01*
Y-329393D01*
Y-329107D01*
Y-328820D01*
Y-328534D01*
X1060925D01*
Y-328248D01*
Y-327961D01*
Y-327675D01*
Y-327389D01*
Y-327102D01*
Y-326816D01*
X1061212D01*
Y-326530D01*
Y-326243D01*
Y-325957D01*
Y-325671D01*
Y-325384D01*
Y-325098D01*
Y-324812D01*
X1061498D01*
Y-324526D01*
Y-324239D01*
Y-323953D01*
Y-323667D01*
Y-323380D01*
Y-323094D01*
X1061784D01*
Y-322808D01*
Y-322521D01*
Y-322235D01*
Y-321949D01*
Y-321662D01*
Y-321376D01*
Y-321090D01*
X1062071D01*
Y-320803D01*
Y-320517D01*
Y-320231D01*
Y-319945D01*
Y-319658D01*
Y-319372D01*
X1061784D01*
Y-319086D01*
Y-318799D01*
X1061498D01*
Y-318513D01*
X1061212D01*
Y-318227D01*
X1060639D01*
Y-317940D01*
X1058921D01*
Y-318227D01*
X1057490D01*
Y-318513D01*
X1056631D01*
Y-318799D01*
X1056058D01*
Y-319086D01*
X1055772D01*
Y-319372D01*
X1055199D01*
Y-319658D01*
X1054913D01*
Y-319945D01*
X1054627D01*
Y-320231D01*
Y-320517D01*
X1054340D01*
Y-320803D01*
Y-321090D01*
Y-321376D01*
X1054054D01*
Y-321662D01*
Y-321949D01*
Y-322235D01*
Y-322521D01*
Y-322808D01*
Y-323094D01*
X1053768D01*
Y-323380D01*
Y-323667D01*
Y-323953D01*
Y-324239D01*
Y-324526D01*
Y-324812D01*
Y-325098D01*
X1053481D01*
Y-325384D01*
Y-325671D01*
Y-325957D01*
Y-326243D01*
Y-326530D01*
Y-326816D01*
X1053195D01*
Y-327102D01*
Y-327389D01*
Y-327675D01*
Y-327961D01*
Y-328248D01*
Y-328534D01*
X1052909D01*
Y-328820D01*
Y-329107D01*
Y-329393D01*
Y-329679D01*
Y-329965D01*
Y-330252D01*
X1052622D01*
Y-330538D01*
Y-330824D01*
Y-331111D01*
Y-331397D01*
Y-331683D01*
Y-331970D01*
Y-332256D01*
X1052336D01*
Y-332542D01*
Y-332829D01*
Y-333115D01*
Y-333401D01*
Y-333688D01*
Y-333974D01*
X1052050D01*
Y-334260D01*
Y-334547D01*
Y-334833D01*
Y-335119D01*
Y-335405D01*
Y-335692D01*
X1051763D01*
Y-335978D01*
Y-336264D01*
Y-336551D01*
Y-336837D01*
Y-337123D01*
Y-337410D01*
Y-337696D01*
X1051477D01*
Y-337982D01*
Y-338269D01*
Y-338555D01*
Y-338841D01*
Y-339128D01*
Y-339414D01*
X1051191D01*
Y-339700D01*
Y-339986D01*
Y-340273D01*
Y-340559D01*
Y-340845D01*
Y-341132D01*
X1050904D01*
Y-341418D01*
Y-341704D01*
Y-341991D01*
Y-342277D01*
Y-342563D01*
Y-342850D01*
X1050618D01*
Y-343136D01*
Y-343422D01*
Y-343709D01*
Y-343995D01*
Y-344281D01*
Y-344567D01*
Y-344854D01*
X1050332D01*
Y-345140D01*
Y-345427D01*
X1037162D01*
Y-345140D01*
Y-344854D01*
X1037448D01*
Y-344567D01*
Y-344281D01*
Y-343995D01*
Y-343709D01*
Y-343422D01*
Y-343136D01*
Y-342850D01*
X1037734D01*
Y-342563D01*
Y-342277D01*
Y-341991D01*
Y-341704D01*
Y-341418D01*
Y-341132D01*
X1038020D01*
Y-340845D01*
Y-340559D01*
Y-340273D01*
Y-339986D01*
Y-339700D01*
Y-339414D01*
X1038307D01*
Y-339128D01*
Y-338841D01*
Y-338555D01*
Y-338269D01*
Y-337982D01*
Y-337696D01*
Y-337410D01*
X1038593D01*
Y-337123D01*
Y-336837D01*
Y-336551D01*
Y-336264D01*
Y-335978D01*
Y-335692D01*
X1038879D01*
Y-335405D01*
Y-335119D01*
Y-334833D01*
Y-334547D01*
Y-334260D01*
Y-333974D01*
X1039166D01*
Y-333688D01*
Y-333401D01*
Y-333115D01*
Y-332829D01*
Y-332542D01*
Y-332256D01*
X1039452D01*
Y-331970D01*
Y-331683D01*
Y-331397D01*
Y-331111D01*
Y-330824D01*
Y-330538D01*
Y-330252D01*
X1039738D01*
Y-329965D01*
Y-329679D01*
Y-329393D01*
Y-329107D01*
Y-328820D01*
Y-328534D01*
X1040025D01*
Y-328248D01*
Y-327961D01*
Y-327675D01*
Y-327389D01*
Y-327102D01*
Y-326816D01*
X1040311D01*
Y-326530D01*
Y-326243D01*
Y-325957D01*
Y-325671D01*
Y-325384D01*
Y-325098D01*
Y-324812D01*
X1040597D01*
Y-324526D01*
Y-324239D01*
Y-323953D01*
Y-323667D01*
Y-323380D01*
Y-323094D01*
X1040884D01*
Y-322808D01*
Y-322521D01*
Y-322235D01*
Y-321949D01*
Y-321662D01*
Y-321376D01*
X1041170D01*
Y-321090D01*
Y-320803D01*
Y-320517D01*
Y-320231D01*
Y-319945D01*
Y-319658D01*
X1041456D01*
Y-319372D01*
Y-319086D01*
Y-318799D01*
Y-318513D01*
Y-318227D01*
Y-317940D01*
Y-317654D01*
X1041743D01*
Y-317368D01*
Y-317081D01*
Y-316795D01*
Y-316509D01*
Y-316223D01*
Y-315936D01*
X1042029D01*
Y-315650D01*
Y-315364D01*
Y-315077D01*
Y-314791D01*
Y-314505D01*
Y-314218D01*
X1042315D01*
Y-313932D01*
Y-313646D01*
Y-313359D01*
Y-313073D01*
Y-312787D01*
Y-312501D01*
X1042601D01*
Y-312214D01*
Y-311928D01*
Y-311642D01*
Y-311355D01*
Y-311069D01*
Y-310783D01*
Y-310496D01*
X1042888D01*
Y-310210D01*
Y-309924D01*
Y-309637D01*
Y-309351D01*
Y-309065D01*
Y-308778D01*
X1043174D01*
Y-308492D01*
Y-308206D01*
Y-307920D01*
Y-307633D01*
Y-307347D01*
Y-307061D01*
X1043460D01*
Y-306774D01*
Y-306488D01*
Y-306202D01*
Y-305915D01*
Y-305629D01*
Y-305343D01*
Y-305056D01*
X1043747D01*
Y-304770D01*
Y-304484D01*
Y-304197D01*
Y-303911D01*
Y-303625D01*
Y-303339D01*
X1044033D01*
Y-303052D01*
Y-302766D01*
Y-302480D01*
Y-302193D01*
Y-301907D01*
Y-301621D01*
X1044319D01*
Y-301334D01*
Y-301048D01*
Y-300762D01*
Y-300475D01*
Y-300189D01*
Y-299903D01*
X1044606D01*
Y-299616D01*
Y-299330D01*
Y-299044D01*
Y-298758D01*
Y-298471D01*
Y-298185D01*
Y-297899D01*
X1044892D01*
Y-297612D01*
Y-297326D01*
Y-297040D01*
Y-296753D01*
Y-296467D01*
Y-296181D01*
X1045178D01*
Y-295894D01*
Y-295608D01*
Y-295322D01*
Y-295035D01*
Y-294749D01*
Y-294463D01*
X1045465D01*
Y-294177D01*
Y-293890D01*
Y-293604D01*
Y-293318D01*
Y-293031D01*
Y-292745D01*
Y-292459D01*
X1045751D01*
Y-292172D01*
Y-291886D01*
Y-291600D01*
X1058921D01*
Y-291886D01*
D02*
G37*
%LPC*%
G36*
X255569Y265029D02*
Y265022D01*
X239313D01*
Y265029D01*
X237512Y264887D01*
X235755Y264465D01*
X234086Y263774D01*
X232546Y262830D01*
X231173Y261657D01*
X231173Y261657D01*
X230582Y261182D01*
X230411Y261051D01*
X229509Y260677D01*
X228574Y260554D01*
X228541Y260560D01*
X217677D01*
Y260565D01*
X215969Y260431D01*
X214303Y260031D01*
X212720Y259375D01*
X211259Y258480D01*
X209956Y257367D01*
X209959Y257364D01*
X206589Y253993D01*
X206584Y253998D01*
X205411Y252624D01*
X204467Y251084D01*
X203776Y249415D01*
X203354Y247659D01*
X203213Y245858D01*
X203219D01*
Y239397D01*
X203232Y239330D01*
X203075Y237736D01*
X202591Y236138D01*
X201804Y234666D01*
X200788Y233428D01*
X200731Y233390D01*
X195884Y228543D01*
X195181D01*
X194313Y228184D01*
X193648Y227519D01*
X193289Y226651D01*
Y225711D01*
X193648Y224843D01*
X194313Y224179D01*
X195181Y223819D01*
X196121D01*
X196989Y224179D01*
X197653Y224843D01*
X198013Y225711D01*
Y226414D01*
X202860Y231261D01*
X202865Y231257D01*
X204038Y232630D01*
X204982Y234170D01*
X205673Y235839D01*
X205860Y236621D01*
X206760Y236996D01*
X207207Y236811D01*
X208147D01*
X209015Y237171D01*
X209611Y237766D01*
X227212D01*
X227212Y237766D01*
Y237758D01*
X228737Y237908D01*
X230204Y238353D01*
X231555Y239075D01*
X232149Y239563D01*
X232149D01*
X232740Y240047D01*
X232733Y240054D01*
X234412Y241732D01*
X235116D01*
X235984Y242092D01*
X236648Y242756D01*
X237008Y243625D01*
Y244564D01*
X236648Y245433D01*
X235984Y246097D01*
X235116Y246457D01*
X234176D01*
X233308Y246097D01*
X232643Y245433D01*
X232283Y244564D01*
Y243861D01*
X230605Y242182D01*
X230570Y242131D01*
X229621Y241402D01*
X228459Y240921D01*
X227273Y240765D01*
X227212Y240777D01*
X218915D01*
X218401Y241564D01*
X218594Y242031D01*
X218737Y243110D01*
Y243898D01*
X218723Y244003D01*
X218876Y245169D01*
X219367Y246354D01*
X220148Y247372D01*
X221007Y248031D01*
X232677D01*
Y255461D01*
X234892Y257676D01*
X234935Y257741D01*
X236136Y258726D01*
X237574Y259495D01*
X239134Y259968D01*
X240680Y260120D01*
X240756Y260105D01*
X254500D01*
X254577Y260120D01*
X256123Y259968D01*
X257683Y259495D01*
X259121Y258726D01*
X260321Y257741D01*
X260365Y257676D01*
X269076Y248965D01*
Y248546D01*
X269435Y247677D01*
X270100Y247013D01*
X270968Y246653D01*
X271908D01*
X272776Y247013D01*
X273441Y247677D01*
X273800Y248546D01*
Y249485D01*
X273441Y250354D01*
X273130Y250664D01*
X273576Y251332D01*
X273940Y251181D01*
X274879D01*
X275747Y251541D01*
X276412Y252205D01*
X276772Y253073D01*
Y254013D01*
X276412Y254881D01*
X275747Y255546D01*
X274879Y255906D01*
X273940D01*
X273071Y255546D01*
X272649Y255123D01*
X272037Y255184D01*
X270551Y255634D01*
X269182Y256366D01*
X268026Y257315D01*
X267993Y257364D01*
X263705Y261652D01*
X263709Y261657D01*
X262336Y262830D01*
X260795Y263774D01*
X259126Y264465D01*
X257370Y264887D01*
X255569Y265029D01*
D02*
G37*
G36*
X196866Y257890D02*
X188295D01*
Y253453D01*
X196866D01*
Y257890D01*
D02*
G37*
G36*
Y252453D02*
X188295D01*
Y248016D01*
X196866D01*
Y252453D01*
D02*
G37*
G36*
X196112Y246615D02*
X195382D01*
Y243610D01*
X198386D01*
Y244340D01*
X198213Y245211D01*
X197720Y245949D01*
X196982Y246442D01*
X196112Y246615D01*
D02*
G37*
G36*
X194382D02*
X193652D01*
X192781Y246442D01*
X192044Y245949D01*
X191551Y245211D01*
X191378Y244340D01*
Y243610D01*
X194382D01*
Y246615D01*
D02*
G37*
G36*
X198386Y242610D02*
X195382D01*
Y239606D01*
X196112D01*
X196982Y239779D01*
X197720Y240272D01*
X198213Y241010D01*
X198386Y241880D01*
Y242610D01*
D02*
G37*
G36*
X194382D02*
X191378D01*
Y241880D01*
X191551Y241010D01*
X192044Y240272D01*
X192781Y239779D01*
X193652Y239606D01*
X194382D01*
Y242610D01*
D02*
G37*
G36*
X314772Y226430D02*
X313436Y226254D01*
X312191Y225739D01*
X311122Y224918D01*
X310843Y224640D01*
X310433Y224105D01*
X309646D01*
X309236Y224640D01*
X308957Y224918D01*
X307888Y225739D01*
X306643Y226254D01*
X305307Y226430D01*
X303971Y226254D01*
X302726Y225739D01*
X301657Y224918D01*
X300836Y223849D01*
X300320Y222604D01*
X300145Y221268D01*
X300320Y219932D01*
X300361Y219834D01*
X299754Y219228D01*
X299745Y219238D01*
X298530Y217816D01*
X297553Y216221D01*
X296837Y214493D01*
X296401Y212675D01*
X296254Y210810D01*
X296268D01*
Y209053D01*
X296252D01*
X296408Y207067D01*
X296873Y205129D01*
X297635Y203289D01*
X298676Y201590D01*
X299970Y200075D01*
X299982Y200086D01*
X329672Y170396D01*
X330215Y169853D01*
X330705Y169269D01*
X331132Y168748D01*
X331809Y167482D01*
X332226Y166107D01*
X332364Y164713D01*
X332359Y164677D01*
Y154210D01*
X331572Y154053D01*
X331294Y154724D01*
X330629Y155389D01*
X329761Y155748D01*
X329291D01*
Y156218D01*
X328931Y157086D01*
X328267Y157751D01*
X327399Y158110D01*
X326459D01*
X325591Y157751D01*
X324926Y157086D01*
X324853Y156910D01*
X324044Y156605D01*
X323236Y157413D01*
X317390Y151567D01*
X327691Y141266D01*
X331631Y145207D01*
X332359Y144906D01*
Y136411D01*
X332368Y136339D01*
X332194Y135013D01*
X331654Y133710D01*
X331259Y133194D01*
X330782Y132604D01*
X330356Y132049D01*
X330336Y132001D01*
X330088Y131402D01*
X329997Y130709D01*
X330088Y130015D01*
X330356Y129368D01*
X330782Y128813D01*
X331337Y128387D01*
X331983Y128120D01*
X332677Y128028D01*
X333213Y128099D01*
X333277Y127614D01*
X333545Y126967D01*
X333970Y126412D01*
X334526Y125986D01*
X335172Y125718D01*
X335866Y125627D01*
X336560Y125718D01*
X337206Y125986D01*
X337761Y126412D01*
X338009Y126735D01*
X338884Y127759D01*
X340090Y129728D01*
X340974Y131863D01*
X341514Y134109D01*
X341695Y136411D01*
X341672D01*
Y166314D01*
X341689D01*
X341532Y168301D01*
X341067Y170238D01*
X340305Y172079D01*
X339264Y173777D01*
X337970Y175292D01*
X337970Y175292D01*
X337402Y175838D01*
X311045Y202194D01*
X311033Y202204D01*
X310677Y202736D01*
X310552Y203363D01*
X310554Y203379D01*
X310552Y203395D01*
X310677Y204022D01*
X311032Y204553D01*
X311043Y204562D01*
X311044Y204563D01*
X311045Y204564D01*
X313338Y206857D01*
X313436Y206817D01*
X314772Y206641D01*
X316108Y206817D01*
X317353Y207332D01*
X318422Y208153D01*
X319243Y209222D01*
X319758Y210467D01*
X319934Y211803D01*
X319758Y213139D01*
X319243Y214384D01*
X318422Y215453D01*
X318144Y215732D01*
X317609Y216142D01*
Y216929D01*
X318144Y217339D01*
X318422Y217618D01*
X319243Y218687D01*
X319758Y219932D01*
X319934Y221268D01*
X319758Y222604D01*
X319243Y223849D01*
X318422Y224918D01*
X317353Y225739D01*
X316108Y226254D01*
X314772Y226430D01*
D02*
G37*
G36*
X265430Y222441D02*
X264491D01*
X263623Y222081D01*
X263125Y221584D01*
X238976D01*
X238968Y221582D01*
X237838Y221471D01*
X236743Y221139D01*
X235735Y220600D01*
X234850Y219874D01*
X234125Y218990D01*
X233585Y217981D01*
X233253Y216886D01*
X233142Y215756D01*
X233140Y215748D01*
Y202623D01*
X232643Y202126D01*
X232283Y201257D01*
Y200318D01*
X232643Y199449D01*
X233308Y198785D01*
X234176Y198425D01*
X235116D01*
X235984Y198785D01*
X236648Y199449D01*
X237008Y200318D01*
Y201257D01*
X236648Y202126D01*
X236151Y202623D01*
Y215748D01*
X236149Y215757D01*
X236244Y216480D01*
X236527Y217162D01*
X236976Y217748D01*
X237562Y218198D01*
X238244Y218480D01*
X238967Y218575D01*
X238976Y218573D01*
X263125D01*
X263623Y218076D01*
X264491Y217717D01*
X265430D01*
X266299Y218076D01*
X266963Y218741D01*
X267323Y219609D01*
Y220549D01*
X266963Y221417D01*
X266299Y222081D01*
X265430Y222441D01*
D02*
G37*
G36*
X286325Y225591D02*
X284541D01*
X282792Y225243D01*
X281144Y224560D01*
X279661Y223569D01*
X278399Y222308D01*
X277409Y220825D01*
X276726Y219177D01*
X276378Y217427D01*
Y215644D01*
X276726Y213894D01*
X277409Y212246D01*
X278399Y210763D01*
X279661Y209502D01*
X281144Y208511D01*
X282792Y207828D01*
X284541Y207480D01*
X286325D01*
X288074Y207828D01*
X289722Y208511D01*
X291205Y209502D01*
X292467Y210763D01*
X293458Y212246D01*
X294140Y213894D01*
X294488Y215644D01*
Y217427D01*
X294140Y219177D01*
X293458Y220825D01*
X292467Y222308D01*
X291205Y223569D01*
X289722Y224560D01*
X288074Y225243D01*
X286325Y225591D01*
D02*
G37*
G36*
X283905Y201484D02*
X282965D01*
X282592Y201330D01*
X280376D01*
X280209Y201297D01*
X279432Y201194D01*
X278552Y200830D01*
X278240Y200591D01*
X272638D01*
Y186024D01*
X280906D01*
Y193690D01*
X283815D01*
X284188Y193536D01*
X285128D01*
X285996Y193895D01*
X286660Y194560D01*
X287020Y195428D01*
Y196368D01*
X286660Y197236D01*
X285996Y197901D01*
X285560Y198081D01*
X285797Y198652D01*
Y199592D01*
X285437Y200460D01*
X284773Y201125D01*
X283905Y201484D01*
D02*
G37*
G36*
X196121Y208858D02*
X195181D01*
X194313Y208499D01*
X193648Y207834D01*
X193289Y206966D01*
Y206026D01*
X193648Y205158D01*
X194313Y204493D01*
X195181Y204134D01*
X196121D01*
X196989Y204493D01*
X197486Y204991D01*
X199795D01*
X199862Y205004D01*
X201456Y204847D01*
X203053Y204363D01*
X204525Y203576D01*
X205764Y202559D01*
X205802Y202503D01*
X218110Y190194D01*
Y189491D01*
X218470Y188623D01*
X219134Y187958D01*
X220003Y187598D01*
X220942D01*
X221811Y187958D01*
X222475Y188623D01*
X222835Y189491D01*
Y190430D01*
X222475Y191299D01*
X221811Y191963D01*
X220942Y192323D01*
X220239D01*
X207930Y204631D01*
X207935Y204636D01*
X206561Y205809D01*
X205021Y206753D01*
X203352Y207445D01*
X201596Y207866D01*
X199795Y208008D01*
Y208001D01*
X197486D01*
X196989Y208499D01*
X196121Y208858D01*
D02*
G37*
G36*
X190171Y185826D02*
X189044Y185627D01*
X188006Y185143D01*
X187951Y185097D01*
X190424Y182150D01*
X193370Y184623D01*
X193324Y184678D01*
X192386Y185335D01*
X191311Y185726D01*
X190171Y185826D01*
D02*
G37*
G36*
X187185Y184454D02*
X187130Y184408D01*
X186473Y183470D01*
X186082Y182395D01*
X185982Y181255D01*
X186181Y180128D01*
X186665Y179090D01*
X186711Y179035D01*
X189658Y181508D01*
X187185Y184454D01*
D02*
G37*
G36*
X194013Y183857D02*
X191066Y181384D01*
X193539Y178438D01*
X193594Y178484D01*
X194251Y179422D01*
X194642Y180497D01*
X194742Y181637D01*
X194543Y182764D01*
X194059Y183801D01*
X194013Y183857D01*
D02*
G37*
G36*
X190300Y180742D02*
X187354Y178269D01*
X187400Y178214D01*
X188338Y177557D01*
X189413Y177166D01*
X190553Y177066D01*
X191680Y177265D01*
X192718Y177749D01*
X192773Y177795D01*
X190300Y180742D01*
D02*
G37*
G36*
X280921Y180921D02*
X277272D01*
Y174122D01*
X280921D01*
Y180921D01*
D02*
G37*
G36*
X276272D02*
X272622D01*
Y174122D01*
X276272D01*
Y180921D01*
D02*
G37*
G36*
X196591Y178348D02*
X195417Y178141D01*
X194336Y177637D01*
X193423Y176871D01*
X192739Y175894D01*
X192332Y174774D01*
X192228Y173586D01*
X192435Y172412D01*
X192938Y171332D01*
X193705Y170419D01*
X194681Y169735D01*
X195801Y169327D01*
X196989Y169223D01*
X198163Y169430D01*
X199244Y169934D01*
X200157Y170700D01*
X200841Y171677D01*
X201248Y172797D01*
X201352Y173985D01*
X201145Y175159D01*
X200641Y176239D01*
X199875Y177152D01*
X198898Y177836D01*
X197778Y178244D01*
X196591Y178348D01*
D02*
G37*
G36*
X280921Y173122D02*
X277272D01*
Y166323D01*
X280921D01*
Y173122D01*
D02*
G37*
G36*
X276272D02*
X272622D01*
Y166323D01*
X276272D01*
Y173122D01*
D02*
G37*
G36*
X309317Y171354D02*
X306736Y168774D01*
X311544Y163966D01*
X314125Y166547D01*
X309317Y171354D01*
D02*
G37*
G36*
X203019Y170687D02*
X201845Y170480D01*
X200764Y169976D01*
X199851Y169210D01*
X199167Y168234D01*
X198759Y167113D01*
X198655Y165926D01*
X198863Y164752D01*
X199366Y163671D01*
X200133Y162758D01*
X201109Y162074D01*
X202229Y161667D01*
X203417Y161563D01*
X204591Y161770D01*
X205671Y162274D01*
X206585Y163040D01*
X207268Y164016D01*
X207676Y165137D01*
X207780Y166324D01*
X207573Y167498D01*
X207069Y168579D01*
X206303Y169492D01*
X205326Y170176D01*
X204206Y170583D01*
X203019Y170687D01*
D02*
G37*
G36*
X306029Y168067D02*
X303449Y165486D01*
X308257Y160678D01*
X310837Y163259D01*
X306029Y168067D01*
D02*
G37*
G36*
X209454Y162844D02*
X208327Y162646D01*
X207290Y162162D01*
X207235Y162116D01*
X209707Y159169D01*
X212654Y161641D01*
X212607Y161697D01*
X211670Y162353D01*
X210595Y162745D01*
X209454Y162844D01*
D02*
G37*
G36*
X314832Y165840D02*
X312251Y163259D01*
X317059Y158451D01*
X319640Y161032D01*
X314832Y165840D01*
D02*
G37*
G36*
X206469Y161473D02*
X206414Y161426D01*
X205757Y160489D01*
X205366Y159413D01*
X205266Y158273D01*
X205465Y157146D01*
X205948Y156109D01*
X205995Y156054D01*
X208941Y158526D01*
X206469Y161473D01*
D02*
G37*
G36*
X213297Y160875D02*
X210350Y158403D01*
X212823Y155456D01*
X212878Y155503D01*
X213534Y156440D01*
X213926Y157516D01*
X214025Y158656D01*
X213827Y159783D01*
X213343Y160820D01*
X213297Y160875D01*
D02*
G37*
G36*
X311544Y162552D02*
X308964Y159971D01*
X313771Y155163D01*
X316352Y157744D01*
X311544Y162552D01*
D02*
G37*
G36*
X209584Y157760D02*
X206638Y155288D01*
X206684Y155232D01*
X207621Y154576D01*
X208697Y154184D01*
X209837Y154085D01*
X210964Y154283D01*
X212001Y154767D01*
X212056Y154814D01*
X209584Y157760D01*
D02*
G37*
G36*
X281615Y128980D02*
X280675D01*
X279807Y128621D01*
X279143Y127956D01*
X278783Y127088D01*
Y126148D01*
X279143Y125280D01*
X279807Y124616D01*
X280675Y124256D01*
X281615D01*
X281972Y124404D01*
X283127Y124290D01*
X284594Y123845D01*
X285946Y123122D01*
X287053Y122214D01*
X287111Y122128D01*
X297658Y111581D01*
X297524Y110904D01*
X296859Y110240D01*
X296500Y109371D01*
Y108432D01*
X296859Y107564D01*
X297524Y106899D01*
X297897Y106745D01*
X310379Y94263D01*
X310595Y93740D01*
X311260Y93076D01*
X312128Y92716D01*
X313068D01*
X313936Y93076D01*
X314487Y93626D01*
X314983Y93725D01*
X315439Y93707D01*
X315795Y93274D01*
X316517Y91922D01*
X316963Y90454D01*
X317068Y89388D01*
X316928Y89052D01*
Y88112D01*
X317288Y87244D01*
X317953Y86579D01*
X318821Y86220D01*
X319760D01*
X320629Y86579D01*
X321293Y87244D01*
X321653Y88112D01*
Y89052D01*
X321444Y89555D01*
X321343Y90837D01*
X320896Y92699D01*
X320164Y94468D01*
X319163Y96101D01*
X317946Y97527D01*
X317923Y97560D01*
X290233Y125250D01*
X290199Y125273D01*
X288773Y126491D01*
X287141Y127491D01*
X285372Y128224D01*
X283510Y128671D01*
X282093Y128782D01*
X281615Y128980D01*
D02*
G37*
G36*
X78404Y265029D02*
Y265022D01*
X62147D01*
Y265029D01*
X60347Y264887D01*
X58590Y264465D01*
X56921Y263774D01*
X55381Y262830D01*
X54007Y261657D01*
X54007Y261657D01*
X53417Y261182D01*
X53245Y261051D01*
X52343Y260677D01*
X51408Y260554D01*
X51375Y260560D01*
X40512D01*
Y260565D01*
X38803Y260431D01*
X37137Y260031D01*
X35554Y259375D01*
X34093Y258480D01*
X32790Y257367D01*
X32794Y257364D01*
X29424Y253993D01*
X29419Y253998D01*
X28246Y252624D01*
X27302Y251084D01*
X26611Y249415D01*
X26189Y247659D01*
X26047Y245858D01*
X26054D01*
Y239397D01*
X26067Y239330D01*
X25910Y237736D01*
X25426Y236138D01*
X24639Y234666D01*
X23622Y233428D01*
X23566Y233390D01*
X18719Y228543D01*
X18016D01*
X17147Y228184D01*
X16483Y227519D01*
X16123Y226651D01*
Y225711D01*
X16483Y224843D01*
X17147Y224179D01*
X18016Y223819D01*
X18955D01*
X19824Y224179D01*
X20488Y224843D01*
X20848Y225711D01*
Y226414D01*
X25695Y231261D01*
X25699Y231257D01*
X26872Y232630D01*
X27816Y234170D01*
X28508Y235839D01*
X28695Y236621D01*
X29595Y236996D01*
X30042Y236811D01*
X30982D01*
X31850Y237171D01*
X32446Y237766D01*
X50046D01*
X50046Y237766D01*
Y237758D01*
X51572Y237908D01*
X53038Y238353D01*
X54390Y239075D01*
X54984Y239563D01*
X54984D01*
X55574Y240047D01*
X55568Y240054D01*
X57247Y241732D01*
X57950D01*
X58818Y242092D01*
X59483Y242756D01*
X59842Y243625D01*
Y244564D01*
X59483Y245433D01*
X58818Y246097D01*
X57950Y246457D01*
X57010D01*
X56142Y246097D01*
X55478Y245433D01*
X55118Y244564D01*
Y243861D01*
X53439Y242182D01*
X53405Y242131D01*
X52456Y241402D01*
X51294Y240921D01*
X50108Y240765D01*
X50046Y240777D01*
X41749D01*
X41236Y241564D01*
X41429Y242031D01*
X41571Y243110D01*
Y243898D01*
X41557Y244003D01*
X41711Y245169D01*
X42202Y246354D01*
X42983Y247372D01*
X43842Y248031D01*
X55512D01*
Y255461D01*
X57726Y257676D01*
X57770Y257741D01*
X58970Y258726D01*
X60408Y259495D01*
X61968Y259968D01*
X63514Y260120D01*
X63591Y260105D01*
X77335D01*
X77412Y260120D01*
X78957Y259968D01*
X80518Y259495D01*
X81955Y258726D01*
X83156Y257741D01*
X83200Y257676D01*
X91910Y248965D01*
Y248546D01*
X92270Y247677D01*
X92935Y247013D01*
X93803Y246653D01*
X94743D01*
X95611Y247013D01*
X96275Y247677D01*
X96635Y248546D01*
Y249485D01*
X96275Y250354D01*
X95964Y250664D01*
X96411Y251332D01*
X96774Y251181D01*
X97714D01*
X98582Y251541D01*
X99247Y252205D01*
X99606Y253073D01*
Y254013D01*
X99247Y254881D01*
X98582Y255546D01*
X97714Y255906D01*
X96774D01*
X95906Y255546D01*
X95484Y255123D01*
X94872Y255184D01*
X93386Y255634D01*
X92016Y256366D01*
X90861Y257315D01*
X90828Y257364D01*
X86539Y261652D01*
X86544Y261657D01*
X85170Y262830D01*
X83630Y263774D01*
X81961Y264465D01*
X80205Y264887D01*
X78404Y265029D01*
D02*
G37*
G36*
X19701Y257890D02*
X11130D01*
Y253453D01*
X19701D01*
Y257890D01*
D02*
G37*
G36*
Y252453D02*
X11130D01*
Y248016D01*
X19701D01*
Y252453D01*
D02*
G37*
G36*
X18947Y246615D02*
X18217D01*
Y243610D01*
X21221D01*
Y244340D01*
X21048Y245211D01*
X20555Y245949D01*
X19817Y246442D01*
X18947Y246615D01*
D02*
G37*
G36*
X17217D02*
X16486D01*
X15616Y246442D01*
X14878Y245949D01*
X14385Y245211D01*
X14212Y244340D01*
Y243610D01*
X17217D01*
Y246615D01*
D02*
G37*
G36*
X21221Y242610D02*
X18217D01*
Y239606D01*
X18947D01*
X19817Y239779D01*
X20555Y240272D01*
X21048Y241010D01*
X21221Y241880D01*
Y242610D01*
D02*
G37*
G36*
X17217D02*
X14212D01*
Y241880D01*
X14385Y241010D01*
X14878Y240272D01*
X15616Y239779D01*
X16486Y239606D01*
X17217D01*
Y242610D01*
D02*
G37*
G36*
X137607Y226430D02*
X136271Y226254D01*
X135026Y225739D01*
X133956Y224918D01*
X133678Y224640D01*
X133268Y224105D01*
X132480D01*
X132070Y224640D01*
X131792Y224918D01*
X130723Y225739D01*
X129478Y226254D01*
X128141Y226430D01*
X126805Y226254D01*
X125560Y225739D01*
X124491Y224918D01*
X123671Y223849D01*
X123155Y222604D01*
X122979Y221268D01*
X123155Y219932D01*
X123196Y219834D01*
X122589Y219228D01*
X122579Y219238D01*
X121365Y217816D01*
X120387Y216221D01*
X119672Y214493D01*
X119235Y212675D01*
X119088Y210810D01*
X119102D01*
Y209053D01*
X119086D01*
X119242Y207067D01*
X119708Y205129D01*
X120470Y203289D01*
X121511Y201590D01*
X122805Y200075D01*
X122816Y200086D01*
X152507Y170396D01*
X153050Y169853D01*
X153540Y169269D01*
X153967Y168748D01*
X154644Y167482D01*
X155061Y166107D01*
X155198Y164713D01*
X155194Y164677D01*
Y154210D01*
X154406Y154053D01*
X154128Y154724D01*
X153464Y155389D01*
X152596Y155748D01*
X152126D01*
Y156218D01*
X151766Y157086D01*
X151102Y157751D01*
X150233Y158110D01*
X149294D01*
X148425Y157751D01*
X147761Y157086D01*
X147688Y156910D01*
X146879Y156605D01*
X146071Y157413D01*
X140225Y151567D01*
X150525Y141266D01*
X154466Y145207D01*
X155194Y144906D01*
Y136411D01*
X155203Y136339D01*
X155029Y135013D01*
X154489Y133710D01*
X154093Y133194D01*
X153616Y132604D01*
X153191Y132049D01*
X153171Y132001D01*
X152923Y131402D01*
X152831Y130709D01*
X152923Y130015D01*
X153191Y129368D01*
X153616Y128813D01*
X154172Y128387D01*
X154818Y128120D01*
X155512Y128028D01*
X156048Y128099D01*
X156111Y127614D01*
X156379Y126967D01*
X156805Y126412D01*
X157360Y125986D01*
X158007Y125718D01*
X158701Y125627D01*
X159394Y125718D01*
X160041Y125986D01*
X160596Y126412D01*
X160844Y126735D01*
X161718Y127759D01*
X162925Y129728D01*
X163809Y131863D01*
X164348Y134109D01*
X164530Y136411D01*
X164507D01*
Y166314D01*
X164523D01*
X164367Y168301D01*
X163902Y170238D01*
X163140Y172079D01*
X162099Y173777D01*
X160805Y175292D01*
X160805Y175292D01*
X160236Y175838D01*
X133880Y202194D01*
X133867Y202204D01*
X133512Y202736D01*
X133387Y203363D01*
X133389Y203379D01*
X133387Y203395D01*
X133512Y204022D01*
X133867Y204553D01*
X133878Y204562D01*
X133879Y204563D01*
X133880Y204564D01*
X136173Y206857D01*
X136271Y206817D01*
X137607Y206641D01*
X138943Y206817D01*
X140188Y207332D01*
X141257Y208153D01*
X142077Y209222D01*
X142593Y210467D01*
X142769Y211803D01*
X142593Y213139D01*
X142077Y214384D01*
X141257Y215453D01*
X140979Y215732D01*
X140444Y216142D01*
Y216929D01*
X140979Y217339D01*
X141257Y217618D01*
X142077Y218687D01*
X142593Y219932D01*
X142769Y221268D01*
X142593Y222604D01*
X142077Y223849D01*
X141257Y224918D01*
X140188Y225739D01*
X138943Y226254D01*
X137607Y226430D01*
D02*
G37*
G36*
X88265Y222441D02*
X87325D01*
X86457Y222081D01*
X85960Y221584D01*
X61811D01*
X61803Y221582D01*
X60673Y221471D01*
X59578Y221139D01*
X58569Y220600D01*
X57685Y219874D01*
X56959Y218990D01*
X56420Y217981D01*
X56088Y216886D01*
X55977Y215756D01*
X55975Y215748D01*
Y202623D01*
X55478Y202126D01*
X55118Y201257D01*
Y200318D01*
X55478Y199449D01*
X56142Y198785D01*
X57010Y198425D01*
X57950D01*
X58818Y198785D01*
X59483Y199449D01*
X59842Y200318D01*
Y201257D01*
X59483Y202126D01*
X58986Y202623D01*
Y215748D01*
X58984Y215757D01*
X59079Y216480D01*
X59361Y217162D01*
X59811Y217748D01*
X60397Y218198D01*
X61079Y218480D01*
X61802Y218575D01*
X61811Y218573D01*
X85960D01*
X86457Y218076D01*
X87325Y217717D01*
X88265D01*
X89133Y218076D01*
X89798Y218741D01*
X90158Y219609D01*
Y220549D01*
X89798Y221417D01*
X89133Y222081D01*
X88265Y222441D01*
D02*
G37*
G36*
X109160Y225591D02*
X107376D01*
X105626Y225243D01*
X103979Y224560D01*
X102496Y223569D01*
X101234Y222308D01*
X100243Y220825D01*
X99561Y219177D01*
X99213Y217427D01*
Y215644D01*
X99561Y213894D01*
X100243Y212246D01*
X101234Y210763D01*
X102496Y209502D01*
X103979Y208511D01*
X105626Y207828D01*
X107376Y207480D01*
X109160D01*
X110909Y207828D01*
X112557Y208511D01*
X114040Y209502D01*
X115301Y210763D01*
X116292Y212246D01*
X116975Y213894D01*
X117323Y215644D01*
Y217427D01*
X116975Y219177D01*
X116292Y220825D01*
X115301Y222308D01*
X114040Y223569D01*
X112557Y224560D01*
X110909Y225243D01*
X109160Y225591D01*
D02*
G37*
G36*
X106739Y201484D02*
X105799D01*
X105427Y201330D01*
X103210D01*
X103044Y201297D01*
X102266Y201194D01*
X101386Y200830D01*
X101075Y200591D01*
X95473D01*
Y186024D01*
X103740D01*
Y193690D01*
X106650D01*
X107023Y193536D01*
X107962D01*
X108831Y193895D01*
X109495Y194560D01*
X109855Y195428D01*
Y196368D01*
X109495Y197236D01*
X108831Y197901D01*
X108395Y198081D01*
X108632Y198652D01*
Y199592D01*
X108272Y200460D01*
X107607Y201125D01*
X106739Y201484D01*
D02*
G37*
G36*
X18955Y208858D02*
X18016D01*
X17147Y208499D01*
X16483Y207834D01*
X16123Y206966D01*
Y206026D01*
X16483Y205158D01*
X17147Y204493D01*
X18016Y204134D01*
X18955D01*
X19824Y204493D01*
X20321Y204991D01*
X22629D01*
X22696Y205004D01*
X24291Y204847D01*
X25888Y204363D01*
X27360Y203576D01*
X28598Y202559D01*
X28636Y202503D01*
X40945Y190194D01*
Y189491D01*
X41304Y188623D01*
X41969Y187958D01*
X42837Y187598D01*
X43777D01*
X44645Y187958D01*
X45310Y188623D01*
X45669Y189491D01*
Y190430D01*
X45310Y191299D01*
X44645Y191963D01*
X43777Y192323D01*
X43074D01*
X30765Y204631D01*
X30770Y204636D01*
X29396Y205809D01*
X27856Y206753D01*
X26187Y207445D01*
X24430Y207866D01*
X22629Y208008D01*
Y208001D01*
X20321D01*
X19824Y208499D01*
X18955Y208858D01*
D02*
G37*
G36*
X13005Y185826D02*
X11878Y185627D01*
X10841Y185143D01*
X10786Y185097D01*
X13258Y182150D01*
X16205Y184623D01*
X16158Y184678D01*
X15221Y185335D01*
X14145Y185726D01*
X13005Y185826D01*
D02*
G37*
G36*
X10020Y184454D02*
X9965Y184408D01*
X9308Y183470D01*
X8917Y182395D01*
X8817Y181255D01*
X9016Y180128D01*
X9499Y179090D01*
X9546Y179035D01*
X12492Y181508D01*
X10020Y184454D01*
D02*
G37*
G36*
X16848Y183857D02*
X13901Y181384D01*
X16374Y178438D01*
X16429Y178484D01*
X17085Y179422D01*
X17477Y180497D01*
X17576Y181637D01*
X17378Y182764D01*
X16894Y183801D01*
X16848Y183857D01*
D02*
G37*
G36*
X13135Y180742D02*
X10188Y178269D01*
X10235Y178214D01*
X11172Y177557D01*
X12248Y177166D01*
X13388Y177066D01*
X14515Y177265D01*
X15552Y177749D01*
X15608Y177795D01*
X13135Y180742D01*
D02*
G37*
G36*
X103756Y180921D02*
X100106D01*
Y174122D01*
X103756D01*
Y180921D01*
D02*
G37*
G36*
X99106D02*
X95457D01*
Y174122D01*
X99106D01*
Y180921D01*
D02*
G37*
G36*
X19425Y178348D02*
X18251Y178141D01*
X17171Y177637D01*
X16258Y176871D01*
X15574Y175894D01*
X15166Y174774D01*
X15062Y173586D01*
X15269Y172412D01*
X15773Y171332D01*
X16539Y170419D01*
X17516Y169735D01*
X18636Y169327D01*
X19824Y169223D01*
X20998Y169430D01*
X22078Y169934D01*
X22991Y170700D01*
X23675Y171677D01*
X24083Y172797D01*
X24187Y173985D01*
X23980Y175159D01*
X23476Y176239D01*
X22710Y177152D01*
X21733Y177836D01*
X20613Y178244D01*
X19425Y178348D01*
D02*
G37*
G36*
X103756Y173122D02*
X100106D01*
Y166323D01*
X103756D01*
Y173122D01*
D02*
G37*
G36*
X99106D02*
X95457D01*
Y166323D01*
X99106D01*
Y173122D01*
D02*
G37*
G36*
X132152Y171354D02*
X129571Y168774D01*
X134379Y163966D01*
X136960Y166547D01*
X132152Y171354D01*
D02*
G37*
G36*
X25853Y170687D02*
X24679Y170480D01*
X23599Y169976D01*
X22686Y169210D01*
X22002Y168234D01*
X21594Y167113D01*
X21490Y165926D01*
X21697Y164752D01*
X22201Y163671D01*
X22967Y162758D01*
X23944Y162074D01*
X25064Y161667D01*
X26252Y161563D01*
X27426Y161770D01*
X28506Y162274D01*
X29419Y163040D01*
X30103Y164016D01*
X30511Y165137D01*
X30615Y166324D01*
X30408Y167498D01*
X29904Y168579D01*
X29138Y169492D01*
X28161Y170176D01*
X27041Y170583D01*
X25853Y170687D01*
D02*
G37*
G36*
X128864Y168067D02*
X126283Y165486D01*
X131091Y160678D01*
X133672Y163259D01*
X128864Y168067D01*
D02*
G37*
G36*
X32289Y162844D02*
X31162Y162646D01*
X30125Y162162D01*
X30070Y162116D01*
X32542Y159169D01*
X35489Y161641D01*
X35442Y161697D01*
X34505Y162353D01*
X33429Y162745D01*
X32289Y162844D01*
D02*
G37*
G36*
X137667Y165840D02*
X135086Y163259D01*
X139894Y158451D01*
X142474Y161032D01*
X137667Y165840D01*
D02*
G37*
G36*
X29304Y161473D02*
X29248Y161426D01*
X28592Y160489D01*
X28200Y159413D01*
X28100Y158273D01*
X28299Y157146D01*
X28783Y156109D01*
X28829Y156054D01*
X31776Y158526D01*
X29304Y161473D01*
D02*
G37*
G36*
X36131Y160875D02*
X33185Y158403D01*
X35657Y155456D01*
X35713Y155503D01*
X36369Y156440D01*
X36760Y157516D01*
X36860Y158656D01*
X36661Y159783D01*
X36178Y160820D01*
X36131Y160875D01*
D02*
G37*
G36*
X134379Y162552D02*
X131798Y159971D01*
X136606Y155163D01*
X139187Y157744D01*
X134379Y162552D01*
D02*
G37*
G36*
X32419Y157760D02*
X29472Y155288D01*
X29518Y155232D01*
X30456Y154576D01*
X31532Y154184D01*
X32671Y154085D01*
X33799Y154283D01*
X34836Y154767D01*
X34891Y154814D01*
X32419Y157760D01*
D02*
G37*
G36*
X104450Y128980D02*
X103510D01*
X102642Y128621D01*
X101977Y127956D01*
X101618Y127088D01*
Y126148D01*
X101977Y125280D01*
X102642Y124616D01*
X103510Y124256D01*
X104450D01*
X104807Y124404D01*
X105961Y124290D01*
X107429Y123845D01*
X108781Y123122D01*
X109888Y122214D01*
X109945Y122128D01*
X120493Y111581D01*
X120358Y110904D01*
X119694Y110240D01*
X119334Y109371D01*
Y108432D01*
X119694Y107564D01*
X120358Y106899D01*
X120731Y106745D01*
X133213Y94263D01*
X133430Y93740D01*
X134094Y93076D01*
X134962Y92716D01*
X135902D01*
X136770Y93076D01*
X137321Y93626D01*
X137818Y93725D01*
X138274Y93707D01*
X138629Y93274D01*
X139352Y91922D01*
X139797Y90454D01*
X139902Y89388D01*
X139763Y89052D01*
Y88112D01*
X140123Y87244D01*
X140787Y86579D01*
X141655Y86220D01*
X142595D01*
X143463Y86579D01*
X144128Y87244D01*
X144488Y88112D01*
Y89052D01*
X144279Y89555D01*
X144178Y90837D01*
X143731Y92699D01*
X142998Y94468D01*
X141998Y96101D01*
X140780Y97527D01*
X140758Y97560D01*
X113067Y125250D01*
X113034Y125273D01*
X111608Y126491D01*
X109975Y127491D01*
X108206Y128224D01*
X106344Y128671D01*
X104928Y128782D01*
X104450Y128980D01*
D02*
G37*
G36*
X1023419Y-306202D02*
X1015402D01*
Y-306488D01*
Y-306774D01*
Y-307061D01*
Y-307347D01*
Y-307633D01*
X1015115D01*
Y-307920D01*
Y-308206D01*
Y-308492D01*
Y-308778D01*
Y-309065D01*
Y-309351D01*
X1014829D01*
Y-309637D01*
Y-309924D01*
Y-310210D01*
Y-310496D01*
Y-310783D01*
Y-311069D01*
X1014543D01*
Y-311355D01*
Y-311642D01*
Y-311928D01*
Y-312214D01*
Y-312501D01*
Y-312787D01*
X1014256D01*
Y-313073D01*
Y-313359D01*
Y-313646D01*
Y-313932D01*
Y-314218D01*
Y-314505D01*
Y-314791D01*
X1013970D01*
Y-315077D01*
Y-315364D01*
Y-315650D01*
Y-315936D01*
Y-316223D01*
Y-316509D01*
X1013684D01*
Y-316795D01*
Y-317081D01*
Y-317368D01*
X1020842D01*
Y-317081D01*
X1021987D01*
Y-316795D01*
X1022560D01*
Y-316509D01*
X1022846D01*
Y-316223D01*
X1023132D01*
Y-315936D01*
X1023419D01*
Y-315650D01*
X1023705D01*
Y-315364D01*
Y-315077D01*
X1023991D01*
Y-314791D01*
Y-314505D01*
X1024277D01*
Y-314218D01*
Y-313932D01*
X1024564D01*
Y-313646D01*
Y-313359D01*
Y-313073D01*
Y-312787D01*
X1024850D01*
Y-312501D01*
Y-312214D01*
Y-311928D01*
Y-311642D01*
Y-311355D01*
X1025136D01*
Y-311069D01*
Y-310783D01*
Y-310496D01*
Y-310210D01*
Y-309924D01*
Y-309637D01*
Y-309351D01*
Y-309065D01*
Y-308778D01*
Y-308492D01*
Y-308206D01*
X1024850D01*
Y-307920D01*
Y-307633D01*
X1024564D01*
Y-307347D01*
Y-307061D01*
X1024277D01*
Y-306774D01*
X1023991D01*
Y-306488D01*
X1023419D01*
Y-306202D01*
D02*
G37*
%LPD*%
D10*
X1198433Y-322095D02*
Y-335870D01*
X1205320D01*
X1207616Y-333574D01*
Y-331278D01*
X1205320Y-328983D01*
X1198433D01*
X1205320D01*
X1207616Y-326687D01*
Y-324391D01*
X1205320Y-322095D01*
X1198433D01*
X1214504Y-335870D02*
X1219095D01*
X1221391Y-333574D01*
Y-328983D01*
X1219095Y-326687D01*
X1214504D01*
X1212208Y-328983D01*
Y-333574D01*
X1214504Y-335870D01*
X1228279Y-324391D02*
Y-326687D01*
X1225983D01*
X1230575D01*
X1228279D01*
Y-333574D01*
X1230575Y-335870D01*
X1239758Y-324391D02*
Y-326687D01*
X1237462D01*
X1242054D01*
X1239758D01*
Y-333574D01*
X1242054Y-335870D01*
X1251237D02*
X1255829D01*
X1258125Y-333574D01*
Y-328983D01*
X1255829Y-326687D01*
X1251237D01*
X1248941Y-328983D01*
Y-333574D01*
X1251237Y-335870D01*
X1262716D02*
Y-326687D01*
X1265012D01*
X1267308Y-328983D01*
Y-335870D01*
Y-328983D01*
X1269604Y-326687D01*
X1271900Y-328983D01*
Y-335870D01*
X1290267Y-322095D02*
Y-335870D01*
X1299450D01*
X1306338Y-326687D02*
X1310929D01*
X1313225Y-328983D01*
Y-335870D01*
X1306338D01*
X1304042Y-333574D01*
X1306338Y-331278D01*
X1313225D01*
X1317817Y-326687D02*
Y-333574D01*
X1320113Y-335870D01*
X1327000D01*
Y-338166D01*
X1324704Y-340462D01*
X1322408D01*
X1327000Y-335870D02*
Y-326687D01*
X1338479Y-335870D02*
X1333888D01*
X1331592Y-333574D01*
Y-328983D01*
X1333888Y-326687D01*
X1338479D01*
X1340775Y-328983D01*
Y-331278D01*
X1331592D01*
X1345367Y-326687D02*
Y-335870D01*
Y-331278D01*
X1347663Y-328983D01*
X1349959Y-326687D01*
X1352254D01*
X1001582Y-400836D02*
Y-416579D01*
X1006830Y-411331D01*
X1012078Y-416579D01*
Y-400836D01*
X1017325Y-416579D02*
X1022573D01*
X1019949D01*
Y-406084D01*
X1017325D01*
X1030444Y-416579D02*
Y-406084D01*
X1033068D01*
X1035692Y-408707D01*
Y-416579D01*
Y-408707D01*
X1038316Y-406084D01*
X1040940Y-408707D01*
Y-416579D01*
X1046187Y-400836D02*
Y-411331D01*
X1051435Y-416579D01*
X1056683Y-411331D01*
Y-400836D01*
X1072426Y-403460D02*
X1069802Y-400836D01*
X1064554D01*
X1061930Y-403460D01*
Y-413955D01*
X1064554Y-416579D01*
X1069802D01*
X1072426Y-413955D01*
Y-408707D01*
X1067178D01*
X1355913Y-364090D02*
X1358537Y-361466D01*
X1363785D01*
X1366408Y-364090D01*
Y-374585D01*
X1363785Y-377209D01*
X1358537D01*
X1355913Y-374585D01*
Y-364090D01*
X1371656D02*
X1374280Y-361466D01*
X1379527D01*
X1382151Y-364090D01*
Y-374585D01*
X1379527Y-377209D01*
X1374280D01*
X1371656Y-374585D01*
Y-364090D01*
X1192527Y-377209D02*
X1197119D01*
X1194823D01*
Y-363434D01*
X1192527Y-365730D01*
X1213190Y-363434D02*
X1208598Y-365730D01*
X1204006Y-370321D01*
Y-374913D01*
X1206302Y-377209D01*
X1210894D01*
X1213190Y-374913D01*
Y-372617D01*
X1210894Y-370321D01*
X1204006D01*
X1217782Y-377209D02*
X1226965Y-368025D01*
X1231557Y-365730D02*
X1233852Y-363434D01*
X1238444D01*
X1240740Y-365730D01*
Y-374913D01*
X1238444Y-377209D01*
X1233852D01*
X1231557Y-374913D01*
Y-365730D01*
X1254515Y-363434D02*
X1245332D01*
Y-370321D01*
X1249923Y-368025D01*
X1252219D01*
X1254515Y-370321D01*
Y-374913D01*
X1252219Y-377209D01*
X1247628D01*
X1245332Y-374913D01*
X1259107Y-377209D02*
X1268290Y-368025D01*
X1282065Y-377209D02*
X1272882D01*
X1282065Y-368025D01*
Y-365730D01*
X1279769Y-363434D01*
X1275178D01*
X1272882Y-365730D01*
X1286657D02*
X1288953Y-363434D01*
X1293544D01*
X1295840Y-365730D01*
Y-374913D01*
X1293544Y-377209D01*
X1288953D01*
X1286657Y-374913D01*
Y-365730D01*
X1309615Y-377209D02*
X1300432D01*
X1309615Y-368025D01*
Y-365730D01*
X1307320Y-363434D01*
X1302728D01*
X1300432Y-365730D01*
X1314207D02*
X1316503Y-363434D01*
X1321095D01*
X1323390Y-365730D01*
Y-368025D01*
X1321095Y-370321D01*
X1318799D01*
X1321095D01*
X1323390Y-372617D01*
Y-374913D01*
X1321095Y-377209D01*
X1316503D01*
X1314207Y-374913D01*
X1195018Y-285874D02*
X1186622D01*
Y-298469D01*
X1195018D01*
X1186622Y-292172D02*
X1190820D01*
X1207612Y-285874D02*
Y-298469D01*
X1201315D01*
X1199216Y-296370D01*
Y-292172D01*
X1201315Y-290072D01*
X1207612D01*
X1216009Y-302667D02*
X1218108D01*
X1220207Y-300568D01*
Y-290072D01*
X1213910D01*
X1211810Y-292172D01*
Y-296370D01*
X1213910Y-298469D01*
X1220207D01*
X1226504Y-290072D02*
X1230702D01*
X1232801Y-292172D01*
Y-298469D01*
X1226504D01*
X1224405Y-296370D01*
X1226504Y-294271D01*
X1232801D01*
X1236999Y-290072D02*
Y-298469D01*
Y-294271D01*
X1239098Y-292172D01*
X1241197Y-290072D01*
X1243296D01*
D11*
X50046Y239272D02*
G03*
X54504Y241118I-0J6303D01*
G01*
X24630Y232326D02*
G03*
X27559Y239397I-7071J7071D01*
G01*
X30488Y252929D02*
G03*
X27559Y245858I7071J-7071D01*
G01*
X40512Y259055D02*
G03*
X33858Y256299I0J-9409D01*
G01*
X51375Y259055D02*
G03*
X55076Y260588I0J5234D01*
G01*
X62147Y263517D02*
G03*
X55076Y260588I0J-10000D01*
G01*
X85475D02*
G03*
X78404Y263517I-7071J-7071D01*
G01*
X89764Y256299D02*
G03*
X96417Y253543I6653J6653D01*
G01*
X29701Y203567D02*
G03*
X22629Y206496I-7071J-7071D01*
G01*
X61811Y220079D02*
G03*
X57480Y215748I0J-4331D01*
G01*
X30610Y239272D02*
X50046D01*
X30512Y239173D02*
X30610Y239272D01*
X18486Y226181D02*
X24630Y232326D01*
X27559Y239397D02*
Y245858D01*
X30488Y252929D02*
X33858Y256299D01*
X40512Y259055D02*
X51375D01*
X62147Y263517D02*
X78404D01*
X85475Y260588D02*
X89764Y256299D01*
X96417Y253543D02*
X97244D01*
X29701Y203567D02*
X43307Y189961D01*
X18486Y206496D02*
X22629D01*
X54504Y241118D02*
X57480Y244094D01*
X61811Y220079D02*
X87795D01*
X57480Y200787D02*
Y215748D01*
X227212Y239272D02*
G03*
X231669Y241118I-0J6303D01*
G01*
X201796Y232326D02*
G03*
X204724Y239397I-7071J7071D01*
G01*
X207653Y252929D02*
G03*
X204724Y245858I7071J-7071D01*
G01*
X217677Y259055D02*
G03*
X211024Y256299I0J-9409D01*
G01*
X228541Y259055D02*
G03*
X232242Y260588I0J5234D01*
G01*
X239313Y263517D02*
G03*
X232242Y260588I0J-10000D01*
G01*
X262640D02*
G03*
X255569Y263517I-7071J-7071D01*
G01*
X266929Y256299D02*
G03*
X273583Y253543I6653J6653D01*
G01*
X206866Y203567D02*
G03*
X199795Y206496I-7071J-7071D01*
G01*
X238976Y220079D02*
G03*
X234646Y215748I0J-4331D01*
G01*
X207776Y239272D02*
X227212D01*
X207677Y239173D02*
X207776Y239272D01*
X195651Y226181D02*
X201796Y232326D01*
X204724Y239397D02*
Y245858D01*
X207653Y252929D02*
X211024Y256299D01*
X217677Y259055D02*
X228541D01*
X239313Y263517D02*
X255569D01*
X262640Y260588D02*
X266929Y256299D01*
X273583Y253543D02*
X274409D01*
X206866Y203567D02*
X220472Y189961D01*
X195651Y206496D02*
X199795D01*
X231669Y241118D02*
X234646Y244094D01*
X238976Y220079D02*
X264961D01*
X234646Y200787D02*
Y215748D01*
X354331Y-39370D02*
Y-0D01*
X0Y-39370D02*
X354331D01*
X0D02*
Y0D01*
X354331Y275590D02*
X354331Y0D01*
X0D02*
X354331D01*
X0Y275590D02*
X354331D01*
X0Y0D02*
Y275590D01*
D12*
X46457Y252953D02*
G03*
X37402Y243898I0J-9055D01*
G01*
Y243110D02*
Y243898D01*
X223622Y252953D02*
G03*
X214567Y243898I0J-9055D01*
G01*
Y243110D02*
Y243898D01*
D13*
X117150Y85606D02*
G03*
X124221Y82677I7071J7071D01*
G01*
X82368Y123344D02*
G03*
X85216Y117540I9919J1267D01*
G01*
X82287Y124611D02*
G03*
X82368Y123344I10000J0D01*
G01*
X149449Y43307D02*
G03*
X144453Y55369I-17059J-0D01*
G01*
X84406Y258882D02*
G03*
X77335Y261811I-7071J-7071D01*
G01*
X63591D02*
G03*
X56520Y258882I0J-10000D01*
G01*
X46457Y252953D02*
G03*
X53514Y255876I0J9980D01*
G01*
X82677Y67438D02*
G03*
X79890Y74166I-9515J0D01*
G01*
X86958Y67092D02*
G03*
X84661Y61543I5555J-5549D01*
G01*
X86961Y67095D02*
G03*
X86958Y67092I5552J-5552D01*
G01*
X81732Y49055D02*
G03*
X84661Y56126I-7071J7071D01*
G01*
X79748Y49877D02*
G03*
X82677Y56948I-7071J7071D01*
G01*
X75933Y43255D02*
G03*
X75933Y43256I-1400J1406D01*
G01*
X67496Y39748D02*
G03*
X67860Y39755I0J10000D01*
G01*
X67860D02*
G03*
X75933Y43255I-399J11978D01*
G01*
X67461Y41732D02*
G03*
X74532Y44661I0J10000D01*
G01*
X41888Y41971D02*
G03*
X45861Y39878I5370J5376D01*
G01*
X41881Y41977D02*
G03*
X41888Y41971I5376J5370D01*
G01*
X41879Y41979D02*
G03*
X41881Y41977I5379J5368D01*
G01*
X41678Y42191D02*
G03*
X41879Y41980I4354J3930D01*
G01*
X45861Y39878D02*
G03*
X47258Y39748I1397J7469D01*
G01*
X41879Y41980D02*
X41879Y41979D01*
X42151Y46121D02*
G03*
X43288Y43377I3881J0D01*
G01*
D02*
G03*
X47258Y41732I3970J3970D01*
G01*
X43288Y48865D02*
G03*
X42151Y46121I2744J-2744D01*
G01*
X34252Y53748D02*
G03*
X37181Y46677I10000J0D01*
G01*
X36986Y60937D02*
G03*
X34252Y54331I6613J-6606D01*
G01*
X36990Y60940D02*
G03*
X36986Y60937I6610J-6610D01*
G01*
X124221Y82677D02*
X149449D01*
X85216Y117540D02*
X117150Y85606D01*
X82287Y124611D02*
Y127949D01*
X65470Y134352D02*
X144453Y55369D01*
X84406Y258882D02*
X94273Y249015D01*
X63591Y261811D02*
X77335D01*
X53514Y255876D02*
X56520Y258882D01*
X82677Y56948D02*
Y67438D01*
X84661Y56126D02*
Y61543D01*
X77165Y44488D02*
X81732Y49055D01*
X74532Y44661D02*
X79748Y49877D01*
X75933Y43256D02*
X77165Y44488D01*
X75933Y43256D02*
X75933Y43256D01*
X47258Y39748D02*
X67496D01*
X47258Y41732D02*
X67461D01*
X45861Y39878D02*
X45861D01*
X37181Y46677D02*
X41394Y42465D01*
X41678Y42191D02*
X41678Y42191D01*
X41394Y42464D02*
X41678Y42191D01*
X41393Y42465D02*
X41394Y42464D01*
X43288Y48865D02*
X48885Y54462D01*
X34252Y53748D02*
Y54331D01*
X36990Y60940D02*
X39698Y63648D01*
X294315Y85606D02*
G03*
X301386Y82677I7071J7071D01*
G01*
X259533Y123344D02*
G03*
X262381Y117540I9919J1267D01*
G01*
X259453Y124611D02*
G03*
X259533Y123344I10000J0D01*
G01*
X326614Y43307D02*
G03*
X321618Y55369I-17059J-0D01*
G01*
X261571Y258882D02*
G03*
X254500Y261811I-7071J-7071D01*
G01*
X240756D02*
G03*
X233685Y258882I0J-10000D01*
G01*
X223622Y252953D02*
G03*
X230679Y255876I0J9980D01*
G01*
X259842Y67438D02*
G03*
X257055Y74166I-9515J0D01*
G01*
X264124Y67092D02*
G03*
X261827Y61543I5555J-5549D01*
G01*
X264127Y67095D02*
G03*
X264124Y67092I5552J-5552D01*
G01*
X258898Y49055D02*
G03*
X261827Y56126I-7071J7071D01*
G01*
X256914Y49877D02*
G03*
X259842Y56948I-7071J7071D01*
G01*
X253098Y43255D02*
G03*
X253099Y43256I-1400J1406D01*
G01*
X244661Y39748D02*
G03*
X245025Y39755I0J10000D01*
G01*
X245025D02*
G03*
X253098Y43255I-399J11978D01*
G01*
X244626Y41732D02*
G03*
X251698Y44661I0J10000D01*
G01*
X219053Y41971D02*
G03*
X223026Y39878I5370J5376D01*
G01*
X219047Y41977D02*
G03*
X219053Y41971I5376J5370D01*
G01*
X219044Y41979D02*
G03*
X219047Y41977I5379J5368D01*
G01*
X218844Y42191D02*
G03*
X219044Y41980I4354J3930D01*
G01*
X223026Y39878D02*
G03*
X224423Y39748I1397J7469D01*
G01*
X219044Y41980D02*
X219044Y41979D01*
X219316Y46121D02*
G03*
X220453Y43377I3881J0D01*
G01*
D02*
G03*
X224423Y41732I3970J3970D01*
G01*
X220453Y48865D02*
G03*
X219316Y46121I2744J-2744D01*
G01*
X211417Y53748D02*
G03*
X214346Y46677I10000J0D01*
G01*
X214152Y60937D02*
G03*
X211417Y54331I6613J-6606D01*
G01*
X214155Y60940D02*
G03*
X214152Y60937I6610J-6610D01*
G01*
X301386Y82677D02*
X326614D01*
X262381Y117540D02*
X294315Y85606D01*
X259453Y124611D02*
Y127949D01*
X242635Y134352D02*
X321618Y55369D01*
X261571Y258882D02*
X271438Y249015D01*
X240756Y261811D02*
X254500D01*
X230679Y255876D02*
X233685Y258882D01*
X259842Y56948D02*
Y67438D01*
X261827Y56126D02*
Y61543D01*
X254331Y44488D02*
X258898Y49055D01*
X251698Y44661D02*
X256914Y49877D01*
X253099Y43256D02*
X254331Y44488D01*
X253099Y43256D02*
X253099Y43256D01*
X224423Y39748D02*
X244661D01*
X224423Y41732D02*
X244626D01*
X223026Y39878D02*
X223026D01*
X214346Y46677D02*
X218559Y42465D01*
X218843Y42191D02*
X218844Y42191D01*
X218559Y42464D02*
X218843Y42191D01*
X218559Y42465D02*
X218559Y42464D01*
X220453Y48865D02*
X226050Y54462D01*
X211417Y53748D02*
Y54331D01*
X214155Y60940D02*
X216863Y63648D01*
X1338197Y-355555D02*
Y-347684D01*
X1342132D01*
X1343444Y-348996D01*
Y-351620D01*
X1342132Y-352931D01*
X1338197D01*
X1340820D02*
X1343444Y-355555D01*
X1350004D02*
X1347380D01*
X1346068Y-354243D01*
Y-351620D01*
X1347380Y-350308D01*
X1350004D01*
X1351316Y-351620D01*
Y-352931D01*
X1346068D01*
X1353940Y-350308D02*
X1356563Y-355555D01*
X1359187Y-350308D01*
X983866Y-387054D02*
Y-394925D01*
X987802D01*
X989114Y-393614D01*
Y-388366D01*
X987802Y-387054D01*
X983866D01*
X995673Y-394925D02*
X993049D01*
X991737Y-393614D01*
Y-390990D01*
X993049Y-389678D01*
X995673D01*
X996985Y-390990D01*
Y-392302D01*
X991737D01*
X999609Y-394925D02*
X1003545D01*
X1004856Y-393614D01*
X1003545Y-392302D01*
X1000921D01*
X999609Y-390990D01*
X1000921Y-389678D01*
X1004856D01*
X1010104Y-397549D02*
X1011416D01*
X1012728Y-396237D01*
Y-389678D01*
X1008792D01*
X1007480Y-390990D01*
Y-393614D01*
X1008792Y-394925D01*
X1012728D01*
X1015352D02*
X1017976D01*
X1016664D01*
Y-389678D01*
X1015352D01*
X1021911Y-394925D02*
Y-389678D01*
X1025847D01*
X1027159Y-390990D01*
Y-394925D01*
X1033718D02*
X1031095D01*
X1029783Y-393614D01*
Y-390990D01*
X1031095Y-389678D01*
X1033718D01*
X1035030Y-390990D01*
Y-392302D01*
X1029783D01*
X1037654Y-389678D02*
Y-394925D01*
Y-392302D01*
X1038966Y-390990D01*
X1040278Y-389678D01*
X1041590D01*
X1180716Y-268944D02*
Y-276815D01*
X1184652D01*
X1185964Y-275503D01*
Y-270256D01*
X1184652Y-268944D01*
X1180716D01*
X1189900Y-276815D02*
X1192523D01*
X1193835Y-275503D01*
Y-272879D01*
X1192523Y-271568D01*
X1189900D01*
X1188588Y-272879D01*
Y-275503D01*
X1189900Y-276815D01*
X1201707Y-271568D02*
X1197771D01*
X1196459Y-272879D01*
Y-275503D01*
X1197771Y-276815D01*
X1201707D01*
X1204331Y-271568D02*
Y-275503D01*
X1205643Y-276815D01*
X1209578D01*
Y-271568D01*
X1212202Y-276815D02*
Y-271568D01*
X1213514D01*
X1214826Y-272879D01*
Y-276815D01*
Y-272879D01*
X1216138Y-271568D01*
X1217450Y-272879D01*
Y-276815D01*
X1224009D02*
X1221385D01*
X1220074Y-275503D01*
Y-272879D01*
X1221385Y-271568D01*
X1224009D01*
X1225321Y-272879D01*
Y-274191D01*
X1220074D01*
X1227945Y-276815D02*
Y-271568D01*
X1231881D01*
X1233193Y-272879D01*
Y-276815D01*
X1237129Y-270256D02*
Y-271568D01*
X1235817D01*
X1238440D01*
X1237129D01*
Y-275503D01*
X1238440Y-276815D01*
X1180716Y-308314D02*
Y-316185D01*
X1185964D01*
X1189900Y-310938D02*
X1192523D01*
X1193835Y-312249D01*
Y-316185D01*
X1189900D01*
X1188588Y-314873D01*
X1189900Y-313561D01*
X1193835D01*
X1196459Y-310938D02*
Y-314873D01*
X1197771Y-316185D01*
X1201707D01*
Y-317497D01*
X1200395Y-318809D01*
X1199083D01*
X1201707Y-316185D02*
Y-310938D01*
X1208266Y-316185D02*
X1205643D01*
X1204331Y-314873D01*
Y-312249D01*
X1205643Y-310938D01*
X1208266D01*
X1209578Y-312249D01*
Y-313561D01*
X1204331D01*
X1212202Y-310938D02*
Y-316185D01*
Y-313561D01*
X1213514Y-312249D01*
X1214826Y-310938D01*
X1216138D01*
X1227945Y-316185D02*
Y-308314D01*
X1233193Y-316185D01*
Y-308314D01*
X1237129Y-310938D02*
X1239752D01*
X1241064Y-312249D01*
Y-316185D01*
X1237129D01*
X1235817Y-314873D01*
X1237129Y-313561D01*
X1241064D01*
X1243688Y-316185D02*
Y-310938D01*
X1245000D01*
X1246312Y-312249D01*
Y-316185D01*
Y-312249D01*
X1247624Y-310938D01*
X1248936Y-312249D01*
Y-316185D01*
X1255495D02*
X1252872D01*
X1251560Y-314873D01*
Y-312249D01*
X1252872Y-310938D01*
X1255495D01*
X1256807Y-312249D01*
Y-313561D01*
X1251560D01*
X1180716Y-347684D02*
Y-355555D01*
X1184652D01*
X1185964Y-354243D01*
Y-348996D01*
X1184652Y-347684D01*
X1180716D01*
X1189900Y-350308D02*
X1192523D01*
X1193835Y-351620D01*
Y-355555D01*
X1189900D01*
X1188588Y-354243D01*
X1189900Y-352931D01*
X1193835D01*
X1197771Y-348996D02*
Y-350308D01*
X1196459D01*
X1199083D01*
X1197771D01*
Y-354243D01*
X1199083Y-355555D01*
X1206954D02*
X1204331D01*
X1203019Y-354243D01*
Y-351620D01*
X1204331Y-350308D01*
X1206954D01*
X1208266Y-351620D01*
Y-352931D01*
X1203019D01*
X1180716Y-387054D02*
Y-394925D01*
X1184652D01*
X1185964Y-393614D01*
Y-388366D01*
X1184652Y-387054D01*
X1180716D01*
X1189900Y-394925D02*
X1192523D01*
X1193835Y-393614D01*
Y-390990D01*
X1192523Y-389678D01*
X1189900D01*
X1188588Y-390990D01*
Y-393614D01*
X1189900Y-394925D01*
X1201707Y-389678D02*
X1197771D01*
X1196459Y-390990D01*
Y-393614D01*
X1197771Y-394925D01*
X1201707D01*
X1204331Y-389678D02*
Y-393614D01*
X1205643Y-394925D01*
X1209578D01*
Y-389678D01*
X1212202Y-394925D02*
Y-389678D01*
X1213514D01*
X1214826Y-390990D01*
Y-394925D01*
Y-390990D01*
X1216138Y-389678D01*
X1217450Y-390990D01*
Y-394925D01*
X1224009D02*
X1221385D01*
X1220074Y-393614D01*
Y-390990D01*
X1221385Y-389678D01*
X1224009D01*
X1225321Y-390990D01*
Y-392302D01*
X1220074D01*
X1227945Y-394925D02*
Y-389678D01*
X1231881D01*
X1233193Y-390990D01*
Y-394925D01*
X1237129Y-388366D02*
Y-389678D01*
X1235817D01*
X1238440D01*
X1237129D01*
Y-393614D01*
X1238440Y-394925D01*
D14*
X164213Y72835D02*
G03*
X174213Y82835I0J10000D01*
G01*
X111506Y123689D02*
G03*
X104435Y126618I-7071J-7071D01*
G01*
X142125Y88928D02*
G03*
X139196Y95999I-10000J0D01*
G01*
X100054Y195898D02*
G03*
X99606Y193614I5601J-2285D01*
G01*
X101378Y197891D02*
G03*
X100054Y195898I4277J-4277D01*
G01*
X103210Y199122D02*
G03*
X102184Y198697I0J-1451D01*
G01*
X174213Y195661D02*
G03*
X171284Y202732I-10000J0D01*
G01*
X8661Y34869D02*
G03*
X11590Y27798I10000J0D01*
G01*
Y73008D02*
G03*
X8661Y65937I7071J-7071D01*
G01*
X35244Y92519D02*
G03*
X28173Y89590I0J-10000D01*
G01*
X64466D02*
G03*
X57395Y92519I-7071J-7071D01*
G01*
X136811Y72835D02*
X164213D01*
X174213Y82835D02*
Y195661D01*
X103980Y126618D02*
X104435D01*
X111506Y123689D02*
X139196Y95999D01*
X142125Y88582D02*
Y88928D01*
X99606Y193614D02*
Y195898D01*
Y193307D02*
Y193614D01*
X100054Y195898D02*
X107492D01*
X99606D02*
X100054D01*
X103210Y199122D02*
X106269D01*
X101378Y197891D02*
X102184Y198697D01*
X148298Y149339D02*
Y149558D01*
X152126Y153386D01*
X146095Y151543D02*
X148298Y149339D01*
X146095Y151543D02*
Y152079D01*
X149764Y155748D01*
X157480Y216535D02*
X171284Y202732D01*
X11590Y27798D02*
X26987Y12401D01*
X8661Y34869D02*
Y65937D01*
X11590Y73008D02*
X28173Y89590D01*
X55099Y92519D02*
X57395D01*
X35244D02*
X55099D01*
X64466Y89590D02*
X65748Y88308D01*
X135432Y95078D02*
Y95166D01*
X121696Y108902D02*
X135432Y95166D01*
X341378Y72835D02*
G03*
X351378Y82835I0J10000D01*
G01*
X288672Y123689D02*
G03*
X281601Y126618I-7071J-7071D01*
G01*
X319291Y88928D02*
G03*
X316362Y95999I-10000J0D01*
G01*
X277220Y195898D02*
G03*
X276772Y193614I5601J-2285D01*
G01*
X278543Y197891D02*
G03*
X277220Y195898I4277J-4277D01*
G01*
X280376Y199122D02*
G03*
X279349Y198697I0J-1451D01*
G01*
X351378Y195661D02*
G03*
X348449Y202732I-10000J0D01*
G01*
X185827Y34869D02*
G03*
X188756Y27798I10000J0D01*
G01*
Y73008D02*
G03*
X185827Y65937I7071J-7071D01*
G01*
X212409Y92519D02*
G03*
X205339Y89590I0J-10000D01*
G01*
X241631D02*
G03*
X234560Y92519I-7071J-7071D01*
G01*
X313976Y72835D02*
X341378D01*
X351378Y82835D02*
Y195661D01*
X281145Y126618D02*
X281601D01*
X288672Y123689D02*
X316362Y95999D01*
X319291Y88582D02*
Y88928D01*
X276772Y193614D02*
Y195898D01*
Y193307D02*
Y193614D01*
X277220Y195898D02*
X284658D01*
X276772D02*
X277220D01*
X280376Y199122D02*
X283435D01*
X278543Y197891D02*
X279349Y198697D01*
X325464Y149339D02*
Y149558D01*
X329291Y153386D01*
X323260Y151543D02*
X325464Y149339D01*
X323260Y151543D02*
Y152079D01*
X326929Y155748D01*
X334646Y216535D02*
X348449Y202732D01*
X188756Y27798D02*
X204153Y12401D01*
X185827Y34869D02*
Y65937D01*
X188756Y73008D02*
X205339Y89590D01*
X232265Y92519D02*
X234560D01*
X212409D02*
X232265D01*
X241631Y89590D02*
X242913Y88308D01*
X312598Y95078D02*
Y95166D01*
X298862Y108902D02*
X312598Y95166D01*
D15*
X131982Y206457D02*
G03*
X130709Y203379I3082J-3078D01*
G01*
D02*
G03*
X131984Y200299I4356J0D01*
G01*
X131984Y206459D02*
G03*
X131982Y206457I3080J-3080D01*
G01*
X121783Y209053D02*
G03*
X124712Y201982I10000J0D01*
G01*
X124484Y217333D02*
G03*
X121783Y210810I6522J-6522D01*
G01*
X161827Y166314D02*
G03*
X158898Y173386I-10000J0D01*
G01*
X157874Y164677D02*
G03*
X154945Y171748I-10000J0D01*
G01*
X158701Y128326D02*
G03*
X158701Y128307I7996J-19D01*
G01*
X158701Y128326D02*
G03*
X161827Y136411I-8892J8085D01*
G01*
X155512Y130709D02*
G03*
X157874Y136411I-5703J5703D01*
G01*
X131984Y200299D02*
X158898Y173386D01*
X131984Y206459D02*
X137468Y211942D01*
X124712Y201982D02*
X154945Y171748D01*
X121783Y209053D02*
Y210810D01*
X124484Y217333D02*
X128281Y221129D01*
X161827Y136411D02*
Y166314D01*
X157874Y136411D02*
Y164677D01*
X309148Y206457D02*
G03*
X307874Y203379I3082J-3078D01*
G01*
D02*
G03*
X309150Y200299I4356J0D01*
G01*
X309150Y206459D02*
G03*
X309148Y206457I3080J-3080D01*
G01*
X298948Y209053D02*
G03*
X301877Y201982I10000J0D01*
G01*
X301650Y217333D02*
G03*
X298948Y210810I6522J-6522D01*
G01*
X338992Y166314D02*
G03*
X336063Y173386I-10000J0D01*
G01*
X335039Y164677D02*
G03*
X332110Y171748I-10000J0D01*
G01*
X335866Y128326D02*
G03*
X335866Y128307I7996J-19D01*
G01*
X335866Y128326D02*
G03*
X338992Y136411I-8892J8085D01*
G01*
X332677Y130709D02*
G03*
X335039Y136411I-5703J5703D01*
G01*
X309150Y200299D02*
X336063Y173386D01*
X309150Y206459D02*
X314633Y211942D01*
X301877Y201982D02*
X332110Y171748D01*
X298948Y209053D02*
Y210810D01*
X301650Y217333D02*
X305446Y221129D01*
X338992Y136411D02*
Y166314D01*
X335039Y136411D02*
Y164677D01*
D39*
X1334260Y-383114D02*
Y-343744D01*
X1176779Y-304374D02*
X1452370D01*
X1176779Y-343744D02*
X1452370D01*
X979929Y-383114D02*
X1452370D01*
X979929Y-265004D02*
X1452370D01*
X979929Y-422484D02*
Y-265004D01*
X1176779Y-422484D02*
Y-265004D01*
X-201173Y746807D02*
X1452370D01*
Y-422484D02*
Y746807D01*
X-201173Y-422484D02*
Y746807D01*
Y-422484D02*
X1452370D01*
X1190557Y-408707D02*
X1186622D01*
Y-414610D01*
X1190557D01*
X1186622Y-411659D02*
X1188590D01*
X1192525Y-408707D02*
Y-414610D01*
X1195477D01*
X1196461Y-413626D01*
Y-409691D01*
X1195477Y-408707D01*
X1192525D01*
X1202365Y-409691D02*
X1201381Y-408707D01*
X1199413D01*
X1198429Y-409691D01*
Y-413626D01*
X1199413Y-414610D01*
X1201381D01*
X1202365Y-413626D01*
Y-411659D01*
X1200397D01*
X1204333Y-414610D02*
Y-410675D01*
X1206300Y-408707D01*
X1208268Y-410675D01*
Y-414610D01*
Y-411659D01*
X1204333D01*
X1210236Y-414610D02*
Y-408707D01*
X1213188D01*
X1214172Y-409691D01*
Y-411659D01*
X1213188Y-412642D01*
X1210236D01*
X1212204D02*
X1214172Y-414610D01*
X1216140Y-415594D02*
X1220076D01*
X1222043Y-414610D02*
Y-408707D01*
X1224995D01*
X1225979Y-409691D01*
Y-411659D01*
X1224995Y-412642D01*
X1222043D01*
X1228931Y-410675D02*
X1230899D01*
X1231883Y-411659D01*
Y-414610D01*
X1228931D01*
X1227947Y-413626D01*
X1228931Y-412642D01*
X1231883D01*
X1233850Y-414610D02*
Y-410675D01*
X1236802D01*
X1237786Y-411659D01*
Y-414610D01*
X1242706D02*
X1240738D01*
X1239754Y-413626D01*
Y-411659D01*
X1240738Y-410675D01*
X1242706D01*
X1243690Y-411659D01*
Y-412642D01*
X1239754D01*
X1245658Y-414610D02*
X1247626D01*
X1246642D01*
Y-408707D01*
X1245658D01*
X1250577Y-415594D02*
X1254513D01*
X1256481Y-409691D02*
X1257465Y-408707D01*
X1259433D01*
X1260417Y-409691D01*
Y-413626D01*
X1259433Y-414610D01*
X1257465D01*
X1256481Y-413626D01*
Y-409691D01*
X1262385D02*
X1263369Y-408707D01*
X1265336D01*
X1266320Y-409691D01*
Y-413626D01*
X1265336Y-414610D01*
X1263369D01*
X1262385Y-413626D01*
Y-409691D01*
X1268288Y-414610D02*
Y-413626D01*
X1269272D01*
Y-414610D01*
X1268288D01*
X1273208D02*
Y-408707D01*
X1276160D01*
X1277144Y-409691D01*
Y-411659D01*
X1276160Y-412642D01*
X1273208D01*
X1283047Y-410675D02*
X1280095D01*
X1279111Y-411659D01*
Y-413626D01*
X1280095Y-414610D01*
X1283047D01*
X1285015Y-408707D02*
Y-414610D01*
X1287967D01*
X1288951Y-413626D01*
Y-412642D01*
Y-411659D01*
X1287967Y-410675D01*
X1285015D01*
X1290919Y-408707D02*
Y-414610D01*
X1293871D01*
X1294854Y-413626D01*
Y-409691D01*
X1293871Y-408707D01*
X1290919D01*
X1297806Y-414610D02*
X1299774D01*
X1300758Y-413626D01*
Y-411659D01*
X1299774Y-410675D01*
X1297806D01*
X1296822Y-411659D01*
Y-413626D01*
X1297806Y-414610D01*
X1306662Y-410675D02*
X1303710D01*
X1302726Y-411659D01*
Y-413626D01*
X1303710Y-414610D01*
X1306662D01*
D40*
X19685Y59055D02*
D03*
X68898D02*
D03*
X157480Y216535D02*
D03*
X108268D02*
D03*
X196850Y59055D02*
D03*
X246063D02*
D03*
X334646Y216535D02*
D03*
X285433D02*
D03*
D41*
X39698Y54462D02*
D03*
X48885Y63648D02*
D03*
X137468Y221129D02*
D03*
X128281Y211942D02*
D03*
X216863Y54462D02*
D03*
X226050Y63648D02*
D03*
X314633Y221129D02*
D03*
X305446Y211942D02*
D03*
D42*
X39698Y63648D02*
D03*
X48885Y54462D02*
D03*
X137468Y211942D02*
D03*
X128281Y221129D02*
D03*
X216863Y63648D02*
D03*
X226050Y54462D02*
D03*
X314633Y211942D02*
D03*
X305446Y221129D02*
D03*
D43*
X141754Y28237D02*
D03*
X135326Y35897D02*
D03*
X128899Y43558D02*
D03*
X116043Y58879D02*
D03*
X122471Y51218D02*
D03*
X109615Y66539D02*
D03*
X32480Y158465D02*
D03*
X13197Y181446D02*
D03*
X26052Y166125D02*
D03*
X19625Y173785D02*
D03*
X318920Y28237D02*
D03*
X312492Y35897D02*
D03*
X306064Y43558D02*
D03*
X293208Y58879D02*
D03*
X299636Y51218D02*
D03*
X286780Y66539D02*
D03*
X209646Y158465D02*
D03*
X190362Y181446D02*
D03*
X203218Y166125D02*
D03*
X196790Y173785D02*
D03*
D44*
X37402Y243110D02*
D03*
X214567D02*
D03*
D45*
X17717D02*
D03*
X194882D02*
D03*
D46*
X82287Y127949D02*
D03*
X65470Y134352D02*
D03*
X136811Y72835D02*
D03*
X149449Y43307D02*
D03*
X149449Y82677D02*
D03*
X30512Y239173D02*
D03*
X67716Y216929D02*
D03*
X72244D02*
D03*
X63189D02*
D03*
X69882Y224409D02*
D03*
X65551D02*
D03*
X69882Y229528D02*
D03*
X65551D02*
D03*
X63189Y226772D02*
D03*
X72244D02*
D03*
X67716D02*
D03*
Y266929D02*
D03*
X69882Y269291D02*
D03*
X65551D02*
D03*
X72244Y266929D02*
D03*
X63189D02*
D03*
X97244Y253543D02*
D03*
X43307Y189961D02*
D03*
X18486Y226181D02*
D03*
Y206496D02*
D03*
X67716Y246063D02*
D03*
X69685Y249016D02*
D03*
Y243110D02*
D03*
X65748D02*
D03*
Y249016D02*
D03*
X67716Y202756D02*
D03*
X69685Y205709D02*
D03*
Y199803D02*
D03*
X65748D02*
D03*
Y205709D02*
D03*
X106269Y199122D02*
D03*
X107492Y195898D02*
D03*
X149764Y155748D02*
D03*
X141223Y257677D02*
D03*
X140504Y247936D02*
D03*
Y251873D02*
D03*
X121832Y249213D02*
D03*
X106084D02*
D03*
X11436Y199016D02*
D03*
Y218701D02*
D03*
X56872Y237205D02*
D03*
Y193898D02*
D03*
X89763Y189389D02*
D03*
Y232697D02*
D03*
X87795Y220079D02*
D03*
X57480Y200787D02*
D03*
X164959Y127561D02*
D03*
X170471Y137797D02*
D03*
X57480Y244094D02*
D03*
X72043Y138193D02*
D03*
X14763Y114093D02*
D03*
X8858Y114745D02*
D03*
X4921D02*
D03*
X53328Y181102D02*
D03*
Y185039D02*
D03*
X152126Y153386D02*
D03*
X84053Y155710D02*
D03*
X86416Y153348D02*
D03*
X121220Y185079D02*
D03*
X118858Y187441D02*
D03*
X144331Y161181D02*
D03*
X141969Y163543D02*
D03*
X161416Y100395D02*
D03*
X159053Y102758D02*
D03*
X170864Y114569D02*
D03*
X131494Y153939D02*
D03*
X133857Y151576D02*
D03*
X119683Y142128D02*
D03*
X122046Y139766D02*
D03*
X155512Y130709D02*
D03*
X158701Y128307D02*
D03*
X67716Y188583D02*
D03*
X72244D02*
D03*
X63189D02*
D03*
X67716Y231890D02*
D03*
X72244D02*
D03*
X63189D02*
D03*
X65551Y252362D02*
D03*
X69882D02*
D03*
X63189Y255118D02*
D03*
X72244D02*
D03*
X65551Y257480D02*
D03*
X69882D02*
D03*
X67716Y255118D02*
D03*
X65551Y239764D02*
D03*
X69882D02*
D03*
X63189Y237008D02*
D03*
X72244D02*
D03*
X65551Y234646D02*
D03*
X69882D02*
D03*
X67716Y237008D02*
D03*
X65551Y196457D02*
D03*
X69882D02*
D03*
X63189Y193701D02*
D03*
X72244D02*
D03*
X65551Y191339D02*
D03*
X69882D02*
D03*
X67716Y193701D02*
D03*
Y211811D02*
D03*
X69882Y214173D02*
D03*
X65551D02*
D03*
X72244Y211811D02*
D03*
X63189D02*
D03*
X69882Y209055D02*
D03*
X65551D02*
D03*
X94273Y249015D02*
D03*
X76772Y195866D02*
D03*
Y191929D02*
D03*
Y235236D02*
D03*
Y239173D02*
D03*
X78543Y272226D02*
D03*
X82480D02*
D03*
X50984D02*
D03*
X54921D02*
D03*
X50984Y228919D02*
D03*
X54921D02*
D03*
X82480Y228919D02*
D03*
X78543D02*
D03*
X47499Y110869D02*
D03*
X54570Y103798D02*
D03*
X142125Y88582D02*
D03*
X135432Y95078D02*
D03*
X103980Y126618D02*
D03*
X121696Y108902D02*
D03*
X26987Y12401D02*
D03*
X55099Y92519D02*
D03*
X86961Y67095D02*
D03*
X79890Y74166D02*
D03*
X65748Y88308D02*
D03*
X259453Y127949D02*
D03*
X242635Y134352D02*
D03*
X313976Y72835D02*
D03*
X326614Y43307D02*
D03*
X326614Y82677D02*
D03*
X207677Y239173D02*
D03*
X244882Y216929D02*
D03*
X249410D02*
D03*
X240354D02*
D03*
X247047Y224409D02*
D03*
X242717D02*
D03*
X247047Y229528D02*
D03*
X242717D02*
D03*
X240354Y226772D02*
D03*
X249410D02*
D03*
X244882D02*
D03*
Y266929D02*
D03*
X247047Y269291D02*
D03*
X242717D02*
D03*
X249410Y266929D02*
D03*
X240354D02*
D03*
X274409Y253543D02*
D03*
X220472Y189961D02*
D03*
X195651Y226181D02*
D03*
Y206496D02*
D03*
X244882Y246063D02*
D03*
X246850Y249016D02*
D03*
Y243110D02*
D03*
X242913D02*
D03*
Y249016D02*
D03*
X244882Y202756D02*
D03*
X246850Y205709D02*
D03*
Y199803D02*
D03*
X242913D02*
D03*
Y205709D02*
D03*
X283435Y199122D02*
D03*
X284658Y195898D02*
D03*
X326929Y155748D02*
D03*
X318388Y257677D02*
D03*
X317669Y247936D02*
D03*
Y251873D02*
D03*
X298997Y249213D02*
D03*
X283249D02*
D03*
X188601Y199016D02*
D03*
Y218701D02*
D03*
X234037Y237205D02*
D03*
Y193898D02*
D03*
X266929Y189389D02*
D03*
Y232697D02*
D03*
X264961Y220079D02*
D03*
X234646Y200787D02*
D03*
X342124Y127561D02*
D03*
X347636Y137797D02*
D03*
X234646Y244094D02*
D03*
X249208Y138193D02*
D03*
X191929Y114093D02*
D03*
X186024Y114745D02*
D03*
X182087D02*
D03*
X230493Y181102D02*
D03*
Y185039D02*
D03*
X329291Y153386D02*
D03*
X261219Y155710D02*
D03*
X263581Y153348D02*
D03*
X298386Y185079D02*
D03*
X296023Y187441D02*
D03*
X321496Y161181D02*
D03*
X319134Y163543D02*
D03*
X338581Y100395D02*
D03*
X336219Y102758D02*
D03*
X348030Y114569D02*
D03*
X308660Y153939D02*
D03*
X311022Y151576D02*
D03*
X296849Y142128D02*
D03*
X299211Y139766D02*
D03*
X332677Y130709D02*
D03*
X335866Y128307D02*
D03*
X244882Y188583D02*
D03*
X249410D02*
D03*
X240354D02*
D03*
X244882Y231890D02*
D03*
X249410D02*
D03*
X240354D02*
D03*
X242717Y252362D02*
D03*
X247047D02*
D03*
X240354Y255118D02*
D03*
X249410D02*
D03*
X242717Y257480D02*
D03*
X247047D02*
D03*
X244882Y255118D02*
D03*
X242717Y239764D02*
D03*
X247047D02*
D03*
X240354Y237008D02*
D03*
X249410D02*
D03*
X242717Y234646D02*
D03*
X247047D02*
D03*
X244882Y237008D02*
D03*
X242717Y196457D02*
D03*
X247047D02*
D03*
X240354Y193701D02*
D03*
X249410D02*
D03*
X242717Y191339D02*
D03*
X247047D02*
D03*
X244882Y193701D02*
D03*
Y211811D02*
D03*
X247047Y214173D02*
D03*
X242717D02*
D03*
X249410Y211811D02*
D03*
X240354D02*
D03*
X247047Y209055D02*
D03*
X242717D02*
D03*
X271438Y249015D02*
D03*
X253937Y195866D02*
D03*
Y191929D02*
D03*
Y235236D02*
D03*
Y239173D02*
D03*
X255709Y272226D02*
D03*
X259646D02*
D03*
X228150D02*
D03*
X232087D02*
D03*
X228150Y228919D02*
D03*
X232087D02*
D03*
X259646Y228919D02*
D03*
X255709D02*
D03*
X224664Y110869D02*
D03*
X231735Y103798D02*
D03*
X319291Y88582D02*
D03*
X312598Y95078D02*
D03*
X281145Y126618D02*
D03*
X298862Y108902D02*
D03*
X204153Y12401D02*
D03*
X232265Y92519D02*
D03*
X264127Y67095D02*
D03*
X257055Y74166D02*
D03*
X242913Y88308D02*
D03*
D47*
X64310Y97895D02*
G03*
X59011Y100090I-5299J-5299D01*
G01*
X51691Y102246D02*
G03*
X56897Y100090I5206J5206D01*
G01*
X131516Y30689D02*
G03*
X137435Y28237I5919J5919D01*
G01*
X47499Y110580D02*
G03*
X50428Y103509I10000J0D01*
G01*
X118474Y46487D02*
G03*
X125545Y43558I7071J7071D01*
G01*
X64091Y100869D02*
G03*
X57020Y103798I-7071J-7071D01*
G01*
X64310Y97895D02*
X131516Y30689D01*
X56897Y100090D02*
X59011D01*
X50428Y103509D02*
X51691Y102246D01*
X56897Y100090D02*
Y100090D01*
X137435Y28237D02*
X141754D01*
X47499Y110580D02*
Y110869D01*
X64091Y100869D02*
X118474Y46487D01*
X125545Y43558D02*
X128899D01*
X54570Y103798D02*
X57020D01*
X241475Y97895D02*
G03*
X236177Y100090I-5299J-5299D01*
G01*
X228856Y102246D02*
G03*
X234063Y100090I5206J5206D01*
G01*
X308681Y30689D02*
G03*
X314600Y28237I5919J5919D01*
G01*
X224664Y110580D02*
G03*
X227593Y103509I10000J0D01*
G01*
X295639Y46487D02*
G03*
X302710Y43558I7071J7071D01*
G01*
X241257Y100869D02*
G03*
X234186Y103798I-7071J-7071D01*
G01*
X241475Y97895D02*
X308681Y30689D01*
X234063Y100090D02*
X236177D01*
X227593Y103509D02*
X228856Y102246D01*
X234063Y100090D02*
Y100090D01*
X314600Y28237D02*
X318920D01*
X224664Y110580D02*
Y110869D01*
X241257Y100869D02*
X295639Y46487D01*
X302710Y43558D02*
X306064D01*
X231735Y103798D02*
X234186D01*
D48*
X46457Y252953D02*
D03*
X10630D02*
D03*
X223622D02*
D03*
X187795D02*
D03*
D49*
X99606Y193307D02*
D03*
Y173622D02*
D03*
X276772Y193307D02*
D03*
Y173622D02*
D03*
D50*
X148298Y149339D02*
D03*
X134379Y163259D02*
D03*
X325464Y149339D02*
D03*
X311544Y163259D02*
D03*
M02*
