G04*
G04 #@! TF.GenerationSoftware,Altium Limited,Altium Designer,23.5.0 (17)*
G04*
G04 Layer_Color=2752767*
%FSLAX25Y25*%
%MOIN*%
G70*
G04*
G04 #@! TF.SameCoordinates,B4EA8652-FAED-489D-AB06-0C51CEF096E7*
G04*
G04*
G04 #@! TF.FilePolarity,Positive*
G04*
G01*
G75*
%ADD10C,0.01575*%
%ADD11C,0.00591*%
%ADD13C,0.00984*%
%ADD39C,0.00787*%
%ADD98C,0.00200*%
%ADD99C,0.00945*%
G36*
X1027713Y-295322D02*
X1029431D01*
Y-295608D01*
X1030290D01*
Y-295894D01*
X1031149D01*
Y-296181D01*
X1032008D01*
Y-296467D01*
X1032580D01*
Y-296753D01*
X1032867D01*
Y-297040D01*
X1033439D01*
Y-297326D01*
X1033726D01*
Y-297612D01*
X1034298D01*
Y-297899D01*
X1034585D01*
Y-298185D01*
X1034871D01*
Y-298471D01*
X1035157D01*
Y-298758D01*
X1035444D01*
Y-299044D01*
X1035730D01*
Y-299330D01*
X1036016D01*
Y-299616D01*
Y-299903D01*
X1036302D01*
Y-300189D01*
X1036589D01*
Y-300475D01*
Y-300762D01*
X1036875D01*
Y-301048D01*
X1037162D01*
Y-301334D01*
Y-301621D01*
X1037448D01*
Y-301907D01*
Y-302193D01*
Y-302480D01*
X1037734D01*
Y-302766D01*
Y-303052D01*
Y-303339D01*
X1038020D01*
Y-303625D01*
Y-303911D01*
Y-304197D01*
Y-304484D01*
X1038307D01*
Y-304770D01*
Y-305056D01*
Y-305343D01*
Y-305629D01*
Y-305915D01*
X1038593D01*
Y-306202D01*
Y-306488D01*
Y-306774D01*
Y-307061D01*
Y-307347D01*
Y-307633D01*
Y-307920D01*
Y-308206D01*
Y-308492D01*
Y-308778D01*
Y-309065D01*
Y-309351D01*
Y-309637D01*
Y-309924D01*
Y-310210D01*
Y-310496D01*
Y-310783D01*
Y-311069D01*
Y-311355D01*
Y-311642D01*
X1038307D01*
Y-311928D01*
Y-312214D01*
Y-312501D01*
Y-312787D01*
Y-313073D01*
Y-313359D01*
Y-313646D01*
X1038020D01*
Y-313932D01*
Y-314218D01*
Y-314505D01*
Y-314791D01*
Y-315077D01*
X1037734D01*
Y-315364D01*
Y-315650D01*
Y-315936D01*
Y-316223D01*
Y-316509D01*
X1037448D01*
Y-316795D01*
Y-317081D01*
Y-317368D01*
X1037162D01*
Y-317654D01*
Y-317940D01*
Y-318227D01*
Y-318513D01*
X1036875D01*
Y-318799D01*
Y-319086D01*
Y-319372D01*
X1036589D01*
Y-319658D01*
Y-319945D01*
X1036302D01*
Y-320231D01*
Y-320517D01*
Y-320803D01*
X1036016D01*
Y-321090D01*
Y-321376D01*
X1035730D01*
Y-321662D01*
Y-321949D01*
X1035444D01*
Y-322235D01*
Y-322521D01*
X1035157D01*
Y-322808D01*
X1034871D01*
Y-323094D01*
Y-323380D01*
X1034585D01*
Y-323667D01*
X1034298D01*
Y-323953D01*
X1034012D01*
Y-324239D01*
Y-324526D01*
X1033726D01*
Y-324812D01*
X1033439D01*
Y-325098D01*
X1033153D01*
Y-325384D01*
X1032867D01*
Y-325671D01*
X1032580D01*
Y-325957D01*
X1032008D01*
Y-326243D01*
X1031722D01*
Y-326530D01*
X1031149D01*
Y-326816D01*
X1030863D01*
Y-327102D01*
X1030290D01*
Y-327389D01*
X1029431D01*
Y-327675D01*
X1028572D01*
Y-327961D01*
X1027713D01*
Y-328248D01*
X1025995D01*
Y-328534D01*
X1020842D01*
Y-328248D01*
X1018265D01*
Y-327961D01*
X1016261D01*
Y-327675D01*
X1014829D01*
Y-327389D01*
X1013398D01*
Y-327102D01*
X1011966D01*
Y-327389D01*
Y-327675D01*
Y-327961D01*
Y-328248D01*
Y-328534D01*
Y-328820D01*
Y-329107D01*
X1011680D01*
Y-329393D01*
Y-329679D01*
Y-329965D01*
Y-330252D01*
Y-330538D01*
Y-330824D01*
X1011393D01*
Y-331111D01*
Y-331397D01*
Y-331683D01*
Y-331970D01*
Y-332256D01*
Y-332542D01*
X1011107D01*
Y-332829D01*
Y-333115D01*
Y-333401D01*
Y-333688D01*
Y-333974D01*
Y-334260D01*
Y-334547D01*
X1010821D01*
Y-334833D01*
Y-335119D01*
Y-335405D01*
Y-335692D01*
Y-335978D01*
Y-336264D01*
X1010534D01*
Y-336551D01*
Y-336837D01*
Y-337123D01*
Y-337410D01*
Y-337696D01*
Y-337982D01*
X1010248D01*
Y-338269D01*
Y-338555D01*
Y-338841D01*
Y-339128D01*
Y-339414D01*
Y-339700D01*
Y-339986D01*
X1009962D01*
Y-340273D01*
Y-340559D01*
Y-340845D01*
Y-341132D01*
Y-341418D01*
Y-341704D01*
X1009676D01*
Y-341991D01*
Y-342277D01*
Y-342563D01*
Y-342850D01*
Y-343136D01*
Y-343422D01*
X1009389D01*
Y-343709D01*
Y-343995D01*
Y-344281D01*
Y-344567D01*
Y-344854D01*
Y-345140D01*
Y-345427D01*
X995932D01*
Y-345140D01*
X996219D01*
Y-344854D01*
Y-344567D01*
Y-344281D01*
Y-343995D01*
Y-343709D01*
X996505D01*
Y-343422D01*
Y-343136D01*
Y-342850D01*
Y-342563D01*
Y-342277D01*
Y-341991D01*
Y-341704D01*
X996791D01*
Y-341418D01*
Y-341132D01*
Y-340845D01*
Y-340559D01*
Y-340273D01*
Y-339986D01*
X997078D01*
Y-339700D01*
Y-339414D01*
Y-339128D01*
Y-338841D01*
Y-338555D01*
Y-338269D01*
X997364D01*
Y-337982D01*
Y-337696D01*
Y-337410D01*
Y-337123D01*
Y-336837D01*
Y-336551D01*
Y-336264D01*
X997650D01*
Y-335978D01*
Y-335692D01*
Y-335405D01*
Y-335119D01*
Y-334833D01*
Y-334547D01*
X997937D01*
Y-334260D01*
Y-333974D01*
Y-333688D01*
Y-333401D01*
Y-333115D01*
Y-332829D01*
X998223D01*
Y-332542D01*
Y-332256D01*
Y-331970D01*
Y-331683D01*
Y-331397D01*
Y-331111D01*
X998509D01*
Y-330824D01*
Y-330538D01*
Y-330252D01*
Y-329965D01*
Y-329679D01*
Y-329393D01*
Y-329107D01*
X998796D01*
Y-328820D01*
Y-328534D01*
Y-328248D01*
Y-327961D01*
Y-327675D01*
Y-327389D01*
X999082D01*
Y-327102D01*
Y-326816D01*
Y-326530D01*
Y-326243D01*
Y-325957D01*
Y-325671D01*
X999368D01*
Y-325384D01*
Y-325098D01*
Y-324812D01*
Y-324526D01*
Y-324239D01*
Y-323953D01*
X999654D01*
Y-323667D01*
Y-323380D01*
Y-323094D01*
Y-322808D01*
Y-322521D01*
Y-322235D01*
Y-321949D01*
X999941D01*
Y-321662D01*
Y-321376D01*
Y-321090D01*
Y-320803D01*
Y-320517D01*
Y-320231D01*
X1000227D01*
Y-319945D01*
Y-319658D01*
Y-319372D01*
Y-319086D01*
Y-318799D01*
Y-318513D01*
X1000513D01*
Y-318227D01*
Y-317940D01*
Y-317654D01*
Y-317368D01*
Y-317081D01*
Y-316795D01*
Y-316509D01*
X1000800D01*
Y-316223D01*
Y-315936D01*
Y-315650D01*
Y-315364D01*
Y-315077D01*
Y-314791D01*
X1001086D01*
Y-314505D01*
Y-314218D01*
Y-313932D01*
Y-313646D01*
Y-313359D01*
Y-313073D01*
X1001372D01*
Y-312787D01*
Y-312501D01*
Y-312214D01*
Y-311928D01*
Y-311642D01*
Y-311355D01*
X1001659D01*
Y-311069D01*
Y-310783D01*
Y-310496D01*
Y-310210D01*
Y-309924D01*
Y-309637D01*
Y-309351D01*
X1001945D01*
Y-309065D01*
Y-308778D01*
Y-308492D01*
Y-308206D01*
Y-307920D01*
Y-307633D01*
X1002231D01*
Y-307347D01*
Y-307061D01*
Y-306774D01*
Y-306488D01*
Y-306202D01*
Y-305915D01*
X1002518D01*
Y-305629D01*
Y-305343D01*
Y-305056D01*
Y-304770D01*
Y-304484D01*
Y-304197D01*
Y-303911D01*
X1002804D01*
Y-303625D01*
Y-303339D01*
Y-303052D01*
Y-302766D01*
Y-302480D01*
Y-302193D01*
X1003090D01*
Y-301907D01*
Y-301621D01*
Y-301334D01*
Y-301048D01*
Y-300762D01*
Y-300475D01*
X1003377D01*
Y-300189D01*
Y-299903D01*
Y-299616D01*
Y-299330D01*
Y-299044D01*
Y-298758D01*
Y-298471D01*
X1003663D01*
Y-298185D01*
Y-297899D01*
Y-297612D01*
Y-297326D01*
Y-297040D01*
Y-296753D01*
X1003949D01*
Y-296467D01*
Y-296181D01*
Y-295894D01*
Y-295608D01*
Y-295322D01*
Y-295035D01*
X1027713D01*
Y-295322D01*
D02*
G37*
G36*
X1058921Y-291886D02*
Y-292172D01*
X1058635D01*
Y-292459D01*
Y-292745D01*
Y-293031D01*
Y-293318D01*
Y-293604D01*
Y-293890D01*
X1058349D01*
Y-294177D01*
Y-294463D01*
Y-294749D01*
Y-295035D01*
Y-295322D01*
Y-295608D01*
X1058062D01*
Y-295894D01*
Y-296181D01*
Y-296467D01*
Y-296753D01*
Y-297040D01*
Y-297326D01*
Y-297612D01*
X1057776D01*
Y-297899D01*
Y-298185D01*
Y-298471D01*
Y-298758D01*
Y-299044D01*
Y-299330D01*
X1057490D01*
Y-299616D01*
Y-299903D01*
Y-300189D01*
Y-300475D01*
Y-300762D01*
Y-301048D01*
X1057203D01*
Y-301334D01*
Y-301621D01*
Y-301907D01*
Y-302193D01*
Y-302480D01*
Y-302766D01*
Y-303052D01*
X1056917D01*
Y-303339D01*
Y-303625D01*
Y-303911D01*
Y-304197D01*
Y-304484D01*
Y-304770D01*
X1056631D01*
Y-305056D01*
Y-305343D01*
Y-305629D01*
Y-305915D01*
Y-306202D01*
Y-306488D01*
X1056344D01*
Y-306774D01*
Y-307061D01*
Y-307347D01*
Y-307633D01*
Y-307920D01*
Y-308206D01*
X1056058D01*
Y-308492D01*
Y-308778D01*
Y-309065D01*
Y-309351D01*
Y-309637D01*
Y-309924D01*
Y-310210D01*
X1055772D01*
Y-310496D01*
Y-310783D01*
Y-311069D01*
Y-311355D01*
Y-311642D01*
Y-311928D01*
X1055486D01*
Y-312214D01*
Y-312501D01*
X1056058D01*
Y-312214D01*
X1056344D01*
Y-311928D01*
X1056631D01*
Y-311642D01*
X1057203D01*
Y-311355D01*
X1057490D01*
Y-311069D01*
X1057776D01*
Y-310783D01*
X1058349D01*
Y-310496D01*
X1058921D01*
Y-310210D01*
X1059208D01*
Y-309924D01*
X1059780D01*
Y-309637D01*
X1060639D01*
Y-309351D01*
X1061212D01*
Y-309065D01*
X1062071D01*
Y-308778D01*
X1063502D01*
Y-308492D01*
X1069801D01*
Y-308778D01*
X1070946D01*
Y-309065D01*
X1071805D01*
Y-309351D01*
X1072378D01*
Y-309637D01*
X1072664D01*
Y-309924D01*
X1073237D01*
Y-310210D01*
X1073523D01*
Y-310496D01*
X1073810D01*
Y-310783D01*
X1074096D01*
Y-311069D01*
X1074382D01*
Y-311355D01*
Y-311642D01*
X1074669D01*
Y-311928D01*
Y-312214D01*
X1074955D01*
Y-312501D01*
Y-312787D01*
Y-313073D01*
X1075241D01*
Y-313359D01*
Y-313646D01*
Y-313932D01*
Y-314218D01*
X1075527D01*
Y-314505D01*
Y-314791D01*
Y-315077D01*
Y-315364D01*
Y-315650D01*
Y-315936D01*
Y-316223D01*
Y-316509D01*
Y-316795D01*
Y-317081D01*
Y-317368D01*
Y-317654D01*
Y-317940D01*
Y-318227D01*
Y-318513D01*
Y-318799D01*
Y-319086D01*
Y-319372D01*
X1075241D01*
Y-319658D01*
Y-319945D01*
Y-320231D01*
Y-320517D01*
Y-320803D01*
Y-321090D01*
Y-321376D01*
X1074955D01*
Y-321662D01*
Y-321949D01*
Y-322235D01*
Y-322521D01*
Y-322808D01*
Y-323094D01*
Y-323380D01*
X1074669D01*
Y-323667D01*
Y-323953D01*
Y-324239D01*
Y-324526D01*
Y-324812D01*
Y-325098D01*
X1074382D01*
Y-325384D01*
Y-325671D01*
Y-325957D01*
Y-326243D01*
Y-326530D01*
Y-326816D01*
X1074096D01*
Y-327102D01*
Y-327389D01*
Y-327675D01*
Y-327961D01*
Y-328248D01*
Y-328534D01*
X1073810D01*
Y-328820D01*
Y-329107D01*
Y-329393D01*
Y-329679D01*
Y-329965D01*
Y-330252D01*
Y-330538D01*
X1073523D01*
Y-330824D01*
Y-331111D01*
Y-331397D01*
Y-331683D01*
Y-331970D01*
Y-332256D01*
X1073237D01*
Y-332542D01*
Y-332829D01*
Y-333115D01*
Y-333401D01*
Y-333688D01*
Y-333974D01*
X1072951D01*
Y-334260D01*
Y-334547D01*
Y-334833D01*
Y-335119D01*
Y-335405D01*
Y-335692D01*
Y-335978D01*
X1072664D01*
Y-336264D01*
Y-336551D01*
Y-336837D01*
Y-337123D01*
Y-337410D01*
Y-337696D01*
X1072378D01*
Y-337982D01*
Y-338269D01*
Y-338555D01*
Y-338841D01*
Y-339128D01*
Y-339414D01*
X1072092D01*
Y-339700D01*
Y-339986D01*
Y-340273D01*
Y-340559D01*
Y-340845D01*
Y-341132D01*
X1071805D01*
Y-341418D01*
Y-341704D01*
Y-341991D01*
Y-342277D01*
Y-342563D01*
Y-342850D01*
Y-343136D01*
X1071519D01*
Y-343422D01*
Y-343709D01*
Y-343995D01*
Y-344281D01*
Y-344567D01*
Y-344854D01*
X1071233D01*
Y-345140D01*
Y-345427D01*
X1058062D01*
Y-345140D01*
Y-344854D01*
X1058349D01*
Y-344567D01*
Y-344281D01*
Y-343995D01*
Y-343709D01*
Y-343422D01*
Y-343136D01*
X1058635D01*
Y-342850D01*
Y-342563D01*
Y-342277D01*
Y-341991D01*
Y-341704D01*
Y-341418D01*
Y-341132D01*
X1058921D01*
Y-340845D01*
Y-340559D01*
Y-340273D01*
Y-339986D01*
Y-339700D01*
Y-339414D01*
X1059208D01*
Y-339128D01*
Y-338841D01*
Y-338555D01*
Y-338269D01*
Y-337982D01*
Y-337696D01*
X1059494D01*
Y-337410D01*
Y-337123D01*
Y-336837D01*
Y-336551D01*
Y-336264D01*
Y-335978D01*
Y-335692D01*
X1059780D01*
Y-335405D01*
Y-335119D01*
Y-334833D01*
Y-334547D01*
Y-334260D01*
Y-333974D01*
X1060067D01*
Y-333688D01*
Y-333401D01*
Y-333115D01*
Y-332829D01*
Y-332542D01*
Y-332256D01*
Y-331970D01*
X1060353D01*
Y-331683D01*
Y-331397D01*
Y-331111D01*
Y-330824D01*
Y-330538D01*
Y-330252D01*
X1060639D01*
Y-329965D01*
Y-329679D01*
Y-329393D01*
Y-329107D01*
Y-328820D01*
Y-328534D01*
X1060925D01*
Y-328248D01*
Y-327961D01*
Y-327675D01*
Y-327389D01*
Y-327102D01*
Y-326816D01*
X1061212D01*
Y-326530D01*
Y-326243D01*
Y-325957D01*
Y-325671D01*
Y-325384D01*
Y-325098D01*
Y-324812D01*
X1061498D01*
Y-324526D01*
Y-324239D01*
Y-323953D01*
Y-323667D01*
Y-323380D01*
Y-323094D01*
X1061784D01*
Y-322808D01*
Y-322521D01*
Y-322235D01*
Y-321949D01*
Y-321662D01*
Y-321376D01*
Y-321090D01*
X1062071D01*
Y-320803D01*
Y-320517D01*
Y-320231D01*
Y-319945D01*
Y-319658D01*
Y-319372D01*
X1061784D01*
Y-319086D01*
Y-318799D01*
X1061498D01*
Y-318513D01*
X1061212D01*
Y-318227D01*
X1060639D01*
Y-317940D01*
X1058921D01*
Y-318227D01*
X1057490D01*
Y-318513D01*
X1056631D01*
Y-318799D01*
X1056058D01*
Y-319086D01*
X1055772D01*
Y-319372D01*
X1055199D01*
Y-319658D01*
X1054913D01*
Y-319945D01*
X1054627D01*
Y-320231D01*
Y-320517D01*
X1054340D01*
Y-320803D01*
Y-321090D01*
Y-321376D01*
X1054054D01*
Y-321662D01*
Y-321949D01*
Y-322235D01*
Y-322521D01*
Y-322808D01*
Y-323094D01*
X1053768D01*
Y-323380D01*
Y-323667D01*
Y-323953D01*
Y-324239D01*
Y-324526D01*
Y-324812D01*
Y-325098D01*
X1053481D01*
Y-325384D01*
Y-325671D01*
Y-325957D01*
Y-326243D01*
Y-326530D01*
Y-326816D01*
X1053195D01*
Y-327102D01*
Y-327389D01*
Y-327675D01*
Y-327961D01*
Y-328248D01*
Y-328534D01*
X1052909D01*
Y-328820D01*
Y-329107D01*
Y-329393D01*
Y-329679D01*
Y-329965D01*
Y-330252D01*
X1052622D01*
Y-330538D01*
Y-330824D01*
Y-331111D01*
Y-331397D01*
Y-331683D01*
Y-331970D01*
Y-332256D01*
X1052336D01*
Y-332542D01*
Y-332829D01*
Y-333115D01*
Y-333401D01*
Y-333688D01*
Y-333974D01*
X1052050D01*
Y-334260D01*
Y-334547D01*
Y-334833D01*
Y-335119D01*
Y-335405D01*
Y-335692D01*
X1051763D01*
Y-335978D01*
Y-336264D01*
Y-336551D01*
Y-336837D01*
Y-337123D01*
Y-337410D01*
Y-337696D01*
X1051477D01*
Y-337982D01*
Y-338269D01*
Y-338555D01*
Y-338841D01*
Y-339128D01*
Y-339414D01*
X1051191D01*
Y-339700D01*
Y-339986D01*
Y-340273D01*
Y-340559D01*
Y-340845D01*
Y-341132D01*
X1050904D01*
Y-341418D01*
Y-341704D01*
Y-341991D01*
Y-342277D01*
Y-342563D01*
Y-342850D01*
X1050618D01*
Y-343136D01*
Y-343422D01*
Y-343709D01*
Y-343995D01*
Y-344281D01*
Y-344567D01*
Y-344854D01*
X1050332D01*
Y-345140D01*
Y-345427D01*
X1037162D01*
Y-345140D01*
Y-344854D01*
X1037448D01*
Y-344567D01*
Y-344281D01*
Y-343995D01*
Y-343709D01*
Y-343422D01*
Y-343136D01*
Y-342850D01*
X1037734D01*
Y-342563D01*
Y-342277D01*
Y-341991D01*
Y-341704D01*
Y-341418D01*
Y-341132D01*
X1038020D01*
Y-340845D01*
Y-340559D01*
Y-340273D01*
Y-339986D01*
Y-339700D01*
Y-339414D01*
X1038307D01*
Y-339128D01*
Y-338841D01*
Y-338555D01*
Y-338269D01*
Y-337982D01*
Y-337696D01*
Y-337410D01*
X1038593D01*
Y-337123D01*
Y-336837D01*
Y-336551D01*
Y-336264D01*
Y-335978D01*
Y-335692D01*
X1038879D01*
Y-335405D01*
Y-335119D01*
Y-334833D01*
Y-334547D01*
Y-334260D01*
Y-333974D01*
X1039166D01*
Y-333688D01*
Y-333401D01*
Y-333115D01*
Y-332829D01*
Y-332542D01*
Y-332256D01*
X1039452D01*
Y-331970D01*
Y-331683D01*
Y-331397D01*
Y-331111D01*
Y-330824D01*
Y-330538D01*
Y-330252D01*
X1039738D01*
Y-329965D01*
Y-329679D01*
Y-329393D01*
Y-329107D01*
Y-328820D01*
Y-328534D01*
X1040025D01*
Y-328248D01*
Y-327961D01*
Y-327675D01*
Y-327389D01*
Y-327102D01*
Y-326816D01*
X1040311D01*
Y-326530D01*
Y-326243D01*
Y-325957D01*
Y-325671D01*
Y-325384D01*
Y-325098D01*
Y-324812D01*
X1040597D01*
Y-324526D01*
Y-324239D01*
Y-323953D01*
Y-323667D01*
Y-323380D01*
Y-323094D01*
X1040884D01*
Y-322808D01*
Y-322521D01*
Y-322235D01*
Y-321949D01*
Y-321662D01*
Y-321376D01*
X1041170D01*
Y-321090D01*
Y-320803D01*
Y-320517D01*
Y-320231D01*
Y-319945D01*
Y-319658D01*
X1041456D01*
Y-319372D01*
Y-319086D01*
Y-318799D01*
Y-318513D01*
Y-318227D01*
Y-317940D01*
Y-317654D01*
X1041743D01*
Y-317368D01*
Y-317081D01*
Y-316795D01*
Y-316509D01*
Y-316223D01*
Y-315936D01*
X1042029D01*
Y-315650D01*
Y-315364D01*
Y-315077D01*
Y-314791D01*
Y-314505D01*
Y-314218D01*
X1042315D01*
Y-313932D01*
Y-313646D01*
Y-313359D01*
Y-313073D01*
Y-312787D01*
Y-312501D01*
X1042601D01*
Y-312214D01*
Y-311928D01*
Y-311642D01*
Y-311355D01*
Y-311069D01*
Y-310783D01*
Y-310496D01*
X1042888D01*
Y-310210D01*
Y-309924D01*
Y-309637D01*
Y-309351D01*
Y-309065D01*
Y-308778D01*
X1043174D01*
Y-308492D01*
Y-308206D01*
Y-307920D01*
Y-307633D01*
Y-307347D01*
Y-307061D01*
X1043460D01*
Y-306774D01*
Y-306488D01*
Y-306202D01*
Y-305915D01*
Y-305629D01*
Y-305343D01*
Y-305056D01*
X1043747D01*
Y-304770D01*
Y-304484D01*
Y-304197D01*
Y-303911D01*
Y-303625D01*
Y-303339D01*
X1044033D01*
Y-303052D01*
Y-302766D01*
Y-302480D01*
Y-302193D01*
Y-301907D01*
Y-301621D01*
X1044319D01*
Y-301334D01*
Y-301048D01*
Y-300762D01*
Y-300475D01*
Y-300189D01*
Y-299903D01*
X1044606D01*
Y-299616D01*
Y-299330D01*
Y-299044D01*
Y-298758D01*
Y-298471D01*
Y-298185D01*
Y-297899D01*
X1044892D01*
Y-297612D01*
Y-297326D01*
Y-297040D01*
Y-296753D01*
Y-296467D01*
Y-296181D01*
X1045178D01*
Y-295894D01*
Y-295608D01*
Y-295322D01*
Y-295035D01*
Y-294749D01*
Y-294463D01*
X1045465D01*
Y-294177D01*
Y-293890D01*
Y-293604D01*
Y-293318D01*
Y-293031D01*
Y-292745D01*
Y-292459D01*
X1045751D01*
Y-292172D01*
Y-291886D01*
Y-291600D01*
X1058921D01*
Y-291886D01*
D02*
G37*
G36*
X1160849Y-309351D02*
X1160562D01*
Y-309637D01*
X1160276D01*
Y-309924D01*
Y-310210D01*
X1159990D01*
Y-310496D01*
X1159703D01*
Y-310783D01*
X1159417D01*
Y-311069D01*
Y-311355D01*
X1159131D01*
Y-311642D01*
X1158844D01*
Y-311928D01*
X1158558D01*
Y-312214D01*
X1158272D01*
Y-312501D01*
Y-312787D01*
X1157985D01*
Y-313073D01*
X1157699D01*
Y-313359D01*
X1157413D01*
Y-313646D01*
Y-313932D01*
X1157127D01*
Y-314218D01*
X1156840D01*
Y-314505D01*
X1156554D01*
Y-314791D01*
X1156268D01*
Y-315077D01*
Y-315364D01*
X1155981D01*
Y-315650D01*
X1155695D01*
Y-315936D01*
X1155409D01*
Y-316223D01*
Y-316509D01*
X1155122D01*
Y-316795D01*
X1154836D01*
Y-317081D01*
X1154550D01*
Y-317368D01*
Y-317654D01*
X1154263D01*
Y-317940D01*
X1153977D01*
Y-318227D01*
X1153691D01*
Y-318513D01*
X1153405D01*
Y-318799D01*
Y-319086D01*
X1153118D01*
Y-319372D01*
X1152832D01*
Y-319658D01*
X1152546D01*
Y-319945D01*
Y-320231D01*
X1152259D01*
Y-320517D01*
X1151973D01*
Y-320803D01*
X1151687D01*
Y-321090D01*
Y-321376D01*
X1151400D01*
Y-321662D01*
X1151114D01*
Y-321949D01*
X1150828D01*
Y-322235D01*
X1150541D01*
Y-322521D01*
Y-322808D01*
X1150255D01*
Y-323094D01*
X1149969D01*
Y-323380D01*
X1149682D01*
Y-323667D01*
Y-323953D01*
X1149396D01*
Y-324239D01*
X1149110D01*
Y-324526D01*
X1148824D01*
Y-324812D01*
Y-325098D01*
X1148537D01*
Y-325384D01*
X1148251D01*
Y-325671D01*
X1147965D01*
Y-325957D01*
X1147678D01*
Y-326243D01*
Y-326530D01*
X1147392D01*
Y-326816D01*
X1147106D01*
Y-327102D01*
X1146819D01*
Y-327389D01*
Y-327675D01*
X1146533D01*
Y-327961D01*
X1146247D01*
Y-328248D01*
X1145960D01*
Y-328534D01*
X1145674D01*
Y-328820D01*
Y-329107D01*
X1145960D01*
Y-329393D01*
Y-329679D01*
X1146247D01*
Y-329965D01*
Y-330252D01*
X1146533D01*
Y-330538D01*
X1146819D01*
Y-330824D01*
Y-331111D01*
X1147106D01*
Y-331397D01*
Y-331683D01*
X1147392D01*
Y-331970D01*
Y-332256D01*
X1147678D01*
Y-332542D01*
Y-332829D01*
X1147965D01*
Y-333115D01*
Y-333401D01*
X1148251D01*
Y-333688D01*
Y-333974D01*
X1148537D01*
Y-334260D01*
Y-334547D01*
X1148824D01*
Y-334833D01*
Y-335119D01*
X1149110D01*
Y-335405D01*
X1149396D01*
Y-335692D01*
Y-335978D01*
X1149682D01*
Y-336264D01*
Y-336551D01*
X1149969D01*
Y-336837D01*
Y-337123D01*
X1150255D01*
Y-337410D01*
Y-337696D01*
X1150541D01*
Y-337982D01*
Y-338269D01*
X1150828D01*
Y-338555D01*
Y-338841D01*
X1151114D01*
Y-339128D01*
Y-339414D01*
X1151400D01*
Y-339700D01*
X1151687D01*
Y-339986D01*
Y-340273D01*
X1151973D01*
Y-340559D01*
Y-340845D01*
X1152259D01*
Y-341132D01*
Y-341418D01*
X1152546D01*
Y-341704D01*
Y-341991D01*
X1152832D01*
Y-342277D01*
Y-342563D01*
X1153118D01*
Y-342850D01*
Y-343136D01*
X1153405D01*
Y-343422D01*
Y-343709D01*
X1153691D01*
Y-343995D01*
X1153977D01*
Y-344281D01*
Y-344567D01*
X1154263D01*
Y-344854D01*
Y-345140D01*
X1154550D01*
Y-345427D01*
X1139375D01*
Y-345140D01*
X1139089D01*
Y-344854D01*
Y-344567D01*
Y-344281D01*
X1138803D01*
Y-343995D01*
Y-343709D01*
Y-343422D01*
X1138516D01*
Y-343136D01*
Y-342850D01*
X1138230D01*
Y-342563D01*
Y-342277D01*
Y-341991D01*
X1137944D01*
Y-341704D01*
Y-341418D01*
Y-341132D01*
X1137657D01*
Y-340845D01*
Y-340559D01*
X1137371D01*
Y-340273D01*
Y-339986D01*
Y-339700D01*
X1137085D01*
Y-339414D01*
Y-339128D01*
Y-338841D01*
X1136798D01*
Y-338555D01*
Y-338269D01*
Y-337982D01*
X1136512D01*
Y-337696D01*
X1135939D01*
Y-337982D01*
Y-338269D01*
X1135653D01*
Y-338555D01*
X1135367D01*
Y-338841D01*
Y-339128D01*
X1135081D01*
Y-339414D01*
X1134794D01*
Y-339700D01*
Y-339986D01*
X1134508D01*
Y-340273D01*
X1134221D01*
Y-340559D01*
Y-340845D01*
X1133935D01*
Y-341132D01*
X1133649D01*
Y-341418D01*
X1133363D01*
Y-341704D01*
Y-341991D01*
X1133076D01*
Y-342277D01*
X1132790D01*
Y-342563D01*
Y-342850D01*
X1132504D01*
Y-343136D01*
X1132217D01*
Y-343422D01*
Y-343709D01*
X1131931D01*
Y-343995D01*
X1131645D01*
Y-344281D01*
Y-344567D01*
X1131358D01*
Y-344854D01*
X1131072D01*
Y-345140D01*
Y-345427D01*
X1115039D01*
Y-345140D01*
X1115325D01*
Y-344854D01*
X1115611D01*
Y-344567D01*
X1115897D01*
Y-344281D01*
X1116184D01*
Y-343995D01*
Y-343709D01*
X1116470D01*
Y-343422D01*
X1116757D01*
Y-343136D01*
X1117043D01*
Y-342850D01*
X1117329D01*
Y-342563D01*
Y-342277D01*
X1117615D01*
Y-341991D01*
X1117902D01*
Y-341704D01*
X1118188D01*
Y-341418D01*
Y-341132D01*
X1118474D01*
Y-340845D01*
X1118761D01*
Y-340559D01*
X1119047D01*
Y-340273D01*
X1119333D01*
Y-339986D01*
Y-339700D01*
X1119620D01*
Y-339414D01*
X1119906D01*
Y-339128D01*
X1120192D01*
Y-338841D01*
X1120479D01*
Y-338555D01*
Y-338269D01*
X1120765D01*
Y-337982D01*
X1121051D01*
Y-337696D01*
X1121338D01*
Y-337410D01*
Y-337123D01*
X1121624D01*
Y-336837D01*
X1121910D01*
Y-336551D01*
X1122196D01*
Y-336264D01*
X1122483D01*
Y-335978D01*
Y-335692D01*
X1122769D01*
Y-335405D01*
X1123055D01*
Y-335119D01*
X1123342D01*
Y-334833D01*
Y-334547D01*
X1123628D01*
Y-334260D01*
X1123914D01*
Y-333974D01*
X1124201D01*
Y-333688D01*
X1124487D01*
Y-333401D01*
Y-333115D01*
X1124773D01*
Y-332829D01*
X1125060D01*
Y-332542D01*
X1125346D01*
Y-332256D01*
Y-331970D01*
X1125632D01*
Y-331683D01*
X1125918D01*
Y-331397D01*
X1126205D01*
Y-331111D01*
X1126491D01*
Y-330824D01*
Y-330538D01*
X1126777D01*
Y-330252D01*
X1127064D01*
Y-329965D01*
X1127350D01*
Y-329679D01*
X1127636D01*
Y-329393D01*
Y-329107D01*
X1127923D01*
Y-328820D01*
X1128209D01*
Y-328534D01*
X1128495D01*
Y-328248D01*
Y-327961D01*
X1128782D01*
Y-327675D01*
X1129068D01*
Y-327389D01*
X1129354D01*
Y-327102D01*
X1129640D01*
Y-326816D01*
Y-326530D01*
X1129927D01*
Y-326243D01*
Y-325957D01*
Y-325671D01*
X1129640D01*
Y-325384D01*
X1129354D01*
Y-325098D01*
Y-324812D01*
X1129068D01*
Y-324526D01*
Y-324239D01*
X1128782D01*
Y-323953D01*
Y-323667D01*
X1128495D01*
Y-323380D01*
Y-323094D01*
X1128209D01*
Y-322808D01*
Y-322521D01*
X1127923D01*
Y-322235D01*
Y-321949D01*
X1127636D01*
Y-321662D01*
X1127350D01*
Y-321376D01*
Y-321090D01*
X1127064D01*
Y-320803D01*
Y-320517D01*
X1126777D01*
Y-320231D01*
Y-319945D01*
X1126491D01*
Y-319658D01*
Y-319372D01*
X1126205D01*
Y-319086D01*
Y-318799D01*
X1125918D01*
Y-318513D01*
Y-318227D01*
X1125632D01*
Y-317940D01*
X1125346D01*
Y-317654D01*
Y-317368D01*
X1125060D01*
Y-317081D01*
Y-316795D01*
X1124773D01*
Y-316509D01*
Y-316223D01*
X1124487D01*
Y-315936D01*
Y-315650D01*
X1124201D01*
Y-315364D01*
Y-315077D01*
X1123914D01*
Y-314791D01*
Y-314505D01*
X1123628D01*
Y-314218D01*
Y-313932D01*
X1123342D01*
Y-313646D01*
X1123055D01*
Y-313359D01*
Y-313073D01*
X1122769D01*
Y-312787D01*
Y-312501D01*
X1122483D01*
Y-312214D01*
Y-311928D01*
X1122196D01*
Y-311642D01*
Y-311355D01*
X1121910D01*
Y-311069D01*
Y-310783D01*
X1121624D01*
Y-310496D01*
Y-310210D01*
X1121338D01*
Y-309924D01*
X1121051D01*
Y-309637D01*
Y-309351D01*
X1120765D01*
Y-309065D01*
X1136512D01*
Y-309351D01*
X1136798D01*
Y-309637D01*
Y-309924D01*
Y-310210D01*
X1137085D01*
Y-310496D01*
Y-310783D01*
Y-311069D01*
X1137371D01*
Y-311355D01*
Y-311642D01*
Y-311928D01*
X1137657D01*
Y-312214D01*
Y-312501D01*
Y-312787D01*
X1137944D01*
Y-313073D01*
Y-313359D01*
Y-313646D01*
X1138230D01*
Y-313932D01*
Y-314218D01*
Y-314505D01*
X1138516D01*
Y-314791D01*
Y-315077D01*
Y-315364D01*
X1138803D01*
Y-315650D01*
Y-315936D01*
Y-316223D01*
X1139089D01*
Y-316509D01*
Y-316795D01*
Y-317081D01*
Y-317368D01*
X1139662D01*
Y-317081D01*
X1139948D01*
Y-316795D01*
X1140234D01*
Y-316509D01*
Y-316223D01*
X1140520D01*
Y-315936D01*
X1140807D01*
Y-315650D01*
Y-315364D01*
X1141093D01*
Y-315077D01*
X1141379D01*
Y-314791D01*
Y-314505D01*
X1141666D01*
Y-314218D01*
X1141952D01*
Y-313932D01*
Y-313646D01*
X1142238D01*
Y-313359D01*
X1142525D01*
Y-313073D01*
Y-312787D01*
X1142811D01*
Y-312501D01*
X1143097D01*
Y-312214D01*
Y-311928D01*
X1143384D01*
Y-311642D01*
X1143670D01*
Y-311355D01*
Y-311069D01*
X1143956D01*
Y-310783D01*
X1144242D01*
Y-310496D01*
Y-310210D01*
X1144529D01*
Y-309924D01*
X1144815D01*
Y-309637D01*
Y-309351D01*
X1145101D01*
Y-309065D01*
X1160849D01*
Y-309351D01*
D02*
G37*
G36*
X1116757D02*
Y-309637D01*
Y-309924D01*
Y-310210D01*
Y-310496D01*
Y-310783D01*
Y-311069D01*
Y-311355D01*
Y-311642D01*
Y-311928D01*
Y-312214D01*
Y-312501D01*
Y-312787D01*
Y-313073D01*
Y-313359D01*
Y-313646D01*
Y-313932D01*
Y-314218D01*
Y-314505D01*
Y-314791D01*
Y-315077D01*
X1116470D01*
Y-315364D01*
Y-315650D01*
Y-315936D01*
Y-316223D01*
Y-316509D01*
X1116184D01*
Y-316795D01*
Y-317081D01*
Y-317368D01*
Y-317654D01*
X1115897D01*
Y-317940D01*
Y-318227D01*
Y-318513D01*
Y-318799D01*
X1115611D01*
Y-319086D01*
Y-319372D01*
Y-319658D01*
X1115325D01*
Y-319945D01*
Y-320231D01*
Y-320517D01*
X1115039D01*
Y-320803D01*
Y-321090D01*
Y-321376D01*
X1114752D01*
Y-321662D01*
Y-321949D01*
Y-322235D01*
X1114466D01*
Y-322521D01*
Y-322808D01*
X1114180D01*
Y-323094D01*
Y-323380D01*
X1113893D01*
Y-323667D01*
Y-323953D01*
Y-324239D01*
X1113607D01*
Y-324526D01*
Y-324812D01*
X1113321D01*
Y-325098D01*
Y-325384D01*
Y-325671D01*
X1113034D01*
Y-325957D01*
Y-326243D01*
X1112748D01*
Y-326530D01*
Y-326816D01*
Y-327102D01*
X1112462D01*
Y-327389D01*
Y-327675D01*
X1112175D01*
Y-327961D01*
Y-328248D01*
Y-328534D01*
X1111889D01*
Y-328820D01*
Y-329107D01*
X1111603D01*
Y-329393D01*
Y-329679D01*
Y-329965D01*
X1111316D01*
Y-330252D01*
Y-330538D01*
X1111030D01*
Y-330824D01*
Y-331111D01*
Y-331397D01*
X1110744D01*
Y-331683D01*
Y-331970D01*
X1110458D01*
Y-332256D01*
Y-332542D01*
Y-332829D01*
X1110171D01*
Y-333115D01*
Y-333401D01*
X1109885D01*
Y-333688D01*
Y-333974D01*
Y-334260D01*
X1109599D01*
Y-334547D01*
Y-334833D01*
X1109312D01*
Y-335119D01*
Y-335405D01*
Y-335692D01*
X1109026D01*
Y-335978D01*
Y-336264D01*
X1108740D01*
Y-336551D01*
Y-336837D01*
Y-337123D01*
X1108453D01*
Y-337410D01*
Y-337696D01*
X1108167D01*
Y-337982D01*
Y-338269D01*
Y-338555D01*
X1107881D01*
Y-338841D01*
Y-339128D01*
X1107594D01*
Y-339414D01*
Y-339700D01*
Y-339986D01*
X1107308D01*
Y-340273D01*
Y-340559D01*
X1107022D01*
Y-340845D01*
Y-341132D01*
Y-341418D01*
X1106736D01*
Y-341704D01*
Y-341991D01*
X1106449D01*
Y-342277D01*
Y-342563D01*
Y-342850D01*
X1106163D01*
Y-343136D01*
Y-343422D01*
X1105877D01*
Y-343709D01*
Y-343995D01*
Y-344281D01*
X1105590D01*
Y-344567D01*
Y-344854D01*
X1105304D01*
Y-345140D01*
Y-345427D01*
Y-345713D01*
X1105018D01*
Y-345999D01*
Y-346285D01*
X1104731D01*
Y-346572D01*
Y-346858D01*
X1104445D01*
Y-347144D01*
Y-347431D01*
X1104159D01*
Y-347717D01*
Y-348003D01*
Y-348290D01*
X1103872D01*
Y-348576D01*
X1103586D01*
Y-348862D01*
Y-349149D01*
Y-349435D01*
X1103300D01*
Y-349721D01*
X1103013D01*
Y-350008D01*
Y-350294D01*
X1102727D01*
Y-350580D01*
Y-350866D01*
X1102441D01*
Y-351153D01*
Y-351439D01*
X1102155D01*
Y-351725D01*
Y-352012D01*
X1101868D01*
Y-352298D01*
X1101582D01*
Y-352584D01*
Y-352871D01*
X1101296D01*
Y-353157D01*
Y-353443D01*
X1101009D01*
Y-353730D01*
X1100723D01*
Y-354016D01*
X1100437D01*
Y-354302D01*
Y-354589D01*
X1100150D01*
Y-354875D01*
X1099864D01*
Y-355161D01*
Y-355447D01*
X1099578D01*
Y-355734D01*
X1099291D01*
Y-356020D01*
X1099005D01*
Y-356306D01*
Y-356593D01*
X1098719D01*
Y-356879D01*
X1098432D01*
Y-357165D01*
X1098146D01*
Y-357452D01*
X1097860D01*
Y-357738D01*
X1097573D01*
Y-358024D01*
Y-358311D01*
X1097287D01*
Y-358597D01*
X1097001D01*
Y-358883D01*
X1096715D01*
Y-359170D01*
X1096428D01*
Y-359456D01*
X1096142D01*
Y-359742D01*
X1095856D01*
Y-360028D01*
X1095569D01*
Y-360315D01*
X1094997D01*
Y-360601D01*
X1094710D01*
Y-360887D01*
X1094424D01*
Y-361174D01*
X1094138D01*
Y-361460D01*
X1093851D01*
Y-361746D01*
X1093279D01*
Y-362033D01*
X1092992D01*
Y-362319D01*
X1092420D01*
Y-362605D01*
X1092134D01*
Y-362892D01*
X1091561D01*
Y-363178D01*
X1091275D01*
Y-363464D01*
X1090702D01*
Y-363751D01*
X1090129D01*
Y-364037D01*
X1089557D01*
Y-364323D01*
X1088984D01*
Y-364609D01*
X1088412D01*
Y-364896D01*
X1087553D01*
Y-365182D01*
X1086980D01*
Y-365468D01*
X1086121D01*
Y-365755D01*
X1084976D01*
Y-366041D01*
X1083831D01*
Y-366327D01*
X1082113D01*
Y-366614D01*
X1080108D01*
Y-366900D01*
X1079822D01*
Y-366614D01*
Y-366327D01*
Y-366041D01*
Y-365755D01*
Y-365468D01*
Y-365182D01*
Y-364896D01*
Y-364609D01*
Y-364323D01*
Y-364037D01*
Y-363751D01*
Y-363464D01*
Y-363178D01*
Y-362892D01*
Y-362605D01*
Y-362319D01*
Y-362033D01*
Y-361746D01*
Y-361460D01*
Y-361174D01*
Y-360887D01*
Y-360601D01*
Y-360315D01*
Y-360028D01*
Y-359742D01*
Y-359456D01*
Y-359170D01*
Y-358883D01*
Y-358597D01*
Y-358311D01*
Y-358024D01*
Y-357738D01*
Y-357452D01*
X1080395D01*
Y-357165D01*
X1080967D01*
Y-356879D01*
X1081540D01*
Y-356593D01*
X1082113D01*
Y-356306D01*
X1082685D01*
Y-356020D01*
X1083258D01*
Y-355734D01*
X1083544D01*
Y-355447D01*
X1084117D01*
Y-355161D01*
X1084403D01*
Y-354875D01*
X1084976D01*
Y-354589D01*
X1085262D01*
Y-354302D01*
X1085548D01*
Y-354016D01*
X1086121D01*
Y-353730D01*
X1086407D01*
Y-353443D01*
X1086694D01*
Y-353157D01*
X1086980D01*
Y-352871D01*
X1087266D01*
Y-352584D01*
X1087553D01*
Y-352298D01*
X1087839D01*
Y-352012D01*
X1088125D01*
Y-351725D01*
X1088412D01*
Y-351439D01*
X1088698D01*
Y-351153D01*
X1088984D01*
Y-350866D01*
X1089270D01*
Y-350580D01*
Y-350294D01*
X1089557D01*
Y-350008D01*
X1089843D01*
Y-349721D01*
X1090129D01*
Y-349435D01*
Y-349149D01*
X1090416D01*
Y-348862D01*
X1090702D01*
Y-348576D01*
Y-348290D01*
X1090988D01*
Y-348003D01*
Y-347717D01*
X1091275D01*
Y-347431D01*
X1091561D01*
Y-347144D01*
Y-346858D01*
X1091847D01*
Y-346572D01*
Y-346285D01*
X1092134D01*
Y-345999D01*
Y-345713D01*
X1090416D01*
Y-345427D01*
X1088412D01*
Y-345140D01*
X1087266D01*
Y-344854D01*
X1086694D01*
Y-344567D01*
X1085835D01*
Y-344281D01*
X1085262D01*
Y-343995D01*
X1084976D01*
Y-343709D01*
X1084403D01*
Y-343422D01*
X1084117D01*
Y-343136D01*
X1083831D01*
Y-342850D01*
X1083544D01*
Y-342563D01*
X1083258D01*
Y-342277D01*
X1082971D01*
Y-341991D01*
Y-341704D01*
X1082685D01*
Y-341418D01*
X1082399D01*
Y-341132D01*
Y-340845D01*
X1082113D01*
Y-340559D01*
Y-340273D01*
X1081826D01*
Y-339986D01*
Y-339700D01*
X1081540D01*
Y-339414D01*
Y-339128D01*
Y-338841D01*
X1081254D01*
Y-338555D01*
Y-338269D01*
Y-337982D01*
Y-337696D01*
X1080967D01*
Y-337410D01*
Y-337123D01*
Y-336837D01*
Y-336551D01*
Y-336264D01*
Y-335978D01*
Y-335692D01*
X1080681D01*
Y-335405D01*
Y-335119D01*
Y-334833D01*
Y-334547D01*
Y-334260D01*
Y-333974D01*
Y-333688D01*
Y-333401D01*
Y-333115D01*
Y-332829D01*
Y-332542D01*
Y-332256D01*
Y-331970D01*
Y-331683D01*
Y-331397D01*
X1080395D01*
Y-331111D01*
Y-330824D01*
Y-330538D01*
Y-330252D01*
Y-329965D01*
Y-329679D01*
Y-329393D01*
Y-329107D01*
Y-328820D01*
Y-328534D01*
Y-328248D01*
Y-327961D01*
Y-327675D01*
Y-327389D01*
Y-327102D01*
X1080108D01*
Y-326816D01*
Y-326530D01*
Y-326243D01*
Y-325957D01*
Y-325671D01*
Y-325384D01*
Y-325098D01*
Y-324812D01*
Y-324526D01*
Y-324239D01*
Y-323953D01*
Y-323667D01*
Y-323380D01*
Y-323094D01*
Y-322808D01*
Y-322521D01*
X1079822D01*
Y-322235D01*
Y-321949D01*
Y-321662D01*
Y-321376D01*
Y-321090D01*
Y-320803D01*
Y-320517D01*
Y-320231D01*
Y-319945D01*
Y-319658D01*
Y-319372D01*
Y-319086D01*
Y-318799D01*
Y-318513D01*
Y-318227D01*
Y-317940D01*
X1079536D01*
Y-317654D01*
Y-317368D01*
Y-317081D01*
Y-316795D01*
Y-316509D01*
Y-316223D01*
Y-315936D01*
Y-315650D01*
Y-315364D01*
Y-315077D01*
Y-314791D01*
Y-314505D01*
Y-314218D01*
Y-313932D01*
X1079249D01*
Y-313646D01*
Y-313359D01*
Y-313073D01*
Y-312787D01*
Y-312501D01*
Y-312214D01*
Y-311928D01*
Y-311642D01*
Y-311355D01*
Y-311069D01*
Y-310783D01*
Y-310496D01*
Y-310210D01*
Y-309924D01*
Y-309637D01*
Y-309351D01*
X1078963D01*
Y-309065D01*
X1092706D01*
Y-309351D01*
Y-309637D01*
Y-309924D01*
Y-310210D01*
Y-310496D01*
Y-310783D01*
Y-311069D01*
Y-311355D01*
Y-311642D01*
Y-311928D01*
Y-312214D01*
Y-312501D01*
Y-312787D01*
Y-313073D01*
X1092992D01*
Y-313359D01*
Y-313646D01*
Y-313932D01*
Y-314218D01*
Y-314505D01*
Y-314791D01*
Y-315077D01*
Y-315364D01*
Y-315650D01*
Y-315936D01*
Y-316223D01*
Y-316509D01*
Y-316795D01*
Y-317081D01*
Y-317368D01*
Y-317654D01*
Y-317940D01*
Y-318227D01*
Y-318513D01*
Y-318799D01*
Y-319086D01*
Y-319372D01*
Y-319658D01*
Y-319945D01*
Y-320231D01*
Y-320517D01*
Y-320803D01*
Y-321090D01*
Y-321376D01*
Y-321662D01*
Y-321949D01*
Y-322235D01*
Y-322521D01*
Y-322808D01*
Y-323094D01*
Y-323380D01*
Y-323667D01*
Y-323953D01*
Y-324239D01*
Y-324526D01*
Y-324812D01*
X1093279D01*
Y-325098D01*
X1092992D01*
Y-325384D01*
Y-325671D01*
X1093279D01*
Y-325957D01*
Y-326243D01*
Y-326530D01*
Y-326816D01*
Y-327102D01*
Y-327389D01*
Y-327675D01*
Y-327961D01*
Y-328248D01*
Y-328534D01*
Y-328820D01*
Y-329107D01*
Y-329393D01*
Y-329679D01*
Y-329965D01*
Y-330252D01*
Y-330538D01*
Y-330824D01*
Y-331111D01*
Y-331397D01*
Y-331683D01*
Y-331970D01*
Y-332256D01*
Y-332542D01*
Y-332829D01*
Y-333115D01*
X1093565D01*
Y-333401D01*
Y-333688D01*
Y-333974D01*
X1093851D01*
Y-334260D01*
X1094138D01*
Y-334547D01*
X1094424D01*
Y-334833D01*
X1095283D01*
Y-335119D01*
X1096142D01*
Y-334833D01*
X1096428D01*
Y-334547D01*
Y-334260D01*
Y-333974D01*
X1096715D01*
Y-333688D01*
Y-333401D01*
X1097001D01*
Y-333115D01*
Y-332829D01*
Y-332542D01*
X1097287D01*
Y-332256D01*
Y-331970D01*
Y-331683D01*
X1097573D01*
Y-331397D01*
Y-331111D01*
Y-330824D01*
X1097860D01*
Y-330538D01*
Y-330252D01*
Y-329965D01*
X1098146D01*
Y-329679D01*
Y-329393D01*
X1098432D01*
Y-329107D01*
Y-328820D01*
Y-328534D01*
X1098719D01*
Y-328248D01*
Y-327961D01*
Y-327675D01*
X1099005D01*
Y-327389D01*
Y-327102D01*
Y-326816D01*
X1099291D01*
Y-326530D01*
Y-326243D01*
X1099578D01*
Y-325957D01*
Y-325671D01*
Y-325384D01*
X1099864D01*
Y-325098D01*
Y-324812D01*
Y-324526D01*
X1100150D01*
Y-324239D01*
Y-323953D01*
Y-323667D01*
X1100437D01*
Y-323380D01*
Y-323094D01*
X1100723D01*
Y-322808D01*
Y-322521D01*
Y-322235D01*
X1101009D01*
Y-321949D01*
Y-321662D01*
Y-321376D01*
X1101296D01*
Y-321090D01*
Y-320803D01*
Y-320517D01*
X1101582D01*
Y-320231D01*
Y-319945D01*
X1101868D01*
Y-319658D01*
Y-319372D01*
Y-319086D01*
X1102155D01*
Y-318799D01*
Y-318513D01*
Y-318227D01*
X1102441D01*
Y-317940D01*
Y-317654D01*
Y-317368D01*
X1102727D01*
Y-317081D01*
Y-316795D01*
Y-316509D01*
Y-316223D01*
X1103013D01*
Y-315936D01*
Y-315650D01*
Y-315364D01*
Y-315077D01*
X1103300D01*
Y-314791D01*
Y-314505D01*
Y-314218D01*
Y-313932D01*
Y-313646D01*
X1103586D01*
Y-313359D01*
Y-313073D01*
Y-312787D01*
Y-312501D01*
Y-312214D01*
Y-311928D01*
X1103872D01*
Y-311642D01*
Y-311355D01*
Y-311069D01*
Y-310783D01*
Y-310496D01*
Y-310210D01*
Y-309924D01*
Y-309637D01*
Y-309351D01*
Y-309065D01*
X1116757D01*
Y-309351D01*
D02*
G37*
%LPC*%
G36*
X1023419Y-306202D02*
X1015402D01*
Y-306488D01*
Y-306774D01*
Y-307061D01*
Y-307347D01*
Y-307633D01*
X1015115D01*
Y-307920D01*
Y-308206D01*
Y-308492D01*
Y-308778D01*
Y-309065D01*
Y-309351D01*
X1014829D01*
Y-309637D01*
Y-309924D01*
Y-310210D01*
Y-310496D01*
Y-310783D01*
Y-311069D01*
X1014543D01*
Y-311355D01*
Y-311642D01*
Y-311928D01*
Y-312214D01*
Y-312501D01*
Y-312787D01*
X1014256D01*
Y-313073D01*
Y-313359D01*
Y-313646D01*
Y-313932D01*
Y-314218D01*
Y-314505D01*
Y-314791D01*
X1013970D01*
Y-315077D01*
Y-315364D01*
Y-315650D01*
Y-315936D01*
Y-316223D01*
Y-316509D01*
X1013684D01*
Y-316795D01*
Y-317081D01*
Y-317368D01*
X1020842D01*
Y-317081D01*
X1021987D01*
Y-316795D01*
X1022560D01*
Y-316509D01*
X1022846D01*
Y-316223D01*
X1023132D01*
Y-315936D01*
X1023419D01*
Y-315650D01*
X1023705D01*
Y-315364D01*
Y-315077D01*
X1023991D01*
Y-314791D01*
Y-314505D01*
X1024277D01*
Y-314218D01*
Y-313932D01*
X1024564D01*
Y-313646D01*
Y-313359D01*
Y-313073D01*
Y-312787D01*
X1024850D01*
Y-312501D01*
Y-312214D01*
Y-311928D01*
Y-311642D01*
Y-311355D01*
X1025136D01*
Y-311069D01*
Y-310783D01*
Y-310496D01*
Y-310210D01*
Y-309924D01*
Y-309637D01*
Y-309351D01*
Y-309065D01*
Y-308778D01*
Y-308492D01*
Y-308206D01*
X1024850D01*
Y-307920D01*
Y-307633D01*
X1024564D01*
Y-307347D01*
Y-307061D01*
X1024277D01*
Y-306774D01*
X1023991D01*
Y-306488D01*
X1023419D01*
Y-306202D01*
D02*
G37*
%LPD*%
D10*
X1001582Y-400836D02*
Y-416579D01*
X1006830Y-411331D01*
X1012078Y-416579D01*
Y-400836D01*
X1017325Y-416579D02*
X1022573D01*
X1019949D01*
Y-406084D01*
X1017325D01*
X1030444Y-416579D02*
Y-406084D01*
X1033068D01*
X1035692Y-408707D01*
Y-416579D01*
Y-408707D01*
X1038316Y-406084D01*
X1040940Y-408707D01*
Y-416579D01*
X1046187Y-400836D02*
Y-411331D01*
X1051435Y-416579D01*
X1056683Y-411331D01*
Y-400836D01*
X1072426Y-403460D02*
X1069802Y-400836D01*
X1064554D01*
X1061930Y-403460D01*
Y-413955D01*
X1064554Y-416579D01*
X1069802D01*
X1072426Y-413955D01*
Y-408707D01*
X1067178D01*
X1355913Y-364090D02*
X1358537Y-361466D01*
X1363785D01*
X1366408Y-364090D01*
Y-374585D01*
X1363785Y-377209D01*
X1358537D01*
X1355913Y-374585D01*
Y-364090D01*
X1371656D02*
X1374280Y-361466D01*
X1379527D01*
X1382151Y-364090D01*
Y-374585D01*
X1379527Y-377209D01*
X1374280D01*
X1371656Y-374585D01*
Y-364090D01*
X1192527Y-377209D02*
X1197119D01*
X1194823D01*
Y-363434D01*
X1192527Y-365730D01*
X1213190Y-363434D02*
X1208598Y-365730D01*
X1204006Y-370321D01*
Y-374913D01*
X1206302Y-377209D01*
X1210894D01*
X1213190Y-374913D01*
Y-372617D01*
X1210894Y-370321D01*
X1204006D01*
X1217782Y-377209D02*
X1226965Y-368025D01*
X1231557Y-365730D02*
X1233852Y-363434D01*
X1238444D01*
X1240740Y-365730D01*
Y-374913D01*
X1238444Y-377209D01*
X1233852D01*
X1231557Y-374913D01*
Y-365730D01*
X1254515Y-363434D02*
X1245332D01*
Y-370321D01*
X1249923Y-368025D01*
X1252219D01*
X1254515Y-370321D01*
Y-374913D01*
X1252219Y-377209D01*
X1247628D01*
X1245332Y-374913D01*
X1259107Y-377209D02*
X1268290Y-368025D01*
X1282065Y-377209D02*
X1272882D01*
X1282065Y-368025D01*
Y-365730D01*
X1279769Y-363434D01*
X1275178D01*
X1272882Y-365730D01*
X1286657D02*
X1288953Y-363434D01*
X1293544D01*
X1295840Y-365730D01*
Y-374913D01*
X1293544Y-377209D01*
X1288953D01*
X1286657Y-374913D01*
Y-365730D01*
X1309615Y-377209D02*
X1300432D01*
X1309615Y-368025D01*
Y-365730D01*
X1307320Y-363434D01*
X1302728D01*
X1300432Y-365730D01*
X1314207D02*
X1316503Y-363434D01*
X1321095D01*
X1323390Y-365730D01*
Y-368025D01*
X1321095Y-370321D01*
X1318799D01*
X1321095D01*
X1323390Y-372617D01*
Y-374913D01*
X1321095Y-377209D01*
X1316503D01*
X1314207Y-374913D01*
X1195018Y-285874D02*
X1186622D01*
Y-298469D01*
X1195018D01*
X1186622Y-292172D02*
X1190820D01*
X1207612Y-285874D02*
Y-298469D01*
X1201315D01*
X1199216Y-296370D01*
Y-292172D01*
X1201315Y-290072D01*
X1207612D01*
X1216009Y-302667D02*
X1218108D01*
X1220207Y-300568D01*
Y-290072D01*
X1213910D01*
X1211810Y-292172D01*
Y-296370D01*
X1213910Y-298469D01*
X1220207D01*
X1226504Y-290072D02*
X1230702D01*
X1232801Y-292172D01*
Y-298469D01*
X1226504D01*
X1224405Y-296370D01*
X1226504Y-294271D01*
X1232801D01*
X1236999Y-290072D02*
Y-298469D01*
Y-294271D01*
X1239098Y-292172D01*
X1241197Y-290072D01*
X1243296D01*
X1198433Y-322095D02*
Y-335870D01*
X1205320D01*
X1207616Y-333574D01*
Y-324391D01*
X1205320Y-322095D01*
X1198433D01*
X1212208Y-326687D02*
Y-335870D01*
Y-331278D01*
X1214504Y-328983D01*
X1216800Y-326687D01*
X1219095D01*
X1225983Y-335870D02*
X1230575D01*
X1228279D01*
Y-326687D01*
X1225983D01*
X1237462Y-335870D02*
X1242054D01*
X1239758D01*
Y-322095D01*
X1237462D01*
X1248941Y-335870D02*
X1253533D01*
X1251237D01*
Y-322095D01*
X1248941D01*
X1274196D02*
Y-335870D01*
X1281083D01*
X1283379Y-333574D01*
Y-324391D01*
X1281083Y-322095D01*
X1274196D01*
X1287971Y-326687D02*
Y-335870D01*
Y-331278D01*
X1290267Y-328983D01*
X1292562Y-326687D01*
X1294858D01*
X1304042D02*
X1308633D01*
X1310929Y-328983D01*
Y-335870D01*
X1304042D01*
X1301746Y-333574D01*
X1304042Y-331278D01*
X1310929D01*
X1315521Y-326687D02*
Y-333574D01*
X1317817Y-335870D01*
X1320113Y-333574D01*
X1322408Y-335870D01*
X1324704Y-333574D01*
Y-326687D01*
X1329296Y-335870D02*
X1333888D01*
X1331592D01*
Y-326687D01*
X1329296D01*
X1340775Y-335870D02*
Y-326687D01*
X1347663D01*
X1349959Y-328983D01*
Y-335870D01*
X1359142Y-340462D02*
X1361438D01*
X1363734Y-338166D01*
Y-326687D01*
X1356846D01*
X1354550Y-328983D01*
Y-333574D01*
X1356846Y-335870D01*
X1363734D01*
D11*
X571332Y-73053D02*
G03*
X571332Y-73053I-1750J0D01*
G01*
X564674Y-53543D02*
X1084425D01*
X564674Y-108661D02*
X1084425D01*
X564674Y-116535D02*
X1084425D01*
Y-45669D01*
X564674D02*
X1084425D01*
X564674Y-116535D02*
Y-45669D01*
X1010587Y-116535D02*
Y-45669D01*
X964931Y-116535D02*
Y-45669D01*
X899202Y-116535D02*
Y-45669D01*
X859842Y-116535D02*
Y-45669D01*
X828669Y-116535D02*
Y-45669D01*
X749822Y-116535D02*
Y-45669D01*
X711092Y-116535D02*
Y-45669D01*
X684327Y-116535D02*
Y-45669D01*
X625420Y-116535D02*
Y-45669D01*
X593801Y-116535D02*
Y-45669D01*
X567833Y-59055D02*
X569582Y-58180D01*
X571332Y-59055D01*
X570457Y-57305D02*
X571332Y-59055D01*
X570457Y-57305D02*
X571332Y-55556D01*
X569582Y-56430D02*
X571332Y-55556D01*
X567833D02*
X569582Y-56430D01*
X567833Y-55556D02*
X568708Y-57305D01*
X567833Y-59055D02*
X568708Y-57305D01*
X567833Y-66929D02*
X571332D01*
Y-63430D01*
X567833D02*
X571332D01*
X567833Y-66929D02*
Y-63430D01*
X569582Y-82677D02*
X571332Y-79178D01*
X567833D02*
X571332D01*
X567833D02*
X569582Y-82677D01*
X567833Y-90551D02*
Y-89676D01*
X568708Y-88801D01*
X567833Y-87927D02*
X568708Y-88801D01*
X567833Y-87927D02*
Y-87052D01*
X568708D01*
X569582Y-87927D01*
X570457Y-87052D01*
X571332D01*
Y-87927D02*
Y-87052D01*
X570457Y-88801D02*
X571332Y-87927D01*
X570457Y-88801D02*
X571332Y-89676D01*
Y-90551D02*
Y-89676D01*
X570457Y-90551D02*
X571332D01*
X569582Y-89676D02*
X570457Y-90551D01*
X568708D02*
X569582Y-89676D01*
X567833Y-90551D02*
X568708D01*
Y-97550D02*
X569582Y-98425D01*
X567833Y-97550D02*
X568708D01*
X567833D02*
X568708Y-96675D01*
X567833Y-95801D02*
X568708Y-96675D01*
X567833Y-95801D02*
X568708D01*
X569582Y-94926D01*
X570457Y-95801D01*
X571332D01*
X570457Y-96675D02*
X571332Y-95801D01*
X570457Y-96675D02*
X571332Y-97550D01*
X570457D02*
X571332D01*
X569582Y-98425D02*
X570457Y-97550D01*
X567833Y-105424D02*
X568708D01*
X567833D02*
Y-103674D01*
X568708D01*
Y-102800D01*
X570457D01*
Y-103674D02*
Y-102800D01*
Y-103674D02*
X571332D01*
Y-105424D02*
Y-103674D01*
X570457Y-105424D02*
X571332D01*
X570457Y-106299D02*
Y-105424D01*
X568708Y-106299D02*
X570457D01*
X568708D02*
Y-105424D01*
X1012950Y-57481D02*
X1015049D01*
X1012950Y-65355D02*
X1015049D01*
X1012950Y-73229D02*
X1015049D01*
X1012950Y-81103D02*
X1015049D01*
X1012950Y-88977D02*
X1015049D01*
X1012950Y-96851D02*
X1015049D01*
X1012950Y-104725D02*
X1015049D01*
X967293Y-57481D02*
X969392D01*
X967293Y-65355D02*
X969392D01*
X967293Y-73229D02*
X969392D01*
X967293Y-81103D02*
X969392D01*
X967293Y-88977D02*
X969392D01*
X967293Y-96851D02*
X969392D01*
X967293Y-104725D02*
X969392D01*
X902614Y-59055D02*
X901564Y-58006D01*
Y-56956D01*
X902614Y-55906D01*
X904188Y-59055D02*
Y-55906D01*
X905238Y-56956D01*
X906287Y-55906D01*
Y-59055D01*
X907337D02*
X908386D01*
X907861D01*
Y-56956D01*
X907337D01*
X909960D02*
X912059Y-59055D01*
X911010Y-58006D01*
X912059Y-56956D01*
X909960Y-59055D01*
X914683D02*
X913634D01*
X913109Y-58530D01*
Y-57481D01*
X913634Y-56956D01*
X914683D01*
X915208Y-57481D01*
Y-58006D01*
X913109D01*
X918357Y-55906D02*
Y-59055D01*
X916782D01*
X916258Y-58530D01*
Y-57481D01*
X916782Y-56956D01*
X918357D01*
X919406Y-59055D02*
X920456Y-58006D01*
Y-56956D01*
X919406Y-55906D01*
X903663Y-64830D02*
X902089D01*
X901564Y-65355D01*
Y-66404D01*
X902089Y-66929D01*
X903663D01*
X904713Y-64305D02*
X905238Y-63781D01*
X906287D01*
X906812Y-64305D01*
Y-66404D01*
X906287Y-66929D01*
X905238D01*
X904713Y-66404D01*
Y-64305D01*
X907861Y-63781D02*
Y-66929D01*
Y-65355D01*
X908386Y-64830D01*
X909436D01*
X909960Y-65355D01*
Y-66929D01*
X911010D02*
Y-64830D01*
X912584D01*
X913109Y-65355D01*
Y-66929D01*
X914159Y-64305D02*
X914683Y-63781D01*
X915733D01*
X916258Y-64305D01*
Y-64830D01*
X915733Y-65355D01*
X915208D01*
X915733D01*
X916258Y-65880D01*
Y-66404D01*
X915733Y-66929D01*
X914683D01*
X914159Y-66404D01*
X917307Y-64305D02*
X917832Y-63781D01*
X918882D01*
X919406Y-64305D01*
Y-66404D01*
X918882Y-66929D01*
X917832D01*
X917307Y-66404D01*
Y-64305D01*
X920456D02*
X920981Y-63781D01*
X922030D01*
X922555Y-64305D01*
Y-66404D01*
X922030Y-66929D01*
X920981D01*
X920456Y-66404D01*
Y-64305D01*
X923604Y-66929D02*
Y-64830D01*
X924129D01*
X924654Y-65355D01*
Y-66929D01*
Y-65355D01*
X925179Y-64830D01*
X925703Y-65355D01*
Y-66929D01*
X926753Y-64305D02*
X927278Y-63781D01*
X928327D01*
X928852Y-64305D01*
Y-64830D01*
X928327Y-65355D01*
X927802D01*
X928327D01*
X928852Y-65880D01*
Y-66404D01*
X928327Y-66929D01*
X927278D01*
X926753Y-66404D01*
X932001Y-66929D02*
X929902D01*
X932001Y-64830D01*
Y-64305D01*
X931476Y-63781D01*
X930426D01*
X929902Y-64305D01*
X933050D02*
X933575Y-63781D01*
X934624D01*
X935149Y-64305D01*
Y-66404D01*
X934624Y-66929D01*
X933575D01*
X933050Y-66404D01*
Y-64305D01*
X903663Y-72704D02*
X902089D01*
X901564Y-73229D01*
Y-74278D01*
X902089Y-74803D01*
X903663D01*
X906287D02*
Y-71655D01*
X904713Y-73229D01*
X906812D01*
X907861Y-72179D02*
X908386Y-71655D01*
X909436D01*
X909960Y-72179D01*
Y-74278D01*
X909436Y-74803D01*
X908386D01*
X907861Y-74278D01*
Y-72179D01*
X911010D02*
X911535Y-71655D01*
X912584D01*
X913109Y-72179D01*
Y-74278D01*
X912584Y-74803D01*
X911535D01*
X911010Y-74278D01*
Y-72179D01*
X914159Y-71655D02*
Y-74803D01*
Y-73229D01*
X914683Y-72704D01*
X915733D01*
X916258Y-73229D01*
Y-74803D01*
X917307Y-72179D02*
X917832Y-71655D01*
X918882D01*
X919406Y-72179D01*
Y-72704D01*
X918882Y-73229D01*
X918357D01*
X918882D01*
X919406Y-73754D01*
Y-74278D01*
X918882Y-74803D01*
X917832D01*
X917307Y-74278D01*
X920456Y-72179D02*
X920981Y-71655D01*
X922030D01*
X922555Y-72179D01*
Y-74278D01*
X922030Y-74803D01*
X920981D01*
X920456Y-74278D01*
Y-72179D01*
X923604D02*
X924129Y-71655D01*
X925179D01*
X925703Y-72179D01*
Y-74278D01*
X925179Y-74803D01*
X924129D01*
X923604Y-74278D01*
Y-72179D01*
X901564Y-80578D02*
Y-82677D01*
Y-81628D01*
X902089Y-81103D01*
X902614Y-80578D01*
X903139D01*
X906812Y-82677D02*
X904713D01*
X906812Y-80578D01*
Y-80053D01*
X906287Y-79529D01*
X905238D01*
X904713Y-80053D01*
X907861Y-82677D02*
X908911D01*
X908386D01*
Y-79529D01*
X907861Y-80053D01*
X910485D02*
X911010Y-79529D01*
X912059D01*
X912584Y-80053D01*
Y-82152D01*
X912059Y-82677D01*
X911010D01*
X910485Y-82152D01*
Y-80053D01*
X913634Y-83202D02*
X915733D01*
X918882Y-82677D02*
X916782D01*
X918882Y-80578D01*
Y-80053D01*
X918357Y-79529D01*
X917307D01*
X916782Y-80053D01*
X919931D02*
X920456Y-79529D01*
X921505D01*
X922030Y-80053D01*
Y-82152D01*
X921505Y-82677D01*
X920456D01*
X919931Y-82152D01*
Y-80053D01*
X923080D02*
X923604Y-79529D01*
X924654D01*
X925179Y-80053D01*
Y-82152D01*
X924654Y-82677D01*
X923604D01*
X923080Y-82152D01*
Y-80053D01*
X926228Y-79529D02*
Y-82677D01*
Y-81103D01*
X926753Y-80578D01*
X927802D01*
X928327Y-81103D01*
Y-82677D01*
X929377D02*
X930426D01*
X929902D01*
Y-79529D01*
X929377Y-80053D01*
X932001D02*
X932525Y-79529D01*
X933575D01*
X934100Y-80053D01*
Y-80578D01*
X933575Y-81103D01*
X933050D01*
X933575D01*
X934100Y-81628D01*
Y-82152D01*
X933575Y-82677D01*
X932525D01*
X932001Y-82152D01*
X935149Y-80053D02*
X935674Y-79529D01*
X936724D01*
X937248Y-80053D01*
Y-82152D01*
X936724Y-82677D01*
X935674D01*
X935149Y-82152D01*
Y-80053D01*
X938298Y-80578D02*
Y-82677D01*
Y-81628D01*
X938823Y-81103D01*
X939347Y-80578D01*
X939872D01*
X941446Y-82677D02*
X942496D01*
X941971D01*
Y-79529D01*
X941446Y-80053D01*
X944070D02*
X944595Y-79529D01*
X945644D01*
X946169Y-80053D01*
Y-82152D01*
X945644Y-82677D01*
X944595D01*
X944070Y-82152D01*
Y-80053D01*
X947219D02*
X947744Y-79529D01*
X948793D01*
X949318Y-80053D01*
Y-82152D01*
X948793Y-82677D01*
X947744D01*
X947219Y-82152D01*
Y-80053D01*
X950367Y-80578D02*
X952466D01*
X950367Y-82677D01*
X952466D01*
X953516D02*
X954566D01*
X954041D01*
Y-79529D01*
X953516Y-80053D01*
X956140Y-82152D02*
X956665Y-82677D01*
X957714D01*
X958239Y-82152D01*
Y-80053D01*
X957714Y-79529D01*
X956665D01*
X956140Y-80053D01*
Y-80578D01*
X956665Y-81103D01*
X958239D01*
X959288Y-80053D02*
X959813Y-79529D01*
X960863D01*
X961388Y-80053D01*
Y-82152D01*
X960863Y-82677D01*
X959813D01*
X959288Y-82152D01*
Y-80053D01*
X901564Y-88452D02*
X902614Y-90551D01*
X903663Y-88452D01*
X906812Y-87403D02*
X905762Y-87927D01*
X904713Y-88977D01*
Y-90026D01*
X905238Y-90551D01*
X906287D01*
X906812Y-90026D01*
Y-89502D01*
X906287Y-88977D01*
X904713D01*
X907861Y-87927D02*
X908386Y-87403D01*
X909436D01*
X909960Y-87927D01*
Y-90026D01*
X909436Y-90551D01*
X908386D01*
X907861Y-90026D01*
Y-87927D01*
X911010Y-87403D02*
Y-90551D01*
Y-88977D01*
X911535Y-88452D01*
X912584D01*
X913109Y-88977D01*
Y-90551D01*
X914159Y-87927D02*
X914683Y-87403D01*
X915733D01*
X916258Y-87927D01*
Y-88452D01*
X915733Y-88977D01*
X915208D01*
X915733D01*
X916258Y-89502D01*
Y-90026D01*
X915733Y-90551D01*
X914683D01*
X914159Y-90026D01*
X917307Y-87927D02*
X917832Y-87403D01*
X918882D01*
X919406Y-87927D01*
Y-90026D01*
X918882Y-90551D01*
X917832D01*
X917307Y-90026D01*
Y-87927D01*
X903663Y-96326D02*
X902089D01*
X901564Y-96851D01*
Y-97900D01*
X902089Y-98425D01*
X903663D01*
X904713D02*
X905762D01*
X905238D01*
Y-95277D01*
X904713Y-95801D01*
X907337Y-95277D02*
X909436D01*
Y-95801D01*
X907337Y-97900D01*
Y-98425D01*
X910485Y-95801D02*
X911010Y-95277D01*
X912059D01*
X912584Y-95801D01*
Y-97900D01*
X912059Y-98425D01*
X911010D01*
X910485Y-97900D01*
Y-95801D01*
X913634Y-95277D02*
Y-98425D01*
Y-96851D01*
X914159Y-96326D01*
X915208D01*
X915733Y-96851D01*
Y-98425D01*
X916782D02*
X917832D01*
X917307D01*
Y-95277D01*
X916782Y-95801D01*
X919406Y-98425D02*
X920456D01*
X919931D01*
Y-95277D01*
X919406Y-95801D01*
X922030D02*
X922555Y-95277D01*
X923604D01*
X924129Y-95801D01*
Y-97900D01*
X923604Y-98425D01*
X922555D01*
X922030Y-97900D01*
Y-95801D01*
X901564Y-104200D02*
X902614Y-106299D01*
X903663Y-104200D01*
X906812Y-103151D02*
X905762Y-103675D01*
X904713Y-104725D01*
Y-105774D01*
X905238Y-106299D01*
X906287D01*
X906812Y-105774D01*
Y-105250D01*
X906287Y-104725D01*
X904713D01*
X907861Y-103675D02*
X908386Y-103151D01*
X909436D01*
X909960Y-103675D01*
Y-105774D01*
X909436Y-106299D01*
X908386D01*
X907861Y-105774D01*
Y-103675D01*
X911010Y-103151D02*
Y-106299D01*
Y-104725D01*
X911535Y-104200D01*
X912584D01*
X913109Y-104725D01*
Y-106299D01*
X916258D02*
X914159D01*
X916258Y-104200D01*
Y-103675D01*
X915733Y-103151D01*
X914683D01*
X914159Y-103675D01*
X919406Y-103151D02*
X917307D01*
Y-104725D01*
X918357Y-104200D01*
X918882D01*
X919406Y-104725D01*
Y-105774D01*
X918882Y-106299D01*
X917832D01*
X917307Y-105774D01*
X920456Y-106299D02*
Y-104200D01*
X920981D01*
X921505Y-104725D01*
Y-106299D01*
Y-104725D01*
X922030Y-104200D01*
X922555Y-104725D01*
Y-106299D01*
X923604Y-103675D02*
X924129Y-103151D01*
X925179D01*
X925703Y-103675D01*
Y-104200D01*
X925179Y-104725D01*
X924654D01*
X925179D01*
X925703Y-105250D01*
Y-105774D01*
X925179Y-106299D01*
X924129D01*
X923604Y-105774D01*
X928852Y-103151D02*
X926753D01*
Y-104725D01*
X927802Y-104200D01*
X928327D01*
X928852Y-104725D01*
Y-105774D01*
X928327Y-106299D01*
X927278D01*
X926753Y-105774D01*
X863254Y-59055D02*
X862205Y-58006D01*
Y-56956D01*
X863254Y-55906D01*
X864829Y-59055D02*
Y-55906D01*
X865878Y-56956D01*
X866928Y-55906D01*
Y-59055D01*
X867977D02*
X869027D01*
X868502D01*
Y-56956D01*
X867977D01*
X870601D02*
X872700Y-59055D01*
X871651Y-58006D01*
X872700Y-56956D01*
X870601Y-59055D01*
X875324D02*
X874274D01*
X873750Y-58530D01*
Y-57481D01*
X874274Y-56956D01*
X875324D01*
X875849Y-57481D01*
Y-58006D01*
X873750D01*
X878997Y-55906D02*
Y-59055D01*
X877423D01*
X876898Y-58530D01*
Y-57481D01*
X877423Y-56956D01*
X878997D01*
X880047Y-59055D02*
X881096Y-58006D01*
Y-56956D01*
X880047Y-55906D01*
X862205Y-66929D02*
Y-63781D01*
X863779D01*
X864304Y-64305D01*
Y-65355D01*
X863779Y-65880D01*
X862205D01*
X863254D02*
X864304Y-66929D01*
X865878D02*
X866928D01*
X867452Y-66404D01*
Y-65355D01*
X866928Y-64830D01*
X865878D01*
X865353Y-65355D01*
Y-66404D01*
X865878Y-66929D01*
X868502Y-64830D02*
Y-66404D01*
X869027Y-66929D01*
X870601D01*
Y-64830D01*
X871651Y-66929D02*
Y-64830D01*
X873225D01*
X873750Y-65355D01*
Y-66929D01*
X876898Y-63781D02*
Y-66929D01*
X875324D01*
X874799Y-66404D01*
Y-65355D01*
X875324Y-64830D01*
X876898D01*
X879522Y-66929D02*
X878473D01*
X877948Y-66404D01*
Y-65355D01*
X878473Y-64830D01*
X879522D01*
X880047Y-65355D01*
Y-65880D01*
X877948D01*
X883195Y-63781D02*
Y-66929D01*
X881621D01*
X881096Y-66404D01*
Y-65355D01*
X881621Y-64830D01*
X883195D01*
X862205Y-74803D02*
Y-71655D01*
X863779D01*
X864304Y-72179D01*
Y-73229D01*
X863779Y-73754D01*
X862205D01*
X863254D02*
X864304Y-74803D01*
X865878D02*
X866928D01*
X867452Y-74278D01*
Y-73229D01*
X866928Y-72704D01*
X865878D01*
X865353Y-73229D01*
Y-74278D01*
X865878Y-74803D01*
X868502Y-72704D02*
Y-74278D01*
X869027Y-74803D01*
X870601D01*
Y-72704D01*
X871651Y-74803D02*
Y-72704D01*
X873225D01*
X873750Y-73229D01*
Y-74803D01*
X876898Y-71655D02*
Y-74803D01*
X875324D01*
X874799Y-74278D01*
Y-73229D01*
X875324Y-72704D01*
X876898D01*
X879522Y-74803D02*
X878473D01*
X877948Y-74278D01*
Y-73229D01*
X878473Y-72704D01*
X879522D01*
X880047Y-73229D01*
Y-73754D01*
X877948D01*
X883195Y-71655D02*
Y-74803D01*
X881621D01*
X881096Y-74278D01*
Y-73229D01*
X881621Y-72704D01*
X883195D01*
X862205Y-82677D02*
Y-79529D01*
X863779D01*
X864304Y-80053D01*
Y-81103D01*
X863779Y-81628D01*
X862205D01*
X863254D02*
X864304Y-82677D01*
X865878D02*
X866928D01*
X867452Y-82152D01*
Y-81103D01*
X866928Y-80578D01*
X865878D01*
X865353Y-81103D01*
Y-82152D01*
X865878Y-82677D01*
X868502Y-80578D02*
Y-82152D01*
X869027Y-82677D01*
X870601D01*
Y-80578D01*
X871651Y-82677D02*
Y-80578D01*
X873225D01*
X873750Y-81103D01*
Y-82677D01*
X876898Y-79529D02*
Y-82677D01*
X875324D01*
X874799Y-82152D01*
Y-81103D01*
X875324Y-80578D01*
X876898D01*
X879522Y-82677D02*
X878473D01*
X877948Y-82152D01*
Y-81103D01*
X878473Y-80578D01*
X879522D01*
X880047Y-81103D01*
Y-81628D01*
X877948D01*
X883195Y-79529D02*
Y-82677D01*
X881621D01*
X881096Y-82152D01*
Y-81103D01*
X881621Y-80578D01*
X883195D01*
X862205Y-90551D02*
Y-87403D01*
X863779D01*
X864304Y-87927D01*
Y-88977D01*
X863779Y-89502D01*
X862205D01*
X863254D02*
X864304Y-90551D01*
X865878D02*
X866928D01*
X867452Y-90026D01*
Y-88977D01*
X866928Y-88452D01*
X865878D01*
X865353Y-88977D01*
Y-90026D01*
X865878Y-90551D01*
X868502Y-88452D02*
Y-90026D01*
X869027Y-90551D01*
X870601D01*
Y-88452D01*
X871651Y-90551D02*
Y-88452D01*
X873225D01*
X873750Y-88977D01*
Y-90551D01*
X876898Y-87403D02*
Y-90551D01*
X875324D01*
X874799Y-90026D01*
Y-88977D01*
X875324Y-88452D01*
X876898D01*
X879522Y-90551D02*
X878473D01*
X877948Y-90026D01*
Y-88977D01*
X878473Y-88452D01*
X879522D01*
X880047Y-88977D01*
Y-89502D01*
X877948D01*
X883195Y-87403D02*
Y-90551D01*
X881621D01*
X881096Y-90026D01*
Y-88977D01*
X881621Y-88452D01*
X883195D01*
X862205Y-98425D02*
Y-95277D01*
X863779D01*
X864304Y-95801D01*
Y-96851D01*
X863779Y-97376D01*
X862205D01*
X863254D02*
X864304Y-98425D01*
X865878D02*
X866928D01*
X867452Y-97900D01*
Y-96851D01*
X866928Y-96326D01*
X865878D01*
X865353Y-96851D01*
Y-97900D01*
X865878Y-98425D01*
X868502Y-96326D02*
Y-97900D01*
X869027Y-98425D01*
X870601D01*
Y-96326D01*
X871651Y-98425D02*
Y-96326D01*
X873225D01*
X873750Y-96851D01*
Y-98425D01*
X876898Y-95277D02*
Y-98425D01*
X875324D01*
X874799Y-97900D01*
Y-96851D01*
X875324Y-96326D01*
X876898D01*
X879522Y-98425D02*
X878473D01*
X877948Y-97900D01*
Y-96851D01*
X878473Y-96326D01*
X879522D01*
X880047Y-96851D01*
Y-97376D01*
X877948D01*
X883195Y-95277D02*
Y-98425D01*
X881621D01*
X881096Y-97900D01*
Y-96851D01*
X881621Y-96326D01*
X883195D01*
X862205Y-106299D02*
Y-103151D01*
X863779D01*
X864304Y-103675D01*
Y-104725D01*
X863779Y-105250D01*
X862205D01*
X863254D02*
X864304Y-106299D01*
X865878D02*
X866928D01*
X867452Y-105774D01*
Y-104725D01*
X866928Y-104200D01*
X865878D01*
X865353Y-104725D01*
Y-105774D01*
X865878Y-106299D01*
X868502Y-104200D02*
Y-105774D01*
X869027Y-106299D01*
X870601D01*
Y-104200D01*
X871651Y-106299D02*
Y-104200D01*
X873225D01*
X873750Y-104725D01*
Y-106299D01*
X876898Y-103151D02*
Y-106299D01*
X875324D01*
X874799Y-105774D01*
Y-104725D01*
X875324Y-104200D01*
X876898D01*
X879522Y-106299D02*
X878473D01*
X877948Y-105774D01*
Y-104725D01*
X878473Y-104200D01*
X879522D01*
X880047Y-104725D01*
Y-105250D01*
X877948D01*
X883195Y-103151D02*
Y-106299D01*
X881621D01*
X881096Y-105774D01*
Y-104725D01*
X881621Y-104200D01*
X883195D01*
X831032Y-59055D02*
Y-55906D01*
X832606D01*
X833131Y-56431D01*
Y-57481D01*
X832606Y-58006D01*
X831032D01*
X834705Y-56956D02*
X835754D01*
X836279Y-57481D01*
Y-59055D01*
X834705D01*
X834180Y-58530D01*
X834705Y-58006D01*
X836279D01*
X839428Y-55906D02*
Y-59055D01*
X837854D01*
X837329Y-58530D01*
Y-57481D01*
X837854Y-56956D01*
X839428D01*
X831032Y-66929D02*
Y-63781D01*
X832606D01*
X833131Y-64305D01*
Y-65355D01*
X832606Y-65880D01*
X831032D01*
X834705Y-64830D02*
X835754D01*
X836279Y-65355D01*
Y-66929D01*
X834705D01*
X834180Y-66404D01*
X834705Y-65880D01*
X836279D01*
X839428Y-63781D02*
Y-66929D01*
X837854D01*
X837329Y-66404D01*
Y-65355D01*
X837854Y-64830D01*
X839428D01*
X831032Y-74803D02*
Y-71655D01*
X832606D01*
X833131Y-72179D01*
Y-73229D01*
X832606Y-73754D01*
X831032D01*
X834705Y-72704D02*
X835754D01*
X836279Y-73229D01*
Y-74803D01*
X834705D01*
X834180Y-74278D01*
X834705Y-73754D01*
X836279D01*
X839428Y-71655D02*
Y-74803D01*
X837854D01*
X837329Y-74278D01*
Y-73229D01*
X837854Y-72704D01*
X839428D01*
X831032Y-82677D02*
Y-79529D01*
X832606D01*
X833131Y-80053D01*
Y-81103D01*
X832606Y-81628D01*
X831032D01*
X834705Y-80578D02*
X835754D01*
X836279Y-81103D01*
Y-82677D01*
X834705D01*
X834180Y-82152D01*
X834705Y-81628D01*
X836279D01*
X839428Y-79529D02*
Y-82677D01*
X837854D01*
X837329Y-82152D01*
Y-81103D01*
X837854Y-80578D01*
X839428D01*
X831032Y-87403D02*
Y-89502D01*
X832081Y-90551D01*
X833131Y-89502D01*
Y-87403D01*
X834180Y-90551D02*
X835230D01*
X834705D01*
Y-88452D01*
X834180D01*
X837329D02*
X838378D01*
X838903Y-88977D01*
Y-90551D01*
X837329D01*
X836804Y-90026D01*
X837329Y-89502D01*
X838903D01*
X831032Y-98425D02*
Y-95277D01*
X832606D01*
X833131Y-95801D01*
Y-96851D01*
X832606Y-97376D01*
X831032D01*
X834705Y-96326D02*
X835754D01*
X836279Y-96851D01*
Y-98425D01*
X834705D01*
X834180Y-97900D01*
X834705Y-97376D01*
X836279D01*
X839428Y-95277D02*
Y-98425D01*
X837854D01*
X837329Y-97900D01*
Y-96851D01*
X837854Y-96326D01*
X839428D01*
X831032Y-103151D02*
Y-105250D01*
X832081Y-106299D01*
X833131Y-105250D01*
Y-103151D01*
X834180Y-106299D02*
X835230D01*
X834705D01*
Y-104200D01*
X834180D01*
X837329D02*
X838378D01*
X838903Y-104725D01*
Y-106299D01*
X837329D01*
X836804Y-105774D01*
X837329Y-105250D01*
X838903D01*
X752184Y-55906D02*
X754283D01*
X753233D01*
Y-59055D01*
X755857D02*
X756907D01*
X757431Y-58530D01*
Y-57481D01*
X756907Y-56956D01*
X755857D01*
X755332Y-57481D01*
Y-58530D01*
X755857Y-59055D01*
X758481Y-60105D02*
Y-56956D01*
X760055D01*
X760580Y-57481D01*
Y-58530D01*
X760055Y-59055D01*
X758481D01*
X764778Y-55906D02*
Y-59055D01*
X766877D01*
X768451Y-56956D02*
X769501D01*
X770026Y-57481D01*
Y-59055D01*
X768451D01*
X767927Y-58530D01*
X768451Y-58006D01*
X770026D01*
X771075Y-56956D02*
Y-58530D01*
X771600Y-59055D01*
X773174D01*
Y-59580D01*
X772650Y-60105D01*
X772125D01*
X773174Y-59055D02*
Y-56956D01*
X775798Y-59055D02*
X774749D01*
X774224Y-58530D01*
Y-57481D01*
X774749Y-56956D01*
X775798D01*
X776323Y-57481D01*
Y-58006D01*
X774224D01*
X777373Y-56956D02*
Y-59055D01*
Y-58006D01*
X777897Y-57481D01*
X778422Y-56956D01*
X778947D01*
X783670Y-57481D02*
X785769D01*
X789967Y-55906D02*
Y-59055D01*
X791541D01*
X792066Y-58530D01*
Y-58006D01*
X791541Y-57481D01*
X789967D01*
X791541D01*
X792066Y-56956D01*
Y-56431D01*
X791541Y-55906D01*
X789967D01*
X793640Y-59055D02*
X794690D01*
X795215Y-58530D01*
Y-57481D01*
X794690Y-56956D01*
X793640D01*
X793115Y-57481D01*
Y-58530D01*
X793640Y-59055D01*
X796789Y-56431D02*
Y-56956D01*
X796264D01*
X797313D01*
X796789D01*
Y-58530D01*
X797313Y-59055D01*
X799413Y-56431D02*
Y-56956D01*
X798888D01*
X799937D01*
X799413D01*
Y-58530D01*
X799937Y-59055D01*
X802036D02*
X803086D01*
X803611Y-58530D01*
Y-57481D01*
X803086Y-56956D01*
X802036D01*
X801512Y-57481D01*
Y-58530D01*
X802036Y-59055D01*
X804660D02*
Y-56956D01*
X805185D01*
X805710Y-57481D01*
Y-59055D01*
Y-57481D01*
X806234Y-56956D01*
X806759Y-57481D01*
Y-59055D01*
X810957Y-55906D02*
Y-59055D01*
X813056D01*
X814631Y-56956D02*
X815680D01*
X816205Y-57481D01*
Y-59055D01*
X814631D01*
X814106Y-58530D01*
X814631Y-58006D01*
X816205D01*
X817255Y-56956D02*
Y-58530D01*
X817779Y-59055D01*
X819354D01*
Y-59580D01*
X818829Y-60105D01*
X818304D01*
X819354Y-59055D02*
Y-56956D01*
X821978Y-59055D02*
X820928D01*
X820403Y-58530D01*
Y-57481D01*
X820928Y-56956D01*
X821978D01*
X822502Y-57481D01*
Y-58006D01*
X820403D01*
X823552Y-56956D02*
Y-59055D01*
Y-58006D01*
X824076Y-57481D01*
X824601Y-56956D01*
X825126D01*
X752184Y-63781D02*
X754283D01*
X753233D01*
Y-66929D01*
X755857D02*
X756907D01*
X757431Y-66404D01*
Y-65355D01*
X756907Y-64830D01*
X755857D01*
X755332Y-65355D01*
Y-66404D01*
X755857Y-66929D01*
X758481Y-67979D02*
Y-64830D01*
X760055D01*
X760580Y-65355D01*
Y-66404D01*
X760055Y-66929D01*
X758481D01*
X764778Y-63781D02*
Y-66929D01*
X766877D01*
X768451Y-64830D02*
X769501D01*
X770026Y-65355D01*
Y-66929D01*
X768451D01*
X767927Y-66404D01*
X768451Y-65880D01*
X770026D01*
X771075Y-64830D02*
Y-66404D01*
X771600Y-66929D01*
X773174D01*
Y-67454D01*
X772650Y-67979D01*
X772125D01*
X773174Y-66929D02*
Y-64830D01*
X775798Y-66929D02*
X774749D01*
X774224Y-66404D01*
Y-65355D01*
X774749Y-64830D01*
X775798D01*
X776323Y-65355D01*
Y-65880D01*
X774224D01*
X777373Y-64830D02*
Y-66929D01*
Y-65880D01*
X777897Y-65355D01*
X778422Y-64830D01*
X778947D01*
X783670Y-65355D02*
X785769D01*
X789967Y-63781D02*
Y-66929D01*
X791541D01*
X792066Y-66404D01*
Y-65880D01*
X791541Y-65355D01*
X789967D01*
X791541D01*
X792066Y-64830D01*
Y-64305D01*
X791541Y-63781D01*
X789967D01*
X793640Y-66929D02*
X794690D01*
X795215Y-66404D01*
Y-65355D01*
X794690Y-64830D01*
X793640D01*
X793115Y-65355D01*
Y-66404D01*
X793640Y-66929D01*
X796789Y-64305D02*
Y-64830D01*
X796264D01*
X797313D01*
X796789D01*
Y-66404D01*
X797313Y-66929D01*
X799413Y-64305D02*
Y-64830D01*
X798888D01*
X799937D01*
X799413D01*
Y-66404D01*
X799937Y-66929D01*
X802036D02*
X803086D01*
X803611Y-66404D01*
Y-65355D01*
X803086Y-64830D01*
X802036D01*
X801512Y-65355D01*
Y-66404D01*
X802036Y-66929D01*
X804660D02*
Y-64830D01*
X805185D01*
X805710Y-65355D01*
Y-66929D01*
Y-65355D01*
X806234Y-64830D01*
X806759Y-65355D01*
Y-66929D01*
X810957Y-63781D02*
Y-66929D01*
X813056D01*
X814631Y-64830D02*
X815680D01*
X816205Y-65355D01*
Y-66929D01*
X814631D01*
X814106Y-66404D01*
X814631Y-65880D01*
X816205D01*
X817255Y-64830D02*
Y-66404D01*
X817779Y-66929D01*
X819354D01*
Y-67454D01*
X818829Y-67979D01*
X818304D01*
X819354Y-66929D02*
Y-64830D01*
X821978Y-66929D02*
X820928D01*
X820403Y-66404D01*
Y-65355D01*
X820928Y-64830D01*
X821978D01*
X822502Y-65355D01*
Y-65880D01*
X820403D01*
X823552Y-64830D02*
Y-66929D01*
Y-65880D01*
X824076Y-65355D01*
X824601Y-64830D01*
X825126D01*
X752184Y-71655D02*
X754283D01*
X753233D01*
Y-74803D01*
X755857D02*
X756907D01*
X757431Y-74278D01*
Y-73229D01*
X756907Y-72704D01*
X755857D01*
X755332Y-73229D01*
Y-74278D01*
X755857Y-74803D01*
X758481Y-75853D02*
Y-72704D01*
X760055D01*
X760580Y-73229D01*
Y-74278D01*
X760055Y-74803D01*
X758481D01*
X764778Y-71655D02*
Y-74803D01*
X766877D01*
X768451Y-72704D02*
X769501D01*
X770026Y-73229D01*
Y-74803D01*
X768451D01*
X767927Y-74278D01*
X768451Y-73754D01*
X770026D01*
X771075Y-72704D02*
Y-74278D01*
X771600Y-74803D01*
X773174D01*
Y-75328D01*
X772650Y-75853D01*
X772125D01*
X773174Y-74803D02*
Y-72704D01*
X775798Y-74803D02*
X774749D01*
X774224Y-74278D01*
Y-73229D01*
X774749Y-72704D01*
X775798D01*
X776323Y-73229D01*
Y-73754D01*
X774224D01*
X777373Y-72704D02*
Y-74803D01*
Y-73754D01*
X777897Y-73229D01*
X778422Y-72704D01*
X778947D01*
X783670Y-73229D02*
X785769D01*
X789967Y-71655D02*
Y-74803D01*
X791541D01*
X792066Y-74278D01*
Y-73754D01*
X791541Y-73229D01*
X789967D01*
X791541D01*
X792066Y-72704D01*
Y-72179D01*
X791541Y-71655D01*
X789967D01*
X793640Y-74803D02*
X794690D01*
X795215Y-74278D01*
Y-73229D01*
X794690Y-72704D01*
X793640D01*
X793115Y-73229D01*
Y-74278D01*
X793640Y-74803D01*
X796789Y-72179D02*
Y-72704D01*
X796264D01*
X797313D01*
X796789D01*
Y-74278D01*
X797313Y-74803D01*
X799413Y-72179D02*
Y-72704D01*
X798888D01*
X799937D01*
X799413D01*
Y-74278D01*
X799937Y-74803D01*
X802036D02*
X803086D01*
X803611Y-74278D01*
Y-73229D01*
X803086Y-72704D01*
X802036D01*
X801512Y-73229D01*
Y-74278D01*
X802036Y-74803D01*
X804660D02*
Y-72704D01*
X805185D01*
X805710Y-73229D01*
Y-74803D01*
Y-73229D01*
X806234Y-72704D01*
X806759Y-73229D01*
Y-74803D01*
X810957Y-71655D02*
Y-74803D01*
X813056D01*
X814631Y-72704D02*
X815680D01*
X816205Y-73229D01*
Y-74803D01*
X814631D01*
X814106Y-74278D01*
X814631Y-73754D01*
X816205D01*
X817255Y-72704D02*
Y-74278D01*
X817779Y-74803D01*
X819354D01*
Y-75328D01*
X818829Y-75853D01*
X818304D01*
X819354Y-74803D02*
Y-72704D01*
X821978Y-74803D02*
X820928D01*
X820403Y-74278D01*
Y-73229D01*
X820928Y-72704D01*
X821978D01*
X822502Y-73229D01*
Y-73754D01*
X820403D01*
X823552Y-72704D02*
Y-74803D01*
Y-73754D01*
X824076Y-73229D01*
X824601Y-72704D01*
X825126D01*
X752184Y-79529D02*
X754283D01*
X753233D01*
Y-82677D01*
X755857D02*
X756907D01*
X757431Y-82152D01*
Y-81103D01*
X756907Y-80578D01*
X755857D01*
X755332Y-81103D01*
Y-82152D01*
X755857Y-82677D01*
X758481Y-83727D02*
Y-80578D01*
X760055D01*
X760580Y-81103D01*
Y-82152D01*
X760055Y-82677D01*
X758481D01*
X764778Y-79529D02*
Y-82677D01*
X766877D01*
X768451Y-80578D02*
X769501D01*
X770026Y-81103D01*
Y-82677D01*
X768451D01*
X767927Y-82152D01*
X768451Y-81628D01*
X770026D01*
X771075Y-80578D02*
Y-82152D01*
X771600Y-82677D01*
X773174D01*
Y-83202D01*
X772650Y-83727D01*
X772125D01*
X773174Y-82677D02*
Y-80578D01*
X775798Y-82677D02*
X774749D01*
X774224Y-82152D01*
Y-81103D01*
X774749Y-80578D01*
X775798D01*
X776323Y-81103D01*
Y-81628D01*
X774224D01*
X777373Y-80578D02*
Y-82677D01*
Y-81628D01*
X777897Y-81103D01*
X778422Y-80578D01*
X778947D01*
X783670Y-81103D02*
X785769D01*
X789967Y-79529D02*
Y-82677D01*
X791541D01*
X792066Y-82152D01*
Y-81628D01*
X791541Y-81103D01*
X789967D01*
X791541D01*
X792066Y-80578D01*
Y-80053D01*
X791541Y-79529D01*
X789967D01*
X793640Y-82677D02*
X794690D01*
X795215Y-82152D01*
Y-81103D01*
X794690Y-80578D01*
X793640D01*
X793115Y-81103D01*
Y-82152D01*
X793640Y-82677D01*
X796789Y-80053D02*
Y-80578D01*
X796264D01*
X797313D01*
X796789D01*
Y-82152D01*
X797313Y-82677D01*
X799413Y-80053D02*
Y-80578D01*
X798888D01*
X799937D01*
X799413D01*
Y-82152D01*
X799937Y-82677D01*
X802036D02*
X803086D01*
X803611Y-82152D01*
Y-81103D01*
X803086Y-80578D01*
X802036D01*
X801512Y-81103D01*
Y-82152D01*
X802036Y-82677D01*
X804660D02*
Y-80578D01*
X805185D01*
X805710Y-81103D01*
Y-82677D01*
Y-81103D01*
X806234Y-80578D01*
X806759Y-81103D01*
Y-82677D01*
X810957Y-79529D02*
Y-82677D01*
X813056D01*
X814631Y-80578D02*
X815680D01*
X816205Y-81103D01*
Y-82677D01*
X814631D01*
X814106Y-82152D01*
X814631Y-81628D01*
X816205D01*
X817255Y-80578D02*
Y-82152D01*
X817779Y-82677D01*
X819354D01*
Y-83202D01*
X818829Y-83727D01*
X818304D01*
X819354Y-82677D02*
Y-80578D01*
X821978Y-82677D02*
X820928D01*
X820403Y-82152D01*
Y-81103D01*
X820928Y-80578D01*
X821978D01*
X822502Y-81103D01*
Y-81628D01*
X820403D01*
X823552Y-80578D02*
Y-82677D01*
Y-81628D01*
X824076Y-81103D01*
X824601Y-80578D01*
X825126D01*
X752184Y-87403D02*
X754283D01*
X753233D01*
Y-90551D01*
X755857D02*
X756907D01*
X757431Y-90026D01*
Y-88977D01*
X756907Y-88452D01*
X755857D01*
X755332Y-88977D01*
Y-90026D01*
X755857Y-90551D01*
X758481Y-91601D02*
Y-88452D01*
X760055D01*
X760580Y-88977D01*
Y-90026D01*
X760055Y-90551D01*
X758481D01*
X764778Y-87403D02*
Y-90551D01*
X766877D01*
X768451Y-88452D02*
X769501D01*
X770026Y-88977D01*
Y-90551D01*
X768451D01*
X767927Y-90026D01*
X768451Y-89502D01*
X770026D01*
X771075Y-88452D02*
Y-90026D01*
X771600Y-90551D01*
X773174D01*
Y-91076D01*
X772650Y-91601D01*
X772125D01*
X773174Y-90551D02*
Y-88452D01*
X775798Y-90551D02*
X774749D01*
X774224Y-90026D01*
Y-88977D01*
X774749Y-88452D01*
X775798D01*
X776323Y-88977D01*
Y-89502D01*
X774224D01*
X777373Y-88452D02*
Y-90551D01*
Y-89502D01*
X777897Y-88977D01*
X778422Y-88452D01*
X778947D01*
X783670Y-88977D02*
X785769D01*
X789967Y-87403D02*
Y-90551D01*
X791541D01*
X792066Y-90026D01*
Y-89502D01*
X791541Y-88977D01*
X789967D01*
X791541D01*
X792066Y-88452D01*
Y-87927D01*
X791541Y-87403D01*
X789967D01*
X793640Y-90551D02*
X794690D01*
X795215Y-90026D01*
Y-88977D01*
X794690Y-88452D01*
X793640D01*
X793115Y-88977D01*
Y-90026D01*
X793640Y-90551D01*
X796789Y-87927D02*
Y-88452D01*
X796264D01*
X797313D01*
X796789D01*
Y-90026D01*
X797313Y-90551D01*
X799413Y-87927D02*
Y-88452D01*
X798888D01*
X799937D01*
X799413D01*
Y-90026D01*
X799937Y-90551D01*
X802036D02*
X803086D01*
X803611Y-90026D01*
Y-88977D01*
X803086Y-88452D01*
X802036D01*
X801512Y-88977D01*
Y-90026D01*
X802036Y-90551D01*
X804660D02*
Y-88452D01*
X805185D01*
X805710Y-88977D01*
Y-90551D01*
Y-88977D01*
X806234Y-88452D01*
X806759Y-88977D01*
Y-90551D01*
X810957Y-87403D02*
Y-90551D01*
X813056D01*
X814631Y-88452D02*
X815680D01*
X816205Y-88977D01*
Y-90551D01*
X814631D01*
X814106Y-90026D01*
X814631Y-89502D01*
X816205D01*
X817255Y-88452D02*
Y-90026D01*
X817779Y-90551D01*
X819354D01*
Y-91076D01*
X818829Y-91601D01*
X818304D01*
X819354Y-90551D02*
Y-88452D01*
X821978Y-90551D02*
X820928D01*
X820403Y-90026D01*
Y-88977D01*
X820928Y-88452D01*
X821978D01*
X822502Y-88977D01*
Y-89502D01*
X820403D01*
X823552Y-88452D02*
Y-90551D01*
Y-89502D01*
X824076Y-88977D01*
X824601Y-88452D01*
X825126D01*
X752184Y-95277D02*
X754283D01*
X753233D01*
Y-98425D01*
X755857D02*
X756907D01*
X757431Y-97900D01*
Y-96851D01*
X756907Y-96326D01*
X755857D01*
X755332Y-96851D01*
Y-97900D01*
X755857Y-98425D01*
X758481Y-99475D02*
Y-96326D01*
X760055D01*
X760580Y-96851D01*
Y-97900D01*
X760055Y-98425D01*
X758481D01*
X764778Y-95277D02*
Y-98425D01*
X766877D01*
X768451Y-96326D02*
X769501D01*
X770026Y-96851D01*
Y-98425D01*
X768451D01*
X767927Y-97900D01*
X768451Y-97376D01*
X770026D01*
X771075Y-96326D02*
Y-97900D01*
X771600Y-98425D01*
X773174D01*
Y-98950D01*
X772650Y-99475D01*
X772125D01*
X773174Y-98425D02*
Y-96326D01*
X775798Y-98425D02*
X774749D01*
X774224Y-97900D01*
Y-96851D01*
X774749Y-96326D01*
X775798D01*
X776323Y-96851D01*
Y-97376D01*
X774224D01*
X777373Y-96326D02*
Y-98425D01*
Y-97376D01*
X777897Y-96851D01*
X778422Y-96326D01*
X778947D01*
X783670Y-96851D02*
X785769D01*
X789967Y-95277D02*
Y-98425D01*
X791541D01*
X792066Y-97900D01*
Y-97376D01*
X791541Y-96851D01*
X789967D01*
X791541D01*
X792066Y-96326D01*
Y-95801D01*
X791541Y-95277D01*
X789967D01*
X793640Y-98425D02*
X794690D01*
X795215Y-97900D01*
Y-96851D01*
X794690Y-96326D01*
X793640D01*
X793115Y-96851D01*
Y-97900D01*
X793640Y-98425D01*
X796789Y-95801D02*
Y-96326D01*
X796264D01*
X797313D01*
X796789D01*
Y-97900D01*
X797313Y-98425D01*
X799413Y-95801D02*
Y-96326D01*
X798888D01*
X799937D01*
X799413D01*
Y-97900D01*
X799937Y-98425D01*
X802036D02*
X803086D01*
X803611Y-97900D01*
Y-96851D01*
X803086Y-96326D01*
X802036D01*
X801512Y-96851D01*
Y-97900D01*
X802036Y-98425D01*
X804660D02*
Y-96326D01*
X805185D01*
X805710Y-96851D01*
Y-98425D01*
Y-96851D01*
X806234Y-96326D01*
X806759Y-96851D01*
Y-98425D01*
X810957Y-95277D02*
Y-98425D01*
X813056D01*
X814631Y-96326D02*
X815680D01*
X816205Y-96851D01*
Y-98425D01*
X814631D01*
X814106Y-97900D01*
X814631Y-97376D01*
X816205D01*
X817255Y-96326D02*
Y-97900D01*
X817779Y-98425D01*
X819354D01*
Y-98950D01*
X818829Y-99475D01*
X818304D01*
X819354Y-98425D02*
Y-96326D01*
X821978Y-98425D02*
X820928D01*
X820403Y-97900D01*
Y-96851D01*
X820928Y-96326D01*
X821978D01*
X822502Y-96851D01*
Y-97376D01*
X820403D01*
X823552Y-96326D02*
Y-98425D01*
Y-97376D01*
X824076Y-96851D01*
X824601Y-96326D01*
X825126D01*
X752184Y-103151D02*
X754283D01*
X753233D01*
Y-106299D01*
X755857D02*
X756907D01*
X757431Y-105774D01*
Y-104725D01*
X756907Y-104200D01*
X755857D01*
X755332Y-104725D01*
Y-105774D01*
X755857Y-106299D01*
X758481Y-107349D02*
Y-104200D01*
X760055D01*
X760580Y-104725D01*
Y-105774D01*
X760055Y-106299D01*
X758481D01*
X764778Y-103151D02*
Y-106299D01*
X766877D01*
X768451Y-104200D02*
X769501D01*
X770026Y-104725D01*
Y-106299D01*
X768451D01*
X767927Y-105774D01*
X768451Y-105250D01*
X770026D01*
X771075Y-104200D02*
Y-105774D01*
X771600Y-106299D01*
X773174D01*
Y-106824D01*
X772650Y-107349D01*
X772125D01*
X773174Y-106299D02*
Y-104200D01*
X775798Y-106299D02*
X774749D01*
X774224Y-105774D01*
Y-104725D01*
X774749Y-104200D01*
X775798D01*
X776323Y-104725D01*
Y-105250D01*
X774224D01*
X777373Y-104200D02*
Y-106299D01*
Y-105250D01*
X777897Y-104725D01*
X778422Y-104200D01*
X778947D01*
X783670Y-104725D02*
X785769D01*
X789967Y-103151D02*
Y-106299D01*
X791541D01*
X792066Y-105774D01*
Y-105250D01*
X791541Y-104725D01*
X789967D01*
X791541D01*
X792066Y-104200D01*
Y-103675D01*
X791541Y-103151D01*
X789967D01*
X793640Y-106299D02*
X794690D01*
X795215Y-105774D01*
Y-104725D01*
X794690Y-104200D01*
X793640D01*
X793115Y-104725D01*
Y-105774D01*
X793640Y-106299D01*
X796789Y-103675D02*
Y-104200D01*
X796264D01*
X797313D01*
X796789D01*
Y-105774D01*
X797313Y-106299D01*
X799413Y-103675D02*
Y-104200D01*
X798888D01*
X799937D01*
X799413D01*
Y-105774D01*
X799937Y-106299D01*
X802036D02*
X803086D01*
X803611Y-105774D01*
Y-104725D01*
X803086Y-104200D01*
X802036D01*
X801512Y-104725D01*
Y-105774D01*
X802036Y-106299D01*
X804660D02*
Y-104200D01*
X805185D01*
X805710Y-104725D01*
Y-106299D01*
Y-104725D01*
X806234Y-104200D01*
X806759Y-104725D01*
Y-106299D01*
X810957Y-103151D02*
Y-106299D01*
X813056D01*
X814631Y-104200D02*
X815680D01*
X816205Y-104725D01*
Y-106299D01*
X814631D01*
X814106Y-105774D01*
X814631Y-105250D01*
X816205D01*
X817255Y-104200D02*
Y-105774D01*
X817779Y-106299D01*
X819354D01*
Y-106824D01*
X818829Y-107349D01*
X818304D01*
X819354Y-106299D02*
Y-104200D01*
X821978Y-106299D02*
X820928D01*
X820403Y-105774D01*
Y-104725D01*
X820928Y-104200D01*
X821978D01*
X822502Y-104725D01*
Y-105250D01*
X820403D01*
X823552Y-104200D02*
Y-106299D01*
Y-105250D01*
X824076Y-104725D01*
X824601Y-104200D01*
X825126D01*
X713454Y-59055D02*
Y-55906D01*
X715028D01*
X715553Y-56431D01*
Y-57481D01*
X715028Y-58006D01*
X713454D01*
X714503D02*
X715553Y-59055D01*
X717127D02*
X718177D01*
X718702Y-58530D01*
Y-57481D01*
X718177Y-56956D01*
X717127D01*
X716603Y-57481D01*
Y-58530D01*
X717127Y-59055D01*
X719751Y-56956D02*
Y-58530D01*
X720276Y-59055D01*
X721850D01*
Y-56956D01*
X722900Y-59055D02*
Y-56956D01*
X724474D01*
X724999Y-57481D01*
Y-59055D01*
X728147Y-55906D02*
Y-59055D01*
X726573D01*
X726048Y-58530D01*
Y-57481D01*
X726573Y-56956D01*
X728147D01*
X713454Y-66929D02*
Y-63781D01*
X715028D01*
X715553Y-64305D01*
Y-65355D01*
X715028Y-65880D01*
X713454D01*
X714503D02*
X715553Y-66929D01*
X717127D02*
X718177D01*
X718702Y-66404D01*
Y-65355D01*
X718177Y-64830D01*
X717127D01*
X716603Y-65355D01*
Y-66404D01*
X717127Y-66929D01*
X719751Y-64830D02*
Y-66404D01*
X720276Y-66929D01*
X721850D01*
Y-64830D01*
X722900Y-66929D02*
Y-64830D01*
X724474D01*
X724999Y-65355D01*
Y-66929D01*
X728147Y-63781D02*
Y-66929D01*
X726573D01*
X726048Y-66404D01*
Y-65355D01*
X726573Y-64830D01*
X728147D01*
X713454Y-74803D02*
Y-71655D01*
X715028D01*
X715553Y-72179D01*
Y-73229D01*
X715028Y-73754D01*
X713454D01*
X714503D02*
X715553Y-74803D01*
X717127D02*
X718177D01*
X718702Y-74278D01*
Y-73229D01*
X718177Y-72704D01*
X717127D01*
X716603Y-73229D01*
Y-74278D01*
X717127Y-74803D01*
X719751Y-72704D02*
Y-74278D01*
X720276Y-74803D01*
X721850D01*
Y-72704D01*
X722900Y-74803D02*
Y-72704D01*
X724474D01*
X724999Y-73229D01*
Y-74803D01*
X728147Y-71655D02*
Y-74803D01*
X726573D01*
X726048Y-74278D01*
Y-73229D01*
X726573Y-72704D01*
X728147D01*
X713454Y-82677D02*
Y-79529D01*
X715028D01*
X715553Y-80053D01*
Y-81103D01*
X715028Y-81628D01*
X713454D01*
X714503D02*
X715553Y-82677D01*
X717127D02*
X718177D01*
X718702Y-82152D01*
Y-81103D01*
X718177Y-80578D01*
X717127D01*
X716603Y-81103D01*
Y-82152D01*
X717127Y-82677D01*
X719751Y-80578D02*
Y-82152D01*
X720276Y-82677D01*
X721850D01*
Y-80578D01*
X722900Y-82677D02*
Y-80578D01*
X724474D01*
X724999Y-81103D01*
Y-82677D01*
X728147Y-79529D02*
Y-82677D01*
X726573D01*
X726048Y-82152D01*
Y-81103D01*
X726573Y-80578D01*
X728147D01*
X713454Y-90551D02*
Y-87403D01*
X715028D01*
X715553Y-87927D01*
Y-88977D01*
X715028Y-89502D01*
X713454D01*
X714503D02*
X715553Y-90551D01*
X717127D02*
X718177D01*
X718702Y-90026D01*
Y-88977D01*
X718177Y-88452D01*
X717127D01*
X716603Y-88977D01*
Y-90026D01*
X717127Y-90551D01*
X719751Y-88452D02*
Y-90026D01*
X720276Y-90551D01*
X721850D01*
Y-88452D01*
X722900Y-90551D02*
Y-88452D01*
X724474D01*
X724999Y-88977D01*
Y-90551D01*
X728147Y-87403D02*
Y-90551D01*
X726573D01*
X726048Y-90026D01*
Y-88977D01*
X726573Y-88452D01*
X728147D01*
X713454Y-98425D02*
Y-95277D01*
X715028D01*
X715553Y-95801D01*
Y-96851D01*
X715028Y-97376D01*
X713454D01*
X714503D02*
X715553Y-98425D01*
X717127D02*
X718177D01*
X718702Y-97900D01*
Y-96851D01*
X718177Y-96326D01*
X717127D01*
X716603Y-96851D01*
Y-97900D01*
X717127Y-98425D01*
X719751Y-96326D02*
Y-97900D01*
X720276Y-98425D01*
X721850D01*
Y-96326D01*
X722900Y-98425D02*
Y-96326D01*
X724474D01*
X724999Y-96851D01*
Y-98425D01*
X728147Y-95277D02*
Y-98425D01*
X726573D01*
X726048Y-97900D01*
Y-96851D01*
X726573Y-96326D01*
X728147D01*
X713454Y-106299D02*
Y-103151D01*
X715028D01*
X715553Y-103675D01*
Y-104725D01*
X715028Y-105250D01*
X713454D01*
X714503D02*
X715553Y-106299D01*
X717127D02*
X718177D01*
X718702Y-105774D01*
Y-104725D01*
X718177Y-104200D01*
X717127D01*
X716603Y-104725D01*
Y-105774D01*
X717127Y-106299D01*
X719751Y-104200D02*
Y-105774D01*
X720276Y-106299D01*
X721850D01*
Y-104200D01*
X722900Y-106299D02*
Y-104200D01*
X724474D01*
X724999Y-104725D01*
Y-106299D01*
X728147Y-103151D02*
Y-106299D01*
X726573D01*
X726048Y-105774D01*
Y-104725D01*
X726573Y-104200D01*
X728147D01*
X686689Y-59055D02*
Y-55906D01*
X688263D01*
X688788Y-56431D01*
Y-57481D01*
X688263Y-58006D01*
X686689D01*
X689837Y-55906D02*
X691936D01*
X690887D01*
Y-59055D01*
X692986Y-55906D02*
Y-59055D01*
Y-57481D01*
X695085D01*
Y-55906D01*
Y-59055D01*
X686689Y-66929D02*
Y-63781D01*
X688788Y-66929D01*
Y-63781D01*
X689837Y-66929D02*
Y-63781D01*
X691412D01*
X691936Y-64305D01*
Y-65355D01*
X691412Y-65880D01*
X689837D01*
X692986Y-63781D02*
X695085D01*
X694035D01*
Y-66929D01*
X696135Y-63781D02*
Y-66929D01*
Y-65355D01*
X698234D01*
Y-63781D01*
Y-66929D01*
X686689Y-74803D02*
Y-71655D01*
X688263D01*
X688788Y-72179D01*
Y-73229D01*
X688263Y-73754D01*
X686689D01*
X689837Y-71655D02*
X691936D01*
X690887D01*
Y-74803D01*
X692986Y-71655D02*
Y-74803D01*
Y-73229D01*
X695085D01*
Y-71655D01*
Y-74803D01*
X686689Y-82677D02*
Y-79529D01*
X688263D01*
X688788Y-80053D01*
Y-81103D01*
X688263Y-81628D01*
X686689D01*
X689837Y-79529D02*
X691936D01*
X690887D01*
Y-82677D01*
X692986Y-79529D02*
Y-82677D01*
Y-81103D01*
X695085D01*
Y-79529D01*
Y-82677D01*
X686689Y-90551D02*
Y-87403D01*
X688263D01*
X688788Y-87927D01*
Y-88977D01*
X688263Y-89502D01*
X686689D01*
X689837Y-87403D02*
X691936D01*
X690887D01*
Y-90551D01*
X692986Y-87403D02*
Y-90551D01*
Y-88977D01*
X695085D01*
Y-87403D01*
Y-90551D01*
X686689Y-98425D02*
Y-95277D01*
X688263D01*
X688788Y-95801D01*
Y-96851D01*
X688263Y-97376D01*
X686689D01*
X689837Y-95277D02*
X691936D01*
X690887D01*
Y-98425D01*
X692986Y-95277D02*
Y-98425D01*
Y-96851D01*
X695085D01*
Y-95277D01*
Y-98425D01*
X686689Y-106299D02*
Y-103151D01*
X688263D01*
X688788Y-103675D01*
Y-104725D01*
X688263Y-105250D01*
X686689D01*
X689837Y-103151D02*
X691936D01*
X690887D01*
Y-106299D01*
X692986Y-103151D02*
Y-106299D01*
Y-104725D01*
X695085D01*
Y-103151D01*
Y-106299D01*
X627782Y-56431D02*
X628307Y-55906D01*
X629356D01*
X629881Y-56431D01*
Y-58530D01*
X629356Y-59055D01*
X628307D01*
X627782Y-58530D01*
Y-56431D01*
X630931Y-59055D02*
Y-58530D01*
X631455D01*
Y-59055D01*
X630931D01*
X633554Y-55906D02*
X635653D01*
Y-56431D01*
X633554Y-58530D01*
Y-59055D01*
X638802Y-55906D02*
X636703D01*
Y-57481D01*
X637752Y-56956D01*
X638277D01*
X638802Y-57481D01*
Y-58530D01*
X638277Y-59055D01*
X637228D01*
X636703Y-58530D01*
X639852Y-56431D02*
X640376Y-55906D01*
X641426D01*
X641951Y-56431D01*
Y-58530D01*
X641426Y-59055D01*
X640376D01*
X639852Y-58530D01*
Y-56431D01*
X643000Y-59055D02*
Y-56956D01*
X643525D01*
X644050Y-57481D01*
Y-59055D01*
Y-57481D01*
X644574Y-56956D01*
X645099Y-57481D01*
Y-59055D01*
X646149D02*
Y-56956D01*
X646674D01*
X647198Y-57481D01*
Y-59055D01*
Y-57481D01*
X647723Y-56956D01*
X648248Y-57481D01*
Y-59055D01*
X653496D02*
X652446Y-58006D01*
Y-56956D01*
X653496Y-55906D01*
X657169Y-59055D02*
X655070D01*
X657169Y-56956D01*
Y-56431D01*
X656644Y-55906D01*
X655595D01*
X655070Y-56431D01*
X658218Y-58530D02*
X658743Y-59055D01*
X659793D01*
X660318Y-58530D01*
Y-56431D01*
X659793Y-55906D01*
X658743D01*
X658218Y-56431D01*
Y-56956D01*
X658743Y-57481D01*
X660318D01*
X661367Y-59055D02*
Y-58530D01*
X661892D01*
Y-59055D01*
X661367D01*
X666090Y-55906D02*
X663991D01*
Y-57481D01*
X665040Y-56956D01*
X665565D01*
X666090Y-57481D01*
Y-58530D01*
X665565Y-59055D01*
X664516D01*
X663991Y-58530D01*
X667139Y-56431D02*
X667664Y-55906D01*
X668714D01*
X669239Y-56431D01*
Y-56956D01*
X668714Y-57481D01*
X668189D01*
X668714D01*
X669239Y-58006D01*
Y-58530D01*
X668714Y-59055D01*
X667664D01*
X667139Y-58530D01*
X670288Y-59055D02*
Y-56956D01*
X670813D01*
X671338Y-57481D01*
Y-59055D01*
Y-57481D01*
X671862Y-56956D01*
X672387Y-57481D01*
Y-59055D01*
X673437D02*
X674486D01*
X673961D01*
Y-56956D01*
X673437D01*
X676060Y-59055D02*
X677110D01*
X676585D01*
Y-55906D01*
X676060D01*
X678684Y-59055D02*
X679734Y-58006D01*
Y-56956D01*
X678684Y-55906D01*
X627782Y-64305D02*
X628307Y-63781D01*
X629356D01*
X629881Y-64305D01*
Y-64830D01*
X629356Y-65355D01*
X628831D01*
X629356D01*
X629881Y-65880D01*
Y-66404D01*
X629356Y-66929D01*
X628307D01*
X627782Y-66404D01*
X630931Y-66929D02*
Y-66404D01*
X631455D01*
Y-66929D01*
X630931D01*
X633554Y-64305D02*
X634079Y-63781D01*
X635129D01*
X635653Y-64305D01*
Y-66404D01*
X635129Y-66929D01*
X634079D01*
X633554Y-66404D01*
Y-64305D01*
X636703D02*
X637228Y-63781D01*
X638277D01*
X638802Y-64305D01*
Y-66404D01*
X638277Y-66929D01*
X637228D01*
X636703Y-66404D01*
Y-64305D01*
X639852D02*
X640376Y-63781D01*
X641426D01*
X641951Y-64305D01*
Y-66404D01*
X641426Y-66929D01*
X640376D01*
X639852Y-66404D01*
Y-64305D01*
X643000Y-66929D02*
Y-64830D01*
X643525D01*
X644050Y-65355D01*
Y-66929D01*
Y-65355D01*
X644574Y-64830D01*
X645099Y-65355D01*
Y-66929D01*
X646149D02*
Y-64830D01*
X646674D01*
X647198Y-65355D01*
Y-66929D01*
Y-65355D01*
X647723Y-64830D01*
X648248Y-65355D01*
Y-66929D01*
X653496D02*
X652446Y-65880D01*
Y-64830D01*
X653496Y-63781D01*
X655070Y-66929D02*
X656119D01*
X655595D01*
Y-63781D01*
X655070Y-64305D01*
X657694Y-66929D02*
X658743D01*
X658218D01*
Y-63781D01*
X657694Y-64305D01*
X660318D02*
X660842Y-63781D01*
X661892D01*
X662417Y-64305D01*
Y-64830D01*
X661892Y-65355D01*
X662417Y-65880D01*
Y-66404D01*
X661892Y-66929D01*
X660842D01*
X660318Y-66404D01*
Y-65880D01*
X660842Y-65355D01*
X660318Y-64830D01*
Y-64305D01*
X660842Y-65355D02*
X661892D01*
X663466Y-66929D02*
Y-66404D01*
X663991D01*
Y-66929D01*
X663466D01*
X666090D02*
X667139D01*
X666615D01*
Y-63781D01*
X666090Y-64305D01*
X668714Y-66929D02*
X669763D01*
X669239D01*
Y-63781D01*
X668714Y-64305D01*
X671338Y-66929D02*
Y-64830D01*
X671862D01*
X672387Y-65355D01*
Y-66929D01*
Y-65355D01*
X672912Y-64830D01*
X673437Y-65355D01*
Y-66929D01*
X674486D02*
X675536D01*
X675011D01*
Y-64830D01*
X674486D01*
X677110Y-66929D02*
X678160D01*
X677635D01*
Y-63781D01*
X677110D01*
X679734Y-66929D02*
X680783Y-65880D01*
Y-64830D01*
X679734Y-63781D01*
X627782Y-72179D02*
X628307Y-71655D01*
X629356D01*
X629881Y-72179D01*
Y-72704D01*
X629356Y-73229D01*
X628831D01*
X629356D01*
X629881Y-73754D01*
Y-74278D01*
X629356Y-74803D01*
X628307D01*
X627782Y-74278D01*
X630931Y-74803D02*
Y-74278D01*
X631455D01*
Y-74803D01*
X630931D01*
X633554Y-72179D02*
X634079Y-71655D01*
X635129D01*
X635653Y-72179D01*
Y-74278D01*
X635129Y-74803D01*
X634079D01*
X633554Y-74278D01*
Y-72179D01*
X636703D02*
X637228Y-71655D01*
X638277D01*
X638802Y-72179D01*
Y-74278D01*
X638277Y-74803D01*
X637228D01*
X636703Y-74278D01*
Y-72179D01*
X639852D02*
X640376Y-71655D01*
X641426D01*
X641951Y-72179D01*
Y-74278D01*
X641426Y-74803D01*
X640376D01*
X639852Y-74278D01*
Y-72179D01*
X643000Y-74803D02*
Y-72704D01*
X643525D01*
X644050Y-73229D01*
Y-74803D01*
Y-73229D01*
X644574Y-72704D01*
X645099Y-73229D01*
Y-74803D01*
X646149D02*
Y-72704D01*
X646674D01*
X647198Y-73229D01*
Y-74803D01*
Y-73229D01*
X647723Y-72704D01*
X648248Y-73229D01*
Y-74803D01*
X653496D02*
X652446Y-73754D01*
Y-72704D01*
X653496Y-71655D01*
X655070Y-74803D02*
X656119D01*
X655595D01*
Y-71655D01*
X655070Y-72179D01*
X657694Y-74803D02*
X658743D01*
X658218D01*
Y-71655D01*
X657694Y-72179D01*
X660318D02*
X660842Y-71655D01*
X661892D01*
X662417Y-72179D01*
Y-72704D01*
X661892Y-73229D01*
X662417Y-73754D01*
Y-74278D01*
X661892Y-74803D01*
X660842D01*
X660318Y-74278D01*
Y-73754D01*
X660842Y-73229D01*
X660318Y-72704D01*
Y-72179D01*
X660842Y-73229D02*
X661892D01*
X663466Y-74803D02*
Y-74278D01*
X663991D01*
Y-74803D01*
X663466D01*
X666090D02*
X667139D01*
X666615D01*
Y-71655D01*
X666090Y-72179D01*
X668714Y-74803D02*
X669763D01*
X669239D01*
Y-71655D01*
X668714Y-72179D01*
X671338Y-74803D02*
Y-72704D01*
X671862D01*
X672387Y-73229D01*
Y-74803D01*
Y-73229D01*
X672912Y-72704D01*
X673437Y-73229D01*
Y-74803D01*
X674486D02*
X675536D01*
X675011D01*
Y-72704D01*
X674486D01*
X677110Y-74803D02*
X678160D01*
X677635D01*
Y-71655D01*
X677110D01*
X679734Y-74803D02*
X680783Y-73754D01*
Y-72704D01*
X679734Y-71655D01*
X627782Y-82677D02*
X628831D01*
X628307D01*
Y-79529D01*
X627782Y-80053D01*
X630406Y-82677D02*
Y-82152D01*
X630931D01*
Y-82677D01*
X630406D01*
X633030Y-80053D02*
X633554Y-79529D01*
X634604D01*
X635129Y-80053D01*
Y-80578D01*
X634604Y-81103D01*
X634079D01*
X634604D01*
X635129Y-81628D01*
Y-82152D01*
X634604Y-82677D01*
X633554D01*
X633030Y-82152D01*
X636178Y-80053D02*
X636703Y-79529D01*
X637753D01*
X638277Y-80053D01*
Y-82152D01*
X637753Y-82677D01*
X636703D01*
X636178Y-82152D01*
Y-80053D01*
X639327D02*
X639852Y-79529D01*
X640901D01*
X641426Y-80053D01*
Y-82152D01*
X640901Y-82677D01*
X639852D01*
X639327Y-82152D01*
Y-80053D01*
X642475Y-82677D02*
Y-80578D01*
X643000D01*
X643525Y-81103D01*
Y-82677D01*
Y-81103D01*
X644050Y-80578D01*
X644574Y-81103D01*
Y-82677D01*
X645624D02*
Y-80578D01*
X646149D01*
X646674Y-81103D01*
Y-82677D01*
Y-81103D01*
X647198Y-80578D01*
X647723Y-81103D01*
Y-82677D01*
X652971D02*
X651921Y-81628D01*
Y-80578D01*
X652971Y-79529D01*
X656644D02*
X654545D01*
Y-81103D01*
X655595Y-80578D01*
X656119D01*
X656644Y-81103D01*
Y-82152D01*
X656119Y-82677D01*
X655070D01*
X654545Y-82152D01*
X657694Y-82677D02*
X658743D01*
X658218D01*
Y-79529D01*
X657694Y-80053D01*
X660318Y-82677D02*
Y-82152D01*
X660842D01*
Y-82677D01*
X660318D01*
X662941D02*
X663991D01*
X663466D01*
Y-79529D01*
X662941Y-80053D01*
X665565D02*
X666090Y-79529D01*
X667139D01*
X667664Y-80053D01*
Y-80578D01*
X667139Y-81103D01*
X667664Y-81628D01*
Y-82152D01*
X667139Y-82677D01*
X666090D01*
X665565Y-82152D01*
Y-81628D01*
X666090Y-81103D01*
X665565Y-80578D01*
Y-80053D01*
X666090Y-81103D02*
X667139D01*
X668714Y-82677D02*
Y-80578D01*
X669239D01*
X669763Y-81103D01*
Y-82677D01*
Y-81103D01*
X670288Y-80578D01*
X670813Y-81103D01*
Y-82677D01*
X671862D02*
X672912D01*
X672387D01*
Y-80578D01*
X671862D01*
X674486Y-82677D02*
X675536D01*
X675011D01*
Y-79529D01*
X674486D01*
X677110Y-82677D02*
X678160Y-81628D01*
Y-80578D01*
X677110Y-79529D01*
X627782Y-87927D02*
X628307Y-87403D01*
X629356D01*
X629881Y-87927D01*
Y-90026D01*
X629356Y-90551D01*
X628307D01*
X627782Y-90026D01*
Y-87927D01*
X630931Y-90551D02*
Y-90026D01*
X631455D01*
Y-90551D01*
X630931D01*
X633554Y-87927D02*
X634079Y-87403D01*
X635129D01*
X635653Y-87927D01*
Y-88452D01*
X635129Y-88977D01*
X634604D01*
X635129D01*
X635653Y-89502D01*
Y-90026D01*
X635129Y-90551D01*
X634079D01*
X633554Y-90026D01*
X636703Y-87927D02*
X637228Y-87403D01*
X638277D01*
X638802Y-87927D01*
Y-90026D01*
X638277Y-90551D01*
X637228D01*
X636703Y-90026D01*
Y-87927D01*
X639852D02*
X640376Y-87403D01*
X641426D01*
X641951Y-87927D01*
Y-90026D01*
X641426Y-90551D01*
X640376D01*
X639852Y-90026D01*
Y-87927D01*
X643000Y-90551D02*
Y-88452D01*
X643525D01*
X644050Y-88977D01*
Y-90551D01*
Y-88977D01*
X644574Y-88452D01*
X645099Y-88977D01*
Y-90551D01*
X646149D02*
Y-88452D01*
X646674D01*
X647198Y-88977D01*
Y-90551D01*
Y-88977D01*
X647723Y-88452D01*
X648248Y-88977D01*
Y-90551D01*
X653496D02*
X652446Y-89502D01*
Y-88452D01*
X653496Y-87403D01*
X655070Y-90551D02*
X656119D01*
X655595D01*
Y-87403D01*
X655070Y-87927D01*
X657694Y-90551D02*
X658743D01*
X658218D01*
Y-87403D01*
X657694Y-87927D01*
X660318Y-90551D02*
Y-90026D01*
X660842D01*
Y-90551D01*
X660318D01*
X662941Y-87927D02*
X663466Y-87403D01*
X664516D01*
X665040Y-87927D01*
Y-88452D01*
X664516Y-88977D01*
X665040Y-89502D01*
Y-90026D01*
X664516Y-90551D01*
X663466D01*
X662941Y-90026D01*
Y-89502D01*
X663466Y-88977D01*
X662941Y-88452D01*
Y-87927D01*
X663466Y-88977D02*
X664516D01*
X666090Y-90551D02*
X667139D01*
X666615D01*
Y-87403D01*
X666090Y-87927D01*
X668714Y-90551D02*
Y-88452D01*
X669239D01*
X669763Y-88977D01*
Y-90551D01*
Y-88977D01*
X670288Y-88452D01*
X670813Y-88977D01*
Y-90551D01*
X671862D02*
X672912D01*
X672387D01*
Y-88452D01*
X671862D01*
X674486Y-90551D02*
X675536D01*
X675011D01*
Y-87403D01*
X674486D01*
X677110Y-90551D02*
X678160Y-89502D01*
Y-88452D01*
X677110Y-87403D01*
X627782Y-98425D02*
X628831D01*
X628307D01*
Y-95277D01*
X627782Y-95801D01*
X630406Y-98425D02*
Y-97900D01*
X630931D01*
Y-98425D01*
X630406D01*
X633030D02*
X634079D01*
X633554D01*
Y-95277D01*
X633030Y-95801D01*
X635653D02*
X636178Y-95277D01*
X637228D01*
X637753Y-95801D01*
Y-97900D01*
X637228Y-98425D01*
X636178D01*
X635653Y-97900D01*
Y-95801D01*
X638802D02*
X639327Y-95277D01*
X640376D01*
X640901Y-95801D01*
Y-97900D01*
X640376Y-98425D01*
X639327D01*
X638802Y-97900D01*
Y-95801D01*
X641951Y-98425D02*
Y-96326D01*
X642476D01*
X643000Y-96851D01*
Y-98425D01*
Y-96851D01*
X643525Y-96326D01*
X644050Y-96851D01*
Y-98425D01*
X645099D02*
Y-96326D01*
X645624D01*
X646149Y-96851D01*
Y-98425D01*
Y-96851D01*
X646674Y-96326D01*
X647198Y-96851D01*
Y-98425D01*
X652446D02*
X651397Y-97376D01*
Y-96326D01*
X652446Y-95277D01*
X655595Y-98425D02*
Y-95277D01*
X654020Y-96851D01*
X656119D01*
X657169Y-95801D02*
X657694Y-95277D01*
X658743D01*
X659268Y-95801D01*
Y-96326D01*
X658743Y-96851D01*
X658218D01*
X658743D01*
X659268Y-97376D01*
Y-97900D01*
X658743Y-98425D01*
X657694D01*
X657169Y-97900D01*
X660318Y-98425D02*
Y-97900D01*
X660842D01*
Y-98425D01*
X660318D01*
X662941Y-95801D02*
X663466Y-95277D01*
X664516D01*
X665040Y-95801D01*
Y-96326D01*
X664516Y-96851D01*
X663991D01*
X664516D01*
X665040Y-97376D01*
Y-97900D01*
X664516Y-98425D01*
X663466D01*
X662941Y-97900D01*
X666090Y-98425D02*
X667139D01*
X666615D01*
Y-95277D01*
X666090Y-95801D01*
X668714Y-98425D02*
Y-96326D01*
X669239D01*
X669763Y-96851D01*
Y-98425D01*
Y-96851D01*
X670288Y-96326D01*
X670813Y-96851D01*
Y-98425D01*
X671862D02*
X672912D01*
X672387D01*
Y-96326D01*
X671862D01*
X674486Y-98425D02*
X675536D01*
X675011D01*
Y-95277D01*
X674486D01*
X677110Y-98425D02*
X678160Y-97376D01*
Y-96326D01*
X677110Y-95277D01*
X627782Y-103675D02*
X628307Y-103151D01*
X629356D01*
X629881Y-103675D01*
Y-105774D01*
X629356Y-106299D01*
X628307D01*
X627782Y-105774D01*
Y-103675D01*
X630931Y-106299D02*
Y-105774D01*
X631455D01*
Y-106299D01*
X630931D01*
X635653D02*
X633554D01*
X635653Y-104200D01*
Y-103675D01*
X635129Y-103151D01*
X634079D01*
X633554Y-103675D01*
X638802Y-103151D02*
X636703D01*
Y-104725D01*
X637752Y-104200D01*
X638277D01*
X638802Y-104725D01*
Y-105774D01*
X638277Y-106299D01*
X637228D01*
X636703Y-105774D01*
X639852Y-103675D02*
X640376Y-103151D01*
X641426D01*
X641951Y-103675D01*
Y-105774D01*
X641426Y-106299D01*
X640376D01*
X639852Y-105774D01*
Y-103675D01*
X643000Y-106299D02*
Y-104200D01*
X643525D01*
X644050Y-104725D01*
Y-106299D01*
Y-104725D01*
X644574Y-104200D01*
X645099Y-104725D01*
Y-106299D01*
X646149D02*
Y-104200D01*
X646674D01*
X647198Y-104725D01*
Y-106299D01*
Y-104725D01*
X647723Y-104200D01*
X648248Y-104725D01*
Y-106299D01*
X653496D02*
X652446Y-105250D01*
Y-104200D01*
X653496Y-103151D01*
X655070Y-105774D02*
X655595Y-106299D01*
X656644D01*
X657169Y-105774D01*
Y-103675D01*
X656644Y-103151D01*
X655595D01*
X655070Y-103675D01*
Y-104200D01*
X655595Y-104725D01*
X657169D01*
X658218Y-106299D02*
Y-105774D01*
X658743D01*
Y-106299D01*
X658218D01*
X660842Y-103675D02*
X661367Y-103151D01*
X662417D01*
X662941Y-103675D01*
Y-104200D01*
X662417Y-104725D01*
X662941Y-105250D01*
Y-105774D01*
X662417Y-106299D01*
X661367D01*
X660842Y-105774D01*
Y-105250D01*
X661367Y-104725D01*
X660842Y-104200D01*
Y-103675D01*
X661367Y-104725D02*
X662417D01*
X665565Y-106299D02*
Y-103151D01*
X663991Y-104725D01*
X666090D01*
X667139Y-106299D02*
Y-104200D01*
X667664D01*
X668189Y-104725D01*
Y-106299D01*
Y-104725D01*
X668714Y-104200D01*
X669239Y-104725D01*
Y-106299D01*
X670288D02*
X671338D01*
X670813D01*
Y-104200D01*
X670288D01*
X672912Y-106299D02*
X673961D01*
X673437D01*
Y-103151D01*
X672912D01*
X675536Y-106299D02*
X676585Y-105250D01*
Y-104200D01*
X675536Y-103151D01*
X596163Y-111549D02*
X596688Y-111025D01*
X597737D01*
X598262Y-111549D01*
Y-112074D01*
X597737Y-112599D01*
X597213D01*
X597737D01*
X598262Y-113124D01*
Y-113648D01*
X597737Y-114173D01*
X596688D01*
X596163Y-113648D01*
X601411Y-114173D02*
X599312D01*
X601411Y-112074D01*
Y-111549D01*
X600886Y-111025D01*
X599836D01*
X599312Y-111549D01*
X602460D02*
X602985Y-111025D01*
X604035D01*
X604559Y-111549D01*
Y-113648D01*
X604035Y-114173D01*
X602985D01*
X602460Y-113648D01*
Y-111549D01*
X608757Y-111025D02*
X610856D01*
X609807D01*
Y-114173D01*
X612431D02*
X613480D01*
X614005Y-113648D01*
Y-112599D01*
X613480Y-112074D01*
X612431D01*
X611906Y-112599D01*
Y-113648D01*
X612431Y-114173D01*
X615579Y-111549D02*
Y-112074D01*
X615055D01*
X616104D01*
X615579D01*
Y-113648D01*
X616104Y-114173D01*
X618203Y-112074D02*
X619253D01*
X619777Y-112599D01*
Y-114173D01*
X618203D01*
X617678Y-113648D01*
X618203Y-113124D01*
X619777D01*
X620827Y-114173D02*
X621876D01*
X621352D01*
Y-111025D01*
X620827D01*
X597737Y-59055D02*
Y-55906D01*
X596163Y-57481D01*
X598262D01*
X597737Y-66929D02*
Y-63781D01*
X596163Y-65355D01*
X598262D01*
X596163Y-72179D02*
X596688Y-71655D01*
X597737D01*
X598262Y-72179D01*
Y-72704D01*
X597737Y-73229D01*
X598262Y-73754D01*
Y-74278D01*
X597737Y-74803D01*
X596688D01*
X596163Y-74278D01*
Y-73754D01*
X596688Y-73229D01*
X596163Y-72704D01*
Y-72179D01*
X596688Y-73229D02*
X597737D01*
X596163Y-82677D02*
X597213D01*
X596688D01*
Y-79529D01*
X596163Y-80053D01*
X600886Y-79529D02*
X599836Y-80053D01*
X598787Y-81103D01*
Y-82152D01*
X599312Y-82677D01*
X600361D01*
X600886Y-82152D01*
Y-81628D01*
X600361Y-81103D01*
X598787D01*
X598262Y-90551D02*
X596163D01*
X598262Y-88452D01*
Y-87927D01*
X597737Y-87403D01*
X596688D01*
X596163Y-87927D01*
X599312D02*
X599836Y-87403D01*
X600886D01*
X601411Y-87927D01*
Y-90026D01*
X600886Y-90551D01*
X599836D01*
X599312Y-90026D01*
Y-87927D01*
X598262Y-98425D02*
X596163D01*
X598262Y-96326D01*
Y-95801D01*
X597737Y-95277D01*
X596688D01*
X596163Y-95801D01*
X599312D02*
X599836Y-95277D01*
X600886D01*
X601411Y-95801D01*
Y-97900D01*
X600886Y-98425D01*
X599836D01*
X599312Y-97900D01*
Y-95801D01*
X598262Y-106299D02*
X596163D01*
X598262Y-104200D01*
Y-103675D01*
X597737Y-103151D01*
X596688D01*
X596163Y-103675D01*
X600886Y-106299D02*
Y-103151D01*
X599312Y-104725D01*
X601411D01*
X602460Y-103675D02*
X602985Y-103151D01*
X604035D01*
X604559Y-103675D01*
Y-104200D01*
X604035Y-104725D01*
X604559Y-105250D01*
Y-105774D01*
X604035Y-106299D01*
X602985D01*
X602460Y-105774D01*
Y-105250D01*
X602985Y-104725D01*
X602460Y-104200D01*
Y-103675D01*
X602985Y-104725D02*
X604035D01*
D13*
X1338197Y-355555D02*
Y-347684D01*
X1342132D01*
X1343444Y-348996D01*
Y-351620D01*
X1342132Y-352931D01*
X1338197D01*
X1340820D02*
X1343444Y-355555D01*
X1350004D02*
X1347380D01*
X1346068Y-354243D01*
Y-351620D01*
X1347380Y-350308D01*
X1350004D01*
X1351316Y-351620D01*
Y-352931D01*
X1346068D01*
X1353940Y-350308D02*
X1356563Y-355555D01*
X1359187Y-350308D01*
X983866Y-387054D02*
Y-394925D01*
X987802D01*
X989114Y-393614D01*
Y-388366D01*
X987802Y-387054D01*
X983866D01*
X995673Y-394925D02*
X993049D01*
X991737Y-393614D01*
Y-390990D01*
X993049Y-389678D01*
X995673D01*
X996985Y-390990D01*
Y-392302D01*
X991737D01*
X999609Y-394925D02*
X1003545D01*
X1004856Y-393614D01*
X1003545Y-392302D01*
X1000921D01*
X999609Y-390990D01*
X1000921Y-389678D01*
X1004856D01*
X1010104Y-397549D02*
X1011416D01*
X1012728Y-396237D01*
Y-389678D01*
X1008792D01*
X1007480Y-390990D01*
Y-393614D01*
X1008792Y-394925D01*
X1012728D01*
X1015352D02*
X1017976D01*
X1016664D01*
Y-389678D01*
X1015352D01*
X1021911Y-394925D02*
Y-389678D01*
X1025847D01*
X1027159Y-390990D01*
Y-394925D01*
X1033718D02*
X1031095D01*
X1029783Y-393614D01*
Y-390990D01*
X1031095Y-389678D01*
X1033718D01*
X1035030Y-390990D01*
Y-392302D01*
X1029783D01*
X1037654Y-389678D02*
Y-394925D01*
Y-392302D01*
X1038966Y-390990D01*
X1040278Y-389678D01*
X1041590D01*
X1180716Y-268944D02*
Y-276815D01*
X1184652D01*
X1185964Y-275503D01*
Y-270256D01*
X1184652Y-268944D01*
X1180716D01*
X1189900Y-276815D02*
X1192523D01*
X1193835Y-275503D01*
Y-272879D01*
X1192523Y-271568D01*
X1189900D01*
X1188588Y-272879D01*
Y-275503D01*
X1189900Y-276815D01*
X1201707Y-271568D02*
X1197771D01*
X1196459Y-272879D01*
Y-275503D01*
X1197771Y-276815D01*
X1201707D01*
X1204331Y-271568D02*
Y-275503D01*
X1205643Y-276815D01*
X1209578D01*
Y-271568D01*
X1212202Y-276815D02*
Y-271568D01*
X1213514D01*
X1214826Y-272879D01*
Y-276815D01*
Y-272879D01*
X1216138Y-271568D01*
X1217450Y-272879D01*
Y-276815D01*
X1224009D02*
X1221385D01*
X1220074Y-275503D01*
Y-272879D01*
X1221385Y-271568D01*
X1224009D01*
X1225321Y-272879D01*
Y-274191D01*
X1220074D01*
X1227945Y-276815D02*
Y-271568D01*
X1231881D01*
X1233193Y-272879D01*
Y-276815D01*
X1237129Y-270256D02*
Y-271568D01*
X1235817D01*
X1238440D01*
X1237129D01*
Y-275503D01*
X1238440Y-276815D01*
X1180716Y-308314D02*
Y-316185D01*
X1185964D01*
X1189900Y-310938D02*
X1192523D01*
X1193835Y-312249D01*
Y-316185D01*
X1189900D01*
X1188588Y-314873D01*
X1189900Y-313561D01*
X1193835D01*
X1196459Y-310938D02*
Y-314873D01*
X1197771Y-316185D01*
X1201707D01*
Y-317497D01*
X1200395Y-318809D01*
X1199083D01*
X1201707Y-316185D02*
Y-310938D01*
X1208266Y-316185D02*
X1205643D01*
X1204331Y-314873D01*
Y-312249D01*
X1205643Y-310938D01*
X1208266D01*
X1209578Y-312249D01*
Y-313561D01*
X1204331D01*
X1212202Y-310938D02*
Y-316185D01*
Y-313561D01*
X1213514Y-312249D01*
X1214826Y-310938D01*
X1216138D01*
X1227945Y-316185D02*
Y-308314D01*
X1233193Y-316185D01*
Y-308314D01*
X1237129Y-310938D02*
X1239752D01*
X1241064Y-312249D01*
Y-316185D01*
X1237129D01*
X1235817Y-314873D01*
X1237129Y-313561D01*
X1241064D01*
X1243688Y-316185D02*
Y-310938D01*
X1245000D01*
X1246312Y-312249D01*
Y-316185D01*
Y-312249D01*
X1247624Y-310938D01*
X1248936Y-312249D01*
Y-316185D01*
X1255495D02*
X1252872D01*
X1251560Y-314873D01*
Y-312249D01*
X1252872Y-310938D01*
X1255495D01*
X1256807Y-312249D01*
Y-313561D01*
X1251560D01*
X1180716Y-347684D02*
Y-355555D01*
X1184652D01*
X1185964Y-354243D01*
Y-348996D01*
X1184652Y-347684D01*
X1180716D01*
X1189900Y-350308D02*
X1192523D01*
X1193835Y-351620D01*
Y-355555D01*
X1189900D01*
X1188588Y-354243D01*
X1189900Y-352931D01*
X1193835D01*
X1197771Y-348996D02*
Y-350308D01*
X1196459D01*
X1199083D01*
X1197771D01*
Y-354243D01*
X1199083Y-355555D01*
X1206954D02*
X1204331D01*
X1203019Y-354243D01*
Y-351620D01*
X1204331Y-350308D01*
X1206954D01*
X1208266Y-351620D01*
Y-352931D01*
X1203019D01*
X1180716Y-387054D02*
Y-394925D01*
X1184652D01*
X1185964Y-393614D01*
Y-388366D01*
X1184652Y-387054D01*
X1180716D01*
X1189900Y-394925D02*
X1192523D01*
X1193835Y-393614D01*
Y-390990D01*
X1192523Y-389678D01*
X1189900D01*
X1188588Y-390990D01*
Y-393614D01*
X1189900Y-394925D01*
X1201707Y-389678D02*
X1197771D01*
X1196459Y-390990D01*
Y-393614D01*
X1197771Y-394925D01*
X1201707D01*
X1204331Y-389678D02*
Y-393614D01*
X1205643Y-394925D01*
X1209578D01*
Y-389678D01*
X1212202Y-394925D02*
Y-389678D01*
X1213514D01*
X1214826Y-390990D01*
Y-394925D01*
Y-390990D01*
X1216138Y-389678D01*
X1217450Y-390990D01*
Y-394925D01*
X1224009D02*
X1221385D01*
X1220074Y-393614D01*
Y-390990D01*
X1221385Y-389678D01*
X1224009D01*
X1225321Y-390990D01*
Y-392302D01*
X1220074D01*
X1227945Y-394925D02*
Y-389678D01*
X1231881D01*
X1233193Y-390990D01*
Y-394925D01*
X1237129Y-388366D02*
Y-389678D01*
X1235817D01*
X1238440D01*
X1237129D01*
Y-393614D01*
X1238440Y-394925D01*
D39*
X1334260Y-383114D02*
Y-343744D01*
X1176779Y-304374D02*
X1452370D01*
X1176779Y-343744D02*
X1452370D01*
X979929Y-383114D02*
X1452370D01*
X979929Y-265004D02*
X1452370D01*
X979929Y-422484D02*
Y-265004D01*
X1176779Y-422484D02*
Y-265004D01*
X-201173Y746807D02*
X1452370D01*
Y-422484D02*
Y746807D01*
X-201173Y-422484D02*
Y746807D01*
Y-422484D02*
X1452370D01*
X1190557Y-408707D02*
X1186622D01*
Y-414610D01*
X1190557D01*
X1186622Y-411659D02*
X1188590D01*
X1192525Y-408707D02*
Y-414610D01*
X1195477D01*
X1196461Y-413626D01*
Y-409691D01*
X1195477Y-408707D01*
X1192525D01*
X1202365Y-409691D02*
X1201381Y-408707D01*
X1199413D01*
X1198429Y-409691D01*
Y-413626D01*
X1199413Y-414610D01*
X1201381D01*
X1202365Y-413626D01*
Y-411659D01*
X1200397D01*
X1204333Y-414610D02*
Y-410675D01*
X1206300Y-408707D01*
X1208268Y-410675D01*
Y-414610D01*
Y-411659D01*
X1204333D01*
X1210236Y-414610D02*
Y-408707D01*
X1213188D01*
X1214172Y-409691D01*
Y-411659D01*
X1213188Y-412642D01*
X1210236D01*
X1212204D02*
X1214172Y-414610D01*
X1216140Y-415594D02*
X1220076D01*
X1222043Y-414610D02*
Y-408707D01*
X1224995D01*
X1225979Y-409691D01*
Y-411659D01*
X1224995Y-412642D01*
X1222043D01*
X1228931Y-410675D02*
X1230899D01*
X1231883Y-411659D01*
Y-414610D01*
X1228931D01*
X1227947Y-413626D01*
X1228931Y-412642D01*
X1231883D01*
X1233850Y-414610D02*
Y-410675D01*
X1236802D01*
X1237786Y-411659D01*
Y-414610D01*
X1242706D02*
X1240738D01*
X1239754Y-413626D01*
Y-411659D01*
X1240738Y-410675D01*
X1242706D01*
X1243690Y-411659D01*
Y-412642D01*
X1239754D01*
X1245658Y-414610D02*
X1247626D01*
X1246642D01*
Y-408707D01*
X1245658D01*
X1250577Y-415594D02*
X1254513D01*
X1256481Y-409691D02*
X1257465Y-408707D01*
X1259433D01*
X1260417Y-409691D01*
Y-413626D01*
X1259433Y-414610D01*
X1257465D01*
X1256481Y-413626D01*
Y-409691D01*
X1262385D02*
X1263369Y-408707D01*
X1265336D01*
X1266320Y-409691D01*
Y-413626D01*
X1265336Y-414610D01*
X1263369D01*
X1262385Y-413626D01*
Y-409691D01*
X1268288Y-414610D02*
Y-413626D01*
X1269272D01*
Y-414610D01*
X1268288D01*
X1273208D02*
Y-408707D01*
X1276160D01*
X1277144Y-409691D01*
Y-411659D01*
X1276160Y-412642D01*
X1273208D01*
X1283047Y-410675D02*
X1280095D01*
X1279111Y-411659D01*
Y-413626D01*
X1280095Y-414610D01*
X1283047D01*
X1285015Y-408707D02*
Y-414610D01*
X1287967D01*
X1288951Y-413626D01*
Y-412642D01*
Y-411659D01*
X1287967Y-410675D01*
X1285015D01*
X1290919Y-408707D02*
Y-414610D01*
X1293871D01*
X1294854Y-413626D01*
Y-409691D01*
X1293871Y-408707D01*
X1290919D01*
X1297806Y-414610D02*
X1299774D01*
X1300758Y-413626D01*
Y-411659D01*
X1299774Y-410675D01*
X1297806D01*
X1296822Y-411659D01*
Y-413626D01*
X1297806Y-414610D01*
X1306662Y-410675D02*
X1303710D01*
X1302726Y-411659D01*
Y-413626D01*
X1303710Y-414610D01*
X1306662D01*
D98*
X286433Y216535D02*
G03*
X286433Y216535I-1000J0D01*
G01*
X335646D02*
G03*
X335646Y216535I-1000J0D01*
G01*
X247063Y59055D02*
G03*
X247063Y59055I-1000J0D01*
G01*
X197850D02*
G03*
X197850Y59055I-1000J0D01*
G01*
X109268Y216535D02*
G03*
X109268Y216535I-1000J0D01*
G01*
X158480D02*
G03*
X158480Y216535I-1000J0D01*
G01*
X69898Y59055D02*
G03*
X69898Y59055I-1000J0D01*
G01*
X20685D02*
G03*
X20685Y59055I-1000J0D01*
G01*
X241913Y87808D02*
X242413D01*
X241913D02*
Y88808D01*
X242413D01*
Y89308D01*
X243413D01*
Y88808D02*
Y89308D01*
Y88808D02*
X243913D01*
Y87808D02*
Y88808D01*
X243413Y87808D02*
X243913D01*
X243413Y87308D02*
Y87808D01*
X242413Y87308D02*
X243413D01*
X242413D02*
Y87808D01*
X256055Y73666D02*
X256556D01*
X256055D02*
Y74666D01*
X256556D01*
Y75166D01*
X257556D01*
Y74666D02*
Y75166D01*
Y74666D02*
X258055D01*
Y73666D02*
Y74666D01*
X257556Y73666D02*
X258055D01*
X257556Y73166D02*
Y73666D01*
X256556Y73166D02*
X257556D01*
X256556D02*
Y73666D01*
X263127Y66595D02*
X263627D01*
X263127D02*
Y67595D01*
X263627D01*
Y68095D01*
X264627D01*
Y67595D02*
Y68095D01*
Y67595D02*
X265127D01*
Y66595D02*
Y67595D01*
X264627Y66595D02*
X265127D01*
X264627Y66095D02*
Y66595D01*
X263627Y66095D02*
X264627D01*
X263627D02*
Y66595D01*
X231265Y92019D02*
X231765D01*
X231265D02*
Y93019D01*
X231765D01*
Y93519D01*
X232765D01*
Y93019D02*
Y93519D01*
Y93019D02*
X233265D01*
Y92019D02*
Y93019D01*
X232765Y92019D02*
X233265D01*
X232765Y91519D02*
Y92019D01*
X231765Y91519D02*
X232765D01*
X231765D02*
Y92019D01*
X203153Y11901D02*
X203653D01*
X203153D02*
Y12901D01*
X203653D01*
Y13401D01*
X204653D01*
Y12901D02*
Y13401D01*
Y12901D02*
X205153D01*
Y11901D02*
Y12901D01*
X204653Y11901D02*
X205153D01*
X204653Y11401D02*
Y11901D01*
X203653Y11401D02*
X204653D01*
X203653D02*
Y11901D01*
X297862Y108402D02*
X298362D01*
X297862D02*
Y109402D01*
X298362D01*
Y109902D01*
X299362D01*
Y109402D02*
Y109902D01*
Y109402D02*
X299862D01*
Y108402D02*
Y109402D01*
X299362Y108402D02*
X299862D01*
X299362Y107902D02*
Y108402D01*
X298362Y107902D02*
X299362D01*
X298362D02*
Y108402D01*
X280145Y126118D02*
X280645D01*
X280145D02*
Y127118D01*
X280645D01*
Y127618D01*
X281645D01*
Y127118D02*
Y127618D01*
Y127118D02*
X282145D01*
Y126118D02*
Y127118D01*
X281645Y126118D02*
X282145D01*
X281645Y125618D02*
Y126118D01*
X280645Y125618D02*
X281645D01*
X280645D02*
Y126118D01*
X311598Y94578D02*
X312098D01*
X311598D02*
Y95578D01*
X312098D01*
Y96078D01*
X313098D01*
Y95578D02*
Y96078D01*
Y95578D02*
X313598D01*
Y94578D02*
Y95578D01*
X313098Y94578D02*
X313598D01*
X313098Y94078D02*
Y94578D01*
X312098Y94078D02*
X313098D01*
X312098D02*
Y94578D01*
X318291Y88082D02*
X318791D01*
X318291D02*
Y89082D01*
X318791D01*
Y89582D01*
X319791D01*
Y89082D02*
Y89582D01*
Y89082D02*
X320291D01*
Y88082D02*
Y89082D01*
X319791Y88082D02*
X320291D01*
X319791Y87582D02*
Y88082D01*
X318791Y87582D02*
X319791D01*
X318791D02*
Y88082D01*
X230735Y103298D02*
X231235D01*
X230735D02*
Y104298D01*
X231235D01*
Y104798D01*
X232235D01*
Y104298D02*
Y104798D01*
Y104298D02*
X232735D01*
Y103298D02*
Y104298D01*
X232235Y103298D02*
X232735D01*
X232235Y102798D02*
Y103298D01*
X231235Y102798D02*
X232235D01*
X231235D02*
Y103298D01*
X223664Y110369D02*
X224164D01*
X223664D02*
Y111369D01*
X224164D01*
Y111869D01*
X225164D01*
Y111369D02*
Y111869D01*
Y111369D02*
X225664D01*
Y110369D02*
Y111369D01*
X225164Y110369D02*
X225664D01*
X225164Y109869D02*
Y110369D01*
X224164Y109869D02*
X225164D01*
X224164D02*
Y110369D01*
X254709Y228419D02*
X255209D01*
X254709D02*
Y229419D01*
X255209D01*
Y229919D01*
X256209D01*
Y229419D02*
Y229919D01*
Y229419D02*
X256709D01*
Y228419D02*
Y229419D01*
X256209Y228419D02*
X256709D01*
X256209Y227919D02*
Y228419D01*
X255209Y227919D02*
X256209D01*
X255209D02*
Y228419D01*
X258646D02*
X259146D01*
X258646D02*
Y229419D01*
X259146D01*
Y229919D01*
X260146D01*
Y229419D02*
Y229919D01*
Y229419D02*
X260646D01*
Y228419D02*
Y229419D01*
X260146Y228419D02*
X260646D01*
X260146Y227919D02*
Y228419D01*
X259146Y227919D02*
X260146D01*
X259146D02*
Y228419D01*
X231087Y228419D02*
X231587D01*
X231087D02*
Y229419D01*
X231587D01*
Y229919D01*
X232587D01*
Y229419D02*
Y229919D01*
Y229419D02*
X233087D01*
Y228419D02*
Y229419D01*
X232587Y228419D02*
X233087D01*
X232587Y227919D02*
Y228419D01*
X231587Y227919D02*
X232587D01*
X231587D02*
Y228419D01*
X227150D02*
X227650D01*
X227150D02*
Y229419D01*
X227650D01*
Y229919D01*
X228650D01*
Y229419D02*
Y229919D01*
Y229419D02*
X229150D01*
Y228419D02*
Y229419D01*
X228650Y228419D02*
X229150D01*
X228650Y227919D02*
Y228419D01*
X227650Y227919D02*
X228650D01*
X227650D02*
Y228419D01*
X231087Y271726D02*
X231587D01*
X231087D02*
Y272726D01*
X231587D01*
Y273226D01*
X232587D01*
Y272726D02*
Y273226D01*
Y272726D02*
X233087D01*
Y271726D02*
Y272726D01*
X232587Y271726D02*
X233087D01*
X232587Y271226D02*
Y271726D01*
X231587Y271226D02*
X232587D01*
X231587D02*
Y271726D01*
X227150D02*
X227650D01*
X227150D02*
Y272726D01*
X227650D01*
Y273226D01*
X228650D01*
Y272726D02*
Y273226D01*
Y272726D02*
X229150D01*
Y271726D02*
Y272726D01*
X228650Y271726D02*
X229150D01*
X228650Y271226D02*
Y271726D01*
X227650Y271226D02*
X228650D01*
X227650D02*
Y271726D01*
X258646D02*
X259146D01*
X258646D02*
Y272726D01*
X259146D01*
Y273226D01*
X260146D01*
Y272726D02*
Y273226D01*
Y272726D02*
X260646D01*
Y271726D02*
Y272726D01*
X260146Y271726D02*
X260646D01*
X260146Y271226D02*
Y271726D01*
X259146Y271226D02*
X260146D01*
X259146D02*
Y271726D01*
X254709D02*
X255209D01*
X254709D02*
Y272726D01*
X255209D01*
Y273226D01*
X256209D01*
Y272726D02*
Y273226D01*
Y272726D02*
X256709D01*
Y271726D02*
Y272726D01*
X256209Y271726D02*
X256709D01*
X256209Y271226D02*
Y271726D01*
X255209Y271226D02*
X256209D01*
X255209D02*
Y271726D01*
X252937Y238673D02*
X253437D01*
X252937D02*
Y239673D01*
X253437D01*
Y240173D01*
X254437D01*
Y239673D02*
Y240173D01*
Y239673D02*
X254937D01*
Y238673D02*
Y239673D01*
X254437Y238673D02*
X254937D01*
X254437Y238173D02*
Y238673D01*
X253437Y238173D02*
X254437D01*
X253437D02*
Y238673D01*
X252937Y234736D02*
X253437D01*
X252937D02*
Y235736D01*
X253437D01*
Y236236D01*
X254437D01*
Y235736D02*
Y236236D01*
Y235736D02*
X254937D01*
Y234736D02*
Y235736D01*
X254437Y234736D02*
X254937D01*
X254437Y234236D02*
Y234736D01*
X253437Y234236D02*
X254437D01*
X253437D02*
Y234736D01*
X252937Y191429D02*
X253437D01*
X252937D02*
Y192429D01*
X253437D01*
Y192929D01*
X254437D01*
Y192429D02*
Y192929D01*
Y192429D02*
X254937D01*
Y191429D02*
Y192429D01*
X254437Y191429D02*
X254937D01*
X254437Y190929D02*
Y191429D01*
X253437Y190929D02*
X254437D01*
X253437D02*
Y191429D01*
X252937Y195366D02*
X253437D01*
X252937D02*
Y196366D01*
X253437D01*
Y196866D01*
X254437D01*
Y196366D02*
Y196866D01*
Y196366D02*
X254937D01*
Y195366D02*
Y196366D01*
X254437Y195366D02*
X254937D01*
X254437Y194866D02*
Y195366D01*
X253437Y194866D02*
X254437D01*
X253437D02*
Y195366D01*
X270438Y248515D02*
X270938D01*
X270438D02*
Y249515D01*
X270938D01*
Y250015D01*
X271938D01*
Y249515D02*
Y250015D01*
Y249515D02*
X272438D01*
Y248515D02*
Y249515D01*
X271938Y248515D02*
X272438D01*
X271938Y248015D02*
Y248515D01*
X270938Y248015D02*
X271938D01*
X270938D02*
Y248515D01*
X241717Y208555D02*
X242216D01*
X241717D02*
Y209555D01*
X242216D01*
Y210055D01*
X243216D01*
Y209555D02*
Y210055D01*
Y209555D02*
X243717D01*
Y208555D02*
Y209555D01*
X243216Y208555D02*
X243717D01*
X243216Y208055D02*
Y208555D01*
X242216Y208055D02*
X243216D01*
X242216D02*
Y208555D01*
X246047D02*
X246547D01*
X246047D02*
Y209555D01*
X246547D01*
Y210055D01*
X247547D01*
Y209555D02*
Y210055D01*
Y209555D02*
X248047D01*
Y208555D02*
Y209555D01*
X247547Y208555D02*
X248047D01*
X247547Y208055D02*
Y208555D01*
X246547Y208055D02*
X247547D01*
X246547D02*
Y208555D01*
X239354Y211311D02*
X239854D01*
X239354D02*
Y212311D01*
X239854D01*
Y212811D01*
X240854D01*
Y212311D02*
Y212811D01*
Y212311D02*
X241354D01*
Y211311D02*
Y212311D01*
X240854Y211311D02*
X241354D01*
X240854Y210811D02*
Y211311D01*
X239854Y210811D02*
X240854D01*
X239854D02*
Y211311D01*
X248410D02*
X248909D01*
X248410D02*
Y212311D01*
X248909D01*
Y212811D01*
X249909D01*
Y212311D02*
Y212811D01*
Y212311D02*
X250410D01*
Y211311D02*
Y212311D01*
X249909Y211311D02*
X250410D01*
X249909Y210811D02*
Y211311D01*
X248909Y210811D02*
X249909D01*
X248909D02*
Y211311D01*
X241717Y213673D02*
X242216D01*
X241717D02*
Y214673D01*
X242216D01*
Y215173D01*
X243216D01*
Y214673D02*
Y215173D01*
Y214673D02*
X243717D01*
Y213673D02*
Y214673D01*
X243216Y213673D02*
X243717D01*
X243216Y213173D02*
Y213673D01*
X242216Y213173D02*
X243216D01*
X242216D02*
Y213673D01*
X246047D02*
X246547D01*
X246047D02*
Y214673D01*
X246547D01*
Y215173D01*
X247547D01*
Y214673D02*
Y215173D01*
Y214673D02*
X248047D01*
Y213673D02*
Y214673D01*
X247547Y213673D02*
X248047D01*
X247547Y213173D02*
Y213673D01*
X246547Y213173D02*
X247547D01*
X246547D02*
Y213673D01*
X243882Y211311D02*
X244382D01*
X243882D02*
Y212311D01*
X244382D01*
Y212811D01*
X245382D01*
Y212311D02*
Y212811D01*
Y212311D02*
X245882D01*
Y211311D02*
Y212311D01*
X245382Y211311D02*
X245882D01*
X245382Y210811D02*
Y211311D01*
X244382Y210811D02*
X245382D01*
X244382D02*
Y211311D01*
X243882Y193201D02*
X244382D01*
X243882D02*
Y194201D01*
X244382D01*
Y194701D01*
X245382D01*
Y194201D02*
Y194701D01*
Y194201D02*
X245882D01*
Y193201D02*
Y194201D01*
X245382Y193201D02*
X245882D01*
X245382Y192701D02*
Y193201D01*
X244382Y192701D02*
X245382D01*
X244382D02*
Y193201D01*
X246047Y190839D02*
X246547D01*
X246047D02*
Y191839D01*
X246547D01*
Y192339D01*
X247547D01*
Y191839D02*
Y192339D01*
Y191839D02*
X248047D01*
Y190839D02*
Y191839D01*
X247547Y190839D02*
X248047D01*
X247547Y190339D02*
Y190839D01*
X246547Y190339D02*
X247547D01*
X246547D02*
Y190839D01*
X241717D02*
X242216D01*
X241717D02*
Y191839D01*
X242216D01*
Y192339D01*
X243216D01*
Y191839D02*
Y192339D01*
Y191839D02*
X243717D01*
Y190839D02*
Y191839D01*
X243216Y190839D02*
X243717D01*
X243216Y190339D02*
Y190839D01*
X242216Y190339D02*
X243216D01*
X242216D02*
Y190839D01*
X248410Y193201D02*
X248909D01*
X248410D02*
Y194201D01*
X248909D01*
Y194701D01*
X249909D01*
Y194201D02*
Y194701D01*
Y194201D02*
X250410D01*
Y193201D02*
Y194201D01*
X249909Y193201D02*
X250410D01*
X249909Y192701D02*
Y193201D01*
X248909Y192701D02*
X249909D01*
X248909D02*
Y193201D01*
X239354D02*
X239854D01*
X239354D02*
Y194201D01*
X239854D01*
Y194701D01*
X240854D01*
Y194201D02*
Y194701D01*
Y194201D02*
X241354D01*
Y193201D02*
Y194201D01*
X240854Y193201D02*
X241354D01*
X240854Y192701D02*
Y193201D01*
X239854Y192701D02*
X240854D01*
X239854D02*
Y193201D01*
X246047Y195957D02*
X246547D01*
X246047D02*
Y196957D01*
X246547D01*
Y197457D01*
X247547D01*
Y196957D02*
Y197457D01*
Y196957D02*
X248047D01*
Y195957D02*
Y196957D01*
X247547Y195957D02*
X248047D01*
X247547Y195457D02*
Y195957D01*
X246547Y195457D02*
X247547D01*
X246547D02*
Y195957D01*
X241717D02*
X242216D01*
X241717D02*
Y196957D01*
X242216D01*
Y197457D01*
X243216D01*
Y196957D02*
Y197457D01*
Y196957D02*
X243717D01*
Y195957D02*
Y196957D01*
X243216Y195957D02*
X243717D01*
X243216Y195457D02*
Y195957D01*
X242216Y195457D02*
X243216D01*
X242216D02*
Y195957D01*
X243882Y236508D02*
X244382D01*
X243882D02*
Y237508D01*
X244382D01*
Y238008D01*
X245382D01*
Y237508D02*
Y238008D01*
Y237508D02*
X245882D01*
Y236508D02*
Y237508D01*
X245382Y236508D02*
X245882D01*
X245382Y236008D02*
Y236508D01*
X244382Y236008D02*
X245382D01*
X244382D02*
Y236508D01*
X246047Y234146D02*
X246547D01*
X246047D02*
Y235146D01*
X246547D01*
Y235646D01*
X247547D01*
Y235146D02*
Y235646D01*
Y235146D02*
X248047D01*
Y234146D02*
Y235146D01*
X247547Y234146D02*
X248047D01*
X247547Y233646D02*
Y234146D01*
X246547Y233646D02*
X247547D01*
X246547D02*
Y234146D01*
X241717D02*
X242216D01*
X241717D02*
Y235146D01*
X242216D01*
Y235646D01*
X243216D01*
Y235146D02*
Y235646D01*
Y235146D02*
X243717D01*
Y234146D02*
Y235146D01*
X243216Y234146D02*
X243717D01*
X243216Y233646D02*
Y234146D01*
X242216Y233646D02*
X243216D01*
X242216D02*
Y234146D01*
X248410Y236508D02*
X248909D01*
X248410D02*
Y237508D01*
X248909D01*
Y238008D01*
X249909D01*
Y237508D02*
Y238008D01*
Y237508D02*
X250410D01*
Y236508D02*
Y237508D01*
X249909Y236508D02*
X250410D01*
X249909Y236008D02*
Y236508D01*
X248909Y236008D02*
X249909D01*
X248909D02*
Y236508D01*
X239354D02*
X239854D01*
X239354D02*
Y237508D01*
X239854D01*
Y238008D01*
X240854D01*
Y237508D02*
Y238008D01*
Y237508D02*
X241354D01*
Y236508D02*
Y237508D01*
X240854Y236508D02*
X241354D01*
X240854Y236008D02*
Y236508D01*
X239854Y236008D02*
X240854D01*
X239854D02*
Y236508D01*
X246047Y239264D02*
X246547D01*
X246047D02*
Y240264D01*
X246547D01*
Y240764D01*
X247547D01*
Y240264D02*
Y240764D01*
Y240264D02*
X248047D01*
Y239264D02*
Y240264D01*
X247547Y239264D02*
X248047D01*
X247547Y238764D02*
Y239264D01*
X246547Y238764D02*
X247547D01*
X246547D02*
Y239264D01*
X241717D02*
X242216D01*
X241717D02*
Y240264D01*
X242216D01*
Y240764D01*
X243216D01*
Y240264D02*
Y240764D01*
Y240264D02*
X243717D01*
Y239264D02*
Y240264D01*
X243216Y239264D02*
X243717D01*
X243216Y238764D02*
Y239264D01*
X242216Y238764D02*
X243216D01*
X242216D02*
Y239264D01*
X243882Y254618D02*
X244382D01*
X243882D02*
Y255618D01*
X244382D01*
Y256118D01*
X245382D01*
Y255618D02*
Y256118D01*
Y255618D02*
X245882D01*
Y254618D02*
Y255618D01*
X245382Y254618D02*
X245882D01*
X245382Y254118D02*
Y254618D01*
X244382Y254118D02*
X245382D01*
X244382D02*
Y254618D01*
X246047Y256980D02*
X246547D01*
X246047D02*
Y257980D01*
X246547D01*
Y258480D01*
X247547D01*
Y257980D02*
Y258480D01*
Y257980D02*
X248047D01*
Y256980D02*
Y257980D01*
X247547Y256980D02*
X248047D01*
X247547Y256480D02*
Y256980D01*
X246547Y256480D02*
X247547D01*
X246547D02*
Y256980D01*
X241717D02*
X242216D01*
X241717D02*
Y257980D01*
X242216D01*
Y258480D01*
X243216D01*
Y257980D02*
Y258480D01*
Y257980D02*
X243717D01*
Y256980D02*
Y257980D01*
X243216Y256980D02*
X243717D01*
X243216Y256480D02*
Y256980D01*
X242216Y256480D02*
X243216D01*
X242216D02*
Y256980D01*
X248410Y254618D02*
X248909D01*
X248410D02*
Y255618D01*
X248909D01*
Y256118D01*
X249909D01*
Y255618D02*
Y256118D01*
Y255618D02*
X250410D01*
Y254618D02*
Y255618D01*
X249909Y254618D02*
X250410D01*
X249909Y254118D02*
Y254618D01*
X248909Y254118D02*
X249909D01*
X248909D02*
Y254618D01*
X239354D02*
X239854D01*
X239354D02*
Y255618D01*
X239854D01*
Y256118D01*
X240854D01*
Y255618D02*
Y256118D01*
Y255618D02*
X241354D01*
Y254618D02*
Y255618D01*
X240854Y254618D02*
X241354D01*
X240854Y254118D02*
Y254618D01*
X239854Y254118D02*
X240854D01*
X239854D02*
Y254618D01*
X246047Y251862D02*
X246547D01*
X246047D02*
Y252862D01*
X246547D01*
Y253362D01*
X247547D01*
Y252862D02*
Y253362D01*
Y252862D02*
X248047D01*
Y251862D02*
Y252862D01*
X247547Y251862D02*
X248047D01*
X247547Y251362D02*
Y251862D01*
X246547Y251362D02*
X247547D01*
X246547D02*
Y251862D01*
X241717D02*
X242216D01*
X241717D02*
Y252862D01*
X242216D01*
Y253362D01*
X243216D01*
Y252862D02*
Y253362D01*
Y252862D02*
X243717D01*
Y251862D02*
Y252862D01*
X243216Y251862D02*
X243717D01*
X243216Y251362D02*
Y251862D01*
X242216Y251362D02*
X243216D01*
X242216D02*
Y251862D01*
X239354Y231390D02*
X239854D01*
X239354D02*
Y232390D01*
X239854D01*
Y232890D01*
X240854D01*
Y232390D02*
Y232890D01*
Y232390D02*
X241354D01*
Y231390D02*
Y232390D01*
X240854Y231390D02*
X241354D01*
X240854Y230890D02*
Y231390D01*
X239854Y230890D02*
X240854D01*
X239854D02*
Y231390D01*
X248410D02*
X248909D01*
X248410D02*
Y232390D01*
X248909D01*
Y232890D01*
X249909D01*
Y232390D02*
Y232890D01*
Y232390D02*
X250410D01*
Y231390D02*
Y232390D01*
X249909Y231390D02*
X250410D01*
X249909Y230890D02*
Y231390D01*
X248909Y230890D02*
X249909D01*
X248909D02*
Y231390D01*
X243882D02*
X244382D01*
X243882D02*
Y232390D01*
X244382D01*
Y232890D01*
X245382D01*
Y232390D02*
Y232890D01*
Y232390D02*
X245882D01*
Y231390D02*
Y232390D01*
X245382Y231390D02*
X245882D01*
X245382Y230890D02*
Y231390D01*
X244382Y230890D02*
X245382D01*
X244382D02*
Y231390D01*
X239354Y188083D02*
X239854D01*
X239354D02*
Y189083D01*
X239854D01*
Y189583D01*
X240854D01*
Y189083D02*
Y189583D01*
Y189083D02*
X241354D01*
Y188083D02*
Y189083D01*
X240854Y188083D02*
X241354D01*
X240854Y187583D02*
Y188083D01*
X239854Y187583D02*
X240854D01*
X239854D02*
Y188083D01*
X248410D02*
X248909D01*
X248410D02*
Y189083D01*
X248909D01*
Y189583D01*
X249909D01*
Y189083D02*
Y189583D01*
Y189083D02*
X250410D01*
Y188083D02*
Y189083D01*
X249909Y188083D02*
X250410D01*
X249909Y187583D02*
Y188083D01*
X248909Y187583D02*
X249909D01*
X248909D02*
Y188083D01*
X243882D02*
X244382D01*
X243882D02*
Y189083D01*
X244382D01*
Y189583D01*
X245382D01*
Y189083D02*
Y189583D01*
Y189083D02*
X245882D01*
Y188083D02*
Y189083D01*
X245382Y188083D02*
X245882D01*
X245382Y187583D02*
Y188083D01*
X244382Y187583D02*
X245382D01*
X244382D02*
Y188083D01*
X334866Y127807D02*
X335366D01*
X334866D02*
Y128807D01*
X335366D01*
Y129307D01*
X336366D01*
Y128807D02*
Y129307D01*
Y128807D02*
X336866D01*
Y127807D02*
Y128807D01*
X336366Y127807D02*
X336866D01*
X336366Y127307D02*
Y127807D01*
X335366Y127307D02*
X336366D01*
X335366D02*
Y127807D01*
X331677Y130209D02*
X332177D01*
X331677D02*
Y131209D01*
X332177D01*
Y131709D01*
X333177D01*
Y131209D02*
Y131709D01*
Y131209D02*
X333677D01*
Y130209D02*
Y131209D01*
X333177Y130209D02*
X333677D01*
X333177Y129709D02*
Y130209D01*
X332177Y129709D02*
X333177D01*
X332177D02*
Y130209D01*
X298211Y139266D02*
X298711D01*
X298211D02*
Y140266D01*
X298711D01*
Y140766D01*
X299711D01*
Y140266D02*
Y140766D01*
Y140266D02*
X300211D01*
Y139266D02*
Y140266D01*
X299711Y139266D02*
X300211D01*
X299711Y138766D02*
Y139266D01*
X298711Y138766D02*
X299711D01*
X298711D02*
Y139266D01*
X295849Y141628D02*
X296349D01*
X295849D02*
Y142628D01*
X296349D01*
Y143128D01*
X297349D01*
Y142628D02*
Y143128D01*
Y142628D02*
X297849D01*
Y141628D02*
Y142628D01*
X297349Y141628D02*
X297849D01*
X297349Y141128D02*
Y141628D01*
X296349Y141128D02*
X297349D01*
X296349D02*
Y141628D01*
X310022Y151076D02*
X310522D01*
X310022D02*
Y152076D01*
X310522D01*
Y152576D01*
X311522D01*
Y152076D02*
Y152576D01*
Y152076D02*
X312022D01*
Y151076D02*
Y152076D01*
X311522Y151076D02*
X312022D01*
X311522Y150576D02*
Y151076D01*
X310522Y150576D02*
X311522D01*
X310522D02*
Y151076D01*
X307660Y153439D02*
X308160D01*
X307660D02*
Y154439D01*
X308160D01*
Y154939D01*
X309160D01*
Y154439D02*
Y154939D01*
Y154439D02*
X309660D01*
Y153439D02*
Y154439D01*
X309160Y153439D02*
X309660D01*
X309160Y152939D02*
Y153439D01*
X308160Y152939D02*
X309160D01*
X308160D02*
Y153439D01*
X347030Y114069D02*
X347530D01*
X347030D02*
Y115069D01*
X347530D01*
Y115569D01*
X348530D01*
Y115069D02*
Y115569D01*
Y115069D02*
X349030D01*
Y114069D02*
Y115069D01*
X348530Y114069D02*
X349030D01*
X348530Y113569D02*
Y114069D01*
X347530Y113569D02*
X348530D01*
X347530D02*
Y114069D01*
X335219Y102258D02*
X335719D01*
X335219D02*
Y103258D01*
X335719D01*
Y103758D01*
X336719D01*
Y103258D02*
Y103758D01*
Y103258D02*
X337219D01*
Y102258D02*
Y103258D01*
X336719Y102258D02*
X337219D01*
X336719Y101758D02*
Y102258D01*
X335719Y101758D02*
X336719D01*
X335719D02*
Y102258D01*
X337581Y99895D02*
X338081D01*
X337581D02*
Y100895D01*
X338081D01*
Y101395D01*
X339081D01*
Y100895D02*
Y101395D01*
Y100895D02*
X339581D01*
Y99895D02*
Y100895D01*
X339081Y99895D02*
X339581D01*
X339081Y99395D02*
Y99895D01*
X338081Y99395D02*
X339081D01*
X338081D02*
Y99895D01*
X318134Y163043D02*
X318634D01*
X318134D02*
Y164043D01*
X318634D01*
Y164543D01*
X319634D01*
Y164043D02*
Y164543D01*
Y164043D02*
X320134D01*
Y163043D02*
Y164043D01*
X319634Y163043D02*
X320134D01*
X319634Y162543D02*
Y163043D01*
X318634Y162543D02*
X319634D01*
X318634D02*
Y163043D01*
X320496Y160681D02*
X320996D01*
X320496D02*
Y161681D01*
X320996D01*
Y162181D01*
X321996D01*
Y161681D02*
Y162181D01*
Y161681D02*
X322496D01*
Y160681D02*
Y161681D01*
X321996Y160681D02*
X322496D01*
X321996Y160181D02*
Y160681D01*
X320996Y160181D02*
X321996D01*
X320996D02*
Y160681D01*
X295023Y186941D02*
X295523D01*
X295023D02*
Y187941D01*
X295523D01*
Y188441D01*
X296523D01*
Y187941D02*
Y188441D01*
Y187941D02*
X297023D01*
Y186941D02*
Y187941D01*
X296523Y186941D02*
X297023D01*
X296523Y186441D02*
Y186941D01*
X295523Y186441D02*
X296523D01*
X295523D02*
Y186941D01*
X297386Y184579D02*
X297886D01*
X297386D02*
Y185579D01*
X297886D01*
Y186079D01*
X298886D01*
Y185579D02*
Y186079D01*
Y185579D02*
X299386D01*
Y184579D02*
Y185579D01*
X298886Y184579D02*
X299386D01*
X298886Y184079D02*
Y184579D01*
X297886Y184079D02*
X298886D01*
X297886D02*
Y184579D01*
X262581Y152848D02*
X263081D01*
X262581D02*
Y153848D01*
X263081D01*
Y154348D01*
X264081D01*
Y153848D02*
Y154348D01*
Y153848D02*
X264581D01*
Y152848D02*
Y153848D01*
X264081Y152848D02*
X264581D01*
X264081Y152348D02*
Y152848D01*
X263081Y152348D02*
X264081D01*
X263081D02*
Y152848D01*
X260219Y155210D02*
X260719D01*
X260219D02*
Y156210D01*
X260719D01*
Y156710D01*
X261719D01*
Y156210D02*
Y156710D01*
Y156210D02*
X262219D01*
Y155210D02*
Y156210D01*
X261719Y155210D02*
X262219D01*
X261719Y154710D02*
Y155210D01*
X260719Y154710D02*
X261719D01*
X260719D02*
Y155210D01*
X328291Y152886D02*
X328791D01*
X328291D02*
Y153886D01*
X328791D01*
Y154386D01*
X329791D01*
Y153886D02*
Y154386D01*
Y153886D02*
X330291D01*
Y152886D02*
Y153886D01*
X329791Y152886D02*
X330291D01*
X329791Y152386D02*
Y152886D01*
X328791Y152386D02*
X329791D01*
X328791D02*
Y152886D01*
X229493Y184539D02*
X229993D01*
X229493D02*
Y185539D01*
X229993D01*
Y186039D01*
X230993D01*
Y185539D02*
Y186039D01*
Y185539D02*
X231493D01*
Y184539D02*
Y185539D01*
X230993Y184539D02*
X231493D01*
X230993Y184039D02*
Y184539D01*
X229993Y184039D02*
X230993D01*
X229993D02*
Y184539D01*
X229493Y180602D02*
X229993D01*
X229493D02*
Y181602D01*
X229993D01*
Y182102D01*
X230993D01*
Y181602D02*
Y182102D01*
Y181602D02*
X231493D01*
Y180602D02*
Y181602D01*
X230993Y180602D02*
X231493D01*
X230993Y180102D02*
Y180602D01*
X229993Y180102D02*
X230993D01*
X229993D02*
Y180602D01*
X181087Y114245D02*
X181587D01*
X181087D02*
Y115245D01*
X181587D01*
Y115745D01*
X182587D01*
Y115245D02*
Y115745D01*
Y115245D02*
X183087D01*
Y114245D02*
Y115245D01*
X182587Y114245D02*
X183087D01*
X182587Y113745D02*
Y114245D01*
X181587Y113745D02*
X182587D01*
X181587D02*
Y114245D01*
X185024D02*
X185524D01*
X185024D02*
Y115245D01*
X185524D01*
Y115745D01*
X186524D01*
Y115245D02*
Y115745D01*
Y115245D02*
X187024D01*
Y114245D02*
Y115245D01*
X186524Y114245D02*
X187024D01*
X186524Y113745D02*
Y114245D01*
X185524Y113745D02*
X186524D01*
X185524D02*
Y114245D01*
X190929Y113593D02*
X191429D01*
X190929D02*
Y114593D01*
X191429D01*
Y115093D01*
X192429D01*
Y114593D02*
Y115093D01*
Y114593D02*
X192929D01*
Y113593D02*
Y114593D01*
X192429Y113593D02*
X192929D01*
X192429Y113093D02*
Y113593D01*
X191429Y113093D02*
X192429D01*
X191429D02*
Y113593D01*
X248208Y137693D02*
X248708D01*
X248208D02*
Y138693D01*
X248708D01*
Y139193D01*
X249708D01*
Y138693D02*
Y139193D01*
Y138693D02*
X250208D01*
Y137693D02*
Y138693D01*
X249708Y137693D02*
X250208D01*
X249708Y137193D02*
Y137693D01*
X248708Y137193D02*
X249708D01*
X248708D02*
Y137693D01*
X233646Y243595D02*
X234146D01*
X233646D02*
Y244595D01*
X234146D01*
Y245094D01*
X235146D01*
Y244595D02*
Y245094D01*
Y244595D02*
X235646D01*
Y243595D02*
Y244595D01*
X235146Y243595D02*
X235646D01*
X235146Y243094D02*
Y243595D01*
X234146Y243094D02*
X235146D01*
X234146D02*
Y243595D01*
X346636Y137297D02*
X347136D01*
X346636D02*
Y138297D01*
X347136D01*
Y138797D01*
X348136D01*
Y138297D02*
Y138797D01*
Y138297D02*
X348636D01*
Y137297D02*
Y138297D01*
X348136Y137297D02*
X348636D01*
X348136Y136797D02*
Y137297D01*
X347136Y136797D02*
X348136D01*
X347136D02*
Y137297D01*
X341124Y127061D02*
X341624D01*
X341124D02*
Y128061D01*
X341624D01*
Y128561D01*
X342624D01*
Y128061D02*
Y128561D01*
Y128061D02*
X343124D01*
Y127061D02*
Y128061D01*
X342624Y127061D02*
X343124D01*
X342624Y126561D02*
Y127061D01*
X341624Y126561D02*
X342624D01*
X341624D02*
Y127061D01*
X233646Y200287D02*
X234146D01*
X233646D02*
Y201287D01*
X234146D01*
Y201787D01*
X235146D01*
Y201287D02*
Y201787D01*
Y201287D02*
X235646D01*
Y200287D02*
Y201287D01*
X235146Y200287D02*
X235646D01*
X235146Y199787D02*
Y200287D01*
X234146Y199787D02*
X235146D01*
X234146D02*
Y200287D01*
X263961Y219579D02*
X264461D01*
X263961D02*
Y220579D01*
X264461D01*
Y221079D01*
X265461D01*
Y220579D02*
Y221079D01*
Y220579D02*
X265961D01*
Y219579D02*
Y220579D01*
X265461Y219579D02*
X265961D01*
X265461Y219079D02*
Y219579D01*
X264461Y219079D02*
X265461D01*
X264461D02*
Y219579D01*
X265929Y232196D02*
X266429D01*
X265929D02*
Y233196D01*
X266429D01*
Y233697D01*
X267429D01*
Y233196D02*
Y233697D01*
Y233196D02*
X267929D01*
Y232196D02*
Y233196D01*
X267429Y232196D02*
X267929D01*
X267429Y231697D02*
Y232196D01*
X266429Y231697D02*
X267429D01*
X266429D02*
Y232196D01*
X265929Y188889D02*
X266429D01*
X265929D02*
Y189889D01*
X266429D01*
Y190389D01*
X267429D01*
Y189889D02*
Y190389D01*
Y189889D02*
X267929D01*
Y188889D02*
Y189889D01*
X267429Y188889D02*
X267929D01*
X267429Y188389D02*
Y188889D01*
X266429Y188389D02*
X267429D01*
X266429D02*
Y188889D01*
X233037Y193398D02*
X233537D01*
X233037D02*
Y194398D01*
X233537D01*
Y194898D01*
X234537D01*
Y194398D02*
Y194898D01*
Y194398D02*
X235037D01*
Y193398D02*
Y194398D01*
X234537Y193398D02*
X235037D01*
X234537Y192898D02*
Y193398D01*
X233537Y192898D02*
X234537D01*
X233537D02*
Y193398D01*
X233037Y236705D02*
X233537D01*
X233037D02*
Y237705D01*
X233537D01*
Y238205D01*
X234537D01*
Y237705D02*
Y238205D01*
Y237705D02*
X235037D01*
Y236705D02*
Y237705D01*
X234537Y236705D02*
X235037D01*
X234537Y236205D02*
Y236705D01*
X233537Y236205D02*
X234537D01*
X233537D02*
Y236705D01*
X187601Y218201D02*
X188101D01*
X187601D02*
Y219201D01*
X188101D01*
Y219701D01*
X189101D01*
Y219201D02*
Y219701D01*
Y219201D02*
X189601D01*
Y218201D02*
Y219201D01*
X189101Y218201D02*
X189601D01*
X189101Y217701D02*
Y218201D01*
X188101Y217701D02*
X189101D01*
X188101D02*
Y218201D01*
X187601Y198516D02*
X188101D01*
X187601D02*
Y199516D01*
X188101D01*
Y200016D01*
X189101D01*
Y199516D02*
Y200016D01*
Y199516D02*
X189601D01*
Y198516D02*
Y199516D01*
X189101Y198516D02*
X189601D01*
X189101Y198016D02*
Y198516D01*
X188101Y198016D02*
X189101D01*
X188101D02*
Y198516D01*
X282249Y248713D02*
X282749D01*
X282249D02*
Y249713D01*
X282749D01*
Y250213D01*
X283749D01*
Y249713D02*
Y250213D01*
Y249713D02*
X284249D01*
Y248713D02*
Y249713D01*
X283749Y248713D02*
X284249D01*
X283749Y248213D02*
Y248713D01*
X282749Y248213D02*
X283749D01*
X282749D02*
Y248713D01*
X297997D02*
X298497D01*
X297997D02*
Y249713D01*
X298497D01*
Y250213D01*
X299497D01*
Y249713D02*
Y250213D01*
Y249713D02*
X299997D01*
Y248713D02*
Y249713D01*
X299497Y248713D02*
X299997D01*
X299497Y248213D02*
Y248713D01*
X298497Y248213D02*
X299497D01*
X298497D02*
Y248713D01*
X316669Y251373D02*
X317169D01*
X316669D02*
Y252373D01*
X317169D01*
Y252873D01*
X318169D01*
Y252373D02*
Y252873D01*
Y252373D02*
X318669D01*
Y251373D02*
Y252373D01*
X318169Y251373D02*
X318669D01*
X318169Y250873D02*
Y251373D01*
X317169Y250873D02*
X318169D01*
X317169D02*
Y251373D01*
X316669Y247436D02*
X317169D01*
X316669D02*
Y248436D01*
X317169D01*
Y248936D01*
X318169D01*
Y248436D02*
Y248936D01*
Y248436D02*
X318669D01*
Y247436D02*
Y248436D01*
X318169Y247436D02*
X318669D01*
X318169Y246936D02*
Y247436D01*
X317169Y246936D02*
X318169D01*
X317169D02*
Y247436D01*
X317388Y257177D02*
X317888D01*
X317388D02*
Y258177D01*
X317888D01*
Y258677D01*
X318888D01*
Y258177D02*
Y258677D01*
Y258177D02*
X319388D01*
Y257177D02*
Y258177D01*
X318888Y257177D02*
X319388D01*
X318888Y256677D02*
Y257177D01*
X317888Y256677D02*
X318888D01*
X317888D02*
Y257177D01*
X325929Y155248D02*
X326429D01*
X325929D02*
Y156248D01*
X326429D01*
Y156748D01*
X327429D01*
Y156248D02*
Y156748D01*
Y156248D02*
X327929D01*
Y155248D02*
Y156248D01*
X327429Y155248D02*
X327929D01*
X327429Y154748D02*
Y155248D01*
X326429Y154748D02*
X327429D01*
X326429D02*
Y155248D01*
X283658Y195398D02*
X284158D01*
X283658D02*
Y196398D01*
X284158D01*
Y196898D01*
X285158D01*
Y196398D02*
Y196898D01*
Y196398D02*
X285658D01*
Y195398D02*
Y196398D01*
X285158Y195398D02*
X285658D01*
X285158Y194898D02*
Y195398D01*
X284158Y194898D02*
X285158D01*
X284158D02*
Y195398D01*
X282435Y198622D02*
X282935D01*
X282435D02*
Y199622D01*
X282935D01*
Y200122D01*
X283935D01*
Y199622D02*
Y200122D01*
Y199622D02*
X284435D01*
Y198622D02*
Y199622D01*
X283935Y198622D02*
X284435D01*
X283935Y198122D02*
Y198622D01*
X282935Y198122D02*
X283935D01*
X282935D02*
Y198622D01*
X241913Y204709D02*
Y205209D01*
X242413Y205709D01*
X241913Y206209D02*
X242413Y205709D01*
X241913Y206209D02*
Y206709D01*
X242413D01*
X242913Y206209D01*
X243413Y206709D01*
X243913D01*
Y206209D02*
Y206709D01*
X243413Y205709D02*
X243913Y206209D01*
X243413Y205709D02*
X243913Y205209D01*
Y204709D02*
Y205209D01*
X243413Y204709D02*
X243913D01*
X242913Y205209D02*
X243413Y204709D01*
X242413D02*
X242913Y205209D01*
X241913Y204709D02*
X242413D01*
X241913Y198803D02*
Y199303D01*
X242413Y199803D01*
X241913Y200303D02*
X242413Y199803D01*
X241913Y200303D02*
Y200803D01*
X242413D01*
X242913Y200303D01*
X243413Y200803D01*
X243913D01*
Y200303D02*
Y200803D01*
X243413Y199803D02*
X243913Y200303D01*
X243413Y199803D02*
X243913Y199303D01*
Y198803D02*
Y199303D01*
X243413Y198803D02*
X243913D01*
X242913Y199303D02*
X243413Y198803D01*
X242413D02*
X242913Y199303D01*
X241913Y198803D02*
X242413D01*
X245850D02*
Y199303D01*
X246350Y199803D01*
X245850Y200303D02*
X246350Y199803D01*
X245850Y200303D02*
Y200803D01*
X246350D01*
X246850Y200303D01*
X247350Y200803D01*
X247850D01*
Y200303D02*
Y200803D01*
X247350Y199803D02*
X247850Y200303D01*
X247350Y199803D02*
X247850Y199303D01*
Y198803D02*
Y199303D01*
X247350Y198803D02*
X247850D01*
X246850Y199303D02*
X247350Y198803D01*
X246350D02*
X246850Y199303D01*
X245850Y198803D02*
X246350D01*
X245850Y204709D02*
Y205209D01*
X246350Y205709D01*
X245850Y206209D02*
X246350Y205709D01*
X245850Y206209D02*
Y206709D01*
X246350D01*
X246850Y206209D01*
X247350Y206709D01*
X247850D01*
Y206209D02*
Y206709D01*
X247350Y205709D02*
X247850Y206209D01*
X247350Y205709D02*
X247850Y205209D01*
Y204709D02*
Y205209D01*
X247350Y204709D02*
X247850D01*
X246850Y205209D02*
X247350Y204709D01*
X246350D02*
X246850Y205209D01*
X245850Y204709D02*
X246350D01*
X243882Y201756D02*
Y202256D01*
X244382Y202756D01*
X243882Y203256D02*
X244382Y202756D01*
X243882Y203256D02*
Y203756D01*
X244382D01*
X244882Y203256D01*
X245382Y203756D01*
X245882D01*
Y203256D02*
Y203756D01*
X245382Y202756D02*
X245882Y203256D01*
X245382Y202756D02*
X245882Y202256D01*
Y201756D02*
Y202256D01*
X245382Y201756D02*
X245882D01*
X244882Y202256D02*
X245382Y201756D01*
X244382D02*
X244882Y202256D01*
X243882Y201756D02*
X244382D01*
X241913Y248016D02*
Y248516D01*
X242413Y249016D01*
X241913Y249516D02*
X242413Y249016D01*
X241913Y249516D02*
Y250016D01*
X242413D01*
X242913Y249516D01*
X243413Y250016D01*
X243913D01*
Y249516D02*
Y250016D01*
X243413Y249016D02*
X243913Y249516D01*
X243413Y249016D02*
X243913Y248516D01*
Y248016D02*
Y248516D01*
X243413Y248016D02*
X243913D01*
X242913Y248516D02*
X243413Y248016D01*
X242413D02*
X242913Y248516D01*
X241913Y248016D02*
X242413D01*
X241913Y242110D02*
Y242610D01*
X242413Y243110D01*
X241913Y243610D02*
X242413Y243110D01*
X241913Y243610D02*
Y244110D01*
X242413D01*
X242913Y243610D01*
X243413Y244110D01*
X243913D01*
Y243610D02*
Y244110D01*
X243413Y243110D02*
X243913Y243610D01*
X243413Y243110D02*
X243913Y242610D01*
Y242110D02*
Y242610D01*
X243413Y242110D02*
X243913D01*
X242913Y242610D02*
X243413Y242110D01*
X242413D02*
X242913Y242610D01*
X241913Y242110D02*
X242413D01*
X245850D02*
Y242610D01*
X246350Y243110D01*
X245850Y243610D02*
X246350Y243110D01*
X245850Y243610D02*
Y244110D01*
X246350D01*
X246850Y243610D01*
X247350Y244110D01*
X247850D01*
Y243610D02*
Y244110D01*
X247350Y243110D02*
X247850Y243610D01*
X247350Y243110D02*
X247850Y242610D01*
Y242110D02*
Y242610D01*
X247350Y242110D02*
X247850D01*
X246850Y242610D02*
X247350Y242110D01*
X246350D02*
X246850Y242610D01*
X245850Y242110D02*
X246350D01*
X245850Y248016D02*
Y248516D01*
X246350Y249016D01*
X245850Y249516D02*
X246350Y249016D01*
X245850Y249516D02*
Y250016D01*
X246350D01*
X246850Y249516D01*
X247350Y250016D01*
X247850D01*
Y249516D02*
Y250016D01*
X247350Y249016D02*
X247850Y249516D01*
X247350Y249016D02*
X247850Y248516D01*
Y248016D02*
Y248516D01*
X247350Y248016D02*
X247850D01*
X246850Y248516D02*
X247350Y248016D01*
X246350D02*
X246850Y248516D01*
X245850Y248016D02*
X246350D01*
X243882Y245063D02*
Y245563D01*
X244382Y246063D01*
X243882Y246563D02*
X244382Y246063D01*
X243882Y246563D02*
Y247063D01*
X244382D01*
X244882Y246563D01*
X245382Y247063D01*
X245882D01*
Y246563D02*
Y247063D01*
X245382Y246063D02*
X245882Y246563D01*
X245382Y246063D02*
X245882Y245563D01*
Y245063D02*
Y245563D01*
X245382Y245063D02*
X245882D01*
X244882Y245563D02*
X245382Y245063D01*
X244382D02*
X244882Y245563D01*
X243882Y245063D02*
X244382D01*
X194651Y205996D02*
X195151D01*
X194651D02*
Y206996D01*
X195151D01*
Y207496D01*
X196151D01*
Y206996D02*
Y207496D01*
Y206996D02*
X196651D01*
Y205996D02*
Y206996D01*
X196151Y205996D02*
X196651D01*
X196151Y205496D02*
Y205996D01*
X195151Y205496D02*
X196151D01*
X195151D02*
Y205996D01*
X194651Y225681D02*
X195151D01*
X194651D02*
Y226681D01*
X195151D01*
Y227181D01*
X196151D01*
Y226681D02*
Y227181D01*
Y226681D02*
X196651D01*
Y225681D02*
Y226681D01*
X196151Y225681D02*
X196651D01*
X196151Y225181D02*
Y225681D01*
X195151Y225181D02*
X196151D01*
X195151D02*
Y225681D01*
X219472Y189461D02*
X219972D01*
X219472D02*
Y190461D01*
X219972D01*
Y190961D01*
X220972D01*
Y190461D02*
Y190961D01*
Y190461D02*
X221472D01*
Y189461D02*
Y190461D01*
X220972Y189461D02*
X221472D01*
X220972Y188961D02*
Y189461D01*
X219972Y188961D02*
X220972D01*
X219972D02*
Y189461D01*
X273409Y253043D02*
X273909D01*
X273409D02*
Y254043D01*
X273909D01*
Y254543D01*
X274909D01*
Y254043D02*
Y254543D01*
Y254043D02*
X275409D01*
Y253043D02*
Y254043D01*
X274909Y253043D02*
X275409D01*
X274909Y252543D02*
Y253043D01*
X273909Y252543D02*
X274909D01*
X273909D02*
Y253043D01*
X239354Y266429D02*
X239854D01*
X239354D02*
Y267429D01*
X239854D01*
Y267929D01*
X240854D01*
Y267429D02*
Y267929D01*
Y267429D02*
X241354D01*
Y266429D02*
Y267429D01*
X240854Y266429D02*
X241354D01*
X240854Y265929D02*
Y266429D01*
X239854Y265929D02*
X240854D01*
X239854D02*
Y266429D01*
X248410D02*
X248909D01*
X248410D02*
Y267429D01*
X248909D01*
Y267929D01*
X249909D01*
Y267429D02*
Y267929D01*
Y267429D02*
X250410D01*
Y266429D02*
Y267429D01*
X249909Y266429D02*
X250410D01*
X249909Y265929D02*
Y266429D01*
X248909Y265929D02*
X249909D01*
X248909D02*
Y266429D01*
X241717Y268791D02*
X242216D01*
X241717D02*
Y269791D01*
X242216D01*
Y270291D01*
X243216D01*
Y269791D02*
Y270291D01*
Y269791D02*
X243717D01*
Y268791D02*
Y269791D01*
X243216Y268791D02*
X243717D01*
X243216Y268291D02*
Y268791D01*
X242216Y268291D02*
X243216D01*
X242216D02*
Y268791D01*
X246047D02*
X246547D01*
X246047D02*
Y269791D01*
X246547D01*
Y270291D01*
X247547D01*
Y269791D02*
Y270291D01*
Y269791D02*
X248047D01*
Y268791D02*
Y269791D01*
X247547Y268791D02*
X248047D01*
X247547Y268291D02*
Y268791D01*
X246547Y268291D02*
X247547D01*
X246547D02*
Y268791D01*
X243882Y266429D02*
X244382D01*
X243882D02*
Y267429D01*
X244382D01*
Y267929D01*
X245382D01*
Y267429D02*
Y267929D01*
Y267429D02*
X245882D01*
Y266429D02*
Y267429D01*
X245382Y266429D02*
X245882D01*
X245382Y265929D02*
Y266429D01*
X244382Y265929D02*
X245382D01*
X244382D02*
Y266429D01*
X243882Y226272D02*
X244382D01*
X243882D02*
Y227272D01*
X244382D01*
Y227772D01*
X245382D01*
Y227272D02*
Y227772D01*
Y227272D02*
X245882D01*
Y226272D02*
Y227272D01*
X245382Y226272D02*
X245882D01*
X245382Y225772D02*
Y226272D01*
X244382Y225772D02*
X245382D01*
X244382D02*
Y226272D01*
X248410D02*
X248909D01*
X248410D02*
Y227272D01*
X248909D01*
Y227772D01*
X249909D01*
Y227272D02*
Y227772D01*
Y227272D02*
X250410D01*
Y226272D02*
Y227272D01*
X249909Y226272D02*
X250410D01*
X249909Y225772D02*
Y226272D01*
X248909Y225772D02*
X249909D01*
X248909D02*
Y226272D01*
X239354D02*
X239854D01*
X239354D02*
Y227272D01*
X239854D01*
Y227772D01*
X240854D01*
Y227272D02*
Y227772D01*
Y227272D02*
X241354D01*
Y226272D02*
Y227272D01*
X240854Y226272D02*
X241354D01*
X240854Y225772D02*
Y226272D01*
X239854Y225772D02*
X240854D01*
X239854D02*
Y226272D01*
X241717Y229028D02*
X242216D01*
X241717D02*
Y230028D01*
X242216D01*
Y230528D01*
X243216D01*
Y230028D02*
Y230528D01*
Y230028D02*
X243717D01*
Y229028D02*
Y230028D01*
X243216Y229028D02*
X243717D01*
X243216Y228528D02*
Y229028D01*
X242216Y228528D02*
X243216D01*
X242216D02*
Y229028D01*
X246047D02*
X246547D01*
X246047D02*
Y230028D01*
X246547D01*
Y230528D01*
X247547D01*
Y230028D02*
Y230528D01*
Y230028D02*
X248047D01*
Y229028D02*
Y230028D01*
X247547Y229028D02*
X248047D01*
X247547Y228528D02*
Y229028D01*
X246547Y228528D02*
X247547D01*
X246547D02*
Y229028D01*
X241717Y223909D02*
X242216D01*
X241717D02*
Y224909D01*
X242216D01*
Y225409D01*
X243216D01*
Y224909D02*
Y225409D01*
Y224909D02*
X243717D01*
Y223909D02*
Y224909D01*
X243216Y223909D02*
X243717D01*
X243216Y223409D02*
Y223909D01*
X242216Y223409D02*
X243216D01*
X242216D02*
Y223909D01*
X246047D02*
X246547D01*
X246047D02*
Y224909D01*
X246547D01*
Y225409D01*
X247547D01*
Y224909D02*
Y225409D01*
Y224909D02*
X248047D01*
Y223909D02*
Y224909D01*
X247547Y223909D02*
X248047D01*
X247547Y223409D02*
Y223909D01*
X246547Y223409D02*
X247547D01*
X246547D02*
Y223909D01*
X239354Y216429D02*
X239854D01*
X239354D02*
Y217429D01*
X239854D01*
Y217929D01*
X240854D01*
Y217429D02*
Y217929D01*
Y217429D02*
X241354D01*
Y216429D02*
Y217429D01*
X240854Y216429D02*
X241354D01*
X240854Y215929D02*
Y216429D01*
X239854Y215929D02*
X240854D01*
X239854D02*
Y216429D01*
X248410D02*
X248909D01*
X248410D02*
Y217429D01*
X248909D01*
Y217929D01*
X249909D01*
Y217429D02*
Y217929D01*
Y217429D02*
X250410D01*
Y216429D02*
Y217429D01*
X249909Y216429D02*
X250410D01*
X249909Y215929D02*
Y216429D01*
X248909Y215929D02*
X249909D01*
X248909D02*
Y216429D01*
X243882D02*
X244382D01*
X243882D02*
Y217429D01*
X244382D01*
Y217929D01*
X245382D01*
Y217429D02*
Y217929D01*
Y217429D02*
X245882D01*
Y216429D02*
Y217429D01*
X245382Y216429D02*
X245882D01*
X245382Y215929D02*
Y216429D01*
X244382Y215929D02*
X245382D01*
X244382D02*
Y216429D01*
X206677Y238673D02*
X207177D01*
X206677D02*
Y239673D01*
X207177D01*
Y240173D01*
X208177D01*
Y239673D02*
Y240173D01*
Y239673D02*
X208677D01*
Y238673D02*
Y239673D01*
X208177Y238673D02*
X208677D01*
X208177Y238173D02*
Y238673D01*
X207177Y238173D02*
X208177D01*
X207177D02*
Y238673D01*
X325614Y82177D02*
X326114D01*
X325614D02*
Y83177D01*
X326114D01*
Y83677D01*
X327114D01*
Y83177D02*
Y83677D01*
Y83177D02*
X327614D01*
Y82177D02*
Y83177D01*
X327114Y82177D02*
X327614D01*
X327114Y81677D02*
Y82177D01*
X326114Y81677D02*
X327114D01*
X326114D02*
Y82177D01*
X325614Y42807D02*
X326114D01*
X325614D02*
Y43807D01*
X326114D01*
Y44307D01*
X327114D01*
Y43807D02*
Y44307D01*
Y43807D02*
X327614D01*
Y42807D02*
Y43807D01*
X327114Y42807D02*
X327614D01*
X327114Y42307D02*
Y42807D01*
X326114Y42307D02*
X327114D01*
X326114D02*
Y42807D01*
X312976Y72335D02*
X313476D01*
X312976D02*
Y73335D01*
X313476D01*
Y73835D01*
X314476D01*
Y73335D02*
Y73835D01*
Y73335D02*
X314976D01*
Y72335D02*
Y73335D01*
X314476Y72335D02*
X314976D01*
X314476Y71835D02*
Y72335D01*
X313476Y71835D02*
X314476D01*
X313476D02*
Y72335D01*
X241635Y133852D02*
X242135D01*
X241635D02*
Y134852D01*
X242135D01*
Y135352D01*
X243135D01*
Y134852D02*
Y135352D01*
Y134852D02*
X243635D01*
Y133852D02*
Y134852D01*
X243135Y133852D02*
X243635D01*
X243135Y133352D02*
Y133852D01*
X242135Y133352D02*
X243135D01*
X242135D02*
Y133852D01*
X258453Y127449D02*
X258952D01*
X258453D02*
Y128449D01*
X258952D01*
Y128949D01*
X259952D01*
Y128449D02*
Y128949D01*
Y128449D02*
X260453D01*
Y127449D02*
Y128449D01*
X259952Y127449D02*
X260453D01*
X259952Y126949D02*
Y127449D01*
X258952Y126949D02*
X259952D01*
X258952D02*
Y127449D01*
X305446Y210942D02*
X306446Y212942D01*
X304446D02*
X306446D01*
X304446D02*
X305446Y210942D01*
Y220129D02*
X306446Y222129D01*
X304446D02*
X306446D01*
X304446D02*
X305446Y220129D01*
X314633Y210942D02*
X315633Y212942D01*
X313633D02*
X315633D01*
X313633D02*
X314633Y210942D01*
Y220129D02*
X315633Y222129D01*
X313633D02*
X315633D01*
X313633D02*
X314633Y220129D01*
X193882Y242110D02*
X194882Y242610D01*
X195882Y242110D01*
X195382Y243110D02*
X195882Y242110D01*
X195382Y243110D02*
X195882Y244110D01*
X194882Y243610D02*
X195882Y244110D01*
X193882D02*
X194882Y243610D01*
X193882Y244110D02*
X194382Y243110D01*
X193882Y242110D02*
X194382Y243110D01*
X213567Y242110D02*
X214567Y242610D01*
X215567Y242110D01*
X215067Y243110D02*
X215567Y242110D01*
X215067Y243110D02*
X215567Y244110D01*
X214567Y243610D02*
X215567Y244110D01*
X213567D02*
X214567Y243610D01*
X213567Y244110D02*
X214067Y243110D01*
X213567Y242110D02*
X214067Y243110D01*
X196290Y173285D02*
X196790Y172785D01*
X195790Y173285D02*
X196290D01*
X195790D02*
X196290Y173785D01*
X195790Y174285D02*
X196290Y173785D01*
X195790Y174285D02*
X196290D01*
X196790Y174785D01*
X197290Y174285D01*
X197790D01*
X197290Y173785D02*
X197790Y174285D01*
X197290Y173785D02*
X197790Y173285D01*
X197290D02*
X197790D01*
X196790Y172785D02*
X197290Y173285D01*
X202718Y165625D02*
X203218Y165125D01*
X202218Y165625D02*
X202718D01*
X202218D02*
X202718Y166125D01*
X202218Y166625D02*
X202718Y166125D01*
X202218Y166625D02*
X202718D01*
X203218Y167125D01*
X203718Y166625D01*
X204218D01*
X203718Y166125D02*
X204218Y166625D01*
X203718Y166125D02*
X204218Y165625D01*
X203718D02*
X204218D01*
X203218Y165125D02*
X203718Y165625D01*
X189862Y180946D02*
X190362Y180446D01*
X189362Y180946D02*
X189862D01*
X189362D02*
X189862Y181446D01*
X189362Y181946D02*
X189862Y181446D01*
X189362Y181946D02*
X189862D01*
X190362Y182446D01*
X190862Y181946D01*
X191362D01*
X190862Y181446D02*
X191362Y181946D01*
X190862Y181446D02*
X191362Y180946D01*
X190862D02*
X191362D01*
X190362Y180446D02*
X190862Y180946D01*
X209146Y157965D02*
X209646Y157465D01*
X208646Y157965D02*
X209146D01*
X208646D02*
X209146Y158465D01*
X208646Y158965D02*
X209146Y158465D01*
X208646Y158965D02*
X209146D01*
X209646Y159465D01*
X210146Y158965D01*
X210646D01*
X210146Y158465D02*
X210646Y158965D01*
X210146Y158465D02*
X210646Y157965D01*
X210146D02*
X210646D01*
X209646Y157465D02*
X210146Y157965D01*
X286280Y66039D02*
X286780Y65539D01*
X285780Y66039D02*
X286280D01*
X285780D02*
X286280Y66539D01*
X285780Y67039D02*
X286280Y66539D01*
X285780Y67039D02*
X286280D01*
X286780Y67539D01*
X287280Y67039D01*
X287780D01*
X287280Y66539D02*
X287780Y67039D01*
X287280Y66539D02*
X287780Y66039D01*
X287280D02*
X287780D01*
X286780Y65539D02*
X287280Y66039D01*
X299136Y50718D02*
X299636Y50218D01*
X298636Y50718D02*
X299136D01*
X298636D02*
X299136Y51218D01*
X298636Y51718D02*
X299136Y51218D01*
X298636Y51718D02*
X299136D01*
X299636Y52218D01*
X300136Y51718D01*
X300636D01*
X300136Y51218D02*
X300636Y51718D01*
X300136Y51218D02*
X300636Y50718D01*
X300136D02*
X300636D01*
X299636Y50218D02*
X300136Y50718D01*
X292708Y58379D02*
X293208Y57879D01*
X292208Y58379D02*
X292708D01*
X292208D02*
X292708Y58879D01*
X292208Y59379D02*
X292708Y58879D01*
X292208Y59379D02*
X292708D01*
X293208Y59879D01*
X293708Y59379D01*
X294208D01*
X293708Y58879D02*
X294208Y59379D01*
X293708Y58879D02*
X294208Y58379D01*
X293708D02*
X294208D01*
X293208Y57879D02*
X293708Y58379D01*
X305564Y43058D02*
X306064Y42558D01*
X305064Y43058D02*
X305564D01*
X305064D02*
X305564Y43558D01*
X305064Y44058D02*
X305564Y43558D01*
X305064Y44058D02*
X305564D01*
X306064Y44558D01*
X306564Y44058D01*
X307064D01*
X306564Y43558D02*
X307064Y44058D01*
X306564Y43558D02*
X307064Y43058D01*
X306564D02*
X307064D01*
X306064Y42558D02*
X306564Y43058D01*
X311992Y35397D02*
X312492Y34898D01*
X311492Y35397D02*
X311992D01*
X311492D02*
X311992Y35897D01*
X311492Y36397D02*
X311992Y35897D01*
X311492Y36397D02*
X311992D01*
X312492Y36898D01*
X312992Y36397D01*
X313492D01*
X312992Y35897D02*
X313492Y36397D01*
X312992Y35897D02*
X313492Y35397D01*
X312992D02*
X313492D01*
X312492Y34898D02*
X312992Y35397D01*
X318420Y27737D02*
X318920Y27237D01*
X317920Y27737D02*
X318420D01*
X317920D02*
X318420Y28237D01*
X317920Y28737D02*
X318420Y28237D01*
X317920Y28737D02*
X318420D01*
X318920Y29237D01*
X319420Y28737D01*
X319920D01*
X319420Y28237D02*
X319920Y28737D01*
X319420Y28237D02*
X319920Y27737D01*
X319420D02*
X319920D01*
X318920Y27237D02*
X319420Y27737D01*
X226050Y62648D02*
X227050Y64648D01*
X225050D02*
X227050D01*
X225050D02*
X226050Y62648D01*
Y53462D02*
X227050Y55462D01*
X225050D02*
X227050D01*
X225050D02*
X226050Y53462D01*
X216863Y62648D02*
X217863Y64648D01*
X215863D02*
X217863D01*
X215863D02*
X216863Y62648D01*
Y53462D02*
X217863Y55462D01*
X215863D02*
X217863D01*
X215863D02*
X216863Y53462D01*
X64748Y87808D02*
X65248D01*
X64748D02*
Y88808D01*
X65248D01*
Y89308D01*
X66248D01*
Y88808D02*
Y89308D01*
Y88808D02*
X66748D01*
Y87808D02*
Y88808D01*
X66248Y87808D02*
X66748D01*
X66248Y87308D02*
Y87808D01*
X65248Y87308D02*
X66248D01*
X65248D02*
Y87808D01*
X78890Y73666D02*
X79390D01*
X78890D02*
Y74666D01*
X79390D01*
Y75166D01*
X80390D01*
Y74666D02*
Y75166D01*
Y74666D02*
X80890D01*
Y73666D02*
Y74666D01*
X80390Y73666D02*
X80890D01*
X80390Y73166D02*
Y73666D01*
X79390Y73166D02*
X80390D01*
X79390D02*
Y73666D01*
X85961Y66595D02*
X86461D01*
X85961D02*
Y67595D01*
X86461D01*
Y68095D01*
X87461D01*
Y67595D02*
Y68095D01*
Y67595D02*
X87961D01*
Y66595D02*
Y67595D01*
X87461Y66595D02*
X87961D01*
X87461Y66095D02*
Y66595D01*
X86461Y66095D02*
X87461D01*
X86461D02*
Y66595D01*
X54099Y92019D02*
X54599D01*
X54099D02*
Y93019D01*
X54599D01*
Y93519D01*
X55599D01*
Y93019D02*
Y93519D01*
Y93019D02*
X56099D01*
Y92019D02*
Y93019D01*
X55599Y92019D02*
X56099D01*
X55599Y91519D02*
Y92019D01*
X54599Y91519D02*
X55599D01*
X54599D02*
Y92019D01*
X25987Y11901D02*
X26487D01*
X25987D02*
Y12901D01*
X26487D01*
Y13401D01*
X27487D01*
Y12901D02*
Y13401D01*
Y12901D02*
X27987D01*
Y11901D02*
Y12901D01*
X27487Y11901D02*
X27987D01*
X27487Y11401D02*
Y11901D01*
X26487Y11401D02*
X27487D01*
X26487D02*
Y11901D01*
X120696Y108402D02*
X121196D01*
X120696D02*
Y109402D01*
X121196D01*
Y109902D01*
X122196D01*
Y109402D02*
Y109902D01*
Y109402D02*
X122696D01*
Y108402D02*
Y109402D01*
X122196Y108402D02*
X122696D01*
X122196Y107902D02*
Y108402D01*
X121196Y107902D02*
X122196D01*
X121196D02*
Y108402D01*
X102980Y126118D02*
X103480D01*
X102980D02*
Y127118D01*
X103480D01*
Y127618D01*
X104480D01*
Y127118D02*
Y127618D01*
Y127118D02*
X104980D01*
Y126118D02*
Y127118D01*
X104480Y126118D02*
X104980D01*
X104480Y125618D02*
Y126118D01*
X103480Y125618D02*
X104480D01*
X103480D02*
Y126118D01*
X134432Y94578D02*
X134932D01*
X134432D02*
Y95578D01*
X134932D01*
Y96078D01*
X135932D01*
Y95578D02*
Y96078D01*
Y95578D02*
X136432D01*
Y94578D02*
Y95578D01*
X135932Y94578D02*
X136432D01*
X135932Y94078D02*
Y94578D01*
X134932Y94078D02*
X135932D01*
X134932D02*
Y94578D01*
X141125Y88082D02*
X141625D01*
X141125D02*
Y89082D01*
X141625D01*
Y89582D01*
X142625D01*
Y89082D02*
Y89582D01*
Y89082D02*
X143125D01*
Y88082D02*
Y89082D01*
X142625Y88082D02*
X143125D01*
X142625Y87582D02*
Y88082D01*
X141625Y87582D02*
X142625D01*
X141625D02*
Y88082D01*
X53570Y103298D02*
X54070D01*
X53570D02*
Y104298D01*
X54070D01*
Y104798D01*
X55070D01*
Y104298D02*
Y104798D01*
Y104298D02*
X55570D01*
Y103298D02*
Y104298D01*
X55070Y103298D02*
X55570D01*
X55070Y102798D02*
Y103298D01*
X54070Y102798D02*
X55070D01*
X54070D02*
Y103298D01*
X46499Y110369D02*
X46999D01*
X46499D02*
Y111369D01*
X46999D01*
Y111869D01*
X47999D01*
Y111369D02*
Y111869D01*
Y111369D02*
X48499D01*
Y110369D02*
Y111369D01*
X47999Y110369D02*
X48499D01*
X47999Y109869D02*
Y110369D01*
X46999Y109869D02*
X47999D01*
X46999D02*
Y110369D01*
X77543Y228419D02*
X78043D01*
X77543D02*
Y229419D01*
X78043D01*
Y229919D01*
X79043D01*
Y229419D02*
Y229919D01*
Y229419D02*
X79543D01*
Y228419D02*
Y229419D01*
X79043Y228419D02*
X79543D01*
X79043Y227919D02*
Y228419D01*
X78043Y227919D02*
X79043D01*
X78043D02*
Y228419D01*
X81480D02*
X81980D01*
X81480D02*
Y229419D01*
X81980D01*
Y229919D01*
X82980D01*
Y229419D02*
Y229919D01*
Y229419D02*
X83480D01*
Y228419D02*
Y229419D01*
X82980Y228419D02*
X83480D01*
X82980Y227919D02*
Y228419D01*
X81980Y227919D02*
X82980D01*
X81980D02*
Y228419D01*
X53921Y228419D02*
X54421D01*
X53921D02*
Y229419D01*
X54421D01*
Y229919D01*
X55421D01*
Y229419D02*
Y229919D01*
Y229419D02*
X55921D01*
Y228419D02*
Y229419D01*
X55421Y228419D02*
X55921D01*
X55421Y227919D02*
Y228419D01*
X54421Y227919D02*
X55421D01*
X54421D02*
Y228419D01*
X49984D02*
X50484D01*
X49984D02*
Y229419D01*
X50484D01*
Y229919D01*
X51484D01*
Y229419D02*
Y229919D01*
Y229419D02*
X51984D01*
Y228419D02*
Y229419D01*
X51484Y228419D02*
X51984D01*
X51484Y227919D02*
Y228419D01*
X50484Y227919D02*
X51484D01*
X50484D02*
Y228419D01*
X53921Y271726D02*
X54421D01*
X53921D02*
Y272726D01*
X54421D01*
Y273226D01*
X55421D01*
Y272726D02*
Y273226D01*
Y272726D02*
X55921D01*
Y271726D02*
Y272726D01*
X55421Y271726D02*
X55921D01*
X55421Y271226D02*
Y271726D01*
X54421Y271226D02*
X55421D01*
X54421D02*
Y271726D01*
X49984D02*
X50484D01*
X49984D02*
Y272726D01*
X50484D01*
Y273226D01*
X51484D01*
Y272726D02*
Y273226D01*
Y272726D02*
X51984D01*
Y271726D02*
Y272726D01*
X51484Y271726D02*
X51984D01*
X51484Y271226D02*
Y271726D01*
X50484Y271226D02*
X51484D01*
X50484D02*
Y271726D01*
X81480D02*
X81980D01*
X81480D02*
Y272726D01*
X81980D01*
Y273226D01*
X82980D01*
Y272726D02*
Y273226D01*
Y272726D02*
X83480D01*
Y271726D02*
Y272726D01*
X82980Y271726D02*
X83480D01*
X82980Y271226D02*
Y271726D01*
X81980Y271226D02*
X82980D01*
X81980D02*
Y271726D01*
X77543D02*
X78043D01*
X77543D02*
Y272726D01*
X78043D01*
Y273226D01*
X79043D01*
Y272726D02*
Y273226D01*
Y272726D02*
X79543D01*
Y271726D02*
Y272726D01*
X79043Y271726D02*
X79543D01*
X79043Y271226D02*
Y271726D01*
X78043Y271226D02*
X79043D01*
X78043D02*
Y271726D01*
X75772Y238673D02*
X76272D01*
X75772D02*
Y239673D01*
X76272D01*
Y240173D01*
X77272D01*
Y239673D02*
Y240173D01*
Y239673D02*
X77772D01*
Y238673D02*
Y239673D01*
X77272Y238673D02*
X77772D01*
X77272Y238173D02*
Y238673D01*
X76272Y238173D02*
X77272D01*
X76272D02*
Y238673D01*
X75772Y234736D02*
X76272D01*
X75772D02*
Y235736D01*
X76272D01*
Y236236D01*
X77272D01*
Y235736D02*
Y236236D01*
Y235736D02*
X77772D01*
Y234736D02*
Y235736D01*
X77272Y234736D02*
X77772D01*
X77272Y234236D02*
Y234736D01*
X76272Y234236D02*
X77272D01*
X76272D02*
Y234736D01*
X75772Y191429D02*
X76272D01*
X75772D02*
Y192429D01*
X76272D01*
Y192929D01*
X77272D01*
Y192429D02*
Y192929D01*
Y192429D02*
X77772D01*
Y191429D02*
Y192429D01*
X77272Y191429D02*
X77772D01*
X77272Y190929D02*
Y191429D01*
X76272Y190929D02*
X77272D01*
X76272D02*
Y191429D01*
X75772Y195366D02*
X76272D01*
X75772D02*
Y196366D01*
X76272D01*
Y196866D01*
X77272D01*
Y196366D02*
Y196866D01*
Y196366D02*
X77772D01*
Y195366D02*
Y196366D01*
X77272Y195366D02*
X77772D01*
X77272Y194866D02*
Y195366D01*
X76272Y194866D02*
X77272D01*
X76272D02*
Y195366D01*
X93273Y248515D02*
X93773D01*
X93273D02*
Y249515D01*
X93773D01*
Y250015D01*
X94773D01*
Y249515D02*
Y250015D01*
Y249515D02*
X95273D01*
Y248515D02*
Y249515D01*
X94773Y248515D02*
X95273D01*
X94773Y248015D02*
Y248515D01*
X93773Y248015D02*
X94773D01*
X93773D02*
Y248515D01*
X64551Y208555D02*
X65051D01*
X64551D02*
Y209555D01*
X65051D01*
Y210055D01*
X66051D01*
Y209555D02*
Y210055D01*
Y209555D02*
X66551D01*
Y208555D02*
Y209555D01*
X66051Y208555D02*
X66551D01*
X66051Y208055D02*
Y208555D01*
X65051Y208055D02*
X66051D01*
X65051D02*
Y208555D01*
X68882D02*
X69382D01*
X68882D02*
Y209555D01*
X69382D01*
Y210055D01*
X70382D01*
Y209555D02*
Y210055D01*
Y209555D02*
X70882D01*
Y208555D02*
Y209555D01*
X70382Y208555D02*
X70882D01*
X70382Y208055D02*
Y208555D01*
X69382Y208055D02*
X70382D01*
X69382D02*
Y208555D01*
X62189Y211311D02*
X62689D01*
X62189D02*
Y212311D01*
X62689D01*
Y212811D01*
X63689D01*
Y212311D02*
Y212811D01*
Y212311D02*
X64189D01*
Y211311D02*
Y212311D01*
X63689Y211311D02*
X64189D01*
X63689Y210811D02*
Y211311D01*
X62689Y210811D02*
X63689D01*
X62689D02*
Y211311D01*
X71244D02*
X71744D01*
X71244D02*
Y212311D01*
X71744D01*
Y212811D01*
X72744D01*
Y212311D02*
Y212811D01*
Y212311D02*
X73244D01*
Y211311D02*
Y212311D01*
X72744Y211311D02*
X73244D01*
X72744Y210811D02*
Y211311D01*
X71744Y210811D02*
X72744D01*
X71744D02*
Y211311D01*
X64551Y213673D02*
X65051D01*
X64551D02*
Y214673D01*
X65051D01*
Y215173D01*
X66051D01*
Y214673D02*
Y215173D01*
Y214673D02*
X66551D01*
Y213673D02*
Y214673D01*
X66051Y213673D02*
X66551D01*
X66051Y213173D02*
Y213673D01*
X65051Y213173D02*
X66051D01*
X65051D02*
Y213673D01*
X68882D02*
X69382D01*
X68882D02*
Y214673D01*
X69382D01*
Y215173D01*
X70382D01*
Y214673D02*
Y215173D01*
Y214673D02*
X70882D01*
Y213673D02*
Y214673D01*
X70382Y213673D02*
X70882D01*
X70382Y213173D02*
Y213673D01*
X69382Y213173D02*
X70382D01*
X69382D02*
Y213673D01*
X66716Y211311D02*
X67216D01*
X66716D02*
Y212311D01*
X67216D01*
Y212811D01*
X68217D01*
Y212311D02*
Y212811D01*
Y212311D02*
X68717D01*
Y211311D02*
Y212311D01*
X68217Y211311D02*
X68717D01*
X68217Y210811D02*
Y211311D01*
X67216Y210811D02*
X68217D01*
X67216D02*
Y211311D01*
X66716Y193201D02*
X67216D01*
X66716D02*
Y194201D01*
X67216D01*
Y194701D01*
X68217D01*
Y194201D02*
Y194701D01*
Y194201D02*
X68717D01*
Y193201D02*
Y194201D01*
X68217Y193201D02*
X68717D01*
X68217Y192701D02*
Y193201D01*
X67216Y192701D02*
X68217D01*
X67216D02*
Y193201D01*
X68882Y190839D02*
X69382D01*
X68882D02*
Y191839D01*
X69382D01*
Y192339D01*
X70382D01*
Y191839D02*
Y192339D01*
Y191839D02*
X70882D01*
Y190839D02*
Y191839D01*
X70382Y190839D02*
X70882D01*
X70382Y190339D02*
Y190839D01*
X69382Y190339D02*
X70382D01*
X69382D02*
Y190839D01*
X64551D02*
X65051D01*
X64551D02*
Y191839D01*
X65051D01*
Y192339D01*
X66051D01*
Y191839D02*
Y192339D01*
Y191839D02*
X66551D01*
Y190839D02*
Y191839D01*
X66051Y190839D02*
X66551D01*
X66051Y190339D02*
Y190839D01*
X65051Y190339D02*
X66051D01*
X65051D02*
Y190839D01*
X71244Y193201D02*
X71744D01*
X71244D02*
Y194201D01*
X71744D01*
Y194701D01*
X72744D01*
Y194201D02*
Y194701D01*
Y194201D02*
X73244D01*
Y193201D02*
Y194201D01*
X72744Y193201D02*
X73244D01*
X72744Y192701D02*
Y193201D01*
X71744Y192701D02*
X72744D01*
X71744D02*
Y193201D01*
X62189D02*
X62689D01*
X62189D02*
Y194201D01*
X62689D01*
Y194701D01*
X63689D01*
Y194201D02*
Y194701D01*
Y194201D02*
X64189D01*
Y193201D02*
Y194201D01*
X63689Y193201D02*
X64189D01*
X63689Y192701D02*
Y193201D01*
X62689Y192701D02*
X63689D01*
X62689D02*
Y193201D01*
X68882Y195957D02*
X69382D01*
X68882D02*
Y196957D01*
X69382D01*
Y197457D01*
X70382D01*
Y196957D02*
Y197457D01*
Y196957D02*
X70882D01*
Y195957D02*
Y196957D01*
X70382Y195957D02*
X70882D01*
X70382Y195457D02*
Y195957D01*
X69382Y195457D02*
X70382D01*
X69382D02*
Y195957D01*
X64551D02*
X65051D01*
X64551D02*
Y196957D01*
X65051D01*
Y197457D01*
X66051D01*
Y196957D02*
Y197457D01*
Y196957D02*
X66551D01*
Y195957D02*
Y196957D01*
X66051Y195957D02*
X66551D01*
X66051Y195457D02*
Y195957D01*
X65051Y195457D02*
X66051D01*
X65051D02*
Y195957D01*
X66716Y236508D02*
X67216D01*
X66716D02*
Y237508D01*
X67216D01*
Y238008D01*
X68217D01*
Y237508D02*
Y238008D01*
Y237508D02*
X68717D01*
Y236508D02*
Y237508D01*
X68217Y236508D02*
X68717D01*
X68217Y236008D02*
Y236508D01*
X67216Y236008D02*
X68217D01*
X67216D02*
Y236508D01*
X68882Y234146D02*
X69382D01*
X68882D02*
Y235146D01*
X69382D01*
Y235646D01*
X70382D01*
Y235146D02*
Y235646D01*
Y235146D02*
X70882D01*
Y234146D02*
Y235146D01*
X70382Y234146D02*
X70882D01*
X70382Y233646D02*
Y234146D01*
X69382Y233646D02*
X70382D01*
X69382D02*
Y234146D01*
X64551D02*
X65051D01*
X64551D02*
Y235146D01*
X65051D01*
Y235646D01*
X66051D01*
Y235146D02*
Y235646D01*
Y235146D02*
X66551D01*
Y234146D02*
Y235146D01*
X66051Y234146D02*
X66551D01*
X66051Y233646D02*
Y234146D01*
X65051Y233646D02*
X66051D01*
X65051D02*
Y234146D01*
X71244Y236508D02*
X71744D01*
X71244D02*
Y237508D01*
X71744D01*
Y238008D01*
X72744D01*
Y237508D02*
Y238008D01*
Y237508D02*
X73244D01*
Y236508D02*
Y237508D01*
X72744Y236508D02*
X73244D01*
X72744Y236008D02*
Y236508D01*
X71744Y236008D02*
X72744D01*
X71744D02*
Y236508D01*
X62189D02*
X62689D01*
X62189D02*
Y237508D01*
X62689D01*
Y238008D01*
X63689D01*
Y237508D02*
Y238008D01*
Y237508D02*
X64189D01*
Y236508D02*
Y237508D01*
X63689Y236508D02*
X64189D01*
X63689Y236008D02*
Y236508D01*
X62689Y236008D02*
X63689D01*
X62689D02*
Y236508D01*
X68882Y239264D02*
X69382D01*
X68882D02*
Y240264D01*
X69382D01*
Y240764D01*
X70382D01*
Y240264D02*
Y240764D01*
Y240264D02*
X70882D01*
Y239264D02*
Y240264D01*
X70382Y239264D02*
X70882D01*
X70382Y238764D02*
Y239264D01*
X69382Y238764D02*
X70382D01*
X69382D02*
Y239264D01*
X64551D02*
X65051D01*
X64551D02*
Y240264D01*
X65051D01*
Y240764D01*
X66051D01*
Y240264D02*
Y240764D01*
Y240264D02*
X66551D01*
Y239264D02*
Y240264D01*
X66051Y239264D02*
X66551D01*
X66051Y238764D02*
Y239264D01*
X65051Y238764D02*
X66051D01*
X65051D02*
Y239264D01*
X66716Y254618D02*
X67216D01*
X66716D02*
Y255618D01*
X67216D01*
Y256118D01*
X68217D01*
Y255618D02*
Y256118D01*
Y255618D02*
X68717D01*
Y254618D02*
Y255618D01*
X68217Y254618D02*
X68717D01*
X68217Y254118D02*
Y254618D01*
X67216Y254118D02*
X68217D01*
X67216D02*
Y254618D01*
X68882Y256980D02*
X69382D01*
X68882D02*
Y257980D01*
X69382D01*
Y258480D01*
X70382D01*
Y257980D02*
Y258480D01*
Y257980D02*
X70882D01*
Y256980D02*
Y257980D01*
X70382Y256980D02*
X70882D01*
X70382Y256480D02*
Y256980D01*
X69382Y256480D02*
X70382D01*
X69382D02*
Y256980D01*
X64551D02*
X65051D01*
X64551D02*
Y257980D01*
X65051D01*
Y258480D01*
X66051D01*
Y257980D02*
Y258480D01*
Y257980D02*
X66551D01*
Y256980D02*
Y257980D01*
X66051Y256980D02*
X66551D01*
X66051Y256480D02*
Y256980D01*
X65051Y256480D02*
X66051D01*
X65051D02*
Y256980D01*
X71244Y254618D02*
X71744D01*
X71244D02*
Y255618D01*
X71744D01*
Y256118D01*
X72744D01*
Y255618D02*
Y256118D01*
Y255618D02*
X73244D01*
Y254618D02*
Y255618D01*
X72744Y254618D02*
X73244D01*
X72744Y254118D02*
Y254618D01*
X71744Y254118D02*
X72744D01*
X71744D02*
Y254618D01*
X62189D02*
X62689D01*
X62189D02*
Y255618D01*
X62689D01*
Y256118D01*
X63689D01*
Y255618D02*
Y256118D01*
Y255618D02*
X64189D01*
Y254618D02*
Y255618D01*
X63689Y254618D02*
X64189D01*
X63689Y254118D02*
Y254618D01*
X62689Y254118D02*
X63689D01*
X62689D02*
Y254618D01*
X68882Y251862D02*
X69382D01*
X68882D02*
Y252862D01*
X69382D01*
Y253362D01*
X70382D01*
Y252862D02*
Y253362D01*
Y252862D02*
X70882D01*
Y251862D02*
Y252862D01*
X70382Y251862D02*
X70882D01*
X70382Y251362D02*
Y251862D01*
X69382Y251362D02*
X70382D01*
X69382D02*
Y251862D01*
X64551D02*
X65051D01*
X64551D02*
Y252862D01*
X65051D01*
Y253362D01*
X66051D01*
Y252862D02*
Y253362D01*
Y252862D02*
X66551D01*
Y251862D02*
Y252862D01*
X66051Y251862D02*
X66551D01*
X66051Y251362D02*
Y251862D01*
X65051Y251362D02*
X66051D01*
X65051D02*
Y251862D01*
X62189Y231390D02*
X62689D01*
X62189D02*
Y232390D01*
X62689D01*
Y232890D01*
X63689D01*
Y232390D02*
Y232890D01*
Y232390D02*
X64189D01*
Y231390D02*
Y232390D01*
X63689Y231390D02*
X64189D01*
X63689Y230890D02*
Y231390D01*
X62689Y230890D02*
X63689D01*
X62689D02*
Y231390D01*
X71244D02*
X71744D01*
X71244D02*
Y232390D01*
X71744D01*
Y232890D01*
X72744D01*
Y232390D02*
Y232890D01*
Y232390D02*
X73244D01*
Y231390D02*
Y232390D01*
X72744Y231390D02*
X73244D01*
X72744Y230890D02*
Y231390D01*
X71744Y230890D02*
X72744D01*
X71744D02*
Y231390D01*
X66716D02*
X67216D01*
X66716D02*
Y232390D01*
X67216D01*
Y232890D01*
X68217D01*
Y232390D02*
Y232890D01*
Y232390D02*
X68717D01*
Y231390D02*
Y232390D01*
X68217Y231390D02*
X68717D01*
X68217Y230890D02*
Y231390D01*
X67216Y230890D02*
X68217D01*
X67216D02*
Y231390D01*
X62189Y188083D02*
X62689D01*
X62189D02*
Y189083D01*
X62689D01*
Y189583D01*
X63689D01*
Y189083D02*
Y189583D01*
Y189083D02*
X64189D01*
Y188083D02*
Y189083D01*
X63689Y188083D02*
X64189D01*
X63689Y187583D02*
Y188083D01*
X62689Y187583D02*
X63689D01*
X62689D02*
Y188083D01*
X71244D02*
X71744D01*
X71244D02*
Y189083D01*
X71744D01*
Y189583D01*
X72744D01*
Y189083D02*
Y189583D01*
Y189083D02*
X73244D01*
Y188083D02*
Y189083D01*
X72744Y188083D02*
X73244D01*
X72744Y187583D02*
Y188083D01*
X71744Y187583D02*
X72744D01*
X71744D02*
Y188083D01*
X66716D02*
X67216D01*
X66716D02*
Y189083D01*
X67216D01*
Y189583D01*
X68217D01*
Y189083D02*
Y189583D01*
Y189083D02*
X68717D01*
Y188083D02*
Y189083D01*
X68217Y188083D02*
X68717D01*
X68217Y187583D02*
Y188083D01*
X67216Y187583D02*
X68217D01*
X67216D02*
Y188083D01*
X157701Y127807D02*
X158201D01*
X157701D02*
Y128807D01*
X158201D01*
Y129307D01*
X159201D01*
Y128807D02*
Y129307D01*
Y128807D02*
X159701D01*
Y127807D02*
Y128807D01*
X159201Y127807D02*
X159701D01*
X159201Y127307D02*
Y127807D01*
X158201Y127307D02*
X159201D01*
X158201D02*
Y127807D01*
X154512Y130209D02*
X155012D01*
X154512D02*
Y131209D01*
X155012D01*
Y131709D01*
X156012D01*
Y131209D02*
Y131709D01*
Y131209D02*
X156512D01*
Y130209D02*
Y131209D01*
X156012Y130209D02*
X156512D01*
X156012Y129709D02*
Y130209D01*
X155012Y129709D02*
X156012D01*
X155012D02*
Y130209D01*
X121046Y139266D02*
X121546D01*
X121046D02*
Y140266D01*
X121546D01*
Y140766D01*
X122546D01*
Y140266D02*
Y140766D01*
Y140266D02*
X123046D01*
Y139266D02*
Y140266D01*
X122546Y139266D02*
X123046D01*
X122546Y138766D02*
Y139266D01*
X121546Y138766D02*
X122546D01*
X121546D02*
Y139266D01*
X118683Y141628D02*
X119183D01*
X118683D02*
Y142628D01*
X119183D01*
Y143128D01*
X120183D01*
Y142628D02*
Y143128D01*
Y142628D02*
X120683D01*
Y141628D02*
Y142628D01*
X120183Y141628D02*
X120683D01*
X120183Y141128D02*
Y141628D01*
X119183Y141128D02*
X120183D01*
X119183D02*
Y141628D01*
X132857Y151076D02*
X133357D01*
X132857D02*
Y152076D01*
X133357D01*
Y152576D01*
X134357D01*
Y152076D02*
Y152576D01*
Y152076D02*
X134857D01*
Y151076D02*
Y152076D01*
X134357Y151076D02*
X134857D01*
X134357Y150576D02*
Y151076D01*
X133357Y150576D02*
X134357D01*
X133357D02*
Y151076D01*
X130494Y153439D02*
X130994D01*
X130494D02*
Y154439D01*
X130994D01*
Y154939D01*
X131994D01*
Y154439D02*
Y154939D01*
Y154439D02*
X132494D01*
Y153439D02*
Y154439D01*
X131994Y153439D02*
X132494D01*
X131994Y152939D02*
Y153439D01*
X130994Y152939D02*
X131994D01*
X130994D02*
Y153439D01*
X169864Y114069D02*
X170364D01*
X169864D02*
Y115069D01*
X170364D01*
Y115569D01*
X171364D01*
Y115069D02*
Y115569D01*
Y115069D02*
X171864D01*
Y114069D02*
Y115069D01*
X171364Y114069D02*
X171864D01*
X171364Y113569D02*
Y114069D01*
X170364Y113569D02*
X171364D01*
X170364D02*
Y114069D01*
X158053Y102258D02*
X158553D01*
X158053D02*
Y103258D01*
X158553D01*
Y103758D01*
X159553D01*
Y103258D02*
Y103758D01*
Y103258D02*
X160053D01*
Y102258D02*
Y103258D01*
X159553Y102258D02*
X160053D01*
X159553Y101758D02*
Y102258D01*
X158553Y101758D02*
X159553D01*
X158553D02*
Y102258D01*
X160416Y99895D02*
X160916D01*
X160416D02*
Y100895D01*
X160916D01*
Y101395D01*
X161916D01*
Y100895D02*
Y101395D01*
Y100895D02*
X162416D01*
Y99895D02*
Y100895D01*
X161916Y99895D02*
X162416D01*
X161916Y99395D02*
Y99895D01*
X160916Y99395D02*
X161916D01*
X160916D02*
Y99895D01*
X140969Y163043D02*
X141469D01*
X140969D02*
Y164043D01*
X141469D01*
Y164543D01*
X142469D01*
Y164043D02*
Y164543D01*
Y164043D02*
X142969D01*
Y163043D02*
Y164043D01*
X142469Y163043D02*
X142969D01*
X142469Y162543D02*
Y163043D01*
X141469Y162543D02*
X142469D01*
X141469D02*
Y163043D01*
X143331Y160681D02*
X143831D01*
X143331D02*
Y161681D01*
X143831D01*
Y162181D01*
X144831D01*
Y161681D02*
Y162181D01*
Y161681D02*
X145331D01*
Y160681D02*
Y161681D01*
X144831Y160681D02*
X145331D01*
X144831Y160181D02*
Y160681D01*
X143831Y160181D02*
X144831D01*
X143831D02*
Y160681D01*
X117858Y186941D02*
X118358D01*
X117858D02*
Y187941D01*
X118358D01*
Y188441D01*
X119358D01*
Y187941D02*
Y188441D01*
Y187941D02*
X119858D01*
Y186941D02*
Y187941D01*
X119358Y186941D02*
X119858D01*
X119358Y186441D02*
Y186941D01*
X118358Y186441D02*
X119358D01*
X118358D02*
Y186941D01*
X120220Y184579D02*
X120720D01*
X120220D02*
Y185579D01*
X120720D01*
Y186079D01*
X121720D01*
Y185579D02*
Y186079D01*
Y185579D02*
X122220D01*
Y184579D02*
Y185579D01*
X121720Y184579D02*
X122220D01*
X121720Y184079D02*
Y184579D01*
X120720Y184079D02*
X121720D01*
X120720D02*
Y184579D01*
X85416Y152848D02*
X85916D01*
X85416D02*
Y153848D01*
X85916D01*
Y154348D01*
X86916D01*
Y153848D02*
Y154348D01*
Y153848D02*
X87416D01*
Y152848D02*
Y153848D01*
X86916Y152848D02*
X87416D01*
X86916Y152348D02*
Y152848D01*
X85916Y152348D02*
X86916D01*
X85916D02*
Y152848D01*
X83053Y155210D02*
X83553D01*
X83053D02*
Y156210D01*
X83553D01*
Y156710D01*
X84553D01*
Y156210D02*
Y156710D01*
Y156210D02*
X85053D01*
Y155210D02*
Y156210D01*
X84553Y155210D02*
X85053D01*
X84553Y154710D02*
Y155210D01*
X83553Y154710D02*
X84553D01*
X83553D02*
Y155210D01*
X151126Y152886D02*
X151626D01*
X151126D02*
Y153886D01*
X151626D01*
Y154386D01*
X152626D01*
Y153886D02*
Y154386D01*
Y153886D02*
X153126D01*
Y152886D02*
Y153886D01*
X152626Y152886D02*
X153126D01*
X152626Y152386D02*
Y152886D01*
X151626Y152386D02*
X152626D01*
X151626D02*
Y152886D01*
X52328Y184539D02*
X52828D01*
X52328D02*
Y185539D01*
X52828D01*
Y186039D01*
X53828D01*
Y185539D02*
Y186039D01*
Y185539D02*
X54328D01*
Y184539D02*
Y185539D01*
X53828Y184539D02*
X54328D01*
X53828Y184039D02*
Y184539D01*
X52828Y184039D02*
X53828D01*
X52828D02*
Y184539D01*
X52328Y180602D02*
X52828D01*
X52328D02*
Y181602D01*
X52828D01*
Y182102D01*
X53828D01*
Y181602D02*
Y182102D01*
Y181602D02*
X54328D01*
Y180602D02*
Y181602D01*
X53828Y180602D02*
X54328D01*
X53828Y180102D02*
Y180602D01*
X52828Y180102D02*
X53828D01*
X52828D02*
Y180602D01*
X3921Y114245D02*
X4421D01*
X3921D02*
Y115245D01*
X4421D01*
Y115745D01*
X5421D01*
Y115245D02*
Y115745D01*
Y115245D02*
X5921D01*
Y114245D02*
Y115245D01*
X5421Y114245D02*
X5921D01*
X5421Y113745D02*
Y114245D01*
X4421Y113745D02*
X5421D01*
X4421D02*
Y114245D01*
X7858D02*
X8358D01*
X7858D02*
Y115245D01*
X8358D01*
Y115745D01*
X9358D01*
Y115245D02*
Y115745D01*
Y115245D02*
X9858D01*
Y114245D02*
Y115245D01*
X9358Y114245D02*
X9858D01*
X9358Y113745D02*
Y114245D01*
X8358Y113745D02*
X9358D01*
X8358D02*
Y114245D01*
X13763Y113593D02*
X14264D01*
X13763D02*
Y114593D01*
X14264D01*
Y115093D01*
X15263D01*
Y114593D02*
Y115093D01*
Y114593D02*
X15764D01*
Y113593D02*
Y114593D01*
X15263Y113593D02*
X15764D01*
X15263Y113093D02*
Y113593D01*
X14264Y113093D02*
X15263D01*
X14264D02*
Y113593D01*
X71043Y137693D02*
X71543D01*
X71043D02*
Y138693D01*
X71543D01*
Y139193D01*
X72543D01*
Y138693D02*
Y139193D01*
Y138693D02*
X73043D01*
Y137693D02*
Y138693D01*
X72543Y137693D02*
X73043D01*
X72543Y137193D02*
Y137693D01*
X71543Y137193D02*
X72543D01*
X71543D02*
Y137693D01*
X56480Y243595D02*
X56980D01*
X56480D02*
Y244595D01*
X56980D01*
Y245094D01*
X57980D01*
Y244595D02*
Y245094D01*
Y244595D02*
X58480D01*
Y243595D02*
Y244595D01*
X57980Y243595D02*
X58480D01*
X57980Y243094D02*
Y243595D01*
X56980Y243094D02*
X57980D01*
X56980D02*
Y243595D01*
X169471Y137297D02*
X169971D01*
X169471D02*
Y138297D01*
X169971D01*
Y138797D01*
X170971D01*
Y138297D02*
Y138797D01*
Y138297D02*
X171471D01*
Y137297D02*
Y138297D01*
X170971Y137297D02*
X171471D01*
X170971Y136797D02*
Y137297D01*
X169971Y136797D02*
X170971D01*
X169971D02*
Y137297D01*
X163959Y127061D02*
X164459D01*
X163959D02*
Y128061D01*
X164459D01*
Y128561D01*
X165459D01*
Y128061D02*
Y128561D01*
Y128061D02*
X165959D01*
Y127061D02*
Y128061D01*
X165459Y127061D02*
X165959D01*
X165459Y126561D02*
Y127061D01*
X164459Y126561D02*
X165459D01*
X164459D02*
Y127061D01*
X56480Y200287D02*
X56980D01*
X56480D02*
Y201287D01*
X56980D01*
Y201787D01*
X57980D01*
Y201287D02*
Y201787D01*
Y201287D02*
X58480D01*
Y200287D02*
Y201287D01*
X57980Y200287D02*
X58480D01*
X57980Y199787D02*
Y200287D01*
X56980Y199787D02*
X57980D01*
X56980D02*
Y200287D01*
X86795Y219579D02*
X87295D01*
X86795D02*
Y220579D01*
X87295D01*
Y221079D01*
X88295D01*
Y220579D02*
Y221079D01*
Y220579D02*
X88795D01*
Y219579D02*
Y220579D01*
X88295Y219579D02*
X88795D01*
X88295Y219079D02*
Y219579D01*
X87295Y219079D02*
X88295D01*
X87295D02*
Y219579D01*
X88763Y232196D02*
X89263D01*
X88763D02*
Y233196D01*
X89263D01*
Y233697D01*
X90263D01*
Y233196D02*
Y233697D01*
Y233196D02*
X90763D01*
Y232196D02*
Y233196D01*
X90263Y232196D02*
X90763D01*
X90263Y231697D02*
Y232196D01*
X89263Y231697D02*
X90263D01*
X89263D02*
Y232196D01*
X88763Y188889D02*
X89263D01*
X88763D02*
Y189889D01*
X89263D01*
Y190389D01*
X90263D01*
Y189889D02*
Y190389D01*
Y189889D02*
X90763D01*
Y188889D02*
Y189889D01*
X90263Y188889D02*
X90763D01*
X90263Y188389D02*
Y188889D01*
X89263Y188389D02*
X90263D01*
X89263D02*
Y188889D01*
X55872Y193398D02*
X56372D01*
X55872D02*
Y194398D01*
X56372D01*
Y194898D01*
X57372D01*
Y194398D02*
Y194898D01*
Y194398D02*
X57872D01*
Y193398D02*
Y194398D01*
X57372Y193398D02*
X57872D01*
X57372Y192898D02*
Y193398D01*
X56372Y192898D02*
X57372D01*
X56372D02*
Y193398D01*
X55872Y236705D02*
X56372D01*
X55872D02*
Y237705D01*
X56372D01*
Y238205D01*
X57372D01*
Y237705D02*
Y238205D01*
Y237705D02*
X57872D01*
Y236705D02*
Y237705D01*
X57372Y236705D02*
X57872D01*
X57372Y236205D02*
Y236705D01*
X56372Y236205D02*
X57372D01*
X56372D02*
Y236705D01*
X10436Y218201D02*
X10936D01*
X10436D02*
Y219201D01*
X10936D01*
Y219701D01*
X11936D01*
Y219201D02*
Y219701D01*
Y219201D02*
X12436D01*
Y218201D02*
Y219201D01*
X11936Y218201D02*
X12436D01*
X11936Y217701D02*
Y218201D01*
X10936Y217701D02*
X11936D01*
X10936D02*
Y218201D01*
X10436Y198516D02*
X10936D01*
X10436D02*
Y199516D01*
X10936D01*
Y200016D01*
X11936D01*
Y199516D02*
Y200016D01*
Y199516D02*
X12436D01*
Y198516D02*
Y199516D01*
X11936Y198516D02*
X12436D01*
X11936Y198016D02*
Y198516D01*
X10936Y198016D02*
X11936D01*
X10936D02*
Y198516D01*
X105084Y248713D02*
X105584D01*
X105084D02*
Y249713D01*
X105584D01*
Y250213D01*
X106584D01*
Y249713D02*
Y250213D01*
Y249713D02*
X107084D01*
Y248713D02*
Y249713D01*
X106584Y248713D02*
X107084D01*
X106584Y248213D02*
Y248713D01*
X105584Y248213D02*
X106584D01*
X105584D02*
Y248713D01*
X120832D02*
X121332D01*
X120832D02*
Y249713D01*
X121332D01*
Y250213D01*
X122332D01*
Y249713D02*
Y250213D01*
Y249713D02*
X122832D01*
Y248713D02*
Y249713D01*
X122332Y248713D02*
X122832D01*
X122332Y248213D02*
Y248713D01*
X121332Y248213D02*
X122332D01*
X121332D02*
Y248713D01*
X139504Y251373D02*
X140004D01*
X139504D02*
Y252373D01*
X140004D01*
Y252873D01*
X141004D01*
Y252373D02*
Y252873D01*
Y252373D02*
X141504D01*
Y251373D02*
Y252373D01*
X141004Y251373D02*
X141504D01*
X141004Y250873D02*
Y251373D01*
X140004Y250873D02*
X141004D01*
X140004D02*
Y251373D01*
X139504Y247436D02*
X140004D01*
X139504D02*
Y248436D01*
X140004D01*
Y248936D01*
X141004D01*
Y248436D02*
Y248936D01*
Y248436D02*
X141504D01*
Y247436D02*
Y248436D01*
X141004Y247436D02*
X141504D01*
X141004Y246936D02*
Y247436D01*
X140004Y246936D02*
X141004D01*
X140004D02*
Y247436D01*
X140223Y257177D02*
X140723D01*
X140223D02*
Y258177D01*
X140723D01*
Y258677D01*
X141723D01*
Y258177D02*
Y258677D01*
Y258177D02*
X142222D01*
Y257177D02*
Y258177D01*
X141723Y257177D02*
X142222D01*
X141723Y256677D02*
Y257177D01*
X140723Y256677D02*
X141723D01*
X140723D02*
Y257177D01*
X148764Y155248D02*
X149264D01*
X148764D02*
Y156248D01*
X149264D01*
Y156748D01*
X150264D01*
Y156248D02*
Y156748D01*
Y156248D02*
X150764D01*
Y155248D02*
Y156248D01*
X150264Y155248D02*
X150764D01*
X150264Y154748D02*
Y155248D01*
X149264Y154748D02*
X150264D01*
X149264D02*
Y155248D01*
X106492Y195398D02*
X106992D01*
X106492D02*
Y196398D01*
X106992D01*
Y196898D01*
X107992D01*
Y196398D02*
Y196898D01*
Y196398D02*
X108493D01*
Y195398D02*
Y196398D01*
X107992Y195398D02*
X108493D01*
X107992Y194898D02*
Y195398D01*
X106992Y194898D02*
X107992D01*
X106992D02*
Y195398D01*
X105269Y198622D02*
X105769D01*
X105269D02*
Y199622D01*
X105769D01*
Y200122D01*
X106769D01*
Y199622D02*
Y200122D01*
Y199622D02*
X107269D01*
Y198622D02*
Y199622D01*
X106769Y198622D02*
X107269D01*
X106769Y198122D02*
Y198622D01*
X105769Y198122D02*
X106769D01*
X105769D02*
Y198622D01*
X64748Y204709D02*
Y205209D01*
X65248Y205709D01*
X64748Y206209D02*
X65248Y205709D01*
X64748Y206209D02*
Y206709D01*
X65248D01*
X65748Y206209D01*
X66248Y206709D01*
X66748D01*
Y206209D02*
Y206709D01*
X66248Y205709D02*
X66748Y206209D01*
X66248Y205709D02*
X66748Y205209D01*
Y204709D02*
Y205209D01*
X66248Y204709D02*
X66748D01*
X65748Y205209D02*
X66248Y204709D01*
X65248D02*
X65748Y205209D01*
X64748Y204709D02*
X65248D01*
X64748Y198803D02*
Y199303D01*
X65248Y199803D01*
X64748Y200303D02*
X65248Y199803D01*
X64748Y200303D02*
Y200803D01*
X65248D01*
X65748Y200303D01*
X66248Y200803D01*
X66748D01*
Y200303D02*
Y200803D01*
X66248Y199803D02*
X66748Y200303D01*
X66248Y199803D02*
X66748Y199303D01*
Y198803D02*
Y199303D01*
X66248Y198803D02*
X66748D01*
X65748Y199303D02*
X66248Y198803D01*
X65248D02*
X65748Y199303D01*
X64748Y198803D02*
X65248D01*
X68685D02*
Y199303D01*
X69185Y199803D01*
X68685Y200303D02*
X69185Y199803D01*
X68685Y200303D02*
Y200803D01*
X69185D01*
X69685Y200303D01*
X70185Y200803D01*
X70685D01*
Y200303D02*
Y200803D01*
X70185Y199803D02*
X70685Y200303D01*
X70185Y199803D02*
X70685Y199303D01*
Y198803D02*
Y199303D01*
X70185Y198803D02*
X70685D01*
X69685Y199303D02*
X70185Y198803D01*
X69185D02*
X69685Y199303D01*
X68685Y198803D02*
X69185D01*
X68685Y204709D02*
Y205209D01*
X69185Y205709D01*
X68685Y206209D02*
X69185Y205709D01*
X68685Y206209D02*
Y206709D01*
X69185D01*
X69685Y206209D01*
X70185Y206709D01*
X70685D01*
Y206209D02*
Y206709D01*
X70185Y205709D02*
X70685Y206209D01*
X70185Y205709D02*
X70685Y205209D01*
Y204709D02*
Y205209D01*
X70185Y204709D02*
X70685D01*
X69685Y205209D02*
X70185Y204709D01*
X69185D02*
X69685Y205209D01*
X68685Y204709D02*
X69185D01*
X66716Y201756D02*
Y202256D01*
X67216Y202756D01*
X66716Y203256D02*
X67216Y202756D01*
X66716Y203256D02*
Y203756D01*
X67216D01*
X67716Y203256D01*
X68217Y203756D01*
X68717D01*
Y203256D02*
Y203756D01*
X68217Y202756D02*
X68717Y203256D01*
X68217Y202756D02*
X68717Y202256D01*
Y201756D02*
Y202256D01*
X68217Y201756D02*
X68717D01*
X67716Y202256D02*
X68217Y201756D01*
X67216D02*
X67716Y202256D01*
X66716Y201756D02*
X67216D01*
X64748Y248016D02*
Y248516D01*
X65248Y249016D01*
X64748Y249516D02*
X65248Y249016D01*
X64748Y249516D02*
Y250016D01*
X65248D01*
X65748Y249516D01*
X66248Y250016D01*
X66748D01*
Y249516D02*
Y250016D01*
X66248Y249016D02*
X66748Y249516D01*
X66248Y249016D02*
X66748Y248516D01*
Y248016D02*
Y248516D01*
X66248Y248016D02*
X66748D01*
X65748Y248516D02*
X66248Y248016D01*
X65248D02*
X65748Y248516D01*
X64748Y248016D02*
X65248D01*
X64748Y242110D02*
Y242610D01*
X65248Y243110D01*
X64748Y243610D02*
X65248Y243110D01*
X64748Y243610D02*
Y244110D01*
X65248D01*
X65748Y243610D01*
X66248Y244110D01*
X66748D01*
Y243610D02*
Y244110D01*
X66248Y243110D02*
X66748Y243610D01*
X66248Y243110D02*
X66748Y242610D01*
Y242110D02*
Y242610D01*
X66248Y242110D02*
X66748D01*
X65748Y242610D02*
X66248Y242110D01*
X65248D02*
X65748Y242610D01*
X64748Y242110D02*
X65248D01*
X68685D02*
Y242610D01*
X69185Y243110D01*
X68685Y243610D02*
X69185Y243110D01*
X68685Y243610D02*
Y244110D01*
X69185D01*
X69685Y243610D01*
X70185Y244110D01*
X70685D01*
Y243610D02*
Y244110D01*
X70185Y243110D02*
X70685Y243610D01*
X70185Y243110D02*
X70685Y242610D01*
Y242110D02*
Y242610D01*
X70185Y242110D02*
X70685D01*
X69685Y242610D02*
X70185Y242110D01*
X69185D02*
X69685Y242610D01*
X68685Y242110D02*
X69185D01*
X68685Y248016D02*
Y248516D01*
X69185Y249016D01*
X68685Y249516D02*
X69185Y249016D01*
X68685Y249516D02*
Y250016D01*
X69185D01*
X69685Y249516D01*
X70185Y250016D01*
X70685D01*
Y249516D02*
Y250016D01*
X70185Y249016D02*
X70685Y249516D01*
X70185Y249016D02*
X70685Y248516D01*
Y248016D02*
Y248516D01*
X70185Y248016D02*
X70685D01*
X69685Y248516D02*
X70185Y248016D01*
X69185D02*
X69685Y248516D01*
X68685Y248016D02*
X69185D01*
X66716Y245063D02*
Y245563D01*
X67216Y246063D01*
X66716Y246563D02*
X67216Y246063D01*
X66716Y246563D02*
Y247063D01*
X67216D01*
X67716Y246563D01*
X68217Y247063D01*
X68717D01*
Y246563D02*
Y247063D01*
X68217Y246063D02*
X68717Y246563D01*
X68217Y246063D02*
X68717Y245563D01*
Y245063D02*
Y245563D01*
X68217Y245063D02*
X68717D01*
X67716Y245563D02*
X68217Y245063D01*
X67216D02*
X67716Y245563D01*
X66716Y245063D02*
X67216D01*
X17486Y205996D02*
X17986D01*
X17486D02*
Y206996D01*
X17986D01*
Y207496D01*
X18986D01*
Y206996D02*
Y207496D01*
Y206996D02*
X19486D01*
Y205996D02*
Y206996D01*
X18986Y205996D02*
X19486D01*
X18986Y205496D02*
Y205996D01*
X17986Y205496D02*
X18986D01*
X17986D02*
Y205996D01*
X17486Y225681D02*
X17986D01*
X17486D02*
Y226681D01*
X17986D01*
Y227181D01*
X18986D01*
Y226681D02*
Y227181D01*
Y226681D02*
X19486D01*
Y225681D02*
Y226681D01*
X18986Y225681D02*
X19486D01*
X18986Y225181D02*
Y225681D01*
X17986Y225181D02*
X18986D01*
X17986D02*
Y225681D01*
X42307Y189461D02*
X42807D01*
X42307D02*
Y190461D01*
X42807D01*
Y190961D01*
X43807D01*
Y190461D02*
Y190961D01*
Y190461D02*
X44307D01*
Y189461D02*
Y190461D01*
X43807Y189461D02*
X44307D01*
X43807Y188961D02*
Y189461D01*
X42807Y188961D02*
X43807D01*
X42807D02*
Y189461D01*
X96244Y253043D02*
X96744D01*
X96244D02*
Y254043D01*
X96744D01*
Y254543D01*
X97744D01*
Y254043D02*
Y254543D01*
Y254043D02*
X98244D01*
Y253043D02*
Y254043D01*
X97744Y253043D02*
X98244D01*
X97744Y252543D02*
Y253043D01*
X96744Y252543D02*
X97744D01*
X96744D02*
Y253043D01*
X62189Y266429D02*
X62689D01*
X62189D02*
Y267429D01*
X62689D01*
Y267929D01*
X63689D01*
Y267429D02*
Y267929D01*
Y267429D02*
X64189D01*
Y266429D02*
Y267429D01*
X63689Y266429D02*
X64189D01*
X63689Y265929D02*
Y266429D01*
X62689Y265929D02*
X63689D01*
X62689D02*
Y266429D01*
X71244D02*
X71744D01*
X71244D02*
Y267429D01*
X71744D01*
Y267929D01*
X72744D01*
Y267429D02*
Y267929D01*
Y267429D02*
X73244D01*
Y266429D02*
Y267429D01*
X72744Y266429D02*
X73244D01*
X72744Y265929D02*
Y266429D01*
X71744Y265929D02*
X72744D01*
X71744D02*
Y266429D01*
X64551Y268791D02*
X65051D01*
X64551D02*
Y269791D01*
X65051D01*
Y270291D01*
X66051D01*
Y269791D02*
Y270291D01*
Y269791D02*
X66551D01*
Y268791D02*
Y269791D01*
X66051Y268791D02*
X66551D01*
X66051Y268291D02*
Y268791D01*
X65051Y268291D02*
X66051D01*
X65051D02*
Y268791D01*
X68882D02*
X69382D01*
X68882D02*
Y269791D01*
X69382D01*
Y270291D01*
X70382D01*
Y269791D02*
Y270291D01*
Y269791D02*
X70882D01*
Y268791D02*
Y269791D01*
X70382Y268791D02*
X70882D01*
X70382Y268291D02*
Y268791D01*
X69382Y268291D02*
X70382D01*
X69382D02*
Y268791D01*
X66716Y266429D02*
X67216D01*
X66716D02*
Y267429D01*
X67216D01*
Y267929D01*
X68217D01*
Y267429D02*
Y267929D01*
Y267429D02*
X68717D01*
Y266429D02*
Y267429D01*
X68217Y266429D02*
X68717D01*
X68217Y265929D02*
Y266429D01*
X67216Y265929D02*
X68217D01*
X67216D02*
Y266429D01*
X66716Y226272D02*
X67216D01*
X66716D02*
Y227272D01*
X67216D01*
Y227772D01*
X68217D01*
Y227272D02*
Y227772D01*
Y227272D02*
X68717D01*
Y226272D02*
Y227272D01*
X68217Y226272D02*
X68717D01*
X68217Y225772D02*
Y226272D01*
X67216Y225772D02*
X68217D01*
X67216D02*
Y226272D01*
X71244D02*
X71744D01*
X71244D02*
Y227272D01*
X71744D01*
Y227772D01*
X72744D01*
Y227272D02*
Y227772D01*
Y227272D02*
X73244D01*
Y226272D02*
Y227272D01*
X72744Y226272D02*
X73244D01*
X72744Y225772D02*
Y226272D01*
X71744Y225772D02*
X72744D01*
X71744D02*
Y226272D01*
X62189D02*
X62689D01*
X62189D02*
Y227272D01*
X62689D01*
Y227772D01*
X63689D01*
Y227272D02*
Y227772D01*
Y227272D02*
X64189D01*
Y226272D02*
Y227272D01*
X63689Y226272D02*
X64189D01*
X63689Y225772D02*
Y226272D01*
X62689Y225772D02*
X63689D01*
X62689D02*
Y226272D01*
X64551Y229028D02*
X65051D01*
X64551D02*
Y230028D01*
X65051D01*
Y230528D01*
X66051D01*
Y230028D02*
Y230528D01*
Y230028D02*
X66551D01*
Y229028D02*
Y230028D01*
X66051Y229028D02*
X66551D01*
X66051Y228528D02*
Y229028D01*
X65051Y228528D02*
X66051D01*
X65051D02*
Y229028D01*
X68882D02*
X69382D01*
X68882D02*
Y230028D01*
X69382D01*
Y230528D01*
X70382D01*
Y230028D02*
Y230528D01*
Y230028D02*
X70882D01*
Y229028D02*
Y230028D01*
X70382Y229028D02*
X70882D01*
X70382Y228528D02*
Y229028D01*
X69382Y228528D02*
X70382D01*
X69382D02*
Y229028D01*
X64551Y223909D02*
X65051D01*
X64551D02*
Y224909D01*
X65051D01*
Y225409D01*
X66051D01*
Y224909D02*
Y225409D01*
Y224909D02*
X66551D01*
Y223909D02*
Y224909D01*
X66051Y223909D02*
X66551D01*
X66051Y223409D02*
Y223909D01*
X65051Y223409D02*
X66051D01*
X65051D02*
Y223909D01*
X68882D02*
X69382D01*
X68882D02*
Y224909D01*
X69382D01*
Y225409D01*
X70382D01*
Y224909D02*
Y225409D01*
Y224909D02*
X70882D01*
Y223909D02*
Y224909D01*
X70382Y223909D02*
X70882D01*
X70382Y223409D02*
Y223909D01*
X69382Y223409D02*
X70382D01*
X69382D02*
Y223909D01*
X62189Y216429D02*
X62689D01*
X62189D02*
Y217429D01*
X62689D01*
Y217929D01*
X63689D01*
Y217429D02*
Y217929D01*
Y217429D02*
X64189D01*
Y216429D02*
Y217429D01*
X63689Y216429D02*
X64189D01*
X63689Y215929D02*
Y216429D01*
X62689Y215929D02*
X63689D01*
X62689D02*
Y216429D01*
X71244D02*
X71744D01*
X71244D02*
Y217429D01*
X71744D01*
Y217929D01*
X72744D01*
Y217429D02*
Y217929D01*
Y217429D02*
X73244D01*
Y216429D02*
Y217429D01*
X72744Y216429D02*
X73244D01*
X72744Y215929D02*
Y216429D01*
X71744Y215929D02*
X72744D01*
X71744D02*
Y216429D01*
X66716D02*
X67216D01*
X66716D02*
Y217429D01*
X67216D01*
Y217929D01*
X68217D01*
Y217429D02*
Y217929D01*
Y217429D02*
X68717D01*
Y216429D02*
Y217429D01*
X68217Y216429D02*
X68717D01*
X68217Y215929D02*
Y216429D01*
X67216Y215929D02*
X68217D01*
X67216D02*
Y216429D01*
X29512Y238673D02*
X30012D01*
X29512D02*
Y239673D01*
X30012D01*
Y240173D01*
X31012D01*
Y239673D02*
Y240173D01*
Y239673D02*
X31512D01*
Y238673D02*
Y239673D01*
X31012Y238673D02*
X31512D01*
X31012Y238173D02*
Y238673D01*
X30012Y238173D02*
X31012D01*
X30012D02*
Y238673D01*
X148449Y82177D02*
X148949D01*
X148449D02*
Y83177D01*
X148949D01*
Y83677D01*
X149949D01*
Y83177D02*
Y83677D01*
Y83177D02*
X150449D01*
Y82177D02*
Y83177D01*
X149949Y82177D02*
X150449D01*
X149949Y81677D02*
Y82177D01*
X148949Y81677D02*
X149949D01*
X148949D02*
Y82177D01*
X148449Y42807D02*
X148949D01*
X148449D02*
Y43807D01*
X148949D01*
Y44307D01*
X149949D01*
Y43807D02*
Y44307D01*
Y43807D02*
X150449D01*
Y42807D02*
Y43807D01*
X149949Y42807D02*
X150449D01*
X149949Y42307D02*
Y42807D01*
X148949Y42307D02*
X149949D01*
X148949D02*
Y42807D01*
X135811Y72335D02*
X136311D01*
X135811D02*
Y73335D01*
X136311D01*
Y73835D01*
X137311D01*
Y73335D02*
Y73835D01*
Y73335D02*
X137811D01*
Y72335D02*
Y73335D01*
X137311Y72335D02*
X137811D01*
X137311Y71835D02*
Y72335D01*
X136311Y71835D02*
X137311D01*
X136311D02*
Y72335D01*
X64470Y133852D02*
X64970D01*
X64470D02*
Y134852D01*
X64970D01*
Y135352D01*
X65970D01*
Y134852D02*
Y135352D01*
Y134852D02*
X66470D01*
Y133852D02*
Y134852D01*
X65970Y133852D02*
X66470D01*
X65970Y133352D02*
Y133852D01*
X64970Y133352D02*
X65970D01*
X64970D02*
Y133852D01*
X81287Y127449D02*
X81787D01*
X81287D02*
Y128449D01*
X81787D01*
Y128949D01*
X82787D01*
Y128449D02*
Y128949D01*
Y128449D02*
X83287D01*
Y127449D02*
Y128449D01*
X82787Y127449D02*
X83287D01*
X82787Y126949D02*
Y127449D01*
X81787Y126949D02*
X82787D01*
X81787D02*
Y127449D01*
X128281Y210942D02*
X129281Y212942D01*
X127281D02*
X129281D01*
X127281D02*
X128281Y210942D01*
Y220129D02*
X129281Y222129D01*
X127281D02*
X129281D01*
X127281D02*
X128281Y220129D01*
X137468Y210942D02*
X138468Y212942D01*
X136468D02*
X138468D01*
X136468D02*
X137468Y210942D01*
Y220129D02*
X138468Y222129D01*
X136468D02*
X138468D01*
X136468D02*
X137468Y220129D01*
X16716Y242110D02*
X17717Y242610D01*
X18717Y242110D01*
X18216Y243110D02*
X18717Y242110D01*
X18216Y243110D02*
X18717Y244110D01*
X17717Y243610D02*
X18717Y244110D01*
X16716D02*
X17717Y243610D01*
X16716Y244110D02*
X17217Y243110D01*
X16716Y242110D02*
X17217Y243110D01*
X36402Y242110D02*
X37402Y242610D01*
X38402Y242110D01*
X37902Y243110D02*
X38402Y242110D01*
X37902Y243110D02*
X38402Y244110D01*
X37402Y243610D02*
X38402Y244110D01*
X36402D02*
X37402Y243610D01*
X36402Y244110D02*
X36902Y243110D01*
X36402Y242110D02*
X36902Y243110D01*
X19125Y173285D02*
X19625Y172785D01*
X18625Y173285D02*
X19125D01*
X18625D02*
X19125Y173785D01*
X18625Y174285D02*
X19125Y173785D01*
X18625Y174285D02*
X19125D01*
X19625Y174785D01*
X20125Y174285D01*
X20625D01*
X20125Y173785D02*
X20625Y174285D01*
X20125Y173785D02*
X20625Y173285D01*
X20125D02*
X20625D01*
X19625Y172785D02*
X20125Y173285D01*
X25552Y165625D02*
X26052Y165125D01*
X25052Y165625D02*
X25552D01*
X25052D02*
X25552Y166125D01*
X25052Y166625D02*
X25552Y166125D01*
X25052Y166625D02*
X25552D01*
X26052Y167125D01*
X26552Y166625D01*
X27052D01*
X26552Y166125D02*
X27052Y166625D01*
X26552Y166125D02*
X27052Y165625D01*
X26552D02*
X27052D01*
X26052Y165125D02*
X26552Y165625D01*
X12697Y180946D02*
X13197Y180446D01*
X12197Y180946D02*
X12697D01*
X12197D02*
X12697Y181446D01*
X12197Y181946D02*
X12697Y181446D01*
X12197Y181946D02*
X12697D01*
X13197Y182446D01*
X13697Y181946D01*
X14197D01*
X13697Y181446D02*
X14197Y181946D01*
X13697Y181446D02*
X14197Y180946D01*
X13697D02*
X14197D01*
X13197Y180446D02*
X13697Y180946D01*
X31980Y157965D02*
X32480Y157465D01*
X31480Y157965D02*
X31980D01*
X31480D02*
X31980Y158465D01*
X31480Y158965D02*
X31980Y158465D01*
X31480Y158965D02*
X31980D01*
X32480Y159465D01*
X32980Y158965D01*
X33480D01*
X32980Y158465D02*
X33480Y158965D01*
X32980Y158465D02*
X33480Y157965D01*
X32980D02*
X33480D01*
X32480Y157465D02*
X32980Y157965D01*
X109115Y66039D02*
X109615Y65539D01*
X108615Y66039D02*
X109115D01*
X108615D02*
X109115Y66539D01*
X108615Y67039D02*
X109115Y66539D01*
X108615Y67039D02*
X109115D01*
X109615Y67539D01*
X110115Y67039D01*
X110615D01*
X110115Y66539D02*
X110615Y67039D01*
X110115Y66539D02*
X110615Y66039D01*
X110115D02*
X110615D01*
X109615Y65539D02*
X110115Y66039D01*
X121971Y50718D02*
X122471Y50218D01*
X121471Y50718D02*
X121971D01*
X121471D02*
X121971Y51218D01*
X121471Y51718D02*
X121971Y51218D01*
X121471Y51718D02*
X121971D01*
X122471Y52218D01*
X122971Y51718D01*
X123471D01*
X122971Y51218D02*
X123471Y51718D01*
X122971Y51218D02*
X123471Y50718D01*
X122971D02*
X123471D01*
X122471Y50218D02*
X122971Y50718D01*
X115543Y58379D02*
X116043Y57879D01*
X115043Y58379D02*
X115543D01*
X115043D02*
X115543Y58879D01*
X115043Y59379D02*
X115543Y58879D01*
X115043Y59379D02*
X115543D01*
X116043Y59879D01*
X116543Y59379D01*
X117043D01*
X116543Y58879D02*
X117043Y59379D01*
X116543Y58879D02*
X117043Y58379D01*
X116543D02*
X117043D01*
X116043Y57879D02*
X116543Y58379D01*
X128399Y43058D02*
X128899Y42558D01*
X127899Y43058D02*
X128399D01*
X127899D02*
X128399Y43558D01*
X127899Y44058D02*
X128399Y43558D01*
X127899Y44058D02*
X128399D01*
X128899Y44558D01*
X129399Y44058D01*
X129899D01*
X129399Y43558D02*
X129899Y44058D01*
X129399Y43558D02*
X129899Y43058D01*
X129399D02*
X129899D01*
X128899Y42558D02*
X129399Y43058D01*
X134826Y35397D02*
X135326Y34898D01*
X134326Y35397D02*
X134826D01*
X134326D02*
X134826Y35897D01*
X134326Y36397D02*
X134826Y35897D01*
X134326Y36397D02*
X134826D01*
X135326Y36898D01*
X135826Y36397D01*
X136326D01*
X135826Y35897D02*
X136326Y36397D01*
X135826Y35897D02*
X136326Y35397D01*
X135826D02*
X136326D01*
X135326Y34898D02*
X135826Y35397D01*
X141254Y27737D02*
X141754Y27237D01*
X140754Y27737D02*
X141254D01*
X140754D02*
X141254Y28237D01*
X140754Y28737D02*
X141254Y28237D01*
X140754Y28737D02*
X141254D01*
X141754Y29237D01*
X142254Y28737D01*
X142754D01*
X142254Y28237D02*
X142754Y28737D01*
X142254Y28237D02*
X142754Y27737D01*
X142254D02*
X142754D01*
X141754Y27237D02*
X142254Y27737D01*
X48885Y62648D02*
X49885Y64648D01*
X47885D02*
X49885D01*
X47885D02*
X48885Y62648D01*
Y53462D02*
X49885Y55462D01*
X47885D02*
X49885D01*
X47885D02*
X48885Y53462D01*
X39698Y62648D02*
X40698Y64648D01*
X38698D02*
X40698D01*
X38698D02*
X39698Y62648D01*
Y53462D02*
X40698Y55462D01*
X38698D02*
X40698D01*
X38698D02*
X39698Y53462D01*
X13173Y-28559D02*
X15173D01*
Y-26559D01*
X13173D02*
X15173D01*
X13173Y-28559D02*
Y-26559D01*
X339157Y-28559D02*
X341157D01*
Y-26559D01*
X339157D02*
X341157D01*
X339157Y-28559D02*
Y-26559D01*
X229709Y-28559D02*
X231709D01*
Y-26559D01*
X229709D02*
X231709D01*
X229709Y-28559D02*
Y-26559D01*
X122622Y-28559D02*
X124622D01*
Y-26559D01*
X122622D02*
X124622D01*
X122622Y-28559D02*
Y-26559D01*
D99*
X1012950Y-51181D02*
Y-47403D01*
X1014839D01*
X1015469Y-48033D01*
Y-49292D01*
X1014839Y-49922D01*
X1012950D01*
X1014209D02*
X1015469Y-51181D01*
X1017358D02*
X1018617D01*
X1019247Y-50551D01*
Y-49292D01*
X1018617Y-48662D01*
X1017358D01*
X1016728Y-49292D01*
Y-50551D01*
X1017358Y-51181D01*
X1020506Y-48662D02*
Y-50551D01*
X1021136Y-51181D01*
X1023025D01*
Y-48662D01*
X1024914Y-48033D02*
Y-48662D01*
X1024285D01*
X1025544D01*
X1024914D01*
Y-50551D01*
X1025544Y-51181D01*
X1029322D02*
X1028063D01*
X1027433Y-50551D01*
Y-49292D01*
X1028063Y-48662D01*
X1029322D01*
X1029952Y-49292D01*
Y-49922D01*
X1027433D01*
X1033730Y-47403D02*
Y-51181D01*
X1031841D01*
X1031211Y-50551D01*
Y-49292D01*
X1031841Y-48662D01*
X1033730D01*
X1038768Y-51181D02*
Y-47403D01*
X1040657D01*
X1041287Y-48033D01*
Y-49292D01*
X1040657Y-49922D01*
X1038768D01*
X1043176Y-48662D02*
X1044436D01*
X1045065Y-49292D01*
Y-51181D01*
X1043176D01*
X1042546Y-50551D01*
X1043176Y-49922D01*
X1045065D01*
X1046954Y-48033D02*
Y-48662D01*
X1046325D01*
X1047584D01*
X1046954D01*
Y-50551D01*
X1047584Y-51181D01*
X1049473Y-47403D02*
Y-51181D01*
Y-49292D01*
X1050103Y-48662D01*
X1051362D01*
X1051992Y-49292D01*
Y-51181D01*
X1057030Y-47403D02*
Y-51181D01*
X1059549D01*
X1062697D02*
X1061438D01*
X1060808Y-50551D01*
Y-49292D01*
X1061438Y-48662D01*
X1062697D01*
X1063327Y-49292D01*
Y-49922D01*
X1060808D01*
X1064587Y-51181D02*
Y-48662D01*
X1066476D01*
X1067105Y-49292D01*
Y-51181D01*
X1069624Y-52441D02*
X1070254D01*
X1070884Y-51811D01*
Y-48662D01*
X1068995D01*
X1068365Y-49292D01*
Y-50551D01*
X1068995Y-51181D01*
X1070884D01*
X1072773Y-48033D02*
Y-48662D01*
X1072143D01*
X1073403D01*
X1072773D01*
Y-50551D01*
X1073403Y-51181D01*
X1075292Y-47403D02*
Y-51181D01*
Y-49292D01*
X1075922Y-48662D01*
X1077181D01*
X1077811Y-49292D01*
Y-51181D01*
X967293Y-47403D02*
Y-51181D01*
Y-49292D01*
X969812D01*
Y-47403D01*
Y-51181D01*
X971701D02*
X972960D01*
X973590Y-50551D01*
Y-49292D01*
X972960Y-48662D01*
X971701D01*
X971071Y-49292D01*
Y-50551D01*
X971701Y-51181D01*
X974850D02*
X976109D01*
X975479D01*
Y-47403D01*
X974850D01*
X979887Y-51181D02*
X978628D01*
X977998Y-50551D01*
Y-49292D01*
X978628Y-48662D01*
X979887D01*
X980517Y-49292D01*
Y-49922D01*
X977998D01*
X985555Y-47403D02*
Y-51181D01*
X988074D01*
X991222D02*
X989963D01*
X989333Y-50551D01*
Y-49292D01*
X989963Y-48662D01*
X991222D01*
X991852Y-49292D01*
Y-49922D01*
X989333D01*
X993111Y-51181D02*
Y-48662D01*
X995000D01*
X995630Y-49292D01*
Y-51181D01*
X998149Y-52441D02*
X998779D01*
X999409Y-51811D01*
Y-48662D01*
X997519D01*
X996890Y-49292D01*
Y-50551D01*
X997519Y-51181D01*
X999409D01*
X1001298Y-48033D02*
Y-48662D01*
X1000668D01*
X1001927D01*
X1001298D01*
Y-50551D01*
X1001927Y-51181D01*
X1003817Y-47403D02*
Y-51181D01*
Y-49292D01*
X1004446Y-48662D01*
X1005706D01*
X1006336Y-49292D01*
Y-51181D01*
X901564Y-47403D02*
X904083D01*
X902824D01*
Y-51181D01*
X907232D02*
X905972D01*
X905342Y-50551D01*
Y-49292D01*
X905972Y-48662D01*
X907232D01*
X907861Y-49292D01*
Y-49922D01*
X905342D01*
X909121Y-51181D02*
Y-48662D01*
X909751D01*
X910380Y-49292D01*
Y-51181D01*
Y-49292D01*
X911010Y-48662D01*
X911640Y-49292D01*
Y-51181D01*
X912899Y-52441D02*
Y-48662D01*
X914788D01*
X915418Y-49292D01*
Y-50551D01*
X914788Y-51181D01*
X912899D01*
X916677D02*
X917937D01*
X917307D01*
Y-47403D01*
X916677D01*
X920456Y-48662D02*
X921715D01*
X922345Y-49292D01*
Y-51181D01*
X920456D01*
X919826Y-50551D01*
X920456Y-49922D01*
X922345D01*
X924234Y-48033D02*
Y-48662D01*
X923604D01*
X924864D01*
X924234D01*
Y-50551D01*
X924864Y-51181D01*
X928642D02*
X927383D01*
X926753Y-50551D01*
Y-49292D01*
X927383Y-48662D01*
X928642D01*
X929272Y-49292D01*
Y-49922D01*
X926753D01*
X862205Y-51181D02*
Y-47403D01*
X864094D01*
X864724Y-48033D01*
Y-49292D01*
X864094Y-49922D01*
X862205D01*
X866613Y-48662D02*
X867872D01*
X868502Y-49292D01*
Y-51181D01*
X866613D01*
X865983Y-50551D01*
X866613Y-49922D01*
X868502D01*
X872280Y-47403D02*
Y-51181D01*
X870391D01*
X869761Y-50551D01*
Y-49292D01*
X870391Y-48662D01*
X872280D01*
X879837Y-48033D02*
X879207Y-47403D01*
X877948D01*
X877318Y-48033D01*
Y-48662D01*
X877948Y-49292D01*
X879207D01*
X879837Y-49922D01*
Y-50551D01*
X879207Y-51181D01*
X877948D01*
X877318Y-50551D01*
X881096Y-47403D02*
Y-51181D01*
Y-49292D01*
X881726Y-48662D01*
X882985D01*
X883615Y-49292D01*
Y-51181D01*
X885504Y-48662D02*
X886764D01*
X887393Y-49292D01*
Y-51181D01*
X885504D01*
X884875Y-50551D01*
X885504Y-49922D01*
X887393D01*
X888653Y-52441D02*
Y-48662D01*
X890542D01*
X891172Y-49292D01*
Y-50551D01*
X890542Y-51181D01*
X888653D01*
X894320D02*
X893061D01*
X892431Y-50551D01*
Y-49292D01*
X893061Y-48662D01*
X894320D01*
X894950Y-49292D01*
Y-49922D01*
X892431D01*
X831032Y-47403D02*
Y-49922D01*
X832291Y-51181D01*
X833550Y-49922D01*
Y-47403D01*
X834810Y-51181D02*
X836069D01*
X835440D01*
Y-48662D01*
X834810D01*
X838588D02*
X839848D01*
X840477Y-49292D01*
Y-51181D01*
X838588D01*
X837959Y-50551D01*
X838588Y-49922D01*
X840477D01*
X841737Y-51181D02*
X844256Y-48662D01*
X845515Y-51181D02*
Y-47403D01*
X847404D01*
X848034Y-48033D01*
Y-49292D01*
X847404Y-49922D01*
X845515D01*
X849923Y-48662D02*
X851182D01*
X851812Y-49292D01*
Y-51181D01*
X849923D01*
X849293Y-50551D01*
X849923Y-49922D01*
X851812D01*
X855591Y-47403D02*
Y-51181D01*
X853701D01*
X853072Y-50551D01*
Y-49292D01*
X853701Y-48662D01*
X855591D01*
X752184Y-47403D02*
Y-51181D01*
X754073D01*
X754703Y-50551D01*
Y-48033D01*
X754073Y-47403D01*
X752184D01*
X755962Y-48662D02*
Y-51181D01*
Y-49922D01*
X756592Y-49292D01*
X757222Y-48662D01*
X757851D01*
X759740Y-51181D02*
X761000D01*
X760370D01*
Y-48662D01*
X759740D01*
X762889Y-51181D02*
X764148D01*
X763519D01*
Y-47403D01*
X762889D01*
X766038Y-51181D02*
X767297D01*
X766667D01*
Y-47403D01*
X766038D01*
X772964D02*
Y-51181D01*
X775483D01*
X777373Y-48662D02*
X778632D01*
X779262Y-49292D01*
Y-51181D01*
X777373D01*
X776743Y-50551D01*
X777373Y-49922D01*
X779262D01*
X780521Y-48662D02*
Y-50551D01*
X781151Y-51181D01*
X783040D01*
Y-51811D01*
X782410Y-52441D01*
X781780D01*
X783040Y-51181D02*
Y-48662D01*
X786189Y-51181D02*
X784929D01*
X784299Y-50551D01*
Y-49292D01*
X784929Y-48662D01*
X786189D01*
X786818Y-49292D01*
Y-49922D01*
X784299D01*
X788078Y-48662D02*
Y-51181D01*
Y-49922D01*
X788707Y-49292D01*
X789337Y-48662D01*
X789967D01*
X795634Y-51181D02*
Y-47403D01*
X797523D01*
X798153Y-48033D01*
Y-49292D01*
X797523Y-49922D01*
X795634D01*
X800042Y-48662D02*
X801302D01*
X801931Y-49292D01*
Y-51181D01*
X800042D01*
X799413Y-50551D01*
X800042Y-49922D01*
X801931D01*
X803191Y-51181D02*
X804450D01*
X803821D01*
Y-48662D01*
X803191D01*
X806339D02*
Y-51181D01*
Y-49922D01*
X806969Y-49292D01*
X807599Y-48662D01*
X808229D01*
X713454Y-47403D02*
Y-51181D01*
Y-49292D01*
X715973D01*
Y-47403D01*
Y-51181D01*
X717862D02*
X719121D01*
X719751Y-50551D01*
Y-49292D01*
X719121Y-48662D01*
X717862D01*
X717232Y-49292D01*
Y-50551D01*
X717862Y-51181D01*
X721011D02*
X722270D01*
X721640D01*
Y-47403D01*
X721011D01*
X726048Y-51181D02*
X724789D01*
X724159Y-50551D01*
Y-49292D01*
X724789Y-48662D01*
X726048D01*
X726678Y-49292D01*
Y-49922D01*
X724159D01*
X731716Y-47403D02*
X734235D01*
X732975D01*
Y-51181D01*
X735494Y-48662D02*
Y-50551D01*
X736124Y-51181D01*
X738013D01*
Y-51811D01*
X737383Y-52441D01*
X736754D01*
X738013Y-51181D02*
Y-48662D01*
X739272Y-52441D02*
Y-48662D01*
X741161D01*
X741791Y-49292D01*
Y-50551D01*
X741161Y-51181D01*
X739272D01*
X744940D02*
X743680D01*
X743051Y-50551D01*
Y-49292D01*
X743680Y-48662D01*
X744940D01*
X745570Y-49292D01*
Y-49922D01*
X743051D01*
X686689Y-51181D02*
Y-47403D01*
X688578D01*
X689208Y-48033D01*
Y-49292D01*
X688578Y-49922D01*
X686689D01*
X690467Y-51181D02*
X691727D01*
X691097D01*
Y-47403D01*
X690467D01*
X694245Y-48662D02*
X695505D01*
X696135Y-49292D01*
Y-51181D01*
X694245D01*
X693616Y-50551D01*
X694245Y-49922D01*
X696135D01*
X698024Y-48033D02*
Y-48662D01*
X697394D01*
X698653D01*
X698024D01*
Y-50551D01*
X698653Y-51181D01*
X702432D02*
X701172D01*
X700543Y-50551D01*
Y-49292D01*
X701172Y-48662D01*
X702432D01*
X703061Y-49292D01*
Y-49922D01*
X700543D01*
X706840Y-47403D02*
Y-51181D01*
X704951D01*
X704321Y-50551D01*
Y-49292D01*
X704951Y-48662D01*
X706840D01*
X627782Y-47403D02*
Y-51181D01*
Y-49292D01*
X630301D01*
Y-47403D01*
Y-51181D01*
X632190D02*
X633450D01*
X634079Y-50551D01*
Y-49292D01*
X633450Y-48662D01*
X632190D01*
X631560Y-49292D01*
Y-50551D01*
X632190Y-51181D01*
X635339D02*
X636598D01*
X635968D01*
Y-47403D01*
X635339D01*
X640376Y-51181D02*
X639117D01*
X638487Y-50551D01*
Y-49292D01*
X639117Y-48662D01*
X640376D01*
X641006Y-49292D01*
Y-49922D01*
X638487D01*
X648563Y-48033D02*
X647933Y-47403D01*
X646674D01*
X646044Y-48033D01*
Y-48662D01*
X646674Y-49292D01*
X647933D01*
X648563Y-49922D01*
Y-50551D01*
X647933Y-51181D01*
X646674D01*
X646044Y-50551D01*
X649822Y-51181D02*
X651082D01*
X650452D01*
Y-48662D01*
X649822D01*
X652971D02*
X655490D01*
X652971Y-51181D01*
X655490D01*
X658638D02*
X657379D01*
X656749Y-50551D01*
Y-49292D01*
X657379Y-48662D01*
X658638D01*
X659268Y-49292D01*
Y-49922D01*
X656749D01*
X598682Y-48033D02*
X598052Y-47403D01*
X596793D01*
X596163Y-48033D01*
Y-50551D01*
X596793Y-51181D01*
X598052D01*
X598682Y-50551D01*
X600571Y-51181D02*
X601830D01*
X602460Y-50551D01*
Y-49292D01*
X601830Y-48662D01*
X600571D01*
X599941Y-49292D01*
Y-50551D01*
X600571Y-51181D01*
X603720Y-48662D02*
Y-50551D01*
X604349Y-51181D01*
X606239D01*
Y-48662D01*
X607498Y-51181D02*
Y-48662D01*
X609387D01*
X610017Y-49292D01*
Y-51181D01*
X611906Y-48033D02*
Y-48662D01*
X611276D01*
X612536D01*
X611906D01*
Y-50551D01*
X612536Y-51181D01*
X571917Y-48033D02*
X571287Y-47403D01*
X570028D01*
X569398Y-48033D01*
Y-48662D01*
X570028Y-49292D01*
X571287D01*
X571917Y-49922D01*
Y-50551D01*
X571287Y-51181D01*
X570028D01*
X569398Y-50551D01*
X573176Y-48662D02*
Y-50551D01*
X573806Y-51181D01*
X575695D01*
Y-51811D01*
X575065Y-52441D01*
X574436D01*
X575695Y-51181D02*
Y-48662D01*
X576955Y-51181D02*
Y-48662D01*
X577584D01*
X578214Y-49292D01*
Y-51181D01*
Y-49292D01*
X578844Y-48662D01*
X579473Y-49292D01*
Y-51181D01*
X580733Y-47403D02*
Y-51181D01*
X582622D01*
X583252Y-50551D01*
Y-49922D01*
Y-49292D01*
X582622Y-48662D01*
X580733D01*
X585141Y-51181D02*
X586400D01*
X587030Y-50551D01*
Y-49292D01*
X586400Y-48662D01*
X585141D01*
X584511Y-49292D01*
Y-50551D01*
X585141Y-51181D01*
X588289D02*
X589549D01*
X588919D01*
Y-47403D01*
X588289D01*
M02*
