G04*
G04 #@! TF.GenerationSoftware,Altium Limited,Altium Designer,23.5.0 (17)*
G04*
G04 Layer_Color=128*
%FSLAX25Y25*%
%MOIN*%
G70*
G04*
G04 #@! TF.SameCoordinates,B4EA8652-FAED-489D-AB06-0C51CEF096E7*
G04*
G04*
G04 #@! TF.FilePolarity,Positive*
G04*
G01*
G75*
%ADD10C,0.01575*%
%ADD13C,0.00984*%
%ADD39C,0.00787*%
%ADD98C,0.00200*%
G36*
X1027713Y-295322D02*
X1029431D01*
Y-295608D01*
X1030290D01*
Y-295894D01*
X1031149D01*
Y-296181D01*
X1032008D01*
Y-296467D01*
X1032580D01*
Y-296753D01*
X1032867D01*
Y-297040D01*
X1033439D01*
Y-297326D01*
X1033726D01*
Y-297612D01*
X1034298D01*
Y-297899D01*
X1034585D01*
Y-298185D01*
X1034871D01*
Y-298471D01*
X1035157D01*
Y-298758D01*
X1035444D01*
Y-299044D01*
X1035730D01*
Y-299330D01*
X1036016D01*
Y-299616D01*
Y-299903D01*
X1036302D01*
Y-300189D01*
X1036589D01*
Y-300475D01*
Y-300762D01*
X1036875D01*
Y-301048D01*
X1037162D01*
Y-301334D01*
Y-301621D01*
X1037448D01*
Y-301907D01*
Y-302193D01*
Y-302480D01*
X1037734D01*
Y-302766D01*
Y-303052D01*
Y-303339D01*
X1038020D01*
Y-303625D01*
Y-303911D01*
Y-304197D01*
Y-304484D01*
X1038307D01*
Y-304770D01*
Y-305056D01*
Y-305343D01*
Y-305629D01*
Y-305915D01*
X1038593D01*
Y-306202D01*
Y-306488D01*
Y-306774D01*
Y-307061D01*
Y-307347D01*
Y-307633D01*
Y-307920D01*
Y-308206D01*
Y-308492D01*
Y-308778D01*
Y-309065D01*
Y-309351D01*
Y-309637D01*
Y-309924D01*
Y-310210D01*
Y-310496D01*
Y-310783D01*
Y-311069D01*
Y-311355D01*
Y-311642D01*
X1038307D01*
Y-311928D01*
Y-312214D01*
Y-312501D01*
Y-312787D01*
Y-313073D01*
Y-313359D01*
Y-313646D01*
X1038020D01*
Y-313932D01*
Y-314218D01*
Y-314505D01*
Y-314791D01*
Y-315077D01*
X1037734D01*
Y-315364D01*
Y-315650D01*
Y-315936D01*
Y-316223D01*
Y-316509D01*
X1037448D01*
Y-316795D01*
Y-317081D01*
Y-317368D01*
X1037162D01*
Y-317654D01*
Y-317940D01*
Y-318227D01*
Y-318513D01*
X1036875D01*
Y-318799D01*
Y-319086D01*
Y-319372D01*
X1036589D01*
Y-319658D01*
Y-319945D01*
X1036302D01*
Y-320231D01*
Y-320517D01*
Y-320803D01*
X1036016D01*
Y-321090D01*
Y-321376D01*
X1035730D01*
Y-321662D01*
Y-321949D01*
X1035444D01*
Y-322235D01*
Y-322521D01*
X1035157D01*
Y-322808D01*
X1034871D01*
Y-323094D01*
Y-323380D01*
X1034585D01*
Y-323667D01*
X1034298D01*
Y-323953D01*
X1034012D01*
Y-324239D01*
Y-324526D01*
X1033726D01*
Y-324812D01*
X1033439D01*
Y-325098D01*
X1033153D01*
Y-325384D01*
X1032867D01*
Y-325671D01*
X1032580D01*
Y-325957D01*
X1032008D01*
Y-326243D01*
X1031722D01*
Y-326530D01*
X1031149D01*
Y-326816D01*
X1030863D01*
Y-327102D01*
X1030290D01*
Y-327389D01*
X1029431D01*
Y-327675D01*
X1028572D01*
Y-327961D01*
X1027713D01*
Y-328248D01*
X1025995D01*
Y-328534D01*
X1020842D01*
Y-328248D01*
X1018265D01*
Y-327961D01*
X1016261D01*
Y-327675D01*
X1014829D01*
Y-327389D01*
X1013398D01*
Y-327102D01*
X1011966D01*
Y-327389D01*
Y-327675D01*
Y-327961D01*
Y-328248D01*
Y-328534D01*
Y-328820D01*
Y-329107D01*
X1011680D01*
Y-329393D01*
Y-329679D01*
Y-329965D01*
Y-330252D01*
Y-330538D01*
Y-330824D01*
X1011393D01*
Y-331111D01*
Y-331397D01*
Y-331683D01*
Y-331970D01*
Y-332256D01*
Y-332542D01*
X1011107D01*
Y-332829D01*
Y-333115D01*
Y-333401D01*
Y-333688D01*
Y-333974D01*
Y-334260D01*
Y-334547D01*
X1010821D01*
Y-334833D01*
Y-335119D01*
Y-335405D01*
Y-335692D01*
Y-335978D01*
Y-336264D01*
X1010534D01*
Y-336551D01*
Y-336837D01*
Y-337123D01*
Y-337410D01*
Y-337696D01*
Y-337982D01*
X1010248D01*
Y-338269D01*
Y-338555D01*
Y-338841D01*
Y-339128D01*
Y-339414D01*
Y-339700D01*
Y-339986D01*
X1009962D01*
Y-340273D01*
Y-340559D01*
Y-340845D01*
Y-341132D01*
Y-341418D01*
Y-341704D01*
X1009676D01*
Y-341991D01*
Y-342277D01*
Y-342563D01*
Y-342850D01*
Y-343136D01*
Y-343422D01*
X1009389D01*
Y-343709D01*
Y-343995D01*
Y-344281D01*
Y-344567D01*
Y-344854D01*
Y-345140D01*
Y-345427D01*
X995932D01*
Y-345140D01*
X996219D01*
Y-344854D01*
Y-344567D01*
Y-344281D01*
Y-343995D01*
Y-343709D01*
X996505D01*
Y-343422D01*
Y-343136D01*
Y-342850D01*
Y-342563D01*
Y-342277D01*
Y-341991D01*
Y-341704D01*
X996791D01*
Y-341418D01*
Y-341132D01*
Y-340845D01*
Y-340559D01*
Y-340273D01*
Y-339986D01*
X997078D01*
Y-339700D01*
Y-339414D01*
Y-339128D01*
Y-338841D01*
Y-338555D01*
Y-338269D01*
X997364D01*
Y-337982D01*
Y-337696D01*
Y-337410D01*
Y-337123D01*
Y-336837D01*
Y-336551D01*
Y-336264D01*
X997650D01*
Y-335978D01*
Y-335692D01*
Y-335405D01*
Y-335119D01*
Y-334833D01*
Y-334547D01*
X997937D01*
Y-334260D01*
Y-333974D01*
Y-333688D01*
Y-333401D01*
Y-333115D01*
Y-332829D01*
X998223D01*
Y-332542D01*
Y-332256D01*
Y-331970D01*
Y-331683D01*
Y-331397D01*
Y-331111D01*
X998509D01*
Y-330824D01*
Y-330538D01*
Y-330252D01*
Y-329965D01*
Y-329679D01*
Y-329393D01*
Y-329107D01*
X998796D01*
Y-328820D01*
Y-328534D01*
Y-328248D01*
Y-327961D01*
Y-327675D01*
Y-327389D01*
X999082D01*
Y-327102D01*
Y-326816D01*
Y-326530D01*
Y-326243D01*
Y-325957D01*
Y-325671D01*
X999368D01*
Y-325384D01*
Y-325098D01*
Y-324812D01*
Y-324526D01*
Y-324239D01*
Y-323953D01*
X999654D01*
Y-323667D01*
Y-323380D01*
Y-323094D01*
Y-322808D01*
Y-322521D01*
Y-322235D01*
Y-321949D01*
X999941D01*
Y-321662D01*
Y-321376D01*
Y-321090D01*
Y-320803D01*
Y-320517D01*
Y-320231D01*
X1000227D01*
Y-319945D01*
Y-319658D01*
Y-319372D01*
Y-319086D01*
Y-318799D01*
Y-318513D01*
X1000513D01*
Y-318227D01*
Y-317940D01*
Y-317654D01*
Y-317368D01*
Y-317081D01*
Y-316795D01*
Y-316509D01*
X1000800D01*
Y-316223D01*
Y-315936D01*
Y-315650D01*
Y-315364D01*
Y-315077D01*
Y-314791D01*
X1001086D01*
Y-314505D01*
Y-314218D01*
Y-313932D01*
Y-313646D01*
Y-313359D01*
Y-313073D01*
X1001372D01*
Y-312787D01*
Y-312501D01*
Y-312214D01*
Y-311928D01*
Y-311642D01*
Y-311355D01*
X1001659D01*
Y-311069D01*
Y-310783D01*
Y-310496D01*
Y-310210D01*
Y-309924D01*
Y-309637D01*
Y-309351D01*
X1001945D01*
Y-309065D01*
Y-308778D01*
Y-308492D01*
Y-308206D01*
Y-307920D01*
Y-307633D01*
X1002231D01*
Y-307347D01*
Y-307061D01*
Y-306774D01*
Y-306488D01*
Y-306202D01*
Y-305915D01*
X1002518D01*
Y-305629D01*
Y-305343D01*
Y-305056D01*
Y-304770D01*
Y-304484D01*
Y-304197D01*
Y-303911D01*
X1002804D01*
Y-303625D01*
Y-303339D01*
Y-303052D01*
Y-302766D01*
Y-302480D01*
Y-302193D01*
X1003090D01*
Y-301907D01*
Y-301621D01*
Y-301334D01*
Y-301048D01*
Y-300762D01*
Y-300475D01*
X1003377D01*
Y-300189D01*
Y-299903D01*
Y-299616D01*
Y-299330D01*
Y-299044D01*
Y-298758D01*
Y-298471D01*
X1003663D01*
Y-298185D01*
Y-297899D01*
Y-297612D01*
Y-297326D01*
Y-297040D01*
Y-296753D01*
X1003949D01*
Y-296467D01*
Y-296181D01*
Y-295894D01*
Y-295608D01*
Y-295322D01*
Y-295035D01*
X1027713D01*
Y-295322D01*
D02*
G37*
G36*
X1058921Y-291886D02*
Y-292172D01*
X1058635D01*
Y-292459D01*
Y-292745D01*
Y-293031D01*
Y-293318D01*
Y-293604D01*
Y-293890D01*
X1058349D01*
Y-294177D01*
Y-294463D01*
Y-294749D01*
Y-295035D01*
Y-295322D01*
Y-295608D01*
X1058062D01*
Y-295894D01*
Y-296181D01*
Y-296467D01*
Y-296753D01*
Y-297040D01*
Y-297326D01*
Y-297612D01*
X1057776D01*
Y-297899D01*
Y-298185D01*
Y-298471D01*
Y-298758D01*
Y-299044D01*
Y-299330D01*
X1057490D01*
Y-299616D01*
Y-299903D01*
Y-300189D01*
Y-300475D01*
Y-300762D01*
Y-301048D01*
X1057203D01*
Y-301334D01*
Y-301621D01*
Y-301907D01*
Y-302193D01*
Y-302480D01*
Y-302766D01*
Y-303052D01*
X1056917D01*
Y-303339D01*
Y-303625D01*
Y-303911D01*
Y-304197D01*
Y-304484D01*
Y-304770D01*
X1056631D01*
Y-305056D01*
Y-305343D01*
Y-305629D01*
Y-305915D01*
Y-306202D01*
Y-306488D01*
X1056344D01*
Y-306774D01*
Y-307061D01*
Y-307347D01*
Y-307633D01*
Y-307920D01*
Y-308206D01*
X1056058D01*
Y-308492D01*
Y-308778D01*
Y-309065D01*
Y-309351D01*
Y-309637D01*
Y-309924D01*
Y-310210D01*
X1055772D01*
Y-310496D01*
Y-310783D01*
Y-311069D01*
Y-311355D01*
Y-311642D01*
Y-311928D01*
X1055486D01*
Y-312214D01*
Y-312501D01*
X1056058D01*
Y-312214D01*
X1056344D01*
Y-311928D01*
X1056631D01*
Y-311642D01*
X1057203D01*
Y-311355D01*
X1057490D01*
Y-311069D01*
X1057776D01*
Y-310783D01*
X1058349D01*
Y-310496D01*
X1058921D01*
Y-310210D01*
X1059208D01*
Y-309924D01*
X1059780D01*
Y-309637D01*
X1060639D01*
Y-309351D01*
X1061212D01*
Y-309065D01*
X1062071D01*
Y-308778D01*
X1063502D01*
Y-308492D01*
X1069801D01*
Y-308778D01*
X1070946D01*
Y-309065D01*
X1071805D01*
Y-309351D01*
X1072378D01*
Y-309637D01*
X1072664D01*
Y-309924D01*
X1073237D01*
Y-310210D01*
X1073523D01*
Y-310496D01*
X1073810D01*
Y-310783D01*
X1074096D01*
Y-311069D01*
X1074382D01*
Y-311355D01*
Y-311642D01*
X1074669D01*
Y-311928D01*
Y-312214D01*
X1074955D01*
Y-312501D01*
Y-312787D01*
Y-313073D01*
X1075241D01*
Y-313359D01*
Y-313646D01*
Y-313932D01*
Y-314218D01*
X1075527D01*
Y-314505D01*
Y-314791D01*
Y-315077D01*
Y-315364D01*
Y-315650D01*
Y-315936D01*
Y-316223D01*
Y-316509D01*
Y-316795D01*
Y-317081D01*
Y-317368D01*
Y-317654D01*
Y-317940D01*
Y-318227D01*
Y-318513D01*
Y-318799D01*
Y-319086D01*
Y-319372D01*
X1075241D01*
Y-319658D01*
Y-319945D01*
Y-320231D01*
Y-320517D01*
Y-320803D01*
Y-321090D01*
Y-321376D01*
X1074955D01*
Y-321662D01*
Y-321949D01*
Y-322235D01*
Y-322521D01*
Y-322808D01*
Y-323094D01*
Y-323380D01*
X1074669D01*
Y-323667D01*
Y-323953D01*
Y-324239D01*
Y-324526D01*
Y-324812D01*
Y-325098D01*
X1074382D01*
Y-325384D01*
Y-325671D01*
Y-325957D01*
Y-326243D01*
Y-326530D01*
Y-326816D01*
X1074096D01*
Y-327102D01*
Y-327389D01*
Y-327675D01*
Y-327961D01*
Y-328248D01*
Y-328534D01*
X1073810D01*
Y-328820D01*
Y-329107D01*
Y-329393D01*
Y-329679D01*
Y-329965D01*
Y-330252D01*
Y-330538D01*
X1073523D01*
Y-330824D01*
Y-331111D01*
Y-331397D01*
Y-331683D01*
Y-331970D01*
Y-332256D01*
X1073237D01*
Y-332542D01*
Y-332829D01*
Y-333115D01*
Y-333401D01*
Y-333688D01*
Y-333974D01*
X1072951D01*
Y-334260D01*
Y-334547D01*
Y-334833D01*
Y-335119D01*
Y-335405D01*
Y-335692D01*
Y-335978D01*
X1072664D01*
Y-336264D01*
Y-336551D01*
Y-336837D01*
Y-337123D01*
Y-337410D01*
Y-337696D01*
X1072378D01*
Y-337982D01*
Y-338269D01*
Y-338555D01*
Y-338841D01*
Y-339128D01*
Y-339414D01*
X1072092D01*
Y-339700D01*
Y-339986D01*
Y-340273D01*
Y-340559D01*
Y-340845D01*
Y-341132D01*
X1071805D01*
Y-341418D01*
Y-341704D01*
Y-341991D01*
Y-342277D01*
Y-342563D01*
Y-342850D01*
Y-343136D01*
X1071519D01*
Y-343422D01*
Y-343709D01*
Y-343995D01*
Y-344281D01*
Y-344567D01*
Y-344854D01*
X1071233D01*
Y-345140D01*
Y-345427D01*
X1058062D01*
Y-345140D01*
Y-344854D01*
X1058349D01*
Y-344567D01*
Y-344281D01*
Y-343995D01*
Y-343709D01*
Y-343422D01*
Y-343136D01*
X1058635D01*
Y-342850D01*
Y-342563D01*
Y-342277D01*
Y-341991D01*
Y-341704D01*
Y-341418D01*
Y-341132D01*
X1058921D01*
Y-340845D01*
Y-340559D01*
Y-340273D01*
Y-339986D01*
Y-339700D01*
Y-339414D01*
X1059208D01*
Y-339128D01*
Y-338841D01*
Y-338555D01*
Y-338269D01*
Y-337982D01*
Y-337696D01*
X1059494D01*
Y-337410D01*
Y-337123D01*
Y-336837D01*
Y-336551D01*
Y-336264D01*
Y-335978D01*
Y-335692D01*
X1059780D01*
Y-335405D01*
Y-335119D01*
Y-334833D01*
Y-334547D01*
Y-334260D01*
Y-333974D01*
X1060067D01*
Y-333688D01*
Y-333401D01*
Y-333115D01*
Y-332829D01*
Y-332542D01*
Y-332256D01*
Y-331970D01*
X1060353D01*
Y-331683D01*
Y-331397D01*
Y-331111D01*
Y-330824D01*
Y-330538D01*
Y-330252D01*
X1060639D01*
Y-329965D01*
Y-329679D01*
Y-329393D01*
Y-329107D01*
Y-328820D01*
Y-328534D01*
X1060925D01*
Y-328248D01*
Y-327961D01*
Y-327675D01*
Y-327389D01*
Y-327102D01*
Y-326816D01*
X1061212D01*
Y-326530D01*
Y-326243D01*
Y-325957D01*
Y-325671D01*
Y-325384D01*
Y-325098D01*
Y-324812D01*
X1061498D01*
Y-324526D01*
Y-324239D01*
Y-323953D01*
Y-323667D01*
Y-323380D01*
Y-323094D01*
X1061784D01*
Y-322808D01*
Y-322521D01*
Y-322235D01*
Y-321949D01*
Y-321662D01*
Y-321376D01*
Y-321090D01*
X1062071D01*
Y-320803D01*
Y-320517D01*
Y-320231D01*
Y-319945D01*
Y-319658D01*
Y-319372D01*
X1061784D01*
Y-319086D01*
Y-318799D01*
X1061498D01*
Y-318513D01*
X1061212D01*
Y-318227D01*
X1060639D01*
Y-317940D01*
X1058921D01*
Y-318227D01*
X1057490D01*
Y-318513D01*
X1056631D01*
Y-318799D01*
X1056058D01*
Y-319086D01*
X1055772D01*
Y-319372D01*
X1055199D01*
Y-319658D01*
X1054913D01*
Y-319945D01*
X1054627D01*
Y-320231D01*
Y-320517D01*
X1054340D01*
Y-320803D01*
Y-321090D01*
Y-321376D01*
X1054054D01*
Y-321662D01*
Y-321949D01*
Y-322235D01*
Y-322521D01*
Y-322808D01*
Y-323094D01*
X1053768D01*
Y-323380D01*
Y-323667D01*
Y-323953D01*
Y-324239D01*
Y-324526D01*
Y-324812D01*
Y-325098D01*
X1053481D01*
Y-325384D01*
Y-325671D01*
Y-325957D01*
Y-326243D01*
Y-326530D01*
Y-326816D01*
X1053195D01*
Y-327102D01*
Y-327389D01*
Y-327675D01*
Y-327961D01*
Y-328248D01*
Y-328534D01*
X1052909D01*
Y-328820D01*
Y-329107D01*
Y-329393D01*
Y-329679D01*
Y-329965D01*
Y-330252D01*
X1052622D01*
Y-330538D01*
Y-330824D01*
Y-331111D01*
Y-331397D01*
Y-331683D01*
Y-331970D01*
Y-332256D01*
X1052336D01*
Y-332542D01*
Y-332829D01*
Y-333115D01*
Y-333401D01*
Y-333688D01*
Y-333974D01*
X1052050D01*
Y-334260D01*
Y-334547D01*
Y-334833D01*
Y-335119D01*
Y-335405D01*
Y-335692D01*
X1051763D01*
Y-335978D01*
Y-336264D01*
Y-336551D01*
Y-336837D01*
Y-337123D01*
Y-337410D01*
Y-337696D01*
X1051477D01*
Y-337982D01*
Y-338269D01*
Y-338555D01*
Y-338841D01*
Y-339128D01*
Y-339414D01*
X1051191D01*
Y-339700D01*
Y-339986D01*
Y-340273D01*
Y-340559D01*
Y-340845D01*
Y-341132D01*
X1050904D01*
Y-341418D01*
Y-341704D01*
Y-341991D01*
Y-342277D01*
Y-342563D01*
Y-342850D01*
X1050618D01*
Y-343136D01*
Y-343422D01*
Y-343709D01*
Y-343995D01*
Y-344281D01*
Y-344567D01*
Y-344854D01*
X1050332D01*
Y-345140D01*
Y-345427D01*
X1037162D01*
Y-345140D01*
Y-344854D01*
X1037448D01*
Y-344567D01*
Y-344281D01*
Y-343995D01*
Y-343709D01*
Y-343422D01*
Y-343136D01*
Y-342850D01*
X1037734D01*
Y-342563D01*
Y-342277D01*
Y-341991D01*
Y-341704D01*
Y-341418D01*
Y-341132D01*
X1038020D01*
Y-340845D01*
Y-340559D01*
Y-340273D01*
Y-339986D01*
Y-339700D01*
Y-339414D01*
X1038307D01*
Y-339128D01*
Y-338841D01*
Y-338555D01*
Y-338269D01*
Y-337982D01*
Y-337696D01*
Y-337410D01*
X1038593D01*
Y-337123D01*
Y-336837D01*
Y-336551D01*
Y-336264D01*
Y-335978D01*
Y-335692D01*
X1038879D01*
Y-335405D01*
Y-335119D01*
Y-334833D01*
Y-334547D01*
Y-334260D01*
Y-333974D01*
X1039166D01*
Y-333688D01*
Y-333401D01*
Y-333115D01*
Y-332829D01*
Y-332542D01*
Y-332256D01*
X1039452D01*
Y-331970D01*
Y-331683D01*
Y-331397D01*
Y-331111D01*
Y-330824D01*
Y-330538D01*
Y-330252D01*
X1039738D01*
Y-329965D01*
Y-329679D01*
Y-329393D01*
Y-329107D01*
Y-328820D01*
Y-328534D01*
X1040025D01*
Y-328248D01*
Y-327961D01*
Y-327675D01*
Y-327389D01*
Y-327102D01*
Y-326816D01*
X1040311D01*
Y-326530D01*
Y-326243D01*
Y-325957D01*
Y-325671D01*
Y-325384D01*
Y-325098D01*
Y-324812D01*
X1040597D01*
Y-324526D01*
Y-324239D01*
Y-323953D01*
Y-323667D01*
Y-323380D01*
Y-323094D01*
X1040884D01*
Y-322808D01*
Y-322521D01*
Y-322235D01*
Y-321949D01*
Y-321662D01*
Y-321376D01*
X1041170D01*
Y-321090D01*
Y-320803D01*
Y-320517D01*
Y-320231D01*
Y-319945D01*
Y-319658D01*
X1041456D01*
Y-319372D01*
Y-319086D01*
Y-318799D01*
Y-318513D01*
Y-318227D01*
Y-317940D01*
Y-317654D01*
X1041743D01*
Y-317368D01*
Y-317081D01*
Y-316795D01*
Y-316509D01*
Y-316223D01*
Y-315936D01*
X1042029D01*
Y-315650D01*
Y-315364D01*
Y-315077D01*
Y-314791D01*
Y-314505D01*
Y-314218D01*
X1042315D01*
Y-313932D01*
Y-313646D01*
Y-313359D01*
Y-313073D01*
Y-312787D01*
Y-312501D01*
X1042601D01*
Y-312214D01*
Y-311928D01*
Y-311642D01*
Y-311355D01*
Y-311069D01*
Y-310783D01*
Y-310496D01*
X1042888D01*
Y-310210D01*
Y-309924D01*
Y-309637D01*
Y-309351D01*
Y-309065D01*
Y-308778D01*
X1043174D01*
Y-308492D01*
Y-308206D01*
Y-307920D01*
Y-307633D01*
Y-307347D01*
Y-307061D01*
X1043460D01*
Y-306774D01*
Y-306488D01*
Y-306202D01*
Y-305915D01*
Y-305629D01*
Y-305343D01*
Y-305056D01*
X1043747D01*
Y-304770D01*
Y-304484D01*
Y-304197D01*
Y-303911D01*
Y-303625D01*
Y-303339D01*
X1044033D01*
Y-303052D01*
Y-302766D01*
Y-302480D01*
Y-302193D01*
Y-301907D01*
Y-301621D01*
X1044319D01*
Y-301334D01*
Y-301048D01*
Y-300762D01*
Y-300475D01*
Y-300189D01*
Y-299903D01*
X1044606D01*
Y-299616D01*
Y-299330D01*
Y-299044D01*
Y-298758D01*
Y-298471D01*
Y-298185D01*
Y-297899D01*
X1044892D01*
Y-297612D01*
Y-297326D01*
Y-297040D01*
Y-296753D01*
Y-296467D01*
Y-296181D01*
X1045178D01*
Y-295894D01*
Y-295608D01*
Y-295322D01*
Y-295035D01*
Y-294749D01*
Y-294463D01*
X1045465D01*
Y-294177D01*
Y-293890D01*
Y-293604D01*
Y-293318D01*
Y-293031D01*
Y-292745D01*
Y-292459D01*
X1045751D01*
Y-292172D01*
Y-291886D01*
Y-291600D01*
X1058921D01*
Y-291886D01*
D02*
G37*
G36*
X1160849Y-309351D02*
X1160562D01*
Y-309637D01*
X1160276D01*
Y-309924D01*
Y-310210D01*
X1159990D01*
Y-310496D01*
X1159703D01*
Y-310783D01*
X1159417D01*
Y-311069D01*
Y-311355D01*
X1159131D01*
Y-311642D01*
X1158844D01*
Y-311928D01*
X1158558D01*
Y-312214D01*
X1158272D01*
Y-312501D01*
Y-312787D01*
X1157985D01*
Y-313073D01*
X1157699D01*
Y-313359D01*
X1157413D01*
Y-313646D01*
Y-313932D01*
X1157127D01*
Y-314218D01*
X1156840D01*
Y-314505D01*
X1156554D01*
Y-314791D01*
X1156268D01*
Y-315077D01*
Y-315364D01*
X1155981D01*
Y-315650D01*
X1155695D01*
Y-315936D01*
X1155409D01*
Y-316223D01*
Y-316509D01*
X1155122D01*
Y-316795D01*
X1154836D01*
Y-317081D01*
X1154550D01*
Y-317368D01*
Y-317654D01*
X1154263D01*
Y-317940D01*
X1153977D01*
Y-318227D01*
X1153691D01*
Y-318513D01*
X1153405D01*
Y-318799D01*
Y-319086D01*
X1153118D01*
Y-319372D01*
X1152832D01*
Y-319658D01*
X1152546D01*
Y-319945D01*
Y-320231D01*
X1152259D01*
Y-320517D01*
X1151973D01*
Y-320803D01*
X1151687D01*
Y-321090D01*
Y-321376D01*
X1151400D01*
Y-321662D01*
X1151114D01*
Y-321949D01*
X1150828D01*
Y-322235D01*
X1150541D01*
Y-322521D01*
Y-322808D01*
X1150255D01*
Y-323094D01*
X1149969D01*
Y-323380D01*
X1149682D01*
Y-323667D01*
Y-323953D01*
X1149396D01*
Y-324239D01*
X1149110D01*
Y-324526D01*
X1148824D01*
Y-324812D01*
Y-325098D01*
X1148537D01*
Y-325384D01*
X1148251D01*
Y-325671D01*
X1147965D01*
Y-325957D01*
X1147678D01*
Y-326243D01*
Y-326530D01*
X1147392D01*
Y-326816D01*
X1147106D01*
Y-327102D01*
X1146819D01*
Y-327389D01*
Y-327675D01*
X1146533D01*
Y-327961D01*
X1146247D01*
Y-328248D01*
X1145960D01*
Y-328534D01*
X1145674D01*
Y-328820D01*
Y-329107D01*
X1145960D01*
Y-329393D01*
Y-329679D01*
X1146247D01*
Y-329965D01*
Y-330252D01*
X1146533D01*
Y-330538D01*
X1146819D01*
Y-330824D01*
Y-331111D01*
X1147106D01*
Y-331397D01*
Y-331683D01*
X1147392D01*
Y-331970D01*
Y-332256D01*
X1147678D01*
Y-332542D01*
Y-332829D01*
X1147965D01*
Y-333115D01*
Y-333401D01*
X1148251D01*
Y-333688D01*
Y-333974D01*
X1148537D01*
Y-334260D01*
Y-334547D01*
X1148824D01*
Y-334833D01*
Y-335119D01*
X1149110D01*
Y-335405D01*
X1149396D01*
Y-335692D01*
Y-335978D01*
X1149682D01*
Y-336264D01*
Y-336551D01*
X1149969D01*
Y-336837D01*
Y-337123D01*
X1150255D01*
Y-337410D01*
Y-337696D01*
X1150541D01*
Y-337982D01*
Y-338269D01*
X1150828D01*
Y-338555D01*
Y-338841D01*
X1151114D01*
Y-339128D01*
Y-339414D01*
X1151400D01*
Y-339700D01*
X1151687D01*
Y-339986D01*
Y-340273D01*
X1151973D01*
Y-340559D01*
Y-340845D01*
X1152259D01*
Y-341132D01*
Y-341418D01*
X1152546D01*
Y-341704D01*
Y-341991D01*
X1152832D01*
Y-342277D01*
Y-342563D01*
X1153118D01*
Y-342850D01*
Y-343136D01*
X1153405D01*
Y-343422D01*
Y-343709D01*
X1153691D01*
Y-343995D01*
X1153977D01*
Y-344281D01*
Y-344567D01*
X1154263D01*
Y-344854D01*
Y-345140D01*
X1154550D01*
Y-345427D01*
X1139375D01*
Y-345140D01*
X1139089D01*
Y-344854D01*
Y-344567D01*
Y-344281D01*
X1138803D01*
Y-343995D01*
Y-343709D01*
Y-343422D01*
X1138516D01*
Y-343136D01*
Y-342850D01*
X1138230D01*
Y-342563D01*
Y-342277D01*
Y-341991D01*
X1137944D01*
Y-341704D01*
Y-341418D01*
Y-341132D01*
X1137657D01*
Y-340845D01*
Y-340559D01*
X1137371D01*
Y-340273D01*
Y-339986D01*
Y-339700D01*
X1137085D01*
Y-339414D01*
Y-339128D01*
Y-338841D01*
X1136798D01*
Y-338555D01*
Y-338269D01*
Y-337982D01*
X1136512D01*
Y-337696D01*
X1135939D01*
Y-337982D01*
Y-338269D01*
X1135653D01*
Y-338555D01*
X1135367D01*
Y-338841D01*
Y-339128D01*
X1135081D01*
Y-339414D01*
X1134794D01*
Y-339700D01*
Y-339986D01*
X1134508D01*
Y-340273D01*
X1134221D01*
Y-340559D01*
Y-340845D01*
X1133935D01*
Y-341132D01*
X1133649D01*
Y-341418D01*
X1133363D01*
Y-341704D01*
Y-341991D01*
X1133076D01*
Y-342277D01*
X1132790D01*
Y-342563D01*
Y-342850D01*
X1132504D01*
Y-343136D01*
X1132217D01*
Y-343422D01*
Y-343709D01*
X1131931D01*
Y-343995D01*
X1131645D01*
Y-344281D01*
Y-344567D01*
X1131358D01*
Y-344854D01*
X1131072D01*
Y-345140D01*
Y-345427D01*
X1115039D01*
Y-345140D01*
X1115325D01*
Y-344854D01*
X1115611D01*
Y-344567D01*
X1115897D01*
Y-344281D01*
X1116184D01*
Y-343995D01*
Y-343709D01*
X1116470D01*
Y-343422D01*
X1116757D01*
Y-343136D01*
X1117043D01*
Y-342850D01*
X1117329D01*
Y-342563D01*
Y-342277D01*
X1117615D01*
Y-341991D01*
X1117902D01*
Y-341704D01*
X1118188D01*
Y-341418D01*
Y-341132D01*
X1118474D01*
Y-340845D01*
X1118761D01*
Y-340559D01*
X1119047D01*
Y-340273D01*
X1119333D01*
Y-339986D01*
Y-339700D01*
X1119620D01*
Y-339414D01*
X1119906D01*
Y-339128D01*
X1120192D01*
Y-338841D01*
X1120479D01*
Y-338555D01*
Y-338269D01*
X1120765D01*
Y-337982D01*
X1121051D01*
Y-337696D01*
X1121338D01*
Y-337410D01*
Y-337123D01*
X1121624D01*
Y-336837D01*
X1121910D01*
Y-336551D01*
X1122196D01*
Y-336264D01*
X1122483D01*
Y-335978D01*
Y-335692D01*
X1122769D01*
Y-335405D01*
X1123055D01*
Y-335119D01*
X1123342D01*
Y-334833D01*
Y-334547D01*
X1123628D01*
Y-334260D01*
X1123914D01*
Y-333974D01*
X1124201D01*
Y-333688D01*
X1124487D01*
Y-333401D01*
Y-333115D01*
X1124773D01*
Y-332829D01*
X1125060D01*
Y-332542D01*
X1125346D01*
Y-332256D01*
Y-331970D01*
X1125632D01*
Y-331683D01*
X1125918D01*
Y-331397D01*
X1126205D01*
Y-331111D01*
X1126491D01*
Y-330824D01*
Y-330538D01*
X1126777D01*
Y-330252D01*
X1127064D01*
Y-329965D01*
X1127350D01*
Y-329679D01*
X1127636D01*
Y-329393D01*
Y-329107D01*
X1127923D01*
Y-328820D01*
X1128209D01*
Y-328534D01*
X1128495D01*
Y-328248D01*
Y-327961D01*
X1128782D01*
Y-327675D01*
X1129068D01*
Y-327389D01*
X1129354D01*
Y-327102D01*
X1129640D01*
Y-326816D01*
Y-326530D01*
X1129927D01*
Y-326243D01*
Y-325957D01*
Y-325671D01*
X1129640D01*
Y-325384D01*
X1129354D01*
Y-325098D01*
Y-324812D01*
X1129068D01*
Y-324526D01*
Y-324239D01*
X1128782D01*
Y-323953D01*
Y-323667D01*
X1128495D01*
Y-323380D01*
Y-323094D01*
X1128209D01*
Y-322808D01*
Y-322521D01*
X1127923D01*
Y-322235D01*
Y-321949D01*
X1127636D01*
Y-321662D01*
X1127350D01*
Y-321376D01*
Y-321090D01*
X1127064D01*
Y-320803D01*
Y-320517D01*
X1126777D01*
Y-320231D01*
Y-319945D01*
X1126491D01*
Y-319658D01*
Y-319372D01*
X1126205D01*
Y-319086D01*
Y-318799D01*
X1125918D01*
Y-318513D01*
Y-318227D01*
X1125632D01*
Y-317940D01*
X1125346D01*
Y-317654D01*
Y-317368D01*
X1125060D01*
Y-317081D01*
Y-316795D01*
X1124773D01*
Y-316509D01*
Y-316223D01*
X1124487D01*
Y-315936D01*
Y-315650D01*
X1124201D01*
Y-315364D01*
Y-315077D01*
X1123914D01*
Y-314791D01*
Y-314505D01*
X1123628D01*
Y-314218D01*
Y-313932D01*
X1123342D01*
Y-313646D01*
X1123055D01*
Y-313359D01*
Y-313073D01*
X1122769D01*
Y-312787D01*
Y-312501D01*
X1122483D01*
Y-312214D01*
Y-311928D01*
X1122196D01*
Y-311642D01*
Y-311355D01*
X1121910D01*
Y-311069D01*
Y-310783D01*
X1121624D01*
Y-310496D01*
Y-310210D01*
X1121338D01*
Y-309924D01*
X1121051D01*
Y-309637D01*
Y-309351D01*
X1120765D01*
Y-309065D01*
X1136512D01*
Y-309351D01*
X1136798D01*
Y-309637D01*
Y-309924D01*
Y-310210D01*
X1137085D01*
Y-310496D01*
Y-310783D01*
Y-311069D01*
X1137371D01*
Y-311355D01*
Y-311642D01*
Y-311928D01*
X1137657D01*
Y-312214D01*
Y-312501D01*
Y-312787D01*
X1137944D01*
Y-313073D01*
Y-313359D01*
Y-313646D01*
X1138230D01*
Y-313932D01*
Y-314218D01*
Y-314505D01*
X1138516D01*
Y-314791D01*
Y-315077D01*
Y-315364D01*
X1138803D01*
Y-315650D01*
Y-315936D01*
Y-316223D01*
X1139089D01*
Y-316509D01*
Y-316795D01*
Y-317081D01*
Y-317368D01*
X1139662D01*
Y-317081D01*
X1139948D01*
Y-316795D01*
X1140234D01*
Y-316509D01*
Y-316223D01*
X1140520D01*
Y-315936D01*
X1140807D01*
Y-315650D01*
Y-315364D01*
X1141093D01*
Y-315077D01*
X1141379D01*
Y-314791D01*
Y-314505D01*
X1141666D01*
Y-314218D01*
X1141952D01*
Y-313932D01*
Y-313646D01*
X1142238D01*
Y-313359D01*
X1142525D01*
Y-313073D01*
Y-312787D01*
X1142811D01*
Y-312501D01*
X1143097D01*
Y-312214D01*
Y-311928D01*
X1143384D01*
Y-311642D01*
X1143670D01*
Y-311355D01*
Y-311069D01*
X1143956D01*
Y-310783D01*
X1144242D01*
Y-310496D01*
Y-310210D01*
X1144529D01*
Y-309924D01*
X1144815D01*
Y-309637D01*
Y-309351D01*
X1145101D01*
Y-309065D01*
X1160849D01*
Y-309351D01*
D02*
G37*
G36*
X1116757D02*
Y-309637D01*
Y-309924D01*
Y-310210D01*
Y-310496D01*
Y-310783D01*
Y-311069D01*
Y-311355D01*
Y-311642D01*
Y-311928D01*
Y-312214D01*
Y-312501D01*
Y-312787D01*
Y-313073D01*
Y-313359D01*
Y-313646D01*
Y-313932D01*
Y-314218D01*
Y-314505D01*
Y-314791D01*
Y-315077D01*
X1116470D01*
Y-315364D01*
Y-315650D01*
Y-315936D01*
Y-316223D01*
Y-316509D01*
X1116184D01*
Y-316795D01*
Y-317081D01*
Y-317368D01*
Y-317654D01*
X1115897D01*
Y-317940D01*
Y-318227D01*
Y-318513D01*
Y-318799D01*
X1115611D01*
Y-319086D01*
Y-319372D01*
Y-319658D01*
X1115325D01*
Y-319945D01*
Y-320231D01*
Y-320517D01*
X1115039D01*
Y-320803D01*
Y-321090D01*
Y-321376D01*
X1114752D01*
Y-321662D01*
Y-321949D01*
Y-322235D01*
X1114466D01*
Y-322521D01*
Y-322808D01*
X1114180D01*
Y-323094D01*
Y-323380D01*
X1113893D01*
Y-323667D01*
Y-323953D01*
Y-324239D01*
X1113607D01*
Y-324526D01*
Y-324812D01*
X1113321D01*
Y-325098D01*
Y-325384D01*
Y-325671D01*
X1113034D01*
Y-325957D01*
Y-326243D01*
X1112748D01*
Y-326530D01*
Y-326816D01*
Y-327102D01*
X1112462D01*
Y-327389D01*
Y-327675D01*
X1112175D01*
Y-327961D01*
Y-328248D01*
Y-328534D01*
X1111889D01*
Y-328820D01*
Y-329107D01*
X1111603D01*
Y-329393D01*
Y-329679D01*
Y-329965D01*
X1111316D01*
Y-330252D01*
Y-330538D01*
X1111030D01*
Y-330824D01*
Y-331111D01*
Y-331397D01*
X1110744D01*
Y-331683D01*
Y-331970D01*
X1110458D01*
Y-332256D01*
Y-332542D01*
Y-332829D01*
X1110171D01*
Y-333115D01*
Y-333401D01*
X1109885D01*
Y-333688D01*
Y-333974D01*
Y-334260D01*
X1109599D01*
Y-334547D01*
Y-334833D01*
X1109312D01*
Y-335119D01*
Y-335405D01*
Y-335692D01*
X1109026D01*
Y-335978D01*
Y-336264D01*
X1108740D01*
Y-336551D01*
Y-336837D01*
Y-337123D01*
X1108453D01*
Y-337410D01*
Y-337696D01*
X1108167D01*
Y-337982D01*
Y-338269D01*
Y-338555D01*
X1107881D01*
Y-338841D01*
Y-339128D01*
X1107594D01*
Y-339414D01*
Y-339700D01*
Y-339986D01*
X1107308D01*
Y-340273D01*
Y-340559D01*
X1107022D01*
Y-340845D01*
Y-341132D01*
Y-341418D01*
X1106736D01*
Y-341704D01*
Y-341991D01*
X1106449D01*
Y-342277D01*
Y-342563D01*
Y-342850D01*
X1106163D01*
Y-343136D01*
Y-343422D01*
X1105877D01*
Y-343709D01*
Y-343995D01*
Y-344281D01*
X1105590D01*
Y-344567D01*
Y-344854D01*
X1105304D01*
Y-345140D01*
Y-345427D01*
Y-345713D01*
X1105018D01*
Y-345999D01*
Y-346285D01*
X1104731D01*
Y-346572D01*
Y-346858D01*
X1104445D01*
Y-347144D01*
Y-347431D01*
X1104159D01*
Y-347717D01*
Y-348003D01*
Y-348290D01*
X1103872D01*
Y-348576D01*
X1103586D01*
Y-348862D01*
Y-349149D01*
Y-349435D01*
X1103300D01*
Y-349721D01*
X1103013D01*
Y-350008D01*
Y-350294D01*
X1102727D01*
Y-350580D01*
Y-350866D01*
X1102441D01*
Y-351153D01*
Y-351439D01*
X1102155D01*
Y-351725D01*
Y-352012D01*
X1101868D01*
Y-352298D01*
X1101582D01*
Y-352584D01*
Y-352871D01*
X1101296D01*
Y-353157D01*
Y-353443D01*
X1101009D01*
Y-353730D01*
X1100723D01*
Y-354016D01*
X1100437D01*
Y-354302D01*
Y-354589D01*
X1100150D01*
Y-354875D01*
X1099864D01*
Y-355161D01*
Y-355447D01*
X1099578D01*
Y-355734D01*
X1099291D01*
Y-356020D01*
X1099005D01*
Y-356306D01*
Y-356593D01*
X1098719D01*
Y-356879D01*
X1098432D01*
Y-357165D01*
X1098146D01*
Y-357452D01*
X1097860D01*
Y-357738D01*
X1097573D01*
Y-358024D01*
Y-358311D01*
X1097287D01*
Y-358597D01*
X1097001D01*
Y-358883D01*
X1096715D01*
Y-359170D01*
X1096428D01*
Y-359456D01*
X1096142D01*
Y-359742D01*
X1095856D01*
Y-360028D01*
X1095569D01*
Y-360315D01*
X1094997D01*
Y-360601D01*
X1094710D01*
Y-360887D01*
X1094424D01*
Y-361174D01*
X1094138D01*
Y-361460D01*
X1093851D01*
Y-361746D01*
X1093279D01*
Y-362033D01*
X1092992D01*
Y-362319D01*
X1092420D01*
Y-362605D01*
X1092134D01*
Y-362892D01*
X1091561D01*
Y-363178D01*
X1091275D01*
Y-363464D01*
X1090702D01*
Y-363751D01*
X1090129D01*
Y-364037D01*
X1089557D01*
Y-364323D01*
X1088984D01*
Y-364609D01*
X1088412D01*
Y-364896D01*
X1087553D01*
Y-365182D01*
X1086980D01*
Y-365468D01*
X1086121D01*
Y-365755D01*
X1084976D01*
Y-366041D01*
X1083831D01*
Y-366327D01*
X1082113D01*
Y-366614D01*
X1080108D01*
Y-366900D01*
X1079822D01*
Y-366614D01*
Y-366327D01*
Y-366041D01*
Y-365755D01*
Y-365468D01*
Y-365182D01*
Y-364896D01*
Y-364609D01*
Y-364323D01*
Y-364037D01*
Y-363751D01*
Y-363464D01*
Y-363178D01*
Y-362892D01*
Y-362605D01*
Y-362319D01*
Y-362033D01*
Y-361746D01*
Y-361460D01*
Y-361174D01*
Y-360887D01*
Y-360601D01*
Y-360315D01*
Y-360028D01*
Y-359742D01*
Y-359456D01*
Y-359170D01*
Y-358883D01*
Y-358597D01*
Y-358311D01*
Y-358024D01*
Y-357738D01*
Y-357452D01*
X1080395D01*
Y-357165D01*
X1080967D01*
Y-356879D01*
X1081540D01*
Y-356593D01*
X1082113D01*
Y-356306D01*
X1082685D01*
Y-356020D01*
X1083258D01*
Y-355734D01*
X1083544D01*
Y-355447D01*
X1084117D01*
Y-355161D01*
X1084403D01*
Y-354875D01*
X1084976D01*
Y-354589D01*
X1085262D01*
Y-354302D01*
X1085548D01*
Y-354016D01*
X1086121D01*
Y-353730D01*
X1086407D01*
Y-353443D01*
X1086694D01*
Y-353157D01*
X1086980D01*
Y-352871D01*
X1087266D01*
Y-352584D01*
X1087553D01*
Y-352298D01*
X1087839D01*
Y-352012D01*
X1088125D01*
Y-351725D01*
X1088412D01*
Y-351439D01*
X1088698D01*
Y-351153D01*
X1088984D01*
Y-350866D01*
X1089270D01*
Y-350580D01*
Y-350294D01*
X1089557D01*
Y-350008D01*
X1089843D01*
Y-349721D01*
X1090129D01*
Y-349435D01*
Y-349149D01*
X1090416D01*
Y-348862D01*
X1090702D01*
Y-348576D01*
Y-348290D01*
X1090988D01*
Y-348003D01*
Y-347717D01*
X1091275D01*
Y-347431D01*
X1091561D01*
Y-347144D01*
Y-346858D01*
X1091847D01*
Y-346572D01*
Y-346285D01*
X1092134D01*
Y-345999D01*
Y-345713D01*
X1090416D01*
Y-345427D01*
X1088412D01*
Y-345140D01*
X1087266D01*
Y-344854D01*
X1086694D01*
Y-344567D01*
X1085835D01*
Y-344281D01*
X1085262D01*
Y-343995D01*
X1084976D01*
Y-343709D01*
X1084403D01*
Y-343422D01*
X1084117D01*
Y-343136D01*
X1083831D01*
Y-342850D01*
X1083544D01*
Y-342563D01*
X1083258D01*
Y-342277D01*
X1082971D01*
Y-341991D01*
Y-341704D01*
X1082685D01*
Y-341418D01*
X1082399D01*
Y-341132D01*
Y-340845D01*
X1082113D01*
Y-340559D01*
Y-340273D01*
X1081826D01*
Y-339986D01*
Y-339700D01*
X1081540D01*
Y-339414D01*
Y-339128D01*
Y-338841D01*
X1081254D01*
Y-338555D01*
Y-338269D01*
Y-337982D01*
Y-337696D01*
X1080967D01*
Y-337410D01*
Y-337123D01*
Y-336837D01*
Y-336551D01*
Y-336264D01*
Y-335978D01*
Y-335692D01*
X1080681D01*
Y-335405D01*
Y-335119D01*
Y-334833D01*
Y-334547D01*
Y-334260D01*
Y-333974D01*
Y-333688D01*
Y-333401D01*
Y-333115D01*
Y-332829D01*
Y-332542D01*
Y-332256D01*
Y-331970D01*
Y-331683D01*
Y-331397D01*
X1080395D01*
Y-331111D01*
Y-330824D01*
Y-330538D01*
Y-330252D01*
Y-329965D01*
Y-329679D01*
Y-329393D01*
Y-329107D01*
Y-328820D01*
Y-328534D01*
Y-328248D01*
Y-327961D01*
Y-327675D01*
Y-327389D01*
Y-327102D01*
X1080108D01*
Y-326816D01*
Y-326530D01*
Y-326243D01*
Y-325957D01*
Y-325671D01*
Y-325384D01*
Y-325098D01*
Y-324812D01*
Y-324526D01*
Y-324239D01*
Y-323953D01*
Y-323667D01*
Y-323380D01*
Y-323094D01*
Y-322808D01*
Y-322521D01*
X1079822D01*
Y-322235D01*
Y-321949D01*
Y-321662D01*
Y-321376D01*
Y-321090D01*
Y-320803D01*
Y-320517D01*
Y-320231D01*
Y-319945D01*
Y-319658D01*
Y-319372D01*
Y-319086D01*
Y-318799D01*
Y-318513D01*
Y-318227D01*
Y-317940D01*
X1079536D01*
Y-317654D01*
Y-317368D01*
Y-317081D01*
Y-316795D01*
Y-316509D01*
Y-316223D01*
Y-315936D01*
Y-315650D01*
Y-315364D01*
Y-315077D01*
Y-314791D01*
Y-314505D01*
Y-314218D01*
Y-313932D01*
X1079249D01*
Y-313646D01*
Y-313359D01*
Y-313073D01*
Y-312787D01*
Y-312501D01*
Y-312214D01*
Y-311928D01*
Y-311642D01*
Y-311355D01*
Y-311069D01*
Y-310783D01*
Y-310496D01*
Y-310210D01*
Y-309924D01*
Y-309637D01*
Y-309351D01*
X1078963D01*
Y-309065D01*
X1092706D01*
Y-309351D01*
Y-309637D01*
Y-309924D01*
Y-310210D01*
Y-310496D01*
Y-310783D01*
Y-311069D01*
Y-311355D01*
Y-311642D01*
Y-311928D01*
Y-312214D01*
Y-312501D01*
Y-312787D01*
Y-313073D01*
X1092992D01*
Y-313359D01*
Y-313646D01*
Y-313932D01*
Y-314218D01*
Y-314505D01*
Y-314791D01*
Y-315077D01*
Y-315364D01*
Y-315650D01*
Y-315936D01*
Y-316223D01*
Y-316509D01*
Y-316795D01*
Y-317081D01*
Y-317368D01*
Y-317654D01*
Y-317940D01*
Y-318227D01*
Y-318513D01*
Y-318799D01*
Y-319086D01*
Y-319372D01*
Y-319658D01*
Y-319945D01*
Y-320231D01*
Y-320517D01*
Y-320803D01*
Y-321090D01*
Y-321376D01*
Y-321662D01*
Y-321949D01*
Y-322235D01*
Y-322521D01*
Y-322808D01*
Y-323094D01*
Y-323380D01*
Y-323667D01*
Y-323953D01*
Y-324239D01*
Y-324526D01*
Y-324812D01*
X1093279D01*
Y-325098D01*
X1092992D01*
Y-325384D01*
Y-325671D01*
X1093279D01*
Y-325957D01*
Y-326243D01*
Y-326530D01*
Y-326816D01*
Y-327102D01*
Y-327389D01*
Y-327675D01*
Y-327961D01*
Y-328248D01*
Y-328534D01*
Y-328820D01*
Y-329107D01*
Y-329393D01*
Y-329679D01*
Y-329965D01*
Y-330252D01*
Y-330538D01*
Y-330824D01*
Y-331111D01*
Y-331397D01*
Y-331683D01*
Y-331970D01*
Y-332256D01*
Y-332542D01*
Y-332829D01*
Y-333115D01*
X1093565D01*
Y-333401D01*
Y-333688D01*
Y-333974D01*
X1093851D01*
Y-334260D01*
X1094138D01*
Y-334547D01*
X1094424D01*
Y-334833D01*
X1095283D01*
Y-335119D01*
X1096142D01*
Y-334833D01*
X1096428D01*
Y-334547D01*
Y-334260D01*
Y-333974D01*
X1096715D01*
Y-333688D01*
Y-333401D01*
X1097001D01*
Y-333115D01*
Y-332829D01*
Y-332542D01*
X1097287D01*
Y-332256D01*
Y-331970D01*
Y-331683D01*
X1097573D01*
Y-331397D01*
Y-331111D01*
Y-330824D01*
X1097860D01*
Y-330538D01*
Y-330252D01*
Y-329965D01*
X1098146D01*
Y-329679D01*
Y-329393D01*
X1098432D01*
Y-329107D01*
Y-328820D01*
Y-328534D01*
X1098719D01*
Y-328248D01*
Y-327961D01*
Y-327675D01*
X1099005D01*
Y-327389D01*
Y-327102D01*
Y-326816D01*
X1099291D01*
Y-326530D01*
Y-326243D01*
X1099578D01*
Y-325957D01*
Y-325671D01*
Y-325384D01*
X1099864D01*
Y-325098D01*
Y-324812D01*
Y-324526D01*
X1100150D01*
Y-324239D01*
Y-323953D01*
Y-323667D01*
X1100437D01*
Y-323380D01*
Y-323094D01*
X1100723D01*
Y-322808D01*
Y-322521D01*
Y-322235D01*
X1101009D01*
Y-321949D01*
Y-321662D01*
Y-321376D01*
X1101296D01*
Y-321090D01*
Y-320803D01*
Y-320517D01*
X1101582D01*
Y-320231D01*
Y-319945D01*
X1101868D01*
Y-319658D01*
Y-319372D01*
Y-319086D01*
X1102155D01*
Y-318799D01*
Y-318513D01*
Y-318227D01*
X1102441D01*
Y-317940D01*
Y-317654D01*
Y-317368D01*
X1102727D01*
Y-317081D01*
Y-316795D01*
Y-316509D01*
Y-316223D01*
X1103013D01*
Y-315936D01*
Y-315650D01*
Y-315364D01*
Y-315077D01*
X1103300D01*
Y-314791D01*
Y-314505D01*
Y-314218D01*
Y-313932D01*
Y-313646D01*
X1103586D01*
Y-313359D01*
Y-313073D01*
Y-312787D01*
Y-312501D01*
Y-312214D01*
Y-311928D01*
X1103872D01*
Y-311642D01*
Y-311355D01*
Y-311069D01*
Y-310783D01*
Y-310496D01*
Y-310210D01*
Y-309924D01*
Y-309637D01*
Y-309351D01*
Y-309065D01*
X1116757D01*
Y-309351D01*
D02*
G37*
%LPC*%
G36*
X1023419Y-306202D02*
X1015402D01*
Y-306488D01*
Y-306774D01*
Y-307061D01*
Y-307347D01*
Y-307633D01*
X1015115D01*
Y-307920D01*
Y-308206D01*
Y-308492D01*
Y-308778D01*
Y-309065D01*
Y-309351D01*
X1014829D01*
Y-309637D01*
Y-309924D01*
Y-310210D01*
Y-310496D01*
Y-310783D01*
Y-311069D01*
X1014543D01*
Y-311355D01*
Y-311642D01*
Y-311928D01*
Y-312214D01*
Y-312501D01*
Y-312787D01*
X1014256D01*
Y-313073D01*
Y-313359D01*
Y-313646D01*
Y-313932D01*
Y-314218D01*
Y-314505D01*
Y-314791D01*
X1013970D01*
Y-315077D01*
Y-315364D01*
Y-315650D01*
Y-315936D01*
Y-316223D01*
Y-316509D01*
X1013684D01*
Y-316795D01*
Y-317081D01*
Y-317368D01*
X1020842D01*
Y-317081D01*
X1021987D01*
Y-316795D01*
X1022560D01*
Y-316509D01*
X1022846D01*
Y-316223D01*
X1023132D01*
Y-315936D01*
X1023419D01*
Y-315650D01*
X1023705D01*
Y-315364D01*
Y-315077D01*
X1023991D01*
Y-314791D01*
Y-314505D01*
X1024277D01*
Y-314218D01*
Y-313932D01*
X1024564D01*
Y-313646D01*
Y-313359D01*
Y-313073D01*
Y-312787D01*
X1024850D01*
Y-312501D01*
Y-312214D01*
Y-311928D01*
Y-311642D01*
Y-311355D01*
X1025136D01*
Y-311069D01*
Y-310783D01*
Y-310496D01*
Y-310210D01*
Y-309924D01*
Y-309637D01*
Y-309351D01*
Y-309065D01*
Y-308778D01*
Y-308492D01*
Y-308206D01*
X1024850D01*
Y-307920D01*
Y-307633D01*
X1024564D01*
Y-307347D01*
Y-307061D01*
X1024277D01*
Y-306774D01*
X1023991D01*
Y-306488D01*
X1023419D01*
Y-306202D01*
D02*
G37*
%LPD*%
D10*
X1001582Y-400836D02*
Y-416579D01*
X1006830Y-411331D01*
X1012078Y-416579D01*
Y-400836D01*
X1017325Y-416579D02*
X1022573D01*
X1019949D01*
Y-406084D01*
X1017325D01*
X1030444Y-416579D02*
Y-406084D01*
X1033068D01*
X1035692Y-408707D01*
Y-416579D01*
Y-408707D01*
X1038316Y-406084D01*
X1040940Y-408707D01*
Y-416579D01*
X1046187Y-400836D02*
Y-411331D01*
X1051435Y-416579D01*
X1056683Y-411331D01*
Y-400836D01*
X1072426Y-403460D02*
X1069802Y-400836D01*
X1064554D01*
X1061930Y-403460D01*
Y-413955D01*
X1064554Y-416579D01*
X1069802D01*
X1072426Y-413955D01*
Y-408707D01*
X1067178D01*
X1355913Y-364090D02*
X1358537Y-361466D01*
X1363785D01*
X1366408Y-364090D01*
Y-374585D01*
X1363785Y-377209D01*
X1358537D01*
X1355913Y-374585D01*
Y-364090D01*
X1371656D02*
X1374280Y-361466D01*
X1379527D01*
X1382151Y-364090D01*
Y-374585D01*
X1379527Y-377209D01*
X1374280D01*
X1371656Y-374585D01*
Y-364090D01*
X1192527Y-377209D02*
X1197119D01*
X1194823D01*
Y-363434D01*
X1192527Y-365730D01*
X1213190Y-363434D02*
X1208598Y-365730D01*
X1204006Y-370321D01*
Y-374913D01*
X1206302Y-377209D01*
X1210894D01*
X1213190Y-374913D01*
Y-372617D01*
X1210894Y-370321D01*
X1204006D01*
X1217782Y-377209D02*
X1226965Y-368025D01*
X1231557Y-365730D02*
X1233852Y-363434D01*
X1238444D01*
X1240740Y-365730D01*
Y-374913D01*
X1238444Y-377209D01*
X1233852D01*
X1231557Y-374913D01*
Y-365730D01*
X1254515Y-363434D02*
X1245332D01*
Y-370321D01*
X1249923Y-368025D01*
X1252219D01*
X1254515Y-370321D01*
Y-374913D01*
X1252219Y-377209D01*
X1247628D01*
X1245332Y-374913D01*
X1259107Y-377209D02*
X1268290Y-368025D01*
X1282065Y-377209D02*
X1272882D01*
X1282065Y-368025D01*
Y-365730D01*
X1279769Y-363434D01*
X1275178D01*
X1272882Y-365730D01*
X1286657D02*
X1288953Y-363434D01*
X1293544D01*
X1295840Y-365730D01*
Y-374913D01*
X1293544Y-377209D01*
X1288953D01*
X1286657Y-374913D01*
Y-365730D01*
X1309615Y-377209D02*
X1300432D01*
X1309615Y-368025D01*
Y-365730D01*
X1307320Y-363434D01*
X1302728D01*
X1300432Y-365730D01*
X1314207D02*
X1316503Y-363434D01*
X1321095D01*
X1323390Y-365730D01*
Y-368025D01*
X1321095Y-370321D01*
X1318799D01*
X1321095D01*
X1323390Y-372617D01*
Y-374913D01*
X1321095Y-377209D01*
X1316503D01*
X1314207Y-374913D01*
X1195018Y-285874D02*
X1186622D01*
Y-298469D01*
X1195018D01*
X1186622Y-292172D02*
X1190820D01*
X1207612Y-285874D02*
Y-298469D01*
X1201315D01*
X1199216Y-296370D01*
Y-292172D01*
X1201315Y-290072D01*
X1207612D01*
X1216009Y-302667D02*
X1218108D01*
X1220207Y-300568D01*
Y-290072D01*
X1213910D01*
X1211810Y-292172D01*
Y-296370D01*
X1213910Y-298469D01*
X1220207D01*
X1226504Y-290072D02*
X1230702D01*
X1232801Y-292172D01*
Y-298469D01*
X1226504D01*
X1224405Y-296370D01*
X1226504Y-294271D01*
X1232801D01*
X1236999Y-290072D02*
Y-298469D01*
Y-294271D01*
X1239098Y-292172D01*
X1241197Y-290072D01*
X1243296D01*
X1198433Y-322095D02*
Y-335870D01*
X1205320D01*
X1207616Y-333574D01*
Y-324391D01*
X1205320Y-322095D01*
X1198433D01*
X1212208Y-326687D02*
Y-335870D01*
Y-331278D01*
X1214504Y-328983D01*
X1216800Y-326687D01*
X1219095D01*
X1225983Y-335870D02*
X1230575D01*
X1228279D01*
Y-326687D01*
X1225983D01*
X1237462Y-335870D02*
X1242054D01*
X1239758D01*
Y-322095D01*
X1237462D01*
X1248941Y-335870D02*
X1253533D01*
X1251237D01*
Y-322095D01*
X1248941D01*
X1283379Y-324391D02*
X1281083Y-322095D01*
X1276492D01*
X1274196Y-324391D01*
Y-333574D01*
X1276492Y-335870D01*
X1281083D01*
X1283379Y-333574D01*
Y-328983D01*
X1278787D01*
X1287971Y-326687D02*
Y-333574D01*
X1290267Y-335870D01*
X1297154D01*
Y-326687D01*
X1301746Y-335870D02*
X1306338D01*
X1304042D01*
Y-326687D01*
X1301746D01*
X1322408Y-322095D02*
Y-335870D01*
X1315521D01*
X1313225Y-333574D01*
Y-328983D01*
X1315521Y-326687D01*
X1322408D01*
X1333888Y-335870D02*
X1329296D01*
X1327000Y-333574D01*
Y-328983D01*
X1329296Y-326687D01*
X1333888D01*
X1336184Y-328983D01*
Y-331278D01*
X1327000D01*
D13*
X1338197Y-355555D02*
Y-347684D01*
X1342132D01*
X1343444Y-348996D01*
Y-351620D01*
X1342132Y-352931D01*
X1338197D01*
X1340820D02*
X1343444Y-355555D01*
X1350004D02*
X1347380D01*
X1346068Y-354243D01*
Y-351620D01*
X1347380Y-350308D01*
X1350004D01*
X1351316Y-351620D01*
Y-352931D01*
X1346068D01*
X1353940Y-350308D02*
X1356563Y-355555D01*
X1359187Y-350308D01*
X983866Y-387054D02*
Y-394925D01*
X987802D01*
X989114Y-393614D01*
Y-388366D01*
X987802Y-387054D01*
X983866D01*
X995673Y-394925D02*
X993049D01*
X991737Y-393614D01*
Y-390990D01*
X993049Y-389678D01*
X995673D01*
X996985Y-390990D01*
Y-392302D01*
X991737D01*
X999609Y-394925D02*
X1003545D01*
X1004856Y-393614D01*
X1003545Y-392302D01*
X1000921D01*
X999609Y-390990D01*
X1000921Y-389678D01*
X1004856D01*
X1010104Y-397549D02*
X1011416D01*
X1012728Y-396237D01*
Y-389678D01*
X1008792D01*
X1007480Y-390990D01*
Y-393614D01*
X1008792Y-394925D01*
X1012728D01*
X1015352D02*
X1017976D01*
X1016664D01*
Y-389678D01*
X1015352D01*
X1021911Y-394925D02*
Y-389678D01*
X1025847D01*
X1027159Y-390990D01*
Y-394925D01*
X1033718D02*
X1031095D01*
X1029783Y-393614D01*
Y-390990D01*
X1031095Y-389678D01*
X1033718D01*
X1035030Y-390990D01*
Y-392302D01*
X1029783D01*
X1037654Y-389678D02*
Y-394925D01*
Y-392302D01*
X1038966Y-390990D01*
X1040278Y-389678D01*
X1041590D01*
X1180716Y-268944D02*
Y-276815D01*
X1184652D01*
X1185964Y-275503D01*
Y-270256D01*
X1184652Y-268944D01*
X1180716D01*
X1189900Y-276815D02*
X1192523D01*
X1193835Y-275503D01*
Y-272879D01*
X1192523Y-271568D01*
X1189900D01*
X1188588Y-272879D01*
Y-275503D01*
X1189900Y-276815D01*
X1201707Y-271568D02*
X1197771D01*
X1196459Y-272879D01*
Y-275503D01*
X1197771Y-276815D01*
X1201707D01*
X1204331Y-271568D02*
Y-275503D01*
X1205643Y-276815D01*
X1209578D01*
Y-271568D01*
X1212202Y-276815D02*
Y-271568D01*
X1213514D01*
X1214826Y-272879D01*
Y-276815D01*
Y-272879D01*
X1216138Y-271568D01*
X1217450Y-272879D01*
Y-276815D01*
X1224009D02*
X1221385D01*
X1220074Y-275503D01*
Y-272879D01*
X1221385Y-271568D01*
X1224009D01*
X1225321Y-272879D01*
Y-274191D01*
X1220074D01*
X1227945Y-276815D02*
Y-271568D01*
X1231881D01*
X1233193Y-272879D01*
Y-276815D01*
X1237129Y-270256D02*
Y-271568D01*
X1235817D01*
X1238440D01*
X1237129D01*
Y-275503D01*
X1238440Y-276815D01*
X1180716Y-308314D02*
Y-316185D01*
X1185964D01*
X1189900Y-310938D02*
X1192523D01*
X1193835Y-312249D01*
Y-316185D01*
X1189900D01*
X1188588Y-314873D01*
X1189900Y-313561D01*
X1193835D01*
X1196459Y-310938D02*
Y-314873D01*
X1197771Y-316185D01*
X1201707D01*
Y-317497D01*
X1200395Y-318809D01*
X1199083D01*
X1201707Y-316185D02*
Y-310938D01*
X1208266Y-316185D02*
X1205643D01*
X1204331Y-314873D01*
Y-312249D01*
X1205643Y-310938D01*
X1208266D01*
X1209578Y-312249D01*
Y-313561D01*
X1204331D01*
X1212202Y-310938D02*
Y-316185D01*
Y-313561D01*
X1213514Y-312249D01*
X1214826Y-310938D01*
X1216138D01*
X1227945Y-316185D02*
Y-308314D01*
X1233193Y-316185D01*
Y-308314D01*
X1237129Y-310938D02*
X1239752D01*
X1241064Y-312249D01*
Y-316185D01*
X1237129D01*
X1235817Y-314873D01*
X1237129Y-313561D01*
X1241064D01*
X1243688Y-316185D02*
Y-310938D01*
X1245000D01*
X1246312Y-312249D01*
Y-316185D01*
Y-312249D01*
X1247624Y-310938D01*
X1248936Y-312249D01*
Y-316185D01*
X1255495D02*
X1252872D01*
X1251560Y-314873D01*
Y-312249D01*
X1252872Y-310938D01*
X1255495D01*
X1256807Y-312249D01*
Y-313561D01*
X1251560D01*
X1180716Y-347684D02*
Y-355555D01*
X1184652D01*
X1185964Y-354243D01*
Y-348996D01*
X1184652Y-347684D01*
X1180716D01*
X1189900Y-350308D02*
X1192523D01*
X1193835Y-351620D01*
Y-355555D01*
X1189900D01*
X1188588Y-354243D01*
X1189900Y-352931D01*
X1193835D01*
X1197771Y-348996D02*
Y-350308D01*
X1196459D01*
X1199083D01*
X1197771D01*
Y-354243D01*
X1199083Y-355555D01*
X1206954D02*
X1204331D01*
X1203019Y-354243D01*
Y-351620D01*
X1204331Y-350308D01*
X1206954D01*
X1208266Y-351620D01*
Y-352931D01*
X1203019D01*
X1180716Y-387054D02*
Y-394925D01*
X1184652D01*
X1185964Y-393614D01*
Y-388366D01*
X1184652Y-387054D01*
X1180716D01*
X1189900Y-394925D02*
X1192523D01*
X1193835Y-393614D01*
Y-390990D01*
X1192523Y-389678D01*
X1189900D01*
X1188588Y-390990D01*
Y-393614D01*
X1189900Y-394925D01*
X1201707Y-389678D02*
X1197771D01*
X1196459Y-390990D01*
Y-393614D01*
X1197771Y-394925D01*
X1201707D01*
X1204331Y-389678D02*
Y-393614D01*
X1205643Y-394925D01*
X1209578D01*
Y-389678D01*
X1212202Y-394925D02*
Y-389678D01*
X1213514D01*
X1214826Y-390990D01*
Y-394925D01*
Y-390990D01*
X1216138Y-389678D01*
X1217450Y-390990D01*
Y-394925D01*
X1224009D02*
X1221385D01*
X1220074Y-393614D01*
Y-390990D01*
X1221385Y-389678D01*
X1224009D01*
X1225321Y-390990D01*
Y-392302D01*
X1220074D01*
X1227945Y-394925D02*
Y-389678D01*
X1231881D01*
X1233193Y-390990D01*
Y-394925D01*
X1237129Y-388366D02*
Y-389678D01*
X1235817D01*
X1238440D01*
X1237129D01*
Y-393614D01*
X1238440Y-394925D01*
D39*
X1334260Y-383114D02*
Y-343744D01*
X1176779Y-304374D02*
X1452370D01*
X1176779Y-343744D02*
X1452370D01*
X979929Y-383114D02*
X1452370D01*
X979929Y-265004D02*
X1452370D01*
X979929Y-422484D02*
Y-265004D01*
X1176779Y-422484D02*
Y-265004D01*
X-201173Y746807D02*
X1452370D01*
Y-422484D02*
Y746807D01*
X-201173Y-422484D02*
Y746807D01*
Y-422484D02*
X1452370D01*
X1190557Y-408707D02*
X1186622D01*
Y-414610D01*
X1190557D01*
X1186622Y-411659D02*
X1188590D01*
X1192525Y-408707D02*
Y-414610D01*
X1195477D01*
X1196461Y-413626D01*
Y-409691D01*
X1195477Y-408707D01*
X1192525D01*
X1202365Y-409691D02*
X1201381Y-408707D01*
X1199413D01*
X1198429Y-409691D01*
Y-413626D01*
X1199413Y-414610D01*
X1201381D01*
X1202365Y-413626D01*
Y-411659D01*
X1200397D01*
X1204333Y-414610D02*
Y-410675D01*
X1206300Y-408707D01*
X1208268Y-410675D01*
Y-414610D01*
Y-411659D01*
X1204333D01*
X1210236Y-414610D02*
Y-408707D01*
X1213188D01*
X1214172Y-409691D01*
Y-411659D01*
X1213188Y-412642D01*
X1210236D01*
X1212204D02*
X1214172Y-414610D01*
X1216140Y-415594D02*
X1220076D01*
X1222043Y-414610D02*
Y-408707D01*
X1224995D01*
X1225979Y-409691D01*
Y-411659D01*
X1224995Y-412642D01*
X1222043D01*
X1228931Y-410675D02*
X1230899D01*
X1231883Y-411659D01*
Y-414610D01*
X1228931D01*
X1227947Y-413626D01*
X1228931Y-412642D01*
X1231883D01*
X1233850Y-414610D02*
Y-410675D01*
X1236802D01*
X1237786Y-411659D01*
Y-414610D01*
X1242706D02*
X1240738D01*
X1239754Y-413626D01*
Y-411659D01*
X1240738Y-410675D01*
X1242706D01*
X1243690Y-411659D01*
Y-412642D01*
X1239754D01*
X1245658Y-414610D02*
X1247626D01*
X1246642D01*
Y-408707D01*
X1245658D01*
X1250577Y-415594D02*
X1254513D01*
X1256481Y-409691D02*
X1257465Y-408707D01*
X1259433D01*
X1260417Y-409691D01*
Y-413626D01*
X1259433Y-414610D01*
X1257465D01*
X1256481Y-413626D01*
Y-409691D01*
X1262385D02*
X1263369Y-408707D01*
X1265336D01*
X1266320Y-409691D01*
Y-413626D01*
X1265336Y-414610D01*
X1263369D01*
X1262385Y-413626D01*
Y-409691D01*
X1268288Y-414610D02*
Y-413626D01*
X1269272D01*
Y-414610D01*
X1268288D01*
X1273208D02*
Y-408707D01*
X1276160D01*
X1277144Y-409691D01*
Y-411659D01*
X1276160Y-412642D01*
X1273208D01*
X1283047Y-410675D02*
X1280095D01*
X1279111Y-411659D01*
Y-413626D01*
X1280095Y-414610D01*
X1283047D01*
X1285015Y-408707D02*
Y-414610D01*
X1287967D01*
X1288951Y-413626D01*
Y-412642D01*
Y-411659D01*
X1287967Y-410675D01*
X1285015D01*
X1290919Y-408707D02*
Y-414610D01*
X1293871D01*
X1294854Y-413626D01*
Y-409691D01*
X1293871Y-408707D01*
X1290919D01*
X1297806Y-414610D02*
X1299774D01*
X1300758Y-413626D01*
Y-411659D01*
X1299774Y-410675D01*
X1297806D01*
X1296822Y-411659D01*
Y-413626D01*
X1297806Y-414610D01*
X1306662Y-410675D02*
X1303710D01*
X1302726Y-411659D01*
Y-413626D01*
X1303710Y-414610D01*
X1306662D01*
D98*
X117716Y-27559D02*
X129527D01*
X123622Y-33464D02*
Y-21653D01*
X224803Y-27559D02*
X236614D01*
X230709Y-33464D02*
Y-21653D01*
X334252Y-27559D02*
X346063D01*
X340157Y-33465D02*
Y-21654D01*
X8268Y-27559D02*
X20079D01*
X14173Y-33465D02*
Y-21654D01*
X13780Y59055D02*
X25591D01*
X19685Y53150D02*
Y64961D01*
X62992Y59055D02*
X74803D01*
X68898Y53150D02*
Y64961D01*
X37139Y54462D02*
X42257D01*
X39698Y51903D02*
Y57021D01*
X37139Y63648D02*
X42257D01*
X39698Y61089D02*
Y66207D01*
X46326Y54462D02*
X51444D01*
X48885Y51903D02*
Y57021D01*
X46326Y63648D02*
X51444D01*
X48885Y61089D02*
Y66207D01*
X139589Y28237D02*
X143920D01*
X141754Y26072D02*
Y30402D01*
X133161Y35897D02*
X137492D01*
X135326Y33732D02*
Y38063D01*
X126733Y43558D02*
X131064D01*
X128899Y41393D02*
Y45723D01*
X113877Y58879D02*
X118208D01*
X116043Y56713D02*
Y61044D01*
X120305Y51218D02*
X124636D01*
X122471Y49053D02*
Y53384D01*
X107449Y66539D02*
X111780D01*
X109615Y64374D02*
Y68705D01*
X30315Y158465D02*
X34646D01*
X32480Y156299D02*
Y160630D01*
X11031Y181446D02*
X15362D01*
X13197Y179281D02*
Y183611D01*
X23887Y166125D02*
X28218D01*
X26052Y163960D02*
Y168290D01*
X17459Y173785D02*
X21790D01*
X19625Y171620D02*
Y175951D01*
X35925Y243110D02*
X38878D01*
X37402Y241634D02*
Y244587D01*
X16240Y243110D02*
X19193D01*
X17717Y241634D02*
Y244587D01*
X134908Y221129D02*
X140026D01*
X137468Y218570D02*
Y223688D01*
X134908Y211942D02*
X140026D01*
X137468Y209383D02*
Y214501D01*
X125722Y221129D02*
X130840D01*
X128281Y218570D02*
Y223688D01*
X125722Y211942D02*
X130840D01*
X128281Y209383D02*
Y214501D01*
X151575Y216535D02*
X163386D01*
X157480Y210630D02*
Y222441D01*
X102362Y216535D02*
X114173D01*
X108268Y210630D02*
Y222441D01*
X81795Y127949D02*
X82779D01*
X82287Y127456D02*
Y128441D01*
X64978Y134352D02*
X65962D01*
X65470Y133860D02*
Y134844D01*
X136319Y72835D02*
X137303D01*
X136811Y72342D02*
Y73327D01*
X148957Y43307D02*
X149941D01*
X149449Y42815D02*
Y43799D01*
X148957Y82677D02*
X149941D01*
X149449Y82185D02*
Y83169D01*
X30020Y239173D02*
X31004D01*
X30512Y238681D02*
Y239665D01*
X67224Y216929D02*
X68209D01*
X67716Y216437D02*
Y217421D01*
X71752Y216929D02*
X72736D01*
X72244Y216437D02*
Y217421D01*
X62697Y216929D02*
X63681D01*
X63189Y216437D02*
Y217421D01*
X69390Y224409D02*
X70374D01*
X69882Y223917D02*
Y224902D01*
X65059Y224409D02*
X66043D01*
X65551Y223917D02*
Y224902D01*
X69390Y229528D02*
X70374D01*
X69882Y229035D02*
Y230020D01*
X65059Y229528D02*
X66043D01*
X65551Y229035D02*
Y230020D01*
X62697Y226772D02*
X63681D01*
X63189Y226279D02*
Y227264D01*
X71752Y226772D02*
X72736D01*
X72244Y226279D02*
Y227264D01*
X67224Y226772D02*
X68209D01*
X67716Y226279D02*
Y227264D01*
X67224Y266929D02*
X68209D01*
X67716Y266437D02*
Y267421D01*
X69390Y269291D02*
X70374D01*
X69882Y268799D02*
Y269783D01*
X65059Y269291D02*
X66043D01*
X65551Y268799D02*
Y269783D01*
X71752Y266929D02*
X72736D01*
X72244Y266437D02*
Y267421D01*
X62697Y266929D02*
X63681D01*
X63189Y266437D02*
Y267421D01*
X96752Y253543D02*
X97736D01*
X97244Y253051D02*
Y254035D01*
X42815Y189961D02*
X43799D01*
X43307Y189469D02*
Y190453D01*
X17993Y226181D02*
X18978D01*
X18486Y225689D02*
Y226673D01*
X17993Y206496D02*
X18978D01*
X18486Y206004D02*
Y206988D01*
X67126Y246063D02*
X68307D01*
X67716Y245472D02*
Y246654D01*
X69095Y249016D02*
X70276D01*
X69685Y248425D02*
Y249606D01*
X69095Y243110D02*
X70276D01*
X69685Y242520D02*
Y243701D01*
X65158Y243110D02*
X66339D01*
X65748Y242520D02*
Y243701D01*
X65158Y249016D02*
X66339D01*
X65748Y248425D02*
Y249606D01*
X67126Y202756D02*
X68307D01*
X67716Y202165D02*
Y203346D01*
X69095Y205709D02*
X70276D01*
X69685Y205118D02*
Y206299D01*
X69095Y199803D02*
X70276D01*
X69685Y199213D02*
Y200394D01*
X65158Y199803D02*
X66339D01*
X65748Y199213D02*
Y200394D01*
X65158Y205709D02*
X66339D01*
X65748Y205118D02*
Y206299D01*
X105777Y199122D02*
X106762D01*
X106269Y198630D02*
Y199614D01*
X107000Y195898D02*
X107985D01*
X107492Y195406D02*
Y196390D01*
X149272Y155748D02*
X150256D01*
X149764Y155256D02*
Y156240D01*
X140730Y257677D02*
X141715D01*
X141223Y257185D02*
Y258169D01*
X140012Y247936D02*
X140996D01*
X140504Y247444D02*
Y248429D01*
X140012Y251873D02*
X140996D01*
X140504Y251381D02*
Y252365D01*
X121340Y249213D02*
X122324D01*
X121832Y248721D02*
Y249705D01*
X105592Y249213D02*
X106576D01*
X106084Y248721D02*
Y249705D01*
X10944Y199016D02*
X11928D01*
X11436Y198524D02*
Y199508D01*
X10944Y218701D02*
X11928D01*
X11436Y218209D02*
Y219193D01*
X56380Y237205D02*
X57364D01*
X56872Y236713D02*
Y237697D01*
X56380Y193898D02*
X57364D01*
X56872Y193406D02*
Y194390D01*
X89271Y189389D02*
X90256D01*
X89763Y188897D02*
Y189882D01*
X89271Y232697D02*
X90256D01*
X89763Y232204D02*
Y233189D01*
X87303Y220079D02*
X88287D01*
X87795Y219587D02*
Y220571D01*
X56988Y200787D02*
X57972D01*
X57480Y200295D02*
Y201279D01*
X164467Y127561D02*
X165451D01*
X164959Y127069D02*
Y128053D01*
X169979Y137797D02*
X170963D01*
X170471Y137305D02*
Y138289D01*
X56988Y244094D02*
X57972D01*
X57480Y243602D02*
Y244587D01*
X71551Y138193D02*
X72535D01*
X72043Y137701D02*
Y138685D01*
X14271Y114093D02*
X15256D01*
X14763Y113600D02*
Y114585D01*
X8366Y114745D02*
X9350D01*
X8858Y114253D02*
Y115237D01*
X4429Y114745D02*
X5413D01*
X4921Y114253D02*
Y115237D01*
X52836Y181102D02*
X53820D01*
X53328Y180610D02*
Y181595D01*
X52836Y185039D02*
X53820D01*
X53328Y184547D02*
Y185531D01*
X151634Y153386D02*
X152618D01*
X152126Y152894D02*
Y153878D01*
X83561Y155710D02*
X84545D01*
X84053Y155218D02*
Y156202D01*
X85923Y153348D02*
X86908D01*
X86416Y152856D02*
Y153840D01*
X120728Y185079D02*
X121712D01*
X121220Y184587D02*
Y185571D01*
X118366Y187441D02*
X119350D01*
X118858Y186949D02*
Y187933D01*
X143839Y161181D02*
X144823D01*
X144331Y160689D02*
Y161673D01*
X141477Y163543D02*
X142461D01*
X141969Y163051D02*
Y164035D01*
X160924Y100395D02*
X161908D01*
X161416Y99903D02*
Y100888D01*
X158561Y102758D02*
X159546D01*
X159053Y102266D02*
Y103250D01*
X170372Y114569D02*
X171357D01*
X170864Y114076D02*
Y115061D01*
X131002Y153939D02*
X131986D01*
X131494Y153447D02*
Y154431D01*
X133364Y151576D02*
X134349D01*
X133857Y151084D02*
Y152069D01*
X119191Y142128D02*
X120176D01*
X119683Y141636D02*
Y142620D01*
X121553Y139766D02*
X122538D01*
X122046Y139273D02*
Y140258D01*
X155020Y130709D02*
X156004D01*
X155512Y130217D02*
Y131201D01*
X158208Y128307D02*
X159193D01*
X158701Y127815D02*
Y128799D01*
X67224Y188583D02*
X68209D01*
X67716Y188091D02*
Y189075D01*
X71752Y188583D02*
X72736D01*
X72244Y188091D02*
Y189075D01*
X62697Y188583D02*
X63681D01*
X63189Y188091D02*
Y189075D01*
X67224Y231890D02*
X68209D01*
X67716Y231398D02*
Y232382D01*
X71752Y231890D02*
X72736D01*
X72244Y231398D02*
Y232382D01*
X62697Y231890D02*
X63681D01*
X63189Y231398D02*
Y232382D01*
X65059Y252362D02*
X66043D01*
X65551Y251870D02*
Y252854D01*
X69390Y252362D02*
X70374D01*
X69882Y251870D02*
Y252854D01*
X62697Y255118D02*
X63681D01*
X63189Y254626D02*
Y255610D01*
X71752Y255118D02*
X72736D01*
X72244Y254626D02*
Y255610D01*
X65059Y257480D02*
X66043D01*
X65551Y256988D02*
Y257972D01*
X69390Y257480D02*
X70374D01*
X69882Y256988D02*
Y257972D01*
X67224Y255118D02*
X68209D01*
X67716Y254626D02*
Y255610D01*
X65059Y239764D02*
X66043D01*
X65551Y239272D02*
Y240256D01*
X69390Y239764D02*
X70374D01*
X69882Y239272D02*
Y240256D01*
X62697Y237008D02*
X63681D01*
X63189Y236516D02*
Y237500D01*
X71752Y237008D02*
X72736D01*
X72244Y236516D02*
Y237500D01*
X65059Y234646D02*
X66043D01*
X65551Y234154D02*
Y235138D01*
X69390Y234646D02*
X70374D01*
X69882Y234154D02*
Y235138D01*
X67224Y237008D02*
X68209D01*
X67716Y236516D02*
Y237500D01*
X65059Y196457D02*
X66043D01*
X65551Y195965D02*
Y196949D01*
X69390Y196457D02*
X70374D01*
X69882Y195965D02*
Y196949D01*
X62697Y193701D02*
X63681D01*
X63189Y193209D02*
Y194193D01*
X71752Y193701D02*
X72736D01*
X72244Y193209D02*
Y194193D01*
X65059Y191339D02*
X66043D01*
X65551Y190847D02*
Y191831D01*
X69390Y191339D02*
X70374D01*
X69882Y190847D02*
Y191831D01*
X67224Y193701D02*
X68209D01*
X67716Y193209D02*
Y194193D01*
X67224Y211811D02*
X68209D01*
X67716Y211319D02*
Y212303D01*
X69390Y214173D02*
X70374D01*
X69882Y213681D02*
Y214665D01*
X65059Y214173D02*
X66043D01*
X65551Y213681D02*
Y214665D01*
X71752Y211811D02*
X72736D01*
X72244Y211319D02*
Y212303D01*
X62697Y211811D02*
X63681D01*
X63189Y211319D02*
Y212303D01*
X69390Y209055D02*
X70374D01*
X69882Y208563D02*
Y209547D01*
X65059Y209055D02*
X66043D01*
X65551Y208563D02*
Y209547D01*
X93780Y249015D02*
X94765D01*
X94273Y248523D02*
Y249507D01*
X76279Y195866D02*
X77264D01*
X76772Y195374D02*
Y196358D01*
X76279Y191929D02*
X77264D01*
X76772Y191437D02*
Y192421D01*
X76279Y235236D02*
X77264D01*
X76772Y234744D02*
Y235728D01*
X76279Y239173D02*
X77264D01*
X76772Y238681D02*
Y239665D01*
X78051Y272226D02*
X79035D01*
X78543Y271734D02*
Y272718D01*
X81988Y272226D02*
X82972D01*
X82480Y271734D02*
Y272718D01*
X50492Y272226D02*
X51476D01*
X50984Y271734D02*
Y272718D01*
X54429Y272226D02*
X55413D01*
X54921Y271734D02*
Y272718D01*
X50492Y228919D02*
X51476D01*
X50984Y228427D02*
Y229411D01*
X54429Y228919D02*
X55413D01*
X54921Y228427D02*
Y229411D01*
X81988Y228919D02*
X82972D01*
X82480Y228427D02*
Y229411D01*
X78051Y228919D02*
X79035D01*
X78543Y228427D02*
Y229411D01*
X47007Y110869D02*
X47991D01*
X47499Y110377D02*
Y111361D01*
X54078Y103798D02*
X55062D01*
X54570Y103306D02*
Y104290D01*
X141633Y88582D02*
X142617D01*
X142125Y88090D02*
Y89074D01*
X134940Y95078D02*
X135924D01*
X135432Y94586D02*
Y95570D01*
X103488Y126618D02*
X104472D01*
X103980Y126126D02*
Y127110D01*
X121204Y108902D02*
X122189D01*
X121696Y108410D02*
Y109394D01*
X26495Y12401D02*
X27479D01*
X26987Y11909D02*
Y12893D01*
X54607Y92519D02*
X55591D01*
X55099Y92027D02*
Y93011D01*
X86469Y67095D02*
X87453D01*
X86961Y66603D02*
Y67587D01*
X79398Y74166D02*
X80382D01*
X79890Y73674D02*
Y74658D01*
X65256Y88308D02*
X66240D01*
X65748Y87816D02*
Y88800D01*
X190945Y59055D02*
X202756D01*
X196850Y53150D02*
Y64961D01*
X240157Y59055D02*
X251968D01*
X246063Y53150D02*
Y64961D01*
X214304Y54462D02*
X219422D01*
X216863Y51903D02*
Y57021D01*
X214304Y63648D02*
X219422D01*
X216863Y61089D02*
Y66207D01*
X223491Y54462D02*
X228609D01*
X226050Y51903D02*
Y57021D01*
X223491Y63648D02*
X228609D01*
X226050Y61089D02*
Y66207D01*
X316754Y28237D02*
X321085D01*
X318920Y26072D02*
Y30402D01*
X310326Y35897D02*
X314657D01*
X312492Y33732D02*
Y38063D01*
X303899Y43558D02*
X308229D01*
X306064Y41393D02*
Y45723D01*
X291043Y58879D02*
X295373D01*
X293208Y56713D02*
Y61044D01*
X297471Y51218D02*
X301801D01*
X299636Y49053D02*
Y53384D01*
X284615Y66539D02*
X288946D01*
X286780Y64374D02*
Y68705D01*
X207480Y158465D02*
X211811D01*
X209646Y156299D02*
Y160630D01*
X188197Y181446D02*
X192527D01*
X190362Y179281D02*
Y183611D01*
X201052Y166125D02*
X205383D01*
X203218Y163960D02*
Y168290D01*
X194625Y173785D02*
X198955D01*
X196790Y171620D02*
Y175951D01*
X213090Y243110D02*
X216043D01*
X214567Y241634D02*
Y244587D01*
X193405Y243110D02*
X196358D01*
X194882Y241634D02*
Y244587D01*
X312074Y221129D02*
X317192D01*
X314633Y218570D02*
Y223688D01*
X312074Y211942D02*
X317192D01*
X314633Y209383D02*
Y214501D01*
X302887Y221129D02*
X308005D01*
X305446Y218570D02*
Y223688D01*
X302887Y211942D02*
X308005D01*
X305446Y209383D02*
Y214501D01*
X328740Y216535D02*
X340551D01*
X334646Y210630D02*
Y222441D01*
X279528Y216535D02*
X291339D01*
X285433Y210630D02*
Y222441D01*
X258960Y127949D02*
X259945D01*
X259453Y127456D02*
Y128441D01*
X242143Y134352D02*
X243127D01*
X242635Y133860D02*
Y134844D01*
X313484Y72835D02*
X314469D01*
X313976Y72342D02*
Y73327D01*
X326122Y43307D02*
X327106D01*
X326614Y42815D02*
Y43799D01*
X326122Y82677D02*
X327106D01*
X326614Y82185D02*
Y83169D01*
X207185Y239173D02*
X208169D01*
X207677Y238681D02*
Y239665D01*
X244390Y216929D02*
X245374D01*
X244882Y216437D02*
Y217421D01*
X248917Y216929D02*
X249902D01*
X249410Y216437D02*
Y217421D01*
X239862Y216929D02*
X240846D01*
X240354Y216437D02*
Y217421D01*
X246555Y224409D02*
X247539D01*
X247047Y223917D02*
Y224902D01*
X242224Y224409D02*
X243209D01*
X242717Y223917D02*
Y224902D01*
X246555Y229528D02*
X247539D01*
X247047Y229035D02*
Y230020D01*
X242224Y229528D02*
X243209D01*
X242717Y229035D02*
Y230020D01*
X239862Y226772D02*
X240846D01*
X240354Y226279D02*
Y227264D01*
X248917Y226772D02*
X249902D01*
X249410Y226279D02*
Y227264D01*
X244390Y226772D02*
X245374D01*
X244882Y226279D02*
Y227264D01*
X244390Y266929D02*
X245374D01*
X244882Y266437D02*
Y267421D01*
X246555Y269291D02*
X247539D01*
X247047Y268799D02*
Y269783D01*
X242224Y269291D02*
X243209D01*
X242717Y268799D02*
Y269783D01*
X248917Y266929D02*
X249902D01*
X249410Y266437D02*
Y267421D01*
X239862Y266929D02*
X240846D01*
X240354Y266437D02*
Y267421D01*
X273917Y253543D02*
X274902D01*
X274409Y253051D02*
Y254035D01*
X219980Y189961D02*
X220965D01*
X220472Y189469D02*
Y190453D01*
X195159Y226181D02*
X196143D01*
X195651Y225689D02*
Y226673D01*
X195159Y206496D02*
X196143D01*
X195651Y206004D02*
Y206988D01*
X244291Y246063D02*
X245472D01*
X244882Y245472D02*
Y246654D01*
X246260Y249016D02*
X247441D01*
X246850Y248425D02*
Y249606D01*
X246260Y243110D02*
X247441D01*
X246850Y242520D02*
Y243701D01*
X242323Y243110D02*
X243504D01*
X242913Y242520D02*
Y243701D01*
X242323Y249016D02*
X243504D01*
X242913Y248425D02*
Y249606D01*
X244291Y202756D02*
X245472D01*
X244882Y202165D02*
Y203346D01*
X246260Y205709D02*
X247441D01*
X246850Y205118D02*
Y206299D01*
X246260Y199803D02*
X247441D01*
X246850Y199213D02*
Y200394D01*
X242323Y199803D02*
X243504D01*
X242913Y199213D02*
Y200394D01*
X242323Y205709D02*
X243504D01*
X242913Y205118D02*
Y206299D01*
X282943Y199122D02*
X283927D01*
X283435Y198630D02*
Y199614D01*
X284166Y195898D02*
X285150D01*
X284658Y195406D02*
Y196390D01*
X326437Y155748D02*
X327421D01*
X326929Y155256D02*
Y156240D01*
X317896Y257677D02*
X318880D01*
X318388Y257185D02*
Y258169D01*
X317177Y247936D02*
X318161D01*
X317669Y247444D02*
Y248429D01*
X317177Y251873D02*
X318161D01*
X317669Y251381D02*
Y252365D01*
X298505Y249213D02*
X299489D01*
X298997Y248721D02*
Y249705D01*
X282757Y249213D02*
X283741D01*
X283249Y248721D02*
Y249705D01*
X188109Y199016D02*
X189093D01*
X188601Y198524D02*
Y199508D01*
X188109Y218701D02*
X189093D01*
X188601Y218209D02*
Y219193D01*
X233545Y237205D02*
X234529D01*
X234037Y236713D02*
Y237697D01*
X233545Y193898D02*
X234529D01*
X234037Y193406D02*
Y194390D01*
X266437Y189389D02*
X267421D01*
X266929Y188897D02*
Y189882D01*
X266437Y232697D02*
X267421D01*
X266929Y232204D02*
Y233189D01*
X264469Y220079D02*
X265453D01*
X264961Y219587D02*
Y220571D01*
X234154Y200787D02*
X235138D01*
X234646Y200295D02*
Y201279D01*
X341632Y127561D02*
X342616D01*
X342124Y127069D02*
Y128053D01*
X347144Y137797D02*
X348128D01*
X347636Y137305D02*
Y138289D01*
X234154Y244094D02*
X235138D01*
X234646Y243602D02*
Y244587D01*
X248716Y138193D02*
X249700D01*
X249208Y137701D02*
Y138685D01*
X191437Y114093D02*
X192421D01*
X191929Y113600D02*
Y114585D01*
X185531Y114745D02*
X186516D01*
X186024Y114253D02*
Y115237D01*
X181595Y114745D02*
X182579D01*
X182087Y114253D02*
Y115237D01*
X230001Y181102D02*
X230985D01*
X230493Y180610D02*
Y181595D01*
X230001Y185039D02*
X230985D01*
X230493Y184547D02*
Y185531D01*
X328799Y153386D02*
X329783D01*
X329291Y152894D02*
Y153878D01*
X260727Y155710D02*
X261711D01*
X261219Y155218D02*
Y156202D01*
X263089Y153348D02*
X264073D01*
X263581Y152856D02*
Y153840D01*
X297894Y185079D02*
X298878D01*
X298386Y184587D02*
Y185571D01*
X295531Y187441D02*
X296515D01*
X296023Y186949D02*
Y187933D01*
X321004Y161181D02*
X321988D01*
X321496Y160689D02*
Y161673D01*
X318642Y163543D02*
X319626D01*
X319134Y163051D02*
Y164035D01*
X338089Y100395D02*
X339073D01*
X338581Y99903D02*
Y100888D01*
X335727Y102758D02*
X336711D01*
X336219Y102266D02*
Y103250D01*
X347538Y114569D02*
X348522D01*
X348030Y114076D02*
Y115061D01*
X308168Y153939D02*
X309152D01*
X308660Y153447D02*
Y154431D01*
X310530Y151576D02*
X311514D01*
X311022Y151084D02*
Y152069D01*
X296357Y142128D02*
X297341D01*
X296849Y141636D02*
Y142620D01*
X298719Y139766D02*
X299703D01*
X299211Y139273D02*
Y140258D01*
X332185Y130709D02*
X333169D01*
X332677Y130217D02*
Y131201D01*
X335374Y128307D02*
X336358D01*
X335866Y127815D02*
Y128799D01*
X244390Y188583D02*
X245374D01*
X244882Y188091D02*
Y189075D01*
X248917Y188583D02*
X249902D01*
X249410Y188091D02*
Y189075D01*
X239862Y188583D02*
X240846D01*
X240354Y188091D02*
Y189075D01*
X244390Y231890D02*
X245374D01*
X244882Y231398D02*
Y232382D01*
X248917Y231890D02*
X249902D01*
X249410Y231398D02*
Y232382D01*
X239862Y231890D02*
X240846D01*
X240354Y231398D02*
Y232382D01*
X242224Y252362D02*
X243209D01*
X242717Y251870D02*
Y252854D01*
X246555Y252362D02*
X247539D01*
X247047Y251870D02*
Y252854D01*
X239862Y255118D02*
X240846D01*
X240354Y254626D02*
Y255610D01*
X248917Y255118D02*
X249902D01*
X249410Y254626D02*
Y255610D01*
X242224Y257480D02*
X243209D01*
X242717Y256988D02*
Y257972D01*
X246555Y257480D02*
X247539D01*
X247047Y256988D02*
Y257972D01*
X244390Y255118D02*
X245374D01*
X244882Y254626D02*
Y255610D01*
X242224Y239764D02*
X243209D01*
X242717Y239272D02*
Y240256D01*
X246555Y239764D02*
X247539D01*
X247047Y239272D02*
Y240256D01*
X239862Y237008D02*
X240846D01*
X240354Y236516D02*
Y237500D01*
X248917Y237008D02*
X249902D01*
X249410Y236516D02*
Y237500D01*
X242224Y234646D02*
X243209D01*
X242717Y234154D02*
Y235138D01*
X246555Y234646D02*
X247539D01*
X247047Y234154D02*
Y235138D01*
X244390Y237008D02*
X245374D01*
X244882Y236516D02*
Y237500D01*
X242224Y196457D02*
X243209D01*
X242717Y195965D02*
Y196949D01*
X246555Y196457D02*
X247539D01*
X247047Y195965D02*
Y196949D01*
X239862Y193701D02*
X240846D01*
X240354Y193209D02*
Y194193D01*
X248917Y193701D02*
X249902D01*
X249410Y193209D02*
Y194193D01*
X242224Y191339D02*
X243209D01*
X242717Y190847D02*
Y191831D01*
X246555Y191339D02*
X247539D01*
X247047Y190847D02*
Y191831D01*
X244390Y193701D02*
X245374D01*
X244882Y193209D02*
Y194193D01*
X244390Y211811D02*
X245374D01*
X244882Y211319D02*
Y212303D01*
X246555Y214173D02*
X247539D01*
X247047Y213681D02*
Y214665D01*
X242224Y214173D02*
X243209D01*
X242717Y213681D02*
Y214665D01*
X248917Y211811D02*
X249902D01*
X249410Y211319D02*
Y212303D01*
X239862Y211811D02*
X240846D01*
X240354Y211319D02*
Y212303D01*
X246555Y209055D02*
X247539D01*
X247047Y208563D02*
Y209547D01*
X242224Y209055D02*
X243209D01*
X242717Y208563D02*
Y209547D01*
X270946Y249015D02*
X271930D01*
X271438Y248523D02*
Y249507D01*
X253445Y195866D02*
X254429D01*
X253937Y195374D02*
Y196358D01*
X253445Y191929D02*
X254429D01*
X253937Y191437D02*
Y192421D01*
X253445Y235236D02*
X254429D01*
X253937Y234744D02*
Y235728D01*
X253445Y239173D02*
X254429D01*
X253937Y238681D02*
Y239665D01*
X255217Y272226D02*
X256201D01*
X255709Y271734D02*
Y272718D01*
X259154Y272226D02*
X260138D01*
X259646Y271734D02*
Y272718D01*
X227658Y272226D02*
X228642D01*
X228150Y271734D02*
Y272718D01*
X231594Y272226D02*
X232579D01*
X232087Y271734D02*
Y272718D01*
X227658Y228919D02*
X228642D01*
X228150Y228427D02*
Y229411D01*
X231594Y228919D02*
X232579D01*
X232087Y228427D02*
Y229411D01*
X259154Y228919D02*
X260138D01*
X259646Y228427D02*
Y229411D01*
X255217Y228919D02*
X256201D01*
X255709Y228427D02*
Y229411D01*
X224172Y110869D02*
X225156D01*
X224664Y110377D02*
Y111361D01*
X231243Y103798D02*
X232227D01*
X231735Y103306D02*
Y104290D01*
X318798Y88582D02*
X319783D01*
X319291Y88090D02*
Y89074D01*
X312106Y95078D02*
X313090D01*
X312598Y94586D02*
Y95570D01*
X280653Y126618D02*
X281637D01*
X281145Y126126D02*
Y127110D01*
X298370Y108902D02*
X299354D01*
X298862Y108410D02*
Y109394D01*
X203660Y12401D02*
X204645D01*
X204153Y11909D02*
Y12893D01*
X231773Y92519D02*
X232757D01*
X232265Y92027D02*
Y93011D01*
X263634Y67095D02*
X264619D01*
X264127Y66603D02*
Y67587D01*
X256563Y74166D02*
X257548D01*
X257055Y73674D02*
Y74658D01*
X242421Y88308D02*
X243406D01*
X242913Y87816D02*
Y88800D01*
M02*
