G04*
G04 #@! TF.GenerationSoftware,Altium Limited,Altium Designer,23.5.0 (17)*
G04*
G04 Layer_Color=128*
%FSLAX25Y25*%
%MOIN*%
G70*
G04*
G04 #@! TF.SameCoordinates,B4EA8652-FAED-489D-AB06-0C51CEF096E7*
G04*
G04*
G04 #@! TF.FilePolarity,Positive*
G04*
G01*
G75*
%ADD10C,0.01575*%
%ADD11C,0.00591*%
%ADD13C,0.00984*%
%ADD39C,0.00787*%
%ADD48R,0.16142X0.07874*%
%ADD49R,0.06299X0.12598*%
G04:AMPARAMS|DCode=95|XSize=62.99mil|YSize=125.98mil|CornerRadius=0mil|HoleSize=0mil|Usage=FLASHONLY|Rotation=135.000|XOffset=0mil|YOffset=0mil|HoleType=Round|Shape=Rectangle|*
%AMROTATEDRECTD95*
4,1,4,0.06681,0.02227,-0.02227,-0.06681,-0.06681,-0.02227,0.02227,0.06681,0.06681,0.02227,0.0*
%
%ADD95ROTATEDRECTD95*%

G36*
X1124703Y-67307D02*
X1122912Y-68049D01*
X1121300Y-69126D01*
X1119929Y-70497D01*
X1118852Y-72109D01*
X1118110Y-73901D01*
X1117732Y-75802D01*
Y-76771D01*
Y-77741D01*
X1118110Y-79642D01*
X1118852Y-81434D01*
X1119929Y-83046D01*
X1121300Y-84417D01*
X1122912Y-85494D01*
X1124703Y-86236D01*
X1126605Y-86614D01*
X1128544D01*
X1130445Y-86236D01*
X1132236Y-85494D01*
X1133849Y-84417D01*
X1135219Y-83046D01*
X1136297Y-81434D01*
X1137039Y-79642D01*
X1137417Y-77741D01*
Y-76771D01*
Y-75802D01*
X1137039Y-73901D01*
X1136297Y-72109D01*
X1135219Y-70497D01*
X1133849Y-69126D01*
X1132236Y-68049D01*
X1130445Y-67307D01*
X1128544Y-66929D01*
X1126605D01*
X1124703Y-67307D01*
D02*
G37*
G36*
X1017616Y-67307D02*
X1015825Y-68049D01*
X1014213Y-69126D01*
X1012842Y-70497D01*
X1011765Y-72109D01*
X1011023Y-73901D01*
X1010645Y-75802D01*
Y-76772D01*
Y-77741D01*
X1011023Y-79642D01*
X1011765Y-81434D01*
X1012842Y-83046D01*
X1014213Y-84417D01*
X1015825Y-85494D01*
X1017616Y-86236D01*
X1019518Y-86614D01*
X1021457D01*
X1023358Y-86236D01*
X1025150Y-85494D01*
X1026762Y-84417D01*
X1028133Y-83046D01*
X1029210Y-81434D01*
X1029952Y-79642D01*
X1030330Y-77741D01*
Y-76772D01*
Y-75802D01*
X1029952Y-73901D01*
X1029210Y-72109D01*
X1028133Y-70497D01*
X1026762Y-69126D01*
X1025150Y-68049D01*
X1023358Y-67307D01*
X1021457Y-66929D01*
X1019518D01*
X1017616Y-67307D01*
D02*
G37*
G36*
X908168Y-67307D02*
X906377Y-68049D01*
X904765Y-69126D01*
X903394Y-70497D01*
X902316Y-72109D01*
X901575Y-73901D01*
X901196Y-75802D01*
Y-76772D01*
Y-77741D01*
X901575Y-79643D01*
X902316Y-81434D01*
X903394Y-83046D01*
X904765Y-84417D01*
X906377Y-85494D01*
X908168Y-86236D01*
X910069Y-86614D01*
X912008D01*
X913910Y-86236D01*
X915701Y-85494D01*
X917313Y-84417D01*
X918684Y-83046D01*
X919761Y-81434D01*
X920503Y-79643D01*
X920881Y-77741D01*
Y-76772D01*
Y-75802D01*
X920503Y-73901D01*
X919761Y-72109D01*
X918684Y-70497D01*
X917313Y-69126D01*
X915701Y-68049D01*
X913910Y-67307D01*
X912008Y-66929D01*
X910069D01*
X908168Y-67307D01*
D02*
G37*
G36*
X1234152Y-67307D02*
X1232361Y-68049D01*
X1230749Y-69126D01*
X1229378Y-70497D01*
X1228301Y-72110D01*
X1227559Y-73901D01*
X1227180Y-75802D01*
Y-76772D01*
Y-77741D01*
X1227559Y-79643D01*
X1228301Y-81434D01*
X1229378Y-83046D01*
X1230749Y-84417D01*
X1232361Y-85494D01*
X1234152Y-86236D01*
X1236054Y-86614D01*
X1237992D01*
X1239894Y-86236D01*
X1241685Y-85494D01*
X1243297Y-84417D01*
X1244668Y-83046D01*
X1245745Y-81434D01*
X1246487Y-79643D01*
X1246865Y-77741D01*
Y-76772D01*
Y-75802D01*
X1246487Y-73901D01*
X1245745Y-72110D01*
X1244668Y-70497D01*
X1243297Y-69126D01*
X1241685Y-68049D01*
X1239894Y-67307D01*
X1237992Y-66929D01*
X1236054D01*
X1234152Y-67307D01*
D02*
G37*
G36*
X90348Y-309351D02*
X90634D01*
Y-309637D01*
X90920D01*
Y-309924D01*
Y-310210D01*
X91207D01*
Y-310496D01*
X91493D01*
Y-310783D01*
X91779D01*
Y-311069D01*
Y-311355D01*
X92066D01*
Y-311642D01*
X92352D01*
Y-311928D01*
X92638D01*
Y-312214D01*
X92924D01*
Y-312501D01*
Y-312787D01*
X93211D01*
Y-313073D01*
X93497D01*
Y-313359D01*
X93783D01*
Y-313646D01*
Y-313932D01*
X94070D01*
Y-314218D01*
X94356D01*
Y-314505D01*
X94642D01*
Y-314791D01*
X94929D01*
Y-315077D01*
Y-315364D01*
X95215D01*
Y-315650D01*
X95501D01*
Y-315936D01*
X95788D01*
Y-316223D01*
Y-316509D01*
X96074D01*
Y-316795D01*
X96360D01*
Y-317081D01*
X96646D01*
Y-317368D01*
Y-317654D01*
X96933D01*
Y-317940D01*
X97219D01*
Y-318227D01*
X97505D01*
Y-318513D01*
X97792D01*
Y-318799D01*
Y-319086D01*
X98078D01*
Y-319372D01*
X98364D01*
Y-319658D01*
X98651D01*
Y-319945D01*
Y-320231D01*
X98937D01*
Y-320517D01*
X99223D01*
Y-320803D01*
X99510D01*
Y-321090D01*
Y-321376D01*
X99796D01*
Y-321662D01*
X100082D01*
Y-321949D01*
X100369D01*
Y-322235D01*
X100655D01*
Y-322521D01*
Y-322808D01*
X100941D01*
Y-323094D01*
X101227D01*
Y-323380D01*
X101514D01*
Y-323667D01*
Y-323953D01*
X101800D01*
Y-324239D01*
X102086D01*
Y-324526D01*
X102373D01*
Y-324812D01*
Y-325098D01*
X102659D01*
Y-325384D01*
X102945D01*
Y-325671D01*
X103232D01*
Y-325957D01*
X103518D01*
Y-326243D01*
Y-326530D01*
X103804D01*
Y-326816D01*
X104091D01*
Y-327102D01*
X104377D01*
Y-327389D01*
Y-327675D01*
X104663D01*
Y-327961D01*
X104950D01*
Y-328248D01*
X105236D01*
Y-328534D01*
X105522D01*
Y-328820D01*
Y-329107D01*
X105236D01*
Y-329393D01*
Y-329679D01*
X104950D01*
Y-329965D01*
Y-330252D01*
X104663D01*
Y-330538D01*
X104377D01*
Y-330824D01*
Y-331111D01*
X104091D01*
Y-331397D01*
Y-331683D01*
X103804D01*
Y-331970D01*
Y-332256D01*
X103518D01*
Y-332542D01*
Y-332829D01*
X103232D01*
Y-333115D01*
Y-333401D01*
X102945D01*
Y-333688D01*
Y-333974D01*
X102659D01*
Y-334260D01*
Y-334547D01*
X102373D01*
Y-334833D01*
Y-335119D01*
X102086D01*
Y-335405D01*
X101800D01*
Y-335692D01*
Y-335978D01*
X101514D01*
Y-336264D01*
Y-336551D01*
X101227D01*
Y-336837D01*
Y-337123D01*
X100941D01*
Y-337410D01*
Y-337696D01*
X100655D01*
Y-337982D01*
Y-338269D01*
X100369D01*
Y-338555D01*
Y-338841D01*
X100082D01*
Y-339128D01*
Y-339414D01*
X99796D01*
Y-339700D01*
X99510D01*
Y-339986D01*
Y-340273D01*
X99223D01*
Y-340559D01*
Y-340845D01*
X98937D01*
Y-341132D01*
Y-341418D01*
X98651D01*
Y-341704D01*
Y-341991D01*
X98364D01*
Y-342277D01*
Y-342563D01*
X98078D01*
Y-342850D01*
Y-343136D01*
X97792D01*
Y-343422D01*
Y-343709D01*
X97505D01*
Y-343995D01*
X97219D01*
Y-344281D01*
Y-344567D01*
X96933D01*
Y-344854D01*
Y-345140D01*
X96646D01*
Y-345427D01*
X111821D01*
Y-345140D01*
X112107D01*
Y-344854D01*
Y-344567D01*
Y-344281D01*
X112394D01*
Y-343995D01*
Y-343709D01*
Y-343422D01*
X112680D01*
Y-343136D01*
Y-342850D01*
X112966D01*
Y-342563D01*
Y-342277D01*
Y-341991D01*
X113253D01*
Y-341704D01*
Y-341418D01*
Y-341132D01*
X113539D01*
Y-340845D01*
Y-340559D01*
X113825D01*
Y-340273D01*
Y-339986D01*
Y-339700D01*
X114112D01*
Y-339414D01*
Y-339128D01*
Y-338841D01*
X114398D01*
Y-338555D01*
Y-338269D01*
Y-337982D01*
X114684D01*
Y-337696D01*
X115257D01*
Y-337982D01*
Y-338269D01*
X115543D01*
Y-338555D01*
X115829D01*
Y-338841D01*
Y-339128D01*
X116116D01*
Y-339414D01*
X116402D01*
Y-339700D01*
Y-339986D01*
X116688D01*
Y-340273D01*
X116975D01*
Y-340559D01*
Y-340845D01*
X117261D01*
Y-341132D01*
X117547D01*
Y-341418D01*
X117834D01*
Y-341704D01*
Y-341991D01*
X118120D01*
Y-342277D01*
X118406D01*
Y-342563D01*
Y-342850D01*
X118693D01*
Y-343136D01*
X118979D01*
Y-343422D01*
Y-343709D01*
X119265D01*
Y-343995D01*
X119552D01*
Y-344281D01*
Y-344567D01*
X119838D01*
Y-344854D01*
X120124D01*
Y-345140D01*
Y-345427D01*
X136158D01*
Y-345140D01*
X135871D01*
Y-344854D01*
X135585D01*
Y-344567D01*
X135299D01*
Y-344281D01*
X135012D01*
Y-343995D01*
Y-343709D01*
X134726D01*
Y-343422D01*
X134440D01*
Y-343136D01*
X134153D01*
Y-342850D01*
X133867D01*
Y-342563D01*
Y-342277D01*
X133581D01*
Y-341991D01*
X133294D01*
Y-341704D01*
X133008D01*
Y-341418D01*
Y-341132D01*
X132722D01*
Y-340845D01*
X132436D01*
Y-340559D01*
X132149D01*
Y-340273D01*
X131863D01*
Y-339986D01*
Y-339700D01*
X131577D01*
Y-339414D01*
X131290D01*
Y-339128D01*
X131004D01*
Y-338841D01*
X130718D01*
Y-338555D01*
Y-338269D01*
X130431D01*
Y-337982D01*
X130145D01*
Y-337696D01*
X129859D01*
Y-337410D01*
Y-337123D01*
X129572D01*
Y-336837D01*
X129286D01*
Y-336551D01*
X129000D01*
Y-336264D01*
X128714D01*
Y-335978D01*
Y-335692D01*
X128427D01*
Y-335405D01*
X128141D01*
Y-335119D01*
X127855D01*
Y-334833D01*
Y-334547D01*
X127568D01*
Y-334260D01*
X127282D01*
Y-333974D01*
X126996D01*
Y-333688D01*
X126709D01*
Y-333401D01*
Y-333115D01*
X126423D01*
Y-332829D01*
X126137D01*
Y-332542D01*
X125850D01*
Y-332256D01*
Y-331970D01*
X125564D01*
Y-331683D01*
X125278D01*
Y-331397D01*
X124992D01*
Y-331111D01*
X124705D01*
Y-330824D01*
Y-330538D01*
X124419D01*
Y-330252D01*
X124133D01*
Y-329965D01*
X123846D01*
Y-329679D01*
X123560D01*
Y-329393D01*
Y-329107D01*
X123274D01*
Y-328820D01*
X122987D01*
Y-328534D01*
X122701D01*
Y-328248D01*
Y-327961D01*
X122415D01*
Y-327675D01*
X122128D01*
Y-327389D01*
X121842D01*
Y-327102D01*
X121556D01*
Y-326816D01*
Y-326530D01*
X121269D01*
Y-326243D01*
Y-325957D01*
Y-325671D01*
X121556D01*
Y-325384D01*
X121842D01*
Y-325098D01*
Y-324812D01*
X122128D01*
Y-324526D01*
Y-324239D01*
X122415D01*
Y-323953D01*
Y-323667D01*
X122701D01*
Y-323380D01*
Y-323094D01*
X122987D01*
Y-322808D01*
Y-322521D01*
X123274D01*
Y-322235D01*
Y-321949D01*
X123560D01*
Y-321662D01*
X123846D01*
Y-321376D01*
Y-321090D01*
X124133D01*
Y-320803D01*
Y-320517D01*
X124419D01*
Y-320231D01*
Y-319945D01*
X124705D01*
Y-319658D01*
Y-319372D01*
X124992D01*
Y-319086D01*
Y-318799D01*
X125278D01*
Y-318513D01*
Y-318227D01*
X125564D01*
Y-317940D01*
X125850D01*
Y-317654D01*
Y-317368D01*
X126137D01*
Y-317081D01*
Y-316795D01*
X126423D01*
Y-316509D01*
Y-316223D01*
X126709D01*
Y-315936D01*
Y-315650D01*
X126996D01*
Y-315364D01*
Y-315077D01*
X127282D01*
Y-314791D01*
Y-314505D01*
X127568D01*
Y-314218D01*
Y-313932D01*
X127855D01*
Y-313646D01*
X128141D01*
Y-313359D01*
Y-313073D01*
X128427D01*
Y-312787D01*
Y-312501D01*
X128714D01*
Y-312214D01*
Y-311928D01*
X129000D01*
Y-311642D01*
Y-311355D01*
X129286D01*
Y-311069D01*
Y-310783D01*
X129572D01*
Y-310496D01*
Y-310210D01*
X129859D01*
Y-309924D01*
X130145D01*
Y-309637D01*
Y-309351D01*
X130431D01*
Y-309065D01*
X114684D01*
Y-309351D01*
X114398D01*
Y-309637D01*
Y-309924D01*
Y-310210D01*
X114112D01*
Y-310496D01*
Y-310783D01*
Y-311069D01*
X113825D01*
Y-311355D01*
Y-311642D01*
Y-311928D01*
X113539D01*
Y-312214D01*
Y-312501D01*
Y-312787D01*
X113253D01*
Y-313073D01*
Y-313359D01*
Y-313646D01*
X112966D01*
Y-313932D01*
Y-314218D01*
Y-314505D01*
X112680D01*
Y-314791D01*
Y-315077D01*
Y-315364D01*
X112394D01*
Y-315650D01*
Y-315936D01*
Y-316223D01*
X112107D01*
Y-316509D01*
Y-316795D01*
Y-317081D01*
Y-317368D01*
X111535D01*
Y-317081D01*
X111248D01*
Y-316795D01*
X110962D01*
Y-316509D01*
Y-316223D01*
X110676D01*
Y-315936D01*
X110389D01*
Y-315650D01*
Y-315364D01*
X110103D01*
Y-315077D01*
X109817D01*
Y-314791D01*
Y-314505D01*
X109531D01*
Y-314218D01*
X109244D01*
Y-313932D01*
Y-313646D01*
X108958D01*
Y-313359D01*
X108672D01*
Y-313073D01*
Y-312787D01*
X108385D01*
Y-312501D01*
X108099D01*
Y-312214D01*
Y-311928D01*
X107813D01*
Y-311642D01*
X107526D01*
Y-311355D01*
Y-311069D01*
X107240D01*
Y-310783D01*
X106954D01*
Y-310496D01*
Y-310210D01*
X106667D01*
Y-309924D01*
X106381D01*
Y-309637D01*
Y-309351D01*
X106095D01*
Y-309065D01*
X90348D01*
Y-309351D01*
D02*
G37*
G36*
X223483Y-295322D02*
X221765D01*
Y-295608D01*
X220906D01*
Y-295894D01*
X220047D01*
Y-296181D01*
X219188D01*
Y-296467D01*
X218616D01*
Y-296753D01*
X218329D01*
Y-297040D01*
X217757D01*
Y-297326D01*
X217471D01*
Y-297612D01*
X216898D01*
Y-297899D01*
X216612D01*
Y-298185D01*
X216325D01*
Y-298471D01*
X216039D01*
Y-298758D01*
X215753D01*
Y-299044D01*
X215466D01*
Y-299330D01*
X215180D01*
Y-299616D01*
Y-299903D01*
X214894D01*
Y-300189D01*
X214607D01*
Y-300475D01*
Y-300762D01*
X214321D01*
Y-301048D01*
X214035D01*
Y-301334D01*
Y-301621D01*
X213748D01*
Y-301907D01*
Y-302193D01*
Y-302480D01*
X213462D01*
Y-302766D01*
Y-303052D01*
Y-303339D01*
X213176D01*
Y-303625D01*
Y-303911D01*
Y-304197D01*
Y-304484D01*
X212890D01*
Y-304770D01*
Y-305056D01*
Y-305343D01*
Y-305629D01*
Y-305915D01*
X212603D01*
Y-306202D01*
Y-306488D01*
Y-306774D01*
Y-307061D01*
Y-307347D01*
Y-307633D01*
Y-307920D01*
Y-308206D01*
Y-308492D01*
Y-308778D01*
Y-309065D01*
Y-309351D01*
Y-309637D01*
Y-309924D01*
Y-310210D01*
Y-310496D01*
Y-310783D01*
Y-311069D01*
Y-311355D01*
Y-311642D01*
X212890D01*
Y-311928D01*
Y-312214D01*
Y-312501D01*
Y-312787D01*
Y-313073D01*
Y-313359D01*
Y-313646D01*
X213176D01*
Y-313932D01*
Y-314218D01*
Y-314505D01*
Y-314791D01*
Y-315077D01*
X213462D01*
Y-315364D01*
Y-315650D01*
Y-315936D01*
Y-316223D01*
Y-316509D01*
X213748D01*
Y-316795D01*
Y-317081D01*
Y-317368D01*
X214035D01*
Y-317654D01*
Y-317940D01*
Y-318227D01*
Y-318513D01*
X214321D01*
Y-318799D01*
Y-319086D01*
Y-319372D01*
X214607D01*
Y-319658D01*
Y-319945D01*
X214894D01*
Y-320231D01*
Y-320517D01*
Y-320803D01*
X215180D01*
Y-321090D01*
Y-321376D01*
X215466D01*
Y-321662D01*
Y-321949D01*
X215753D01*
Y-322235D01*
Y-322521D01*
X216039D01*
Y-322808D01*
X216325D01*
Y-323094D01*
Y-323380D01*
X216612D01*
Y-323667D01*
X216898D01*
Y-323953D01*
X217184D01*
Y-324239D01*
Y-324526D01*
X217471D01*
Y-324812D01*
X217757D01*
Y-325098D01*
X218043D01*
Y-325384D01*
X218329D01*
Y-325671D01*
X218616D01*
Y-325957D01*
X219188D01*
Y-326243D01*
X219475D01*
Y-326530D01*
X220047D01*
Y-326816D01*
X220334D01*
Y-327102D01*
X220906D01*
Y-327389D01*
X221765D01*
Y-327675D01*
X222624D01*
Y-327961D01*
X223483D01*
Y-328248D01*
X225201D01*
Y-328534D01*
X230355D01*
Y-328248D01*
X232931D01*
Y-327961D01*
X234936D01*
Y-327675D01*
X236367D01*
Y-327389D01*
X237799D01*
Y-327102D01*
X239230D01*
Y-327389D01*
Y-327675D01*
Y-327961D01*
Y-328248D01*
Y-328534D01*
Y-328820D01*
Y-329107D01*
X239517D01*
Y-329393D01*
Y-329679D01*
Y-329965D01*
Y-330252D01*
Y-330538D01*
Y-330824D01*
X239803D01*
Y-331111D01*
Y-331397D01*
Y-331683D01*
Y-331970D01*
Y-332256D01*
Y-332542D01*
X240089D01*
Y-332829D01*
Y-333115D01*
Y-333401D01*
Y-333688D01*
Y-333974D01*
Y-334260D01*
Y-334547D01*
X240375D01*
Y-334833D01*
Y-335119D01*
Y-335405D01*
Y-335692D01*
Y-335978D01*
Y-336264D01*
X240662D01*
Y-336551D01*
Y-336837D01*
Y-337123D01*
Y-337410D01*
Y-337696D01*
Y-337982D01*
X240948D01*
Y-338269D01*
Y-338555D01*
Y-338841D01*
Y-339128D01*
Y-339414D01*
Y-339700D01*
Y-339986D01*
X241234D01*
Y-340273D01*
Y-340559D01*
Y-340845D01*
Y-341132D01*
Y-341418D01*
Y-341704D01*
X241521D01*
Y-341991D01*
Y-342277D01*
Y-342563D01*
Y-342850D01*
Y-343136D01*
Y-343422D01*
X241807D01*
Y-343709D01*
Y-343995D01*
Y-344281D01*
Y-344567D01*
Y-344854D01*
Y-345140D01*
Y-345427D01*
X255264D01*
Y-345140D01*
X254977D01*
Y-344854D01*
Y-344567D01*
Y-344281D01*
Y-343995D01*
Y-343709D01*
X254691D01*
Y-343422D01*
Y-343136D01*
Y-342850D01*
Y-342563D01*
Y-342277D01*
Y-341991D01*
Y-341704D01*
X254405D01*
Y-341418D01*
Y-341132D01*
Y-340845D01*
Y-340559D01*
Y-340273D01*
Y-339986D01*
X254119D01*
Y-339700D01*
Y-339414D01*
Y-339128D01*
Y-338841D01*
Y-338555D01*
Y-338269D01*
X253832D01*
Y-337982D01*
Y-337696D01*
Y-337410D01*
Y-337123D01*
Y-336837D01*
Y-336551D01*
Y-336264D01*
X253546D01*
Y-335978D01*
Y-335692D01*
Y-335405D01*
Y-335119D01*
Y-334833D01*
Y-334547D01*
X253260D01*
Y-334260D01*
Y-333974D01*
Y-333688D01*
Y-333401D01*
Y-333115D01*
Y-332829D01*
X252973D01*
Y-332542D01*
Y-332256D01*
Y-331970D01*
Y-331683D01*
Y-331397D01*
Y-331111D01*
X252687D01*
Y-330824D01*
Y-330538D01*
Y-330252D01*
Y-329965D01*
Y-329679D01*
Y-329393D01*
Y-329107D01*
X252401D01*
Y-328820D01*
Y-328534D01*
Y-328248D01*
Y-327961D01*
Y-327675D01*
Y-327389D01*
X252114D01*
Y-327102D01*
Y-326816D01*
Y-326530D01*
Y-326243D01*
Y-325957D01*
Y-325671D01*
X251828D01*
Y-325384D01*
Y-325098D01*
Y-324812D01*
Y-324526D01*
Y-324239D01*
Y-323953D01*
X251542D01*
Y-323667D01*
Y-323380D01*
Y-323094D01*
Y-322808D01*
Y-322521D01*
Y-322235D01*
Y-321949D01*
X251255D01*
Y-321662D01*
Y-321376D01*
Y-321090D01*
Y-320803D01*
Y-320517D01*
Y-320231D01*
X250969D01*
Y-319945D01*
Y-319658D01*
Y-319372D01*
Y-319086D01*
Y-318799D01*
Y-318513D01*
X250683D01*
Y-318227D01*
Y-317940D01*
Y-317654D01*
Y-317368D01*
Y-317081D01*
Y-316795D01*
Y-316509D01*
X250396D01*
Y-316223D01*
Y-315936D01*
Y-315650D01*
Y-315364D01*
Y-315077D01*
Y-314791D01*
X250110D01*
Y-314505D01*
Y-314218D01*
Y-313932D01*
Y-313646D01*
Y-313359D01*
Y-313073D01*
X249824D01*
Y-312787D01*
Y-312501D01*
Y-312214D01*
Y-311928D01*
Y-311642D01*
Y-311355D01*
X249537D01*
Y-311069D01*
Y-310783D01*
Y-310496D01*
Y-310210D01*
Y-309924D01*
Y-309637D01*
Y-309351D01*
X249251D01*
Y-309065D01*
Y-308778D01*
Y-308492D01*
Y-308206D01*
Y-307920D01*
Y-307633D01*
X248965D01*
Y-307347D01*
Y-307061D01*
Y-306774D01*
Y-306488D01*
Y-306202D01*
Y-305915D01*
X248679D01*
Y-305629D01*
Y-305343D01*
Y-305056D01*
Y-304770D01*
Y-304484D01*
Y-304197D01*
Y-303911D01*
X248392D01*
Y-303625D01*
Y-303339D01*
Y-303052D01*
Y-302766D01*
Y-302480D01*
Y-302193D01*
X248106D01*
Y-301907D01*
Y-301621D01*
Y-301334D01*
Y-301048D01*
Y-300762D01*
Y-300475D01*
X247820D01*
Y-300189D01*
Y-299903D01*
Y-299616D01*
Y-299330D01*
Y-299044D01*
Y-298758D01*
Y-298471D01*
X247533D01*
Y-298185D01*
Y-297899D01*
Y-297612D01*
Y-297326D01*
Y-297040D01*
Y-296753D01*
X247247D01*
Y-296467D01*
Y-296181D01*
Y-295894D01*
Y-295608D01*
Y-295322D01*
Y-295035D01*
X223483D01*
Y-295322D01*
D02*
G37*
G36*
X134440Y-309351D02*
Y-309637D01*
Y-309924D01*
Y-310210D01*
Y-310496D01*
Y-310783D01*
Y-311069D01*
Y-311355D01*
Y-311642D01*
Y-311928D01*
Y-312214D01*
Y-312501D01*
Y-312787D01*
Y-313073D01*
Y-313359D01*
Y-313646D01*
Y-313932D01*
Y-314218D01*
Y-314505D01*
Y-314791D01*
Y-315077D01*
X134726D01*
Y-315364D01*
Y-315650D01*
Y-315936D01*
Y-316223D01*
Y-316509D01*
X135012D01*
Y-316795D01*
Y-317081D01*
Y-317368D01*
Y-317654D01*
X135299D01*
Y-317940D01*
Y-318227D01*
Y-318513D01*
Y-318799D01*
X135585D01*
Y-319086D01*
Y-319372D01*
Y-319658D01*
X135871D01*
Y-319945D01*
Y-320231D01*
Y-320517D01*
X136158D01*
Y-320803D01*
Y-321090D01*
Y-321376D01*
X136444D01*
Y-321662D01*
Y-321949D01*
Y-322235D01*
X136730D01*
Y-322521D01*
Y-322808D01*
X137017D01*
Y-323094D01*
Y-323380D01*
X137303D01*
Y-323667D01*
Y-323953D01*
Y-324239D01*
X137589D01*
Y-324526D01*
Y-324812D01*
X137875D01*
Y-325098D01*
Y-325384D01*
Y-325671D01*
X138162D01*
Y-325957D01*
Y-326243D01*
X138448D01*
Y-326530D01*
Y-326816D01*
Y-327102D01*
X138734D01*
Y-327389D01*
Y-327675D01*
X139021D01*
Y-327961D01*
Y-328248D01*
Y-328534D01*
X139307D01*
Y-328820D01*
Y-329107D01*
X139593D01*
Y-329393D01*
Y-329679D01*
Y-329965D01*
X139880D01*
Y-330252D01*
Y-330538D01*
X140166D01*
Y-330824D01*
Y-331111D01*
Y-331397D01*
X140452D01*
Y-331683D01*
Y-331970D01*
X140739D01*
Y-332256D01*
Y-332542D01*
Y-332829D01*
X141025D01*
Y-333115D01*
Y-333401D01*
X141311D01*
Y-333688D01*
Y-333974D01*
Y-334260D01*
X141598D01*
Y-334547D01*
Y-334833D01*
X141884D01*
Y-335119D01*
Y-335405D01*
Y-335692D01*
X142170D01*
Y-335978D01*
Y-336264D01*
X142456D01*
Y-336551D01*
Y-336837D01*
Y-337123D01*
X142743D01*
Y-337410D01*
Y-337696D01*
X143029D01*
Y-337982D01*
Y-338269D01*
Y-338555D01*
X143315D01*
Y-338841D01*
Y-339128D01*
X143602D01*
Y-339414D01*
Y-339700D01*
Y-339986D01*
X143888D01*
Y-340273D01*
Y-340559D01*
X144174D01*
Y-340845D01*
Y-341132D01*
Y-341418D01*
X144461D01*
Y-341704D01*
Y-341991D01*
X144747D01*
Y-342277D01*
Y-342563D01*
Y-342850D01*
X145033D01*
Y-343136D01*
Y-343422D01*
X145320D01*
Y-343709D01*
Y-343995D01*
Y-344281D01*
X145606D01*
Y-344567D01*
Y-344854D01*
X145892D01*
Y-345140D01*
Y-345427D01*
Y-345713D01*
X146179D01*
Y-345999D01*
Y-346285D01*
X146465D01*
Y-346572D01*
Y-346858D01*
X146751D01*
Y-347144D01*
Y-347431D01*
X147038D01*
Y-347717D01*
Y-348003D01*
Y-348290D01*
X147324D01*
Y-348576D01*
X147610D01*
Y-348862D01*
Y-349149D01*
Y-349435D01*
X147897D01*
Y-349721D01*
X148183D01*
Y-350008D01*
Y-350294D01*
X148469D01*
Y-350580D01*
Y-350866D01*
X148755D01*
Y-351153D01*
Y-351439D01*
X149042D01*
Y-351725D01*
Y-352012D01*
X149328D01*
Y-352298D01*
X149614D01*
Y-352584D01*
Y-352871D01*
X149901D01*
Y-353157D01*
Y-353443D01*
X150187D01*
Y-353730D01*
X150473D01*
Y-354016D01*
X150760D01*
Y-354302D01*
Y-354589D01*
X151046D01*
Y-354875D01*
X151332D01*
Y-355161D01*
Y-355447D01*
X151619D01*
Y-355734D01*
X151905D01*
Y-356020D01*
X152191D01*
Y-356306D01*
Y-356593D01*
X152478D01*
Y-356879D01*
X152764D01*
Y-357165D01*
X153050D01*
Y-357452D01*
X153336D01*
Y-357738D01*
X153623D01*
Y-358024D01*
Y-358311D01*
X153909D01*
Y-358597D01*
X154195D01*
Y-358883D01*
X154482D01*
Y-359170D01*
X154768D01*
Y-359456D01*
X155054D01*
Y-359742D01*
X155341D01*
Y-360028D01*
X155627D01*
Y-360315D01*
X156200D01*
Y-360601D01*
X156486D01*
Y-360887D01*
X156772D01*
Y-361174D01*
X157059D01*
Y-361460D01*
X157345D01*
Y-361746D01*
X157917D01*
Y-362033D01*
X158204D01*
Y-362319D01*
X158776D01*
Y-362605D01*
X159063D01*
Y-362892D01*
X159635D01*
Y-363178D01*
X159922D01*
Y-363464D01*
X160494D01*
Y-363751D01*
X161067D01*
Y-364037D01*
X161639D01*
Y-364323D01*
X162212D01*
Y-364609D01*
X162785D01*
Y-364896D01*
X163644D01*
Y-365182D01*
X164216D01*
Y-365468D01*
X165075D01*
Y-365755D01*
X166220D01*
Y-366041D01*
X167366D01*
Y-366327D01*
X169084D01*
Y-366614D01*
X171088D01*
Y-366900D01*
X171374D01*
Y-366614D01*
Y-366327D01*
Y-366041D01*
Y-365755D01*
Y-365468D01*
Y-365182D01*
Y-364896D01*
Y-364609D01*
Y-364323D01*
Y-364037D01*
Y-363751D01*
Y-363464D01*
Y-363178D01*
Y-362892D01*
Y-362605D01*
Y-362319D01*
Y-362033D01*
Y-361746D01*
Y-361460D01*
Y-361174D01*
Y-360887D01*
Y-360601D01*
Y-360315D01*
Y-360028D01*
Y-359742D01*
Y-359456D01*
Y-359170D01*
Y-358883D01*
Y-358597D01*
Y-358311D01*
Y-358024D01*
Y-357738D01*
Y-357452D01*
X170801D01*
Y-357165D01*
X170229D01*
Y-356879D01*
X169656D01*
Y-356593D01*
X169084D01*
Y-356306D01*
X168511D01*
Y-356020D01*
X167938D01*
Y-355734D01*
X167652D01*
Y-355447D01*
X167079D01*
Y-355161D01*
X166793D01*
Y-354875D01*
X166220D01*
Y-354589D01*
X165934D01*
Y-354302D01*
X165648D01*
Y-354016D01*
X165075D01*
Y-353730D01*
X164789D01*
Y-353443D01*
X164503D01*
Y-353157D01*
X164216D01*
Y-352871D01*
X163930D01*
Y-352584D01*
X163644D01*
Y-352298D01*
X163357D01*
Y-352012D01*
X163071D01*
Y-351725D01*
X162785D01*
Y-351439D01*
X162498D01*
Y-351153D01*
X162212D01*
Y-350866D01*
X161926D01*
Y-350580D01*
Y-350294D01*
X161639D01*
Y-350008D01*
X161353D01*
Y-349721D01*
X161067D01*
Y-349435D01*
Y-349149D01*
X160781D01*
Y-348862D01*
X160494D01*
Y-348576D01*
Y-348290D01*
X160208D01*
Y-348003D01*
Y-347717D01*
X159922D01*
Y-347431D01*
X159635D01*
Y-347144D01*
Y-346858D01*
X159349D01*
Y-346572D01*
Y-346285D01*
X159063D01*
Y-345999D01*
Y-345713D01*
X160781D01*
Y-345427D01*
X162785D01*
Y-345140D01*
X163930D01*
Y-344854D01*
X164503D01*
Y-344567D01*
X165362D01*
Y-344281D01*
X165934D01*
Y-343995D01*
X166220D01*
Y-343709D01*
X166793D01*
Y-343422D01*
X167079D01*
Y-343136D01*
X167366D01*
Y-342850D01*
X167652D01*
Y-342563D01*
X167938D01*
Y-342277D01*
X168225D01*
Y-341991D01*
Y-341704D01*
X168511D01*
Y-341418D01*
X168797D01*
Y-341132D01*
Y-340845D01*
X169084D01*
Y-340559D01*
Y-340273D01*
X169370D01*
Y-339986D01*
Y-339700D01*
X169656D01*
Y-339414D01*
Y-339128D01*
Y-338841D01*
X169943D01*
Y-338555D01*
Y-338269D01*
Y-337982D01*
Y-337696D01*
X170229D01*
Y-337410D01*
Y-337123D01*
Y-336837D01*
Y-336551D01*
Y-336264D01*
Y-335978D01*
Y-335692D01*
X170515D01*
Y-335405D01*
Y-335119D01*
Y-334833D01*
Y-334547D01*
Y-334260D01*
Y-333974D01*
Y-333688D01*
Y-333401D01*
Y-333115D01*
Y-332829D01*
Y-332542D01*
Y-332256D01*
Y-331970D01*
Y-331683D01*
Y-331397D01*
X170801D01*
Y-331111D01*
Y-330824D01*
Y-330538D01*
Y-330252D01*
Y-329965D01*
Y-329679D01*
Y-329393D01*
Y-329107D01*
Y-328820D01*
Y-328534D01*
Y-328248D01*
Y-327961D01*
Y-327675D01*
Y-327389D01*
Y-327102D01*
X171088D01*
Y-326816D01*
Y-326530D01*
Y-326243D01*
Y-325957D01*
Y-325671D01*
Y-325384D01*
Y-325098D01*
Y-324812D01*
Y-324526D01*
Y-324239D01*
Y-323953D01*
Y-323667D01*
Y-323380D01*
Y-323094D01*
Y-322808D01*
Y-322521D01*
X171374D01*
Y-322235D01*
Y-321949D01*
Y-321662D01*
Y-321376D01*
Y-321090D01*
Y-320803D01*
Y-320517D01*
Y-320231D01*
Y-319945D01*
Y-319658D01*
Y-319372D01*
Y-319086D01*
Y-318799D01*
Y-318513D01*
Y-318227D01*
Y-317940D01*
X171660D01*
Y-317654D01*
Y-317368D01*
Y-317081D01*
Y-316795D01*
Y-316509D01*
Y-316223D01*
Y-315936D01*
Y-315650D01*
Y-315364D01*
Y-315077D01*
Y-314791D01*
Y-314505D01*
Y-314218D01*
Y-313932D01*
X171947D01*
Y-313646D01*
Y-313359D01*
Y-313073D01*
Y-312787D01*
Y-312501D01*
Y-312214D01*
Y-311928D01*
Y-311642D01*
Y-311355D01*
Y-311069D01*
Y-310783D01*
Y-310496D01*
Y-310210D01*
Y-309924D01*
Y-309637D01*
Y-309351D01*
X172233D01*
Y-309065D01*
X158490D01*
Y-309351D01*
Y-309637D01*
Y-309924D01*
Y-310210D01*
Y-310496D01*
Y-310783D01*
Y-311069D01*
Y-311355D01*
Y-311642D01*
Y-311928D01*
Y-312214D01*
Y-312501D01*
Y-312787D01*
Y-313073D01*
X158204D01*
Y-313359D01*
Y-313646D01*
Y-313932D01*
Y-314218D01*
Y-314505D01*
Y-314791D01*
Y-315077D01*
Y-315364D01*
Y-315650D01*
Y-315936D01*
Y-316223D01*
Y-316509D01*
Y-316795D01*
Y-317081D01*
Y-317368D01*
Y-317654D01*
Y-317940D01*
Y-318227D01*
Y-318513D01*
Y-318799D01*
Y-319086D01*
Y-319372D01*
Y-319658D01*
Y-319945D01*
Y-320231D01*
Y-320517D01*
Y-320803D01*
Y-321090D01*
Y-321376D01*
Y-321662D01*
Y-321949D01*
Y-322235D01*
Y-322521D01*
Y-322808D01*
Y-323094D01*
Y-323380D01*
Y-323667D01*
Y-323953D01*
Y-324239D01*
Y-324526D01*
Y-324812D01*
X157917D01*
Y-325098D01*
X158204D01*
Y-325384D01*
Y-325671D01*
X157917D01*
Y-325957D01*
Y-326243D01*
Y-326530D01*
Y-326816D01*
Y-327102D01*
Y-327389D01*
Y-327675D01*
Y-327961D01*
Y-328248D01*
Y-328534D01*
Y-328820D01*
Y-329107D01*
Y-329393D01*
Y-329679D01*
Y-329965D01*
Y-330252D01*
Y-330538D01*
Y-330824D01*
Y-331111D01*
Y-331397D01*
Y-331683D01*
Y-331970D01*
Y-332256D01*
Y-332542D01*
Y-332829D01*
Y-333115D01*
X157631D01*
Y-333401D01*
Y-333688D01*
Y-333974D01*
X157345D01*
Y-334260D01*
X157059D01*
Y-334547D01*
X156772D01*
Y-334833D01*
X155913D01*
Y-335119D01*
X155054D01*
Y-334833D01*
X154768D01*
Y-334547D01*
Y-334260D01*
Y-333974D01*
X154482D01*
Y-333688D01*
Y-333401D01*
X154195D01*
Y-333115D01*
Y-332829D01*
Y-332542D01*
X153909D01*
Y-332256D01*
Y-331970D01*
Y-331683D01*
X153623D01*
Y-331397D01*
Y-331111D01*
Y-330824D01*
X153336D01*
Y-330538D01*
Y-330252D01*
Y-329965D01*
X153050D01*
Y-329679D01*
Y-329393D01*
X152764D01*
Y-329107D01*
Y-328820D01*
Y-328534D01*
X152478D01*
Y-328248D01*
Y-327961D01*
Y-327675D01*
X152191D01*
Y-327389D01*
Y-327102D01*
Y-326816D01*
X151905D01*
Y-326530D01*
Y-326243D01*
X151619D01*
Y-325957D01*
Y-325671D01*
Y-325384D01*
X151332D01*
Y-325098D01*
Y-324812D01*
Y-324526D01*
X151046D01*
Y-324239D01*
Y-323953D01*
Y-323667D01*
X150760D01*
Y-323380D01*
Y-323094D01*
X150473D01*
Y-322808D01*
Y-322521D01*
Y-322235D01*
X150187D01*
Y-321949D01*
Y-321662D01*
Y-321376D01*
X149901D01*
Y-321090D01*
Y-320803D01*
Y-320517D01*
X149614D01*
Y-320231D01*
Y-319945D01*
X149328D01*
Y-319658D01*
Y-319372D01*
Y-319086D01*
X149042D01*
Y-318799D01*
Y-318513D01*
Y-318227D01*
X148755D01*
Y-317940D01*
Y-317654D01*
Y-317368D01*
X148469D01*
Y-317081D01*
Y-316795D01*
Y-316509D01*
Y-316223D01*
X148183D01*
Y-315936D01*
Y-315650D01*
Y-315364D01*
Y-315077D01*
X147897D01*
Y-314791D01*
Y-314505D01*
Y-314218D01*
Y-313932D01*
Y-313646D01*
X147610D01*
Y-313359D01*
Y-313073D01*
Y-312787D01*
Y-312501D01*
Y-312214D01*
Y-311928D01*
X147324D01*
Y-311642D01*
Y-311355D01*
Y-311069D01*
Y-310783D01*
Y-310496D01*
Y-310210D01*
Y-309924D01*
Y-309637D01*
Y-309351D01*
Y-309065D01*
X134440D01*
Y-309351D01*
D02*
G37*
G36*
X192275Y-291886D02*
Y-292172D01*
X192561D01*
Y-292459D01*
Y-292745D01*
Y-293031D01*
Y-293318D01*
Y-293604D01*
Y-293890D01*
X192848D01*
Y-294177D01*
Y-294463D01*
Y-294749D01*
Y-295035D01*
Y-295322D01*
Y-295608D01*
X193134D01*
Y-295894D01*
Y-296181D01*
Y-296467D01*
Y-296753D01*
Y-297040D01*
Y-297326D01*
Y-297612D01*
X193420D01*
Y-297899D01*
Y-298185D01*
Y-298471D01*
Y-298758D01*
Y-299044D01*
Y-299330D01*
X193707D01*
Y-299616D01*
Y-299903D01*
Y-300189D01*
Y-300475D01*
Y-300762D01*
Y-301048D01*
X193993D01*
Y-301334D01*
Y-301621D01*
Y-301907D01*
Y-302193D01*
Y-302480D01*
Y-302766D01*
Y-303052D01*
X194279D01*
Y-303339D01*
Y-303625D01*
Y-303911D01*
Y-304197D01*
Y-304484D01*
Y-304770D01*
X194565D01*
Y-305056D01*
Y-305343D01*
Y-305629D01*
Y-305915D01*
Y-306202D01*
Y-306488D01*
X194852D01*
Y-306774D01*
Y-307061D01*
Y-307347D01*
Y-307633D01*
Y-307920D01*
Y-308206D01*
X195138D01*
Y-308492D01*
Y-308778D01*
Y-309065D01*
Y-309351D01*
Y-309637D01*
Y-309924D01*
Y-310210D01*
X195424D01*
Y-310496D01*
Y-310783D01*
Y-311069D01*
Y-311355D01*
Y-311642D01*
Y-311928D01*
X195711D01*
Y-312214D01*
Y-312501D01*
X195138D01*
Y-312214D01*
X194852D01*
Y-311928D01*
X194565D01*
Y-311642D01*
X193993D01*
Y-311355D01*
X193707D01*
Y-311069D01*
X193420D01*
Y-310783D01*
X192848D01*
Y-310496D01*
X192275D01*
Y-310210D01*
X191989D01*
Y-309924D01*
X191416D01*
Y-309637D01*
X190557D01*
Y-309351D01*
X189985D01*
Y-309065D01*
X189126D01*
Y-308778D01*
X187694D01*
Y-308492D01*
X181395D01*
Y-308778D01*
X180250D01*
Y-309065D01*
X179391D01*
Y-309351D01*
X178818D01*
Y-309637D01*
X178532D01*
Y-309924D01*
X177959D01*
Y-310210D01*
X177673D01*
Y-310496D01*
X177387D01*
Y-310783D01*
X177100D01*
Y-311069D01*
X176814D01*
Y-311355D01*
Y-311642D01*
X176528D01*
Y-311928D01*
Y-312214D01*
X176242D01*
Y-312501D01*
Y-312787D01*
Y-313073D01*
X175955D01*
Y-313359D01*
Y-313646D01*
Y-313932D01*
Y-314218D01*
X175669D01*
Y-314505D01*
Y-314791D01*
Y-315077D01*
Y-315364D01*
Y-315650D01*
Y-315936D01*
Y-316223D01*
Y-316509D01*
Y-316795D01*
Y-317081D01*
Y-317368D01*
Y-317654D01*
Y-317940D01*
Y-318227D01*
Y-318513D01*
Y-318799D01*
Y-319086D01*
Y-319372D01*
X175955D01*
Y-319658D01*
Y-319945D01*
Y-320231D01*
Y-320517D01*
Y-320803D01*
Y-321090D01*
Y-321376D01*
X176242D01*
Y-321662D01*
Y-321949D01*
Y-322235D01*
Y-322521D01*
Y-322808D01*
Y-323094D01*
Y-323380D01*
X176528D01*
Y-323667D01*
Y-323953D01*
Y-324239D01*
Y-324526D01*
Y-324812D01*
Y-325098D01*
X176814D01*
Y-325384D01*
Y-325671D01*
Y-325957D01*
Y-326243D01*
Y-326530D01*
Y-326816D01*
X177100D01*
Y-327102D01*
Y-327389D01*
Y-327675D01*
Y-327961D01*
Y-328248D01*
Y-328534D01*
X177387D01*
Y-328820D01*
Y-329107D01*
Y-329393D01*
Y-329679D01*
Y-329965D01*
Y-330252D01*
Y-330538D01*
X177673D01*
Y-330824D01*
Y-331111D01*
Y-331397D01*
Y-331683D01*
Y-331970D01*
Y-332256D01*
X177959D01*
Y-332542D01*
Y-332829D01*
Y-333115D01*
Y-333401D01*
Y-333688D01*
Y-333974D01*
X178246D01*
Y-334260D01*
Y-334547D01*
Y-334833D01*
Y-335119D01*
Y-335405D01*
Y-335692D01*
Y-335978D01*
X178532D01*
Y-336264D01*
Y-336551D01*
Y-336837D01*
Y-337123D01*
Y-337410D01*
Y-337696D01*
X178818D01*
Y-337982D01*
Y-338269D01*
Y-338555D01*
Y-338841D01*
Y-339128D01*
Y-339414D01*
X179105D01*
Y-339700D01*
Y-339986D01*
Y-340273D01*
Y-340559D01*
Y-340845D01*
Y-341132D01*
X179391D01*
Y-341418D01*
Y-341704D01*
Y-341991D01*
Y-342277D01*
Y-342563D01*
Y-342850D01*
Y-343136D01*
X179677D01*
Y-343422D01*
Y-343709D01*
Y-343995D01*
Y-344281D01*
Y-344567D01*
Y-344854D01*
X179964D01*
Y-345140D01*
Y-345427D01*
X193134D01*
Y-345140D01*
Y-344854D01*
X192848D01*
Y-344567D01*
Y-344281D01*
Y-343995D01*
Y-343709D01*
Y-343422D01*
Y-343136D01*
X192561D01*
Y-342850D01*
Y-342563D01*
Y-342277D01*
Y-341991D01*
Y-341704D01*
Y-341418D01*
Y-341132D01*
X192275D01*
Y-340845D01*
Y-340559D01*
Y-340273D01*
Y-339986D01*
Y-339700D01*
Y-339414D01*
X191989D01*
Y-339128D01*
Y-338841D01*
Y-338555D01*
Y-338269D01*
Y-337982D01*
Y-337696D01*
X191702D01*
Y-337410D01*
Y-337123D01*
Y-336837D01*
Y-336551D01*
Y-336264D01*
Y-335978D01*
Y-335692D01*
X191416D01*
Y-335405D01*
Y-335119D01*
Y-334833D01*
Y-334547D01*
Y-334260D01*
Y-333974D01*
X191130D01*
Y-333688D01*
Y-333401D01*
Y-333115D01*
Y-332829D01*
Y-332542D01*
Y-332256D01*
Y-331970D01*
X190843D01*
Y-331683D01*
Y-331397D01*
Y-331111D01*
Y-330824D01*
Y-330538D01*
Y-330252D01*
X190557D01*
Y-329965D01*
Y-329679D01*
Y-329393D01*
Y-329107D01*
Y-328820D01*
Y-328534D01*
X190271D01*
Y-328248D01*
Y-327961D01*
Y-327675D01*
Y-327389D01*
Y-327102D01*
Y-326816D01*
X189985D01*
Y-326530D01*
Y-326243D01*
Y-325957D01*
Y-325671D01*
Y-325384D01*
Y-325098D01*
Y-324812D01*
X189698D01*
Y-324526D01*
Y-324239D01*
Y-323953D01*
Y-323667D01*
Y-323380D01*
Y-323094D01*
X189412D01*
Y-322808D01*
Y-322521D01*
Y-322235D01*
Y-321949D01*
Y-321662D01*
Y-321376D01*
Y-321090D01*
X189126D01*
Y-320803D01*
Y-320517D01*
Y-320231D01*
Y-319945D01*
Y-319658D01*
Y-319372D01*
X189412D01*
Y-319086D01*
Y-318799D01*
X189698D01*
Y-318513D01*
X189985D01*
Y-318227D01*
X190557D01*
Y-317940D01*
X192275D01*
Y-318227D01*
X193707D01*
Y-318513D01*
X194565D01*
Y-318799D01*
X195138D01*
Y-319086D01*
X195424D01*
Y-319372D01*
X195997D01*
Y-319658D01*
X196283D01*
Y-319945D01*
X196570D01*
Y-320231D01*
Y-320517D01*
X196856D01*
Y-320803D01*
Y-321090D01*
Y-321376D01*
X197142D01*
Y-321662D01*
Y-321949D01*
Y-322235D01*
Y-322521D01*
Y-322808D01*
Y-323094D01*
X197429D01*
Y-323380D01*
Y-323667D01*
Y-323953D01*
Y-324239D01*
Y-324526D01*
Y-324812D01*
Y-325098D01*
X197715D01*
Y-325384D01*
Y-325671D01*
Y-325957D01*
Y-326243D01*
Y-326530D01*
Y-326816D01*
X198001D01*
Y-327102D01*
Y-327389D01*
Y-327675D01*
Y-327961D01*
Y-328248D01*
Y-328534D01*
X198287D01*
Y-328820D01*
Y-329107D01*
Y-329393D01*
Y-329679D01*
Y-329965D01*
Y-330252D01*
X198574D01*
Y-330538D01*
Y-330824D01*
Y-331111D01*
Y-331397D01*
Y-331683D01*
Y-331970D01*
Y-332256D01*
X198860D01*
Y-332542D01*
Y-332829D01*
Y-333115D01*
Y-333401D01*
Y-333688D01*
Y-333974D01*
X199146D01*
Y-334260D01*
Y-334547D01*
Y-334833D01*
Y-335119D01*
Y-335405D01*
Y-335692D01*
X199433D01*
Y-335978D01*
Y-336264D01*
Y-336551D01*
Y-336837D01*
Y-337123D01*
Y-337410D01*
Y-337696D01*
X199719D01*
Y-337982D01*
Y-338269D01*
Y-338555D01*
Y-338841D01*
Y-339128D01*
Y-339414D01*
X200005D01*
Y-339700D01*
Y-339986D01*
Y-340273D01*
Y-340559D01*
Y-340845D01*
Y-341132D01*
X200292D01*
Y-341418D01*
Y-341704D01*
Y-341991D01*
Y-342277D01*
Y-342563D01*
Y-342850D01*
X200578D01*
Y-343136D01*
Y-343422D01*
Y-343709D01*
Y-343995D01*
Y-344281D01*
Y-344567D01*
Y-344854D01*
X200864D01*
Y-345140D01*
Y-345427D01*
X214035D01*
Y-345140D01*
Y-344854D01*
X213748D01*
Y-344567D01*
Y-344281D01*
Y-343995D01*
Y-343709D01*
Y-343422D01*
Y-343136D01*
Y-342850D01*
X213462D01*
Y-342563D01*
Y-342277D01*
Y-341991D01*
Y-341704D01*
Y-341418D01*
Y-341132D01*
X213176D01*
Y-340845D01*
Y-340559D01*
Y-340273D01*
Y-339986D01*
Y-339700D01*
Y-339414D01*
X212890D01*
Y-339128D01*
Y-338841D01*
Y-338555D01*
Y-338269D01*
Y-337982D01*
Y-337696D01*
Y-337410D01*
X212603D01*
Y-337123D01*
Y-336837D01*
Y-336551D01*
Y-336264D01*
Y-335978D01*
Y-335692D01*
X212317D01*
Y-335405D01*
Y-335119D01*
Y-334833D01*
Y-334547D01*
Y-334260D01*
Y-333974D01*
X212031D01*
Y-333688D01*
Y-333401D01*
Y-333115D01*
Y-332829D01*
Y-332542D01*
Y-332256D01*
X211744D01*
Y-331970D01*
Y-331683D01*
Y-331397D01*
Y-331111D01*
Y-330824D01*
Y-330538D01*
Y-330252D01*
X211458D01*
Y-329965D01*
Y-329679D01*
Y-329393D01*
Y-329107D01*
Y-328820D01*
Y-328534D01*
X211172D01*
Y-328248D01*
Y-327961D01*
Y-327675D01*
Y-327389D01*
Y-327102D01*
Y-326816D01*
X210885D01*
Y-326530D01*
Y-326243D01*
Y-325957D01*
Y-325671D01*
Y-325384D01*
Y-325098D01*
Y-324812D01*
X210599D01*
Y-324526D01*
Y-324239D01*
Y-323953D01*
Y-323667D01*
Y-323380D01*
Y-323094D01*
X210313D01*
Y-322808D01*
Y-322521D01*
Y-322235D01*
Y-321949D01*
Y-321662D01*
Y-321376D01*
X210026D01*
Y-321090D01*
Y-320803D01*
Y-320517D01*
Y-320231D01*
Y-319945D01*
Y-319658D01*
X209740D01*
Y-319372D01*
Y-319086D01*
Y-318799D01*
Y-318513D01*
Y-318227D01*
Y-317940D01*
Y-317654D01*
X209454D01*
Y-317368D01*
Y-317081D01*
Y-316795D01*
Y-316509D01*
Y-316223D01*
Y-315936D01*
X209167D01*
Y-315650D01*
Y-315364D01*
Y-315077D01*
Y-314791D01*
Y-314505D01*
Y-314218D01*
X208881D01*
Y-313932D01*
Y-313646D01*
Y-313359D01*
Y-313073D01*
Y-312787D01*
Y-312501D01*
X208595D01*
Y-312214D01*
Y-311928D01*
Y-311642D01*
Y-311355D01*
Y-311069D01*
Y-310783D01*
Y-310496D01*
X208309D01*
Y-310210D01*
Y-309924D01*
Y-309637D01*
Y-309351D01*
Y-309065D01*
Y-308778D01*
X208022D01*
Y-308492D01*
Y-308206D01*
Y-307920D01*
Y-307633D01*
Y-307347D01*
Y-307061D01*
X207736D01*
Y-306774D01*
Y-306488D01*
Y-306202D01*
Y-305915D01*
Y-305629D01*
Y-305343D01*
Y-305056D01*
X207450D01*
Y-304770D01*
Y-304484D01*
Y-304197D01*
Y-303911D01*
Y-303625D01*
Y-303339D01*
X207163D01*
Y-303052D01*
Y-302766D01*
Y-302480D01*
Y-302193D01*
Y-301907D01*
Y-301621D01*
X206877D01*
Y-301334D01*
Y-301048D01*
Y-300762D01*
Y-300475D01*
Y-300189D01*
Y-299903D01*
X206591D01*
Y-299616D01*
Y-299330D01*
Y-299044D01*
Y-298758D01*
Y-298471D01*
Y-298185D01*
Y-297899D01*
X206304D01*
Y-297612D01*
Y-297326D01*
Y-297040D01*
Y-296753D01*
Y-296467D01*
Y-296181D01*
X206018D01*
Y-295894D01*
Y-295608D01*
Y-295322D01*
Y-295035D01*
Y-294749D01*
Y-294463D01*
X205732D01*
Y-294177D01*
Y-293890D01*
Y-293604D01*
Y-293318D01*
Y-293031D01*
Y-292745D01*
Y-292459D01*
X205445D01*
Y-292172D01*
Y-291886D01*
Y-291600D01*
X192275D01*
Y-291886D01*
D02*
G37*
%LPC*%
G36*
X227778Y-306202D02*
X235794D01*
Y-306488D01*
Y-306774D01*
Y-307061D01*
Y-307347D01*
Y-307633D01*
X236081D01*
Y-307920D01*
Y-308206D01*
Y-308492D01*
Y-308778D01*
Y-309065D01*
Y-309351D01*
X236367D01*
Y-309637D01*
Y-309924D01*
Y-310210D01*
Y-310496D01*
Y-310783D01*
Y-311069D01*
X236653D01*
Y-311355D01*
Y-311642D01*
Y-311928D01*
Y-312214D01*
Y-312501D01*
Y-312787D01*
X236940D01*
Y-313073D01*
Y-313359D01*
Y-313646D01*
Y-313932D01*
Y-314218D01*
Y-314505D01*
Y-314791D01*
X237226D01*
Y-315077D01*
Y-315364D01*
Y-315650D01*
Y-315936D01*
Y-316223D01*
Y-316509D01*
X237512D01*
Y-316795D01*
Y-317081D01*
Y-317368D01*
X230355D01*
Y-317081D01*
X229209D01*
Y-316795D01*
X228637D01*
Y-316509D01*
X228350D01*
Y-316223D01*
X228064D01*
Y-315936D01*
X227778D01*
Y-315650D01*
X227491D01*
Y-315364D01*
Y-315077D01*
X227205D01*
Y-314791D01*
Y-314505D01*
X226919D01*
Y-314218D01*
Y-313932D01*
X226632D01*
Y-313646D01*
Y-313359D01*
Y-313073D01*
Y-312787D01*
X226346D01*
Y-312501D01*
Y-312214D01*
Y-311928D01*
Y-311642D01*
Y-311355D01*
X226060D01*
Y-311069D01*
Y-310783D01*
Y-310496D01*
Y-310210D01*
Y-309924D01*
Y-309637D01*
Y-309351D01*
Y-309065D01*
Y-308778D01*
Y-308492D01*
Y-308206D01*
X226346D01*
Y-307920D01*
Y-307633D01*
X226632D01*
Y-307347D01*
Y-307061D01*
X226919D01*
Y-306774D01*
X227205D01*
Y-306488D01*
X227778D01*
Y-306202D01*
D02*
G37*
%LPD*%
D10*
X52763Y-322095D02*
Y-335870D01*
X45876D01*
X43580Y-333574D01*
Y-331278D01*
X45876Y-328983D01*
X52763D01*
X45876D01*
X43580Y-326687D01*
Y-324391D01*
X45876Y-322095D01*
X52763D01*
X36693Y-335870D02*
X32101D01*
X29805Y-333574D01*
Y-328983D01*
X32101Y-326687D01*
X36693D01*
X38988Y-328983D01*
Y-333574D01*
X36693Y-335870D01*
X22917Y-324391D02*
Y-326687D01*
X25213D01*
X20622D01*
X22917D01*
Y-333574D01*
X20622Y-335870D01*
X11438Y-324391D02*
Y-326687D01*
X13734D01*
X9142D01*
X11438D01*
Y-333574D01*
X9142Y-335870D01*
X-41D02*
X-4633D01*
X-6928Y-333574D01*
Y-328983D01*
X-4633Y-326687D01*
X-41D01*
X2255Y-328983D01*
Y-333574D01*
X-41Y-335870D01*
X-11520D02*
Y-326687D01*
X-13816D01*
X-16112Y-328983D01*
Y-335870D01*
Y-328983D01*
X-18408Y-326687D01*
X-20704Y-328983D01*
Y-335870D01*
X-39070D02*
Y-322095D01*
X-45958D01*
X-48254Y-324391D01*
Y-328983D01*
X-45958Y-331278D01*
X-39070D01*
X-55141Y-326687D02*
X-59733D01*
X-62029Y-328983D01*
Y-335870D01*
X-55141D01*
X-52846Y-333574D01*
X-55141Y-331278D01*
X-62029D01*
X-66621Y-335870D02*
X-73508D01*
X-75804Y-333574D01*
X-73508Y-331278D01*
X-68916D01*
X-66621Y-328983D01*
X-68916Y-326687D01*
X-75804D01*
X-82692Y-324391D02*
Y-326687D01*
X-80396D01*
X-84987D01*
X-82692D01*
Y-333574D01*
X-84987Y-335870D01*
X-98762D02*
X-94171D01*
X-91875Y-333574D01*
Y-328983D01*
X-94171Y-326687D01*
X-98762D01*
X-101058Y-328983D01*
Y-331278D01*
X-91875D01*
X249614Y-400836D02*
Y-416579D01*
X244366Y-411331D01*
X239119Y-416579D01*
Y-400836D01*
X233871Y-416579D02*
X228623D01*
X231247D01*
Y-406084D01*
X233871D01*
X220752Y-416579D02*
Y-406084D01*
X218128D01*
X215504Y-408707D01*
Y-416579D01*
Y-408707D01*
X212880Y-406084D01*
X210257Y-408707D01*
Y-416579D01*
X205009Y-400836D02*
Y-411331D01*
X199761Y-416579D01*
X194514Y-411331D01*
Y-400836D01*
X178771Y-403460D02*
X181395Y-400836D01*
X186642D01*
X189266Y-403460D01*
Y-413955D01*
X186642Y-416579D01*
X181395D01*
X178771Y-413955D01*
Y-408707D01*
X184018D01*
X-104717Y-364090D02*
X-107341Y-361466D01*
X-112588D01*
X-115212Y-364090D01*
Y-374585D01*
X-112588Y-377209D01*
X-107341D01*
X-104717Y-374585D01*
Y-364090D01*
X-120460D02*
X-123084Y-361466D01*
X-128331D01*
X-130955Y-364090D01*
Y-374585D01*
X-128331Y-377209D01*
X-123084D01*
X-120460Y-374585D01*
Y-364090D01*
X58669Y-377209D02*
X54077D01*
X56373D01*
Y-363434D01*
X58669Y-365730D01*
X38006Y-363434D02*
X42598Y-365730D01*
X47190Y-370321D01*
Y-374913D01*
X44894Y-377209D01*
X40302D01*
X38006Y-374913D01*
Y-372617D01*
X40302Y-370321D01*
X47190D01*
X33415Y-377209D02*
X24231Y-368025D01*
X19640Y-365730D02*
X17344Y-363434D01*
X12752D01*
X10456Y-365730D01*
Y-374913D01*
X12752Y-377209D01*
X17344D01*
X19640Y-374913D01*
Y-365730D01*
X-3319Y-363434D02*
X5864D01*
Y-370321D01*
X1273Y-368025D01*
X-1023D01*
X-3319Y-370321D01*
Y-374913D01*
X-1023Y-377209D01*
X3569D01*
X5864Y-374913D01*
X-7911Y-377209D02*
X-17094Y-368025D01*
X-30869Y-377209D02*
X-21686D01*
X-30869Y-368025D01*
Y-365730D01*
X-28573Y-363434D01*
X-23981D01*
X-21686Y-365730D01*
X-35461D02*
X-37757Y-363434D01*
X-42348D01*
X-44644Y-365730D01*
Y-374913D01*
X-42348Y-377209D01*
X-37757D01*
X-35461Y-374913D01*
Y-365730D01*
X-58419Y-377209D02*
X-49236D01*
X-58419Y-368025D01*
Y-365730D01*
X-56123Y-363434D01*
X-51532D01*
X-49236Y-365730D01*
X-63011D02*
X-65307Y-363434D01*
X-69898D01*
X-72194Y-365730D01*
Y-368025D01*
X-69898Y-370321D01*
X-67603D01*
X-69898D01*
X-72194Y-372617D01*
Y-374913D01*
X-69898Y-377209D01*
X-65307D01*
X-63011Y-374913D01*
X56178Y-285874D02*
X64574D01*
Y-298469D01*
X56178D01*
X64574Y-292172D02*
X60376D01*
X43584Y-285874D02*
Y-298469D01*
X49881D01*
X51980Y-296370D01*
Y-292172D01*
X49881Y-290072D01*
X43584D01*
X35188Y-302667D02*
X33089D01*
X30990Y-300568D01*
Y-290072D01*
X37287D01*
X39386Y-292172D01*
Y-296370D01*
X37287Y-298469D01*
X30990D01*
X24692Y-290072D02*
X20494D01*
X18395Y-292172D01*
Y-298469D01*
X24692D01*
X26791Y-296370D01*
X24692Y-294271D01*
X18395D01*
X14197Y-290072D02*
Y-298469D01*
Y-294271D01*
X12098Y-292172D01*
X9999Y-290072D01*
X7900D01*
D11*
X1367338Y387795D02*
X780724D01*
X780724Y-151575D02*
X780724Y387795D01*
X1367338Y387795D02*
X1367338Y-151575D01*
X780724D01*
D13*
X-87000Y-355555D02*
Y-347684D01*
X-90936D01*
X-92248Y-348996D01*
Y-351620D01*
X-90936Y-352931D01*
X-87000D01*
X-89624D02*
X-92248Y-355555D01*
X-98808D02*
X-96184D01*
X-94872Y-354243D01*
Y-351620D01*
X-96184Y-350308D01*
X-98808D01*
X-100119Y-351620D01*
Y-352931D01*
X-94872D01*
X-102743Y-350308D02*
X-105367Y-355555D01*
X-107991Y-350308D01*
X267330Y-387054D02*
Y-394925D01*
X263395D01*
X262083Y-393614D01*
Y-388366D01*
X263395Y-387054D01*
X267330D01*
X255523Y-394925D02*
X258147D01*
X259459Y-393614D01*
Y-390990D01*
X258147Y-389678D01*
X255523D01*
X254211Y-390990D01*
Y-392302D01*
X259459D01*
X251587Y-394925D02*
X247652D01*
X246340Y-393614D01*
X247652Y-392302D01*
X250275D01*
X251587Y-390990D01*
X250275Y-389678D01*
X246340D01*
X241092Y-397549D02*
X239780D01*
X238468Y-396237D01*
Y-389678D01*
X242404D01*
X243716Y-390990D01*
Y-393614D01*
X242404Y-394925D01*
X238468D01*
X235844D02*
X233221D01*
X234533D01*
Y-389678D01*
X235844D01*
X229285Y-394925D02*
Y-389678D01*
X225349D01*
X224037Y-390990D01*
Y-394925D01*
X217478D02*
X220101D01*
X221413Y-393614D01*
Y-390990D01*
X220101Y-389678D01*
X217478D01*
X216166Y-390990D01*
Y-392302D01*
X221413D01*
X213542Y-389678D02*
Y-394925D01*
Y-392302D01*
X212230Y-390990D01*
X210918Y-389678D01*
X209606D01*
X70480Y-268944D02*
Y-276815D01*
X66544D01*
X65232Y-275503D01*
Y-270256D01*
X66544Y-268944D01*
X70480D01*
X61297Y-276815D02*
X58673D01*
X57361Y-275503D01*
Y-272879D01*
X58673Y-271568D01*
X61297D01*
X62608Y-272879D01*
Y-275503D01*
X61297Y-276815D01*
X49489Y-271568D02*
X53425D01*
X54737Y-272879D01*
Y-275503D01*
X53425Y-276815D01*
X49489D01*
X46866Y-271568D02*
Y-275503D01*
X45554Y-276815D01*
X41618D01*
Y-271568D01*
X38994Y-276815D02*
Y-271568D01*
X37682D01*
X36370Y-272879D01*
Y-276815D01*
Y-272879D01*
X35058Y-271568D01*
X33746Y-272879D01*
Y-276815D01*
X27187D02*
X29811D01*
X31123Y-275503D01*
Y-272879D01*
X29811Y-271568D01*
X27187D01*
X25875Y-272879D01*
Y-274191D01*
X31123D01*
X23251Y-276815D02*
Y-271568D01*
X19315D01*
X18003Y-272879D01*
Y-276815D01*
X14068Y-270256D02*
Y-271568D01*
X15380D01*
X12756D01*
X14068D01*
Y-275503D01*
X12756Y-276815D01*
X70480Y-308314D02*
Y-316185D01*
X65232D01*
X61297Y-310938D02*
X58673D01*
X57361Y-312249D01*
Y-316185D01*
X61297D01*
X62608Y-314873D01*
X61297Y-313561D01*
X57361D01*
X54737Y-310938D02*
Y-314873D01*
X53425Y-316185D01*
X49489D01*
Y-317497D01*
X50801Y-318809D01*
X52113D01*
X49489Y-316185D02*
Y-310938D01*
X42930Y-316185D02*
X45554D01*
X46866Y-314873D01*
Y-312249D01*
X45554Y-310938D01*
X42930D01*
X41618Y-312249D01*
Y-313561D01*
X46866D01*
X38994Y-310938D02*
Y-316185D01*
Y-313561D01*
X37682Y-312249D01*
X36370Y-310938D01*
X35058D01*
X23251Y-316185D02*
Y-308314D01*
X18003Y-316185D01*
Y-308314D01*
X14068Y-310938D02*
X11444D01*
X10132Y-312249D01*
Y-316185D01*
X14068D01*
X15380Y-314873D01*
X14068Y-313561D01*
X10132D01*
X7508Y-316185D02*
Y-310938D01*
X6196D01*
X4884Y-312249D01*
Y-316185D01*
Y-312249D01*
X3572Y-310938D01*
X2261Y-312249D01*
Y-316185D01*
X-4299D02*
X-1675D01*
X-363Y-314873D01*
Y-312249D01*
X-1675Y-310938D01*
X-4299D01*
X-5611Y-312249D01*
Y-313561D01*
X-363D01*
X70480Y-347684D02*
Y-355555D01*
X66544D01*
X65232Y-354243D01*
Y-348996D01*
X66544Y-347684D01*
X70480D01*
X61297Y-350308D02*
X58673D01*
X57361Y-351620D01*
Y-355555D01*
X61297D01*
X62608Y-354243D01*
X61297Y-352931D01*
X57361D01*
X53425Y-348996D02*
Y-350308D01*
X54737D01*
X52113D01*
X53425D01*
Y-354243D01*
X52113Y-355555D01*
X44242D02*
X46866D01*
X48177Y-354243D01*
Y-351620D01*
X46866Y-350308D01*
X44242D01*
X42930Y-351620D01*
Y-352931D01*
X48177D01*
X70480Y-387054D02*
Y-394925D01*
X66544D01*
X65232Y-393614D01*
Y-388366D01*
X66544Y-387054D01*
X70480D01*
X61297Y-394925D02*
X58673D01*
X57361Y-393614D01*
Y-390990D01*
X58673Y-389678D01*
X61297D01*
X62608Y-390990D01*
Y-393614D01*
X61297Y-394925D01*
X49489Y-389678D02*
X53425D01*
X54737Y-390990D01*
Y-393614D01*
X53425Y-394925D01*
X49489D01*
X46866Y-389678D02*
Y-393614D01*
X45554Y-394925D01*
X41618D01*
Y-389678D01*
X38994Y-394925D02*
Y-389678D01*
X37682D01*
X36370Y-390990D01*
Y-394925D01*
Y-390990D01*
X35058Y-389678D01*
X33746Y-390990D01*
Y-394925D01*
X27187D02*
X29811D01*
X31123Y-393614D01*
Y-390990D01*
X29811Y-389678D01*
X27187D01*
X25875Y-390990D01*
Y-392302D01*
X31123D01*
X23251Y-394925D02*
Y-389678D01*
X19315D01*
X18003Y-390990D01*
Y-394925D01*
X14068Y-388366D02*
Y-389678D01*
X15380D01*
X12756D01*
X14068D01*
Y-393614D01*
X12756Y-394925D01*
D39*
X-83063Y-383114D02*
Y-343744D01*
X74417Y-304374D02*
X-201173D01*
X74417Y-343744D02*
X-201173D01*
X271267Y-383114D02*
X-201173D01*
X271267Y-265004D02*
X-201173D01*
X271267Y-422484D02*
Y-265004D01*
X74417Y-422484D02*
Y-265004D01*
X1452370Y746807D02*
X-201173D01*
Y-422484D02*
Y746807D01*
X1452370Y-422484D02*
Y746807D01*
Y-422484D02*
X-201173D01*
X60639Y-408707D02*
X64574D01*
Y-414610D01*
X60639D01*
X64574Y-411659D02*
X62607D01*
X58671Y-408707D02*
Y-414610D01*
X55719D01*
X54735Y-413626D01*
Y-409691D01*
X55719Y-408707D01*
X58671D01*
X48832Y-409691D02*
X49815Y-408707D01*
X51783D01*
X52767Y-409691D01*
Y-413626D01*
X51783Y-414610D01*
X49815D01*
X48832Y-413626D01*
Y-411659D01*
X50799D01*
X46864Y-414610D02*
Y-410675D01*
X44896Y-408707D01*
X42928Y-410675D01*
Y-414610D01*
Y-411659D01*
X46864D01*
X40960Y-414610D02*
Y-408707D01*
X38008D01*
X37024Y-409691D01*
Y-411659D01*
X38008Y-412642D01*
X40960D01*
X38992D02*
X37024Y-414610D01*
X35056Y-415594D02*
X31121D01*
X29153Y-414610D02*
Y-408707D01*
X26201D01*
X25217Y-409691D01*
Y-411659D01*
X26201Y-412642D01*
X29153D01*
X22265Y-410675D02*
X20298D01*
X19314Y-411659D01*
Y-414610D01*
X22265D01*
X23249Y-413626D01*
X22265Y-412642D01*
X19314D01*
X17346Y-414610D02*
Y-410675D01*
X14394D01*
X13410Y-411659D01*
Y-414610D01*
X8490D02*
X10458D01*
X11442Y-413626D01*
Y-411659D01*
X10458Y-410675D01*
X8490D01*
X7506Y-411659D01*
Y-412642D01*
X11442D01*
X5539Y-414610D02*
X3571D01*
X4555D01*
Y-408707D01*
X5539D01*
X619Y-415594D02*
X-3317D01*
X-5285Y-409691D02*
X-6269Y-408707D01*
X-8237D01*
X-9221Y-409691D01*
Y-413626D01*
X-8237Y-414610D01*
X-6269D01*
X-5285Y-413626D01*
Y-409691D01*
X-11188D02*
X-12172Y-408707D01*
X-14140D01*
X-15124Y-409691D01*
Y-413626D01*
X-14140Y-414610D01*
X-12172D01*
X-11188Y-413626D01*
Y-409691D01*
X-17092Y-414610D02*
Y-413626D01*
X-18076D01*
Y-414610D01*
X-17092D01*
X-22012D02*
Y-408707D01*
X-24963D01*
X-25947Y-409691D01*
Y-411659D01*
X-24963Y-412642D01*
X-22012D01*
X-31851Y-410675D02*
X-28899D01*
X-27915Y-411659D01*
Y-413626D01*
X-28899Y-414610D01*
X-31851D01*
X-33819Y-408707D02*
Y-414610D01*
X-36771D01*
X-37755Y-413626D01*
Y-412642D01*
Y-411659D01*
X-36771Y-410675D01*
X-33819D01*
X-39722Y-408707D02*
Y-414610D01*
X-42674D01*
X-43658Y-413626D01*
Y-409691D01*
X-42674Y-408707D01*
X-39722D01*
X-46610Y-414610D02*
X-48578D01*
X-49562Y-413626D01*
Y-411659D01*
X-48578Y-410675D01*
X-46610D01*
X-45626Y-411659D01*
Y-413626D01*
X-46610Y-414610D01*
X-55465Y-410675D02*
X-52514D01*
X-51530Y-411659D01*
Y-413626D01*
X-52514Y-414610D01*
X-55465D01*
D48*
X1204739Y252953D02*
D03*
X1240566D02*
D03*
X1027574D02*
D03*
X1063401D02*
D03*
D49*
X1151590Y193307D02*
D03*
Y173622D02*
D03*
X974425Y193307D02*
D03*
Y173622D02*
D03*
D95*
X1102898Y149339D02*
D03*
X1116817Y163259D02*
D03*
X925733Y149339D02*
D03*
X939652Y163259D02*
D03*
M02*
